%TF.GenerationSoftware,KiCad,Pcbnew,10.0.3*%
%TF.CreationDate,2026-08-05T17:05:08+05:30*%
%TF.ProjectId,Digital_HUB,44696769-7461-46c5-9f48-55422e6b6963,V1.0*%
%TF.SameCoordinates,Original*%
%TF.FileFunction,Copper,L3,Inr*%
%TF.FilePolarity,Positive*%
%FSLAX46Y46*%
G04 Gerber Fmt 4.6, Leading zero omitted, Abs format (unit mm)*
G04 Created by KiCad (PCBNEW 10.0.3) date 2026-08-05 17:05:08*
%MOMM*%
%LPD*%
G01*
G04 APERTURE LIST*
%TA.AperFunction,ComponentPad*%
%ADD10C,0.650000*%
%TD*%
%TA.AperFunction,ComponentPad*%
%ADD11O,0.900000X1.700000*%
%TD*%
%TA.AperFunction,ComponentPad*%
%ADD12O,0.900000X2.400000*%
%TD*%
%TA.AperFunction,ComponentPad*%
%ADD13C,2.000000*%
%TD*%
%TA.AperFunction,ComponentPad*%
%ADD14O,2.500000X5.000000*%
%TD*%
%TA.AperFunction,ComponentPad*%
%ADD15O,2.250000X4.500000*%
%TD*%
%TA.AperFunction,ComponentPad*%
%ADD16O,4.500000X2.250000*%
%TD*%
%TA.AperFunction,ComponentPad*%
%ADD17R,1.508000X1.508000*%
%TD*%
%TA.AperFunction,ComponentPad*%
%ADD18C,1.508000*%
%TD*%
%TA.AperFunction,ComponentPad*%
%ADD19C,1.348000*%
%TD*%
%TA.AperFunction,ComponentPad*%
%ADD20C,1.428000*%
%TD*%
%TA.AperFunction,ComponentPad*%
%ADD21C,3.316000*%
%TD*%
%TA.AperFunction,ComponentPad*%
%ADD22C,0.600000*%
%TD*%
%TA.AperFunction,ViaPad*%
%ADD23C,0.600000*%
%TD*%
%TA.AperFunction,Conductor*%
%ADD24C,0.200000*%
%TD*%
%TA.AperFunction,Conductor*%
%ADD25C,0.600000*%
%TD*%
G04 APERTURE END LIST*
D10*
%TO.N,+RAW_USB_VBUS*%
%TO.C,J1*%
X86892191Y-68658546D03*
%TO.N,unconnected-(J1-DP1-PadA6)*%
X85192191Y-68658546D03*
%TO.N,GND*%
X87742191Y-68658546D03*
%TO.N,Net-(J1-CC1)*%
X86042191Y-68658546D03*
%TO.N,unconnected-(J1-DN1-PadA7)*%
X84342191Y-68658546D03*
%TO.N,unconnected-(J1-SBU1-PadA8)*%
X83492191Y-68658546D03*
%TO.N,+RAW_USB_VBUS*%
X82642191Y-68658546D03*
%TO.N,GND*%
X81792191Y-68658546D03*
X81792191Y-67308546D03*
%TO.N,+RAW_USB_VBUS*%
X82642191Y-67308546D03*
%TO.N,Net-(J1-CC2)*%
X83492191Y-67308546D03*
%TO.N,unconnected-(J1-DP2-PadB6)*%
X84342191Y-67308546D03*
%TO.N,unconnected-(J1-DN2-PadB7)*%
X85192191Y-67308546D03*
%TO.N,unconnected-(J1-SBU2-PadB8)*%
X86042191Y-67308546D03*
%TO.N,+RAW_USB_VBUS*%
X86892191Y-67308546D03*
%TO.N,GND*%
X87742191Y-67308546D03*
D11*
X89092191Y-64298546D03*
X80442191Y-64298546D03*
D12*
X89092191Y-67678546D03*
X80442191Y-67678546D03*
%TD*%
D13*
%TO.N,GND*%
%TO.C,SW1*%
X187272191Y-138648546D03*
X180772191Y-138648546D03*
%TO.N,Net-(U6-GPIO2)*%
X187272191Y-134148546D03*
X180772191Y-134148546D03*
%TD*%
D14*
%TO.N,+9V_OUTPUT*%
%TO.C,J3*%
X217952191Y-97318546D03*
D15*
%TO.N,GND*%
X223952191Y-97318546D03*
D16*
X220952191Y-92618546D03*
%TD*%
D17*
%TO.N,+5V_LOGIC*%
%TO.C,DS1*%
X196582191Y-126018546D03*
D18*
%TO.N,GND*%
X196582191Y-123478546D03*
%TO.N,I2C_SCL*%
X196582191Y-120938546D03*
%TO.N,I2C_SDA*%
X196582191Y-118398546D03*
%TD*%
D19*
%TO.N,CUTOFF_12V*%
%TO.C,U6*%
X189662191Y-111288546D03*
%TO.N,CUTOFF_9V*%
X187122191Y-111288546D03*
%TO.N,Net-(U6-GPIO2)*%
X184582191Y-111288546D03*
%TO.N,unconnected-(U6-GPIO3-Pad3)*%
X182042191Y-111288546D03*
%TO.N,+3V3_REF*%
X176962191Y-111288546D03*
%TO.N,unconnected-(U6-GPIO4-Pad4)*%
X179502191Y-111288546D03*
%TO.N,unconnected-(U6-GPIO5-Pad5)*%
X171882191Y-126528546D03*
%TO.N,+5V_LOGIC*%
X171882191Y-111288546D03*
%TO.N,unconnected-(U6-GPIO6-Pad6)*%
X174422191Y-126528546D03*
%TO.N,unconnected-(U6-GPIO7-Pad7)*%
X176962191Y-126528546D03*
%TO.N,I2C_SDA*%
X179502191Y-126528546D03*
%TO.N,I2C_SCL*%
X182042191Y-126528546D03*
%TO.N,unconnected-(U6-GPIO10-Pad10)*%
X184582191Y-126528546D03*
%TO.N,unconnected-(U6-GPIO20-Pad20)*%
X187122191Y-126528546D03*
%TO.N,unconnected-(U6-GPIO21-Pad21)*%
X189662191Y-126528546D03*
%TO.N,GND*%
X174422191Y-111288546D03*
%TD*%
D20*
%TO.N,+VBUS_TYPE_A*%
%TO.C,J5*%
X75153181Y-131686714D03*
%TO.N,USB_A_DM*%
X77653181Y-131686714D03*
%TO.N,USB_A_DP*%
X79653181Y-131686714D03*
%TO.N,GND*%
X82153181Y-131686714D03*
D21*
X72083181Y-134396714D03*
X85223181Y-134396714D03*
%TD*%
D14*
%TO.N,+12V_OUTPUT*%
%TO.C,J2*%
X217952191Y-78268546D03*
D15*
%TO.N,GND*%
X223952191Y-78268546D03*
D16*
X220952191Y-73568546D03*
%TD*%
D10*
%TO.N,GND*%
%TO.C,J4*%
X98625000Y-136138546D03*
%TO.N,+VBUS_TYPE_C*%
X99475000Y-136138546D03*
%TO.N,USB_C_CC1*%
X100325000Y-136138546D03*
%TO.N,USB_C_DP*%
X101175000Y-136138546D03*
%TO.N,USB_C_DM*%
X102025000Y-136138546D03*
%TO.N,unconnected-(J4-SBU1-PadA8)*%
X102875000Y-136138546D03*
%TO.N,+VBUS_TYPE_C*%
X103725000Y-136138546D03*
%TO.N,GND*%
X104575000Y-136138546D03*
X104575000Y-137488546D03*
%TO.N,+VBUS_TYPE_C*%
X103725000Y-137488546D03*
%TO.N,USB_C_CC2*%
X102875000Y-137488546D03*
%TO.N,USB_C_DP*%
X102025000Y-137488546D03*
%TO.N,USB_C_DM*%
X101175000Y-137488546D03*
%TO.N,unconnected-(J4-SBU2-PadB8)*%
X100325000Y-137488546D03*
%TO.N,+VBUS_TYPE_C*%
X99475000Y-137488546D03*
%TO.N,GND*%
X98625000Y-137488546D03*
D11*
X97275000Y-140498546D03*
X105925000Y-140498546D03*
D12*
X97275000Y-137118546D03*
X105925000Y-137118546D03*
%TD*%
D22*
%TO.N,+RAW_USB_VBUS*%
%TO.C,U2*%
X112399691Y-72878546D03*
X112399691Y-73828546D03*
X113499691Y-72878546D03*
X113499691Y-73828546D03*
X114599691Y-72878546D03*
X114599691Y-73828546D03*
%TO.N,GND*%
X112399691Y-74903546D03*
X113499691Y-74903546D03*
X114599691Y-74903546D03*
%TD*%
D23*
%TO.N,GND*%
X154940000Y-72390000D03*
X133291527Y-76990415D03*
X105016090Y-100706547D03*
X116143139Y-74903569D03*
X153245795Y-105029570D03*
X145937608Y-97517006D03*
X133158112Y-107416265D03*
X115809615Y-79473669D03*
X213877247Y-72698469D03*
X153405389Y-89193957D03*
X116516248Y-108114438D03*
X174615325Y-78385251D03*
X131375884Y-69697911D03*
X107081228Y-97577755D03*
X100250020Y-74828251D03*
X112798282Y-80112216D03*
X128097997Y-86115859D03*
X152144464Y-104967796D03*
X154488600Y-90037044D03*
X128469766Y-70176822D03*
X131628502Y-100103928D03*
X145915920Y-106716361D03*
X103668989Y-85283899D03*
X154316669Y-105658270D03*
X146355313Y-81407118D03*
X128324502Y-100926300D03*
X97120000Y-104641947D03*
X114323935Y-108671797D03*
X112747489Y-77050090D03*
X133268057Y-85919941D03*
X115979172Y-92369601D03*
X114213246Y-80061423D03*
X115646431Y-108697069D03*
X135632484Y-102917406D03*
X212604696Y-91851153D03*
X114249691Y-76481333D03*
X114935000Y-89535000D03*
X197499592Y-91762821D03*
X145981226Y-112822473D03*
X152404342Y-71628135D03*
X146355313Y-75333660D03*
X136186760Y-72887021D03*
X214031646Y-91695351D03*
X197434571Y-72723986D03*
X108648572Y-100745096D03*
X135929997Y-88413411D03*
X152138008Y-89236550D03*
X133254094Y-92230828D03*
X102096726Y-107889925D03*
X110914583Y-74462256D03*
X173200361Y-85884557D03*
X174519867Y-97417669D03*
X101127570Y-95243026D03*
X102235000Y-101600000D03*
X97499751Y-69287562D03*
X153870098Y-71609264D03*
X145908584Y-90884818D03*
X99848587Y-85839000D03*
X214820718Y-72886586D03*
X171062398Y-103958794D03*
%TO.N,+12V_SUPPLY*%
X144145000Y-76200000D03*
X126365000Y-74295000D03*
%TO.N,Net-(U6-GPIO2)*%
X181610000Y-109220000D03*
%TO.N,+5V_LOGIC*%
X125730000Y-104775000D03*
X143510000Y-109855000D03*
X154940000Y-118110000D03*
%TO.N,I2C_SCL*%
X183649320Y-129039320D03*
X176606475Y-85162762D03*
X100023200Y-99277754D03*
X176530000Y-104140000D03*
%TO.N,+3V3_REF*%
X180657137Y-128405088D03*
X176301390Y-99018213D03*
X176315780Y-79846734D03*
X179070000Y-109220000D03*
X177571428Y-128209170D03*
X173215682Y-104993713D03*
%TO.N,+VBUS_TYPE_A*%
X76389266Y-125119263D03*
X108585000Y-102235000D03*
%TO.N,Net-(Q8-G)*%
X75565000Y-125095000D03*
X98889619Y-100625381D03*
%TO.N,Net-(SW2-CSNA)*%
X105020394Y-103889019D03*
X81280000Y-129540000D03*
%TO.N,+9V_SUPPLY*%
X143510000Y-93345000D03*
X126365000Y-90170000D03*
%TO.N,CUTOFF_12V*%
X194233063Y-75193110D03*
%TO.N,+VBUS_OUT_1*%
X105068957Y-123901270D03*
X81856627Y-121342727D03*
X105026193Y-102870000D03*
X103595702Y-104453804D03*
%TO.N,Net-(J1-CC2)*%
X93702449Y-67342653D03*
%TO.N,Net-(J1-CC1)*%
X93679188Y-68601768D03*
%TO.N,I2C_SDA*%
X174701716Y-85989972D03*
X179502191Y-129972191D03*
X174675997Y-104938385D03*
X100965000Y-98928760D03*
%TO.N,CUTOFF_9V*%
X193498370Y-94197159D03*
%TO.N,Net-(SW2-CSNC)*%
X104454706Y-104454706D03*
X105410000Y-132080000D03*
%TO.N,USB_A_DM*%
X79438572Y-129838092D03*
X99063709Y-103239299D03*
%TO.N,USB_A_DP*%
X98952120Y-102419364D03*
%TO.N,+VBUS_TYPE_C*%
X100330000Y-129540000D03*
X102870000Y-110490000D03*
%TO.N,Net-(Q7-G)*%
X99548012Y-129328164D03*
X99535738Y-100034908D03*
%TO.N,USB_C_CC2*%
X100847290Y-103896060D03*
%TO.N,USB_C_CC1*%
X100123707Y-104237282D03*
%TO.N,USB_C_DP*%
X101663223Y-104818043D03*
%TO.N,USB_C_DM*%
X102840652Y-105439348D03*
%TO.N,Net-(SW2-BST)*%
X103686193Y-99169182D03*
X99060000Y-97790000D03*
%TO.N,Net-(Q5-G)*%
X100330000Y-92710000D03*
X103505000Y-90805000D03*
%TD*%
%TO.N,+12V_SUPPLY*%
D24*
X144145000Y-76200000D02*
X142240000Y-74295000D01*
X142240000Y-74295000D02*
X126365000Y-74295000D01*
%TO.N,Net-(U6-GPIO2)*%
X184582191Y-111288546D02*
X182513645Y-109220000D01*
X182513645Y-109220000D02*
X181610000Y-109220000D01*
X183608191Y-128149662D02*
X180772191Y-130985662D01*
X181610000Y-109220000D02*
X181610000Y-109206355D01*
X180772191Y-134148546D02*
X187272191Y-134148546D01*
X184582191Y-111288546D02*
X183608191Y-112262546D01*
X180772191Y-130985662D02*
X180772191Y-134148546D01*
X183608191Y-112262546D02*
X183608191Y-128149662D01*
%TO.N,+5V_LOGIC*%
X188106191Y-135448546D02*
X177358546Y-135448546D01*
X168910000Y-127000000D02*
X168910000Y-114260737D01*
X196582191Y-126018546D02*
X196582191Y-126972546D01*
X130810000Y-109855000D02*
X125730000Y-104775000D01*
X171882191Y-111288546D02*
X165060737Y-118110000D01*
X196582191Y-126972546D02*
X188106191Y-135448546D01*
X177358546Y-135448546D02*
X168910000Y-127000000D01*
X165060737Y-118110000D02*
X154940000Y-118110000D01*
X143510000Y-109855000D02*
X130810000Y-109855000D01*
X168910000Y-114260737D02*
X171882191Y-111288546D01*
%TO.N,+3V3_REF*%
X176962191Y-111288546D02*
X173187082Y-107513437D01*
X177936191Y-112262546D02*
X177936191Y-127844407D01*
X176962191Y-111288546D02*
X177936191Y-112262546D01*
X176962191Y-111288546D02*
X179030737Y-109220000D01*
X173187082Y-107513437D02*
X173176680Y-107513437D01*
X173176680Y-105032715D02*
X173215682Y-104993713D01*
X173215682Y-104993713D02*
X173215682Y-102103921D01*
X173176680Y-107513437D02*
X173176680Y-105032715D01*
X177571428Y-128209170D02*
X180461219Y-128209170D01*
X175360737Y-98077560D02*
X175360737Y-80801777D01*
X173215682Y-102103921D02*
X176301390Y-99018213D01*
X179030737Y-109220000D02*
X179070000Y-109220000D01*
X175360737Y-80801777D02*
X176315780Y-79846734D01*
X180461219Y-128209170D02*
X180657137Y-128405088D01*
X176301390Y-99018213D02*
X175360737Y-98077560D01*
X177936191Y-127844407D02*
X177571428Y-128209170D01*
%TO.N,+VBUS_TYPE_A*%
X76389266Y-125119263D02*
X76389266Y-130450629D01*
X74965000Y-119345000D02*
X74965000Y-124117621D01*
X108585000Y-102235000D02*
X102870000Y-96520000D01*
X76389266Y-130450629D02*
X75153181Y-131686714D01*
X97790000Y-96520000D02*
X74965000Y-119345000D01*
X74965000Y-124117621D02*
X74965000Y-125343529D01*
X102870000Y-96520000D02*
X97790000Y-96520000D01*
X74965000Y-125343529D02*
X75316471Y-125695000D01*
X75316471Y-125695000D02*
X75813529Y-125695000D01*
X75813529Y-125695000D02*
X76389266Y-125119263D01*
%TO.N,Net-(Q8-G)*%
X98764619Y-100625381D02*
X75565000Y-123825000D01*
X98889619Y-100625381D02*
X98764619Y-100625381D01*
X75565000Y-123825000D02*
X75565000Y-125095000D01*
%TO.N,+9V_SUPPLY*%
X140335000Y-90170000D02*
X126365000Y-90170000D01*
X143510000Y-93345000D02*
X140335000Y-90170000D01*
%TO.N,CUTOFF_12V*%
X194310000Y-75270047D02*
X194233063Y-75193110D01*
X189662191Y-111288546D02*
X194310000Y-106640737D01*
X194310000Y-106640737D02*
X194310000Y-75270047D01*
%TO.N,Net-(J1-CC2)*%
X83492191Y-67308546D02*
X83492191Y-66848927D01*
X83492191Y-66848927D02*
X84162572Y-66178546D01*
X84162572Y-66178546D02*
X92538342Y-66178546D01*
X92538342Y-66178546D02*
X93702449Y-67342653D01*
%TO.N,Net-(J1-CC1)*%
X86774026Y-69850000D02*
X92430956Y-69850000D01*
X92430956Y-69850000D02*
X93679188Y-68601768D01*
X86042191Y-68658546D02*
X86042191Y-69118165D01*
X86042191Y-69118165D02*
X86774026Y-69850000D01*
%TO.N,CUTOFF_9V*%
X187122191Y-111288546D02*
X193498370Y-104912367D01*
X193498370Y-104912367D02*
X193498370Y-94197159D01*
%TO.N,+VBUS_TYPE_C*%
X99475000Y-130395000D02*
X99475000Y-136138546D01*
X100330000Y-113030000D02*
X100330000Y-129540000D01*
X102870000Y-110490000D02*
X100330000Y-113030000D01*
X100330000Y-129540000D02*
X99475000Y-130395000D01*
%TO.N,Net-(Q7-G)*%
X100330000Y-103182460D02*
X99523707Y-103988753D01*
X99523707Y-103988753D02*
X99523707Y-129303859D01*
X99523707Y-129303859D02*
X99548012Y-129328164D01*
X99535738Y-100034908D02*
X99535738Y-100342952D01*
X99535738Y-100342952D02*
X100330000Y-101137214D01*
X100330000Y-101137214D02*
X100330000Y-103182460D01*
%TO.N,USB_C_CC2*%
X106675000Y-138179206D02*
X106235660Y-138618546D01*
X106675000Y-111053984D02*
X106675000Y-138179206D01*
X100847290Y-103896060D02*
X100847290Y-105226274D01*
X103545381Y-138618546D02*
X102875000Y-137948165D01*
X102875000Y-137948165D02*
X102875000Y-137488546D01*
X106235660Y-138618546D02*
X103545381Y-138618546D01*
X100847290Y-105226274D02*
X106675000Y-111053984D01*
%TO.N,USB_C_CC1*%
X100123707Y-105068377D02*
X106275000Y-111219670D01*
X106275000Y-111219670D02*
X106275000Y-133350000D01*
X100325000Y-135678927D02*
X100325000Y-136138546D01*
X100123707Y-104237282D02*
X100123707Y-105068377D01*
X105005000Y-134620000D02*
X101383927Y-134620000D01*
X106275000Y-133350000D02*
X105005000Y-134620000D01*
X101383927Y-134620000D02*
X100325000Y-135678927D01*
%TO.N,Net-(SW2-BST)*%
D25*
X102307011Y-97790000D02*
X99060000Y-97790000D01*
X103686193Y-99169182D02*
X102307011Y-97790000D01*
%TO.N,Net-(Q5-G)*%
D24*
X101410000Y-92710000D02*
X100330000Y-92710000D01*
X103315000Y-90805000D02*
X102140000Y-91980000D01*
X102140000Y-91980000D02*
X101410000Y-92710000D01*
X103505000Y-90805000D02*
X103315000Y-90805000D01*
%TD*%
M02*
