M48
; DRILL file KiCad 10.0.3 date 2026-08-05T17:07:40
; FORMAT={-:-/ absolute / metric / decimal}
; #@! TF.CreationDate,2026-08-05T17:07:40+05:30
; #@! TF.GenerationSoftware,Kicad,Pcbnew,10.0.3
; #@! TF.FileFunction,MixedPlating,1,4
FMAT,2
METRIC
; #@! TA.AperFunction,Plated,PTH,ViaDrill
T1C0.300
; #@! TA.AperFunction,Plated,PTH,ComponentDrill
T2C0.300
; #@! TA.AperFunction,Plated,PTH,ComponentDrill
T3C0.400
; #@! TA.AperFunction,Plated,PTH,ComponentDrill
T4C0.600
; #@! TA.AperFunction,Plated,PTH,ComponentDrill
T5C0.840
; #@! TA.AperFunction,Plated,PTH,ComponentDrill
T6C0.920
; #@! TA.AperFunction,Plated,PTH,ComponentDrill
T7C1.000
; #@! TA.AperFunction,Plated,PTH,ComponentDrill
T8C1.100
; #@! TA.AperFunction,Plated,PTH,ComponentDrill
T9C2.300
; #@! TA.AperFunction,NonPlated,NPTH,ComponentDrill
T10C3.000
%
G90
G05
T1
X75.565Y-125.095
X76.389Y-125.119
X79.439Y-129.838
X81.28Y-129.54
X81.857Y-121.343
X93.679Y-68.602
X93.702Y-67.343
X97.12Y-104.642
X97.5Y-69.288
X98.89Y-100.625
X98.952Y-102.419
X99.06Y-97.79
X99.064Y-103.239
X99.536Y-100.035
X99.548Y-129.328
X99.849Y-85.839
X100.023Y-99.278
X100.124Y-104.237
X100.25Y-74.828
X100.33Y-92.71
X100.33Y-129.54
X100.847Y-103.896
X100.965Y-98.929
X101.128Y-95.243
X101.663Y-104.818
X102.097Y-107.89
X102.235Y-101.6
X102.841Y-105.439
X102.87Y-110.49
X103.505Y-90.805
X103.596Y-104.454
X103.669Y-85.284
X103.686Y-99.169
X104.455Y-104.455
X105.016Y-100.707
X105.02Y-103.889
X105.026Y-102.87
X105.069Y-123.901
X105.41Y-132.08
X107.081Y-97.578
X108.585Y-102.235
X108.649Y-100.745
X110.915Y-74.462
X112.747Y-77.05
X112.798Y-80.112
X114.213Y-80.061
X114.25Y-76.481
X114.324Y-108.672
X114.935Y-89.535
X115.646Y-108.697
X115.81Y-79.474
X115.979Y-92.37
X116.143Y-74.904
X116.516Y-108.114
X125.73Y-104.775
X126.365Y-74.295
X126.365Y-90.17
X128.098Y-86.116
X128.325Y-100.926
X128.47Y-70.177
X131.376Y-69.698
X131.629Y-100.104
X133.158Y-107.416
X133.254Y-92.231
X133.268Y-85.92
X133.292Y-76.99
X135.632Y-102.917
X135.93Y-88.413
X136.187Y-72.887
X143.51Y-93.345
X143.51Y-109.855
X144.145Y-76.2
X145.909Y-90.885
X145.916Y-106.716
X145.938Y-97.517
X145.981Y-112.822
X146.355Y-75.334
X146.355Y-81.407
X152.138Y-89.237
X152.144Y-104.968
X152.404Y-71.628
X153.246Y-105.03
X153.405Y-89.194
X153.87Y-71.609
X154.317Y-105.658
X154.489Y-90.037
X154.94Y-72.39
X154.94Y-118.11
X171.062Y-103.959
X173.2Y-85.885
X173.216Y-104.994
X174.52Y-97.418
X174.615Y-78.385
X174.676Y-104.938
X174.702Y-85.99
X176.301Y-99.018
X176.316Y-79.847
X176.53Y-104.14
X176.606Y-85.163
X177.571Y-128.209
X179.07Y-109.22
X179.502Y-129.972
X180.657Y-128.405
X181.61Y-109.22
X183.649Y-129.039
X193.498Y-94.197
X194.233Y-75.193
X197.435Y-72.724
X197.5Y-91.763
X212.605Y-91.851
X213.877Y-72.698
X214.032Y-91.695
X214.821Y-72.887
T2
X112.4Y-72.879
X112.4Y-73.829
X112.4Y-74.904
X113.5Y-72.879
X113.5Y-73.829
X113.5Y-74.904
X114.6Y-72.879
X114.6Y-73.829
X114.6Y-74.904
T3
X81.792Y-67.309
X81.792Y-68.659
X82.642Y-67.309
X82.642Y-68.659
X83.492Y-67.309
X83.492Y-68.659
X84.342Y-67.309
X84.342Y-68.659
X85.192Y-67.309
X85.192Y-68.659
X86.042Y-67.309
X86.042Y-68.659
X86.892Y-67.309
X86.892Y-68.659
X87.742Y-67.309
X87.742Y-68.659
X98.625Y-136.139
X98.625Y-137.489
X99.475Y-136.139
X99.475Y-137.489
X100.325Y-136.139
X100.325Y-137.489
X101.175Y-136.139
X101.175Y-137.489
X102.025Y-136.139
X102.025Y-137.489
X102.875Y-136.139
X102.875Y-137.489
X103.725Y-136.139
X103.725Y-137.489
X104.575Y-136.139
X104.575Y-137.489
T5
X171.882Y-111.289
X171.882Y-126.529
X174.422Y-111.289
X174.422Y-126.529
X176.962Y-111.289
X176.962Y-126.529
X179.502Y-111.289
X179.502Y-126.529
X182.042Y-111.289
X182.042Y-126.529
X184.582Y-111.289
X184.582Y-126.529
X187.122Y-111.289
X187.122Y-126.529
X189.662Y-111.289
X189.662Y-126.529
T6
X75.153Y-131.687
X77.653Y-131.687
X79.653Y-131.687
X82.153Y-131.687
T7
X196.582Y-118.399
X196.582Y-120.939
X196.582Y-123.479
X196.582Y-126.019
T8
X180.772Y-134.149
X180.772Y-138.649
X187.272Y-134.149
X187.272Y-138.649
T9
X72.083Y-134.397
X85.223Y-134.397
T10
X197.282Y-106.459
X197.282Y-137.959
X226.982Y-106.459
X226.982Y-137.959
T4
G00X80.442Y-64.699
M15
G01X80.442Y-63.899
M16
G05
G00X80.442Y-68.429
M15
G01X80.442Y-66.929
M16
G05
G00X89.092Y-64.699
M15
G01X89.092Y-63.899
M16
G05
G00X89.092Y-68.429
M15
G01X89.092Y-66.929
M16
G05
G00X97.275Y-136.369
M15
G01X97.275Y-137.869
M16
G05
G00X97.275Y-140.099
M15
G01X97.275Y-140.899
M16
G05
G00X105.925Y-136.369
M15
G01X105.925Y-137.869
M16
G05
G00X105.925Y-140.099
M15
G01X105.925Y-140.899
M16
G05
T7
G00X217.952Y-77.019
M15
G01X217.952Y-79.519
M16
G05
G00X217.952Y-96.069
M15
G01X217.952Y-98.569
M16
G05
G00X219.952Y-73.569
M15
G01X221.952Y-73.569
M16
G05
G00X219.952Y-92.619
M15
G01X221.952Y-92.619
M16
G05
G00X223.952Y-77.269
M15
G01X223.952Y-79.269
M16
G05
G00X223.952Y-96.319
M15
G01X223.952Y-98.319
M16
G05
M30
