%TF.GenerationSoftware,KiCad,Pcbnew,10.0.3*%
%TF.CreationDate,2026-08-05T17:05:08+05:30*%
%TF.ProjectId,Digital_HUB,44696769-7461-46c5-9f48-55422e6b6963,V1.0*%
%TF.SameCoordinates,Original*%
%TF.FileFunction,Legend,Top*%
%TF.FilePolarity,Positive*%
%FSLAX46Y46*%
G04 Gerber Fmt 4.6, Leading zero omitted, Abs format (unit mm)*
G04 Created by KiCad (PCBNEW 10.0.3) date 2026-08-05 17:05:08*
%MOMM*%
%LPD*%
G01*
G04 APERTURE LIST*
G04 Aperture macros list*
%AMRoundRect*
0 Rectangle with rounded corners*
0 $1 Rounding radius*
0 $2 $3 $4 $5 $6 $7 $8 $9 X,Y pos of 4 corners*
0 Add a 4 corners polygon primitive as box body*
4,1,4,$2,$3,$4,$5,$6,$7,$8,$9,$2,$3,0*
0 Add four circle primitives for the rounded corners*
1,1,$1+$1,$2,$3*
1,1,$1+$1,$4,$5*
1,1,$1+$1,$6,$7*
1,1,$1+$1,$8,$9*
0 Add four rect primitives between the rounded corners*
20,1,$1+$1,$2,$3,$4,$5,0*
20,1,$1+$1,$4,$5,$6,$7,0*
20,1,$1+$1,$6,$7,$8,$9,0*
20,1,$1+$1,$8,$9,$2,$3,0*%
G04 Aperture macros list end*
%ADD10C,0.150000*%
%ADD11C,0.200000*%
%ADD12C,0.120000*%
%ADD13C,0.127000*%
%ADD14C,0.400000*%
%ADD15C,0.203200*%
%ADD16C,0.010000*%
%ADD17C,0.854000*%
%ADD18O,1.104000X1.904000*%
%ADD19O,1.104000X2.604000*%
%ADD20RoundRect,0.200000X-0.275000X0.200000X-0.275000X-0.200000X0.275000X-0.200000X0.275000X0.200000X0*%
%ADD21RoundRect,0.250000X0.362500X1.425000X-0.362500X1.425000X-0.362500X-1.425000X0.362500X-1.425000X0*%
%ADD22RoundRect,0.225000X-0.250000X0.225000X-0.250000X-0.225000X0.250000X-0.225000X0.250000X0.225000X0*%
%ADD23C,2.000000*%
%ADD24RoundRect,0.225000X0.250000X-0.225000X0.250000X0.225000X-0.250000X0.225000X-0.250000X-0.225000X0*%
%ADD25RoundRect,0.250000X1.000000X-1.950000X1.000000X1.950000X-1.000000X1.950000X-1.000000X-1.950000X0*%
%ADD26RoundRect,0.225000X-0.225000X-0.250000X0.225000X-0.250000X0.225000X0.250000X-0.225000X0.250000X0*%
%ADD27O,2.704000X5.204000*%
%ADD28O,2.454000X4.704000*%
%ADD29O,4.704000X2.454000*%
%ADD30RoundRect,0.102000X-1.475000X-1.750000X1.475000X-1.750000X1.475000X1.750000X-1.475000X1.750000X0*%
%ADD31RoundRect,0.102000X0.500000X0.800000X-0.500000X0.800000X-0.500000X-0.800000X0.500000X-0.800000X0*%
%ADD32RoundRect,0.102000X2.700000X3.100000X-2.700000X3.100000X-2.700000X-3.100000X2.700000X-3.100000X0*%
%ADD33RoundRect,0.200000X0.200000X0.275000X-0.200000X0.275000X-0.200000X-0.275000X0.200000X-0.275000X0*%
%ADD34RoundRect,0.200000X-0.200000X-0.275000X0.200000X-0.275000X0.200000X0.275000X-0.200000X0.275000X0*%
%ADD35RoundRect,0.225000X0.225000X0.250000X-0.225000X0.250000X-0.225000X-0.250000X0.225000X-0.250000X0*%
%ADD36RoundRect,0.102000X-0.175000X0.250000X-0.175000X-0.250000X0.175000X-0.250000X0.175000X0.250000X0*%
%ADD37RoundRect,0.200000X0.275000X-0.200000X0.275000X0.200000X-0.275000X0.200000X-0.275000X-0.200000X0*%
%ADD38RoundRect,0.102000X0.175000X-0.250000X0.175000X0.250000X-0.175000X0.250000X-0.175000X-0.250000X0*%
%ADD39RoundRect,0.106750X0.320250X-0.495250X0.320250X0.495250X-0.320250X0.495250X-0.320250X-0.495250X0*%
%ADD40RoundRect,0.099250X0.627750X0.297750X-0.627750X0.297750X-0.627750X-0.297750X0.627750X-0.297750X0*%
%ADD41RoundRect,0.250000X1.425000X-0.362500X1.425000X0.362500X-1.425000X0.362500X-1.425000X-0.362500X0*%
%ADD42RoundRect,0.150000X0.687500X0.150000X-0.687500X0.150000X-0.687500X-0.150000X0.687500X-0.150000X0*%
%ADD43R,2.100000X3.300000*%
%ADD44C,3.000000*%
%ADD45RoundRect,0.102000X0.754000X-0.754000X0.754000X0.754000X-0.754000X0.754000X-0.754000X-0.754000X0*%
%ADD46C,1.712000*%
%ADD47C,1.552000*%
%ADD48RoundRect,0.250000X-1.000000X1.950000X-1.000000X-1.950000X1.000000X-1.950000X1.000000X1.950000X0*%
%ADD49RoundRect,0.102000X0.750000X-1.060000X0.750000X1.060000X-0.750000X1.060000X-0.750000X-1.060000X0*%
%ADD50C,1.632000*%
%ADD51C,3.520000*%
%ADD52R,0.200000X0.660000*%
%ADD53R,0.660000X0.200000*%
%ADD54R,2.700000X2.700000*%
%ADD55RoundRect,0.100500X0.301500X-0.986500X0.301500X0.986500X-0.301500X0.986500X-0.301500X-0.986500X0*%
%ADD56RoundRect,0.066600X-0.322900X-0.155400X0.322900X-0.155400X0.322900X0.155400X-0.322900X0.155400X0*%
%ADD57RoundRect,0.066600X-0.155400X-0.322900X0.155400X-0.322900X0.155400X0.322900X-0.155400X0.322900X0*%
%ADD58RoundRect,0.082700X-1.369300X-0.744300X1.369300X-0.744300X1.369300X0.744300X-1.369300X0.744300X0*%
%ADD59RoundRect,0.052700X-1.399300X-0.474300X1.399300X-0.474300X1.399300X0.474300X-1.399300X0.474300X0*%
G04 APERTURE END LIST*
D10*
X85188857Y-70103365D02*
X85188857Y-70817650D01*
X85188857Y-70817650D02*
X85141238Y-70960507D01*
X85141238Y-70960507D02*
X85046000Y-71055746D01*
X85046000Y-71055746D02*
X84903143Y-71103365D01*
X84903143Y-71103365D02*
X84807905Y-71103365D01*
X86188857Y-71103365D02*
X85617429Y-71103365D01*
X85903143Y-71103365D02*
X85903143Y-70103365D01*
X85903143Y-70103365D02*
X85807905Y-70246222D01*
X85807905Y-70246222D02*
X85712667Y-70341460D01*
X85712667Y-70341460D02*
X85617429Y-70389079D01*
X115164496Y-81425707D02*
X114688305Y-81759040D01*
X115164496Y-81997135D02*
X114164496Y-81997135D01*
X114164496Y-81997135D02*
X114164496Y-81616183D01*
X114164496Y-81616183D02*
X114212115Y-81520945D01*
X114212115Y-81520945D02*
X114259734Y-81473326D01*
X114259734Y-81473326D02*
X114354972Y-81425707D01*
X114354972Y-81425707D02*
X114497829Y-81425707D01*
X114497829Y-81425707D02*
X114593067Y-81473326D01*
X114593067Y-81473326D02*
X114640686Y-81520945D01*
X114640686Y-81520945D02*
X114688305Y-81616183D01*
X114688305Y-81616183D02*
X114688305Y-81997135D01*
X114164496Y-81092373D02*
X114164496Y-80473326D01*
X114164496Y-80473326D02*
X114545448Y-80806659D01*
X114545448Y-80806659D02*
X114545448Y-80663802D01*
X114545448Y-80663802D02*
X114593067Y-80568564D01*
X114593067Y-80568564D02*
X114640686Y-80520945D01*
X114640686Y-80520945D02*
X114735924Y-80473326D01*
X114735924Y-80473326D02*
X114974019Y-80473326D01*
X114974019Y-80473326D02*
X115069257Y-80520945D01*
X115069257Y-80520945D02*
X115116877Y-80568564D01*
X115116877Y-80568564D02*
X115164496Y-80663802D01*
X115164496Y-80663802D02*
X115164496Y-80949516D01*
X115164496Y-80949516D02*
X115116877Y-81044754D01*
X115116877Y-81044754D02*
X115069257Y-81092373D01*
X171660026Y-72209819D02*
X171326693Y-71733628D01*
X171088598Y-72209819D02*
X171088598Y-71209819D01*
X171088598Y-71209819D02*
X171469550Y-71209819D01*
X171469550Y-71209819D02*
X171564788Y-71257438D01*
X171564788Y-71257438D02*
X171612407Y-71305057D01*
X171612407Y-71305057D02*
X171660026Y-71400295D01*
X171660026Y-71400295D02*
X171660026Y-71543152D01*
X171660026Y-71543152D02*
X171612407Y-71638390D01*
X171612407Y-71638390D02*
X171564788Y-71686009D01*
X171564788Y-71686009D02*
X171469550Y-71733628D01*
X171469550Y-71733628D02*
X171088598Y-71733628D01*
X172612407Y-72209819D02*
X172040979Y-72209819D01*
X172326693Y-72209819D02*
X172326693Y-71209819D01*
X172326693Y-71209819D02*
X172231455Y-71352676D01*
X172231455Y-71352676D02*
X172136217Y-71447914D01*
X172136217Y-71447914D02*
X172040979Y-71495533D01*
X173469550Y-71209819D02*
X173279074Y-71209819D01*
X173279074Y-71209819D02*
X173183836Y-71257438D01*
X173183836Y-71257438D02*
X173136217Y-71305057D01*
X173136217Y-71305057D02*
X173040979Y-71447914D01*
X173040979Y-71447914D02*
X172993360Y-71638390D01*
X172993360Y-71638390D02*
X172993360Y-72019342D01*
X172993360Y-72019342D02*
X173040979Y-72114580D01*
X173040979Y-72114580D02*
X173088598Y-72162200D01*
X173088598Y-72162200D02*
X173183836Y-72209819D01*
X173183836Y-72209819D02*
X173374312Y-72209819D01*
X173374312Y-72209819D02*
X173469550Y-72162200D01*
X173469550Y-72162200D02*
X173517169Y-72114580D01*
X173517169Y-72114580D02*
X173564788Y-72019342D01*
X173564788Y-72019342D02*
X173564788Y-71781247D01*
X173564788Y-71781247D02*
X173517169Y-71686009D01*
X173517169Y-71686009D02*
X173469550Y-71638390D01*
X173469550Y-71638390D02*
X173374312Y-71590771D01*
X173374312Y-71590771D02*
X173183836Y-71590771D01*
X173183836Y-71590771D02*
X173088598Y-71638390D01*
X173088598Y-71638390D02*
X173040979Y-71686009D01*
X173040979Y-71686009D02*
X172993360Y-71781247D01*
X132015811Y-85138434D02*
X131968192Y-85186054D01*
X131968192Y-85186054D02*
X131825335Y-85233673D01*
X131825335Y-85233673D02*
X131730097Y-85233673D01*
X131730097Y-85233673D02*
X131587240Y-85186054D01*
X131587240Y-85186054D02*
X131492002Y-85090815D01*
X131492002Y-85090815D02*
X131444383Y-84995577D01*
X131444383Y-84995577D02*
X131396764Y-84805101D01*
X131396764Y-84805101D02*
X131396764Y-84662244D01*
X131396764Y-84662244D02*
X131444383Y-84471768D01*
X131444383Y-84471768D02*
X131492002Y-84376530D01*
X131492002Y-84376530D02*
X131587240Y-84281292D01*
X131587240Y-84281292D02*
X131730097Y-84233673D01*
X131730097Y-84233673D02*
X131825335Y-84233673D01*
X131825335Y-84233673D02*
X131968192Y-84281292D01*
X131968192Y-84281292D02*
X132015811Y-84328911D01*
X132968192Y-85233673D02*
X132396764Y-85233673D01*
X132682478Y-85233673D02*
X132682478Y-84233673D01*
X132682478Y-84233673D02*
X132587240Y-84376530D01*
X132587240Y-84376530D02*
X132492002Y-84471768D01*
X132492002Y-84471768D02*
X132396764Y-84519387D01*
X133587240Y-84233673D02*
X133682478Y-84233673D01*
X133682478Y-84233673D02*
X133777716Y-84281292D01*
X133777716Y-84281292D02*
X133825335Y-84328911D01*
X133825335Y-84328911D02*
X133872954Y-84424149D01*
X133872954Y-84424149D02*
X133920573Y-84614625D01*
X133920573Y-84614625D02*
X133920573Y-84852720D01*
X133920573Y-84852720D02*
X133872954Y-85043196D01*
X133872954Y-85043196D02*
X133825335Y-85138434D01*
X133825335Y-85138434D02*
X133777716Y-85186054D01*
X133777716Y-85186054D02*
X133682478Y-85233673D01*
X133682478Y-85233673D02*
X133587240Y-85233673D01*
X133587240Y-85233673D02*
X133492002Y-85186054D01*
X133492002Y-85186054D02*
X133444383Y-85138434D01*
X133444383Y-85138434D02*
X133396764Y-85043196D01*
X133396764Y-85043196D02*
X133349145Y-84852720D01*
X133349145Y-84852720D02*
X133349145Y-84614625D01*
X133349145Y-84614625D02*
X133396764Y-84424149D01*
X133396764Y-84424149D02*
X133444383Y-84328911D01*
X133444383Y-84328911D02*
X133492002Y-84281292D01*
X133492002Y-84281292D02*
X133587240Y-84233673D01*
X175628858Y-138365746D02*
X175771715Y-138413365D01*
X175771715Y-138413365D02*
X176009810Y-138413365D01*
X176009810Y-138413365D02*
X176105048Y-138365746D01*
X176105048Y-138365746D02*
X176152667Y-138318126D01*
X176152667Y-138318126D02*
X176200286Y-138222888D01*
X176200286Y-138222888D02*
X176200286Y-138127650D01*
X176200286Y-138127650D02*
X176152667Y-138032412D01*
X176152667Y-138032412D02*
X176105048Y-137984793D01*
X176105048Y-137984793D02*
X176009810Y-137937174D01*
X176009810Y-137937174D02*
X175819334Y-137889555D01*
X175819334Y-137889555D02*
X175724096Y-137841936D01*
X175724096Y-137841936D02*
X175676477Y-137794317D01*
X175676477Y-137794317D02*
X175628858Y-137699079D01*
X175628858Y-137699079D02*
X175628858Y-137603841D01*
X175628858Y-137603841D02*
X175676477Y-137508603D01*
X175676477Y-137508603D02*
X175724096Y-137460984D01*
X175724096Y-137460984D02*
X175819334Y-137413365D01*
X175819334Y-137413365D02*
X176057429Y-137413365D01*
X176057429Y-137413365D02*
X176200286Y-137460984D01*
X176533620Y-137413365D02*
X176771715Y-138413365D01*
X176771715Y-138413365D02*
X176962191Y-137699079D01*
X176962191Y-137699079D02*
X177152667Y-138413365D01*
X177152667Y-138413365D02*
X177390763Y-137413365D01*
X178295524Y-138413365D02*
X177724096Y-138413365D01*
X178009810Y-138413365D02*
X178009810Y-137413365D01*
X178009810Y-137413365D02*
X177914572Y-137556222D01*
X177914572Y-137556222D02*
X177819334Y-137651460D01*
X177819334Y-137651460D02*
X177724096Y-137699079D01*
X145989271Y-83570212D02*
X146036891Y-83617831D01*
X146036891Y-83617831D02*
X146084510Y-83760688D01*
X146084510Y-83760688D02*
X146084510Y-83855926D01*
X146084510Y-83855926D02*
X146036891Y-83998783D01*
X146036891Y-83998783D02*
X145941652Y-84094021D01*
X145941652Y-84094021D02*
X145846414Y-84141640D01*
X145846414Y-84141640D02*
X145655938Y-84189259D01*
X145655938Y-84189259D02*
X145513081Y-84189259D01*
X145513081Y-84189259D02*
X145322605Y-84141640D01*
X145322605Y-84141640D02*
X145227367Y-84094021D01*
X145227367Y-84094021D02*
X145132129Y-83998783D01*
X145132129Y-83998783D02*
X145084510Y-83855926D01*
X145084510Y-83855926D02*
X145084510Y-83760688D01*
X145084510Y-83760688D02*
X145132129Y-83617831D01*
X145132129Y-83617831D02*
X145179748Y-83570212D01*
X145084510Y-83236878D02*
X145084510Y-82570212D01*
X145084510Y-82570212D02*
X146084510Y-82998783D01*
X145571771Y-115741403D02*
X145619391Y-115789022D01*
X145619391Y-115789022D02*
X145667010Y-115931879D01*
X145667010Y-115931879D02*
X145667010Y-116027117D01*
X145667010Y-116027117D02*
X145619391Y-116169974D01*
X145619391Y-116169974D02*
X145524152Y-116265212D01*
X145524152Y-116265212D02*
X145428914Y-116312831D01*
X145428914Y-116312831D02*
X145238438Y-116360450D01*
X145238438Y-116360450D02*
X145095581Y-116360450D01*
X145095581Y-116360450D02*
X144905105Y-116312831D01*
X144905105Y-116312831D02*
X144809867Y-116265212D01*
X144809867Y-116265212D02*
X144714629Y-116169974D01*
X144714629Y-116169974D02*
X144667010Y-116027117D01*
X144667010Y-116027117D02*
X144667010Y-115931879D01*
X144667010Y-115931879D02*
X144714629Y-115789022D01*
X144714629Y-115789022D02*
X144762248Y-115741403D01*
X144762248Y-115360450D02*
X144714629Y-115312831D01*
X144714629Y-115312831D02*
X144667010Y-115217593D01*
X144667010Y-115217593D02*
X144667010Y-114979498D01*
X144667010Y-114979498D02*
X144714629Y-114884260D01*
X144714629Y-114884260D02*
X144762248Y-114836641D01*
X144762248Y-114836641D02*
X144857486Y-114789022D01*
X144857486Y-114789022D02*
X144952724Y-114789022D01*
X144952724Y-114789022D02*
X145095581Y-114836641D01*
X145095581Y-114836641D02*
X145667010Y-115408069D01*
X145667010Y-115408069D02*
X145667010Y-114789022D01*
X144667010Y-114169974D02*
X144667010Y-114074736D01*
X144667010Y-114074736D02*
X144714629Y-113979498D01*
X144714629Y-113979498D02*
X144762248Y-113931879D01*
X144762248Y-113931879D02*
X144857486Y-113884260D01*
X144857486Y-113884260D02*
X145047962Y-113836641D01*
X145047962Y-113836641D02*
X145286057Y-113836641D01*
X145286057Y-113836641D02*
X145476533Y-113884260D01*
X145476533Y-113884260D02*
X145571771Y-113931879D01*
X145571771Y-113931879D02*
X145619391Y-113979498D01*
X145619391Y-113979498D02*
X145667010Y-114074736D01*
X145667010Y-114074736D02*
X145667010Y-114169974D01*
X145667010Y-114169974D02*
X145619391Y-114265212D01*
X145619391Y-114265212D02*
X145571771Y-114312831D01*
X145571771Y-114312831D02*
X145476533Y-114360450D01*
X145476533Y-114360450D02*
X145286057Y-114408069D01*
X145286057Y-114408069D02*
X145047962Y-114408069D01*
X145047962Y-114408069D02*
X144857486Y-114360450D01*
X144857486Y-114360450D02*
X144762248Y-114312831D01*
X144762248Y-114312831D02*
X144714629Y-114265212D01*
X144714629Y-114265212D02*
X144667010Y-114169974D01*
X130935097Y-99580700D02*
X130887478Y-99628320D01*
X130887478Y-99628320D02*
X130744621Y-99675939D01*
X130744621Y-99675939D02*
X130649383Y-99675939D01*
X130649383Y-99675939D02*
X130506526Y-99628320D01*
X130506526Y-99628320D02*
X130411288Y-99533081D01*
X130411288Y-99533081D02*
X130363669Y-99437843D01*
X130363669Y-99437843D02*
X130316050Y-99247367D01*
X130316050Y-99247367D02*
X130316050Y-99104510D01*
X130316050Y-99104510D02*
X130363669Y-98914034D01*
X130363669Y-98914034D02*
X130411288Y-98818796D01*
X130411288Y-98818796D02*
X130506526Y-98723558D01*
X130506526Y-98723558D02*
X130649383Y-98675939D01*
X130649383Y-98675939D02*
X130744621Y-98675939D01*
X130744621Y-98675939D02*
X130887478Y-98723558D01*
X130887478Y-98723558D02*
X130935097Y-98771177D01*
X131887478Y-99675939D02*
X131316050Y-99675939D01*
X131601764Y-99675939D02*
X131601764Y-98675939D01*
X131601764Y-98675939D02*
X131506526Y-98818796D01*
X131506526Y-98818796D02*
X131411288Y-98914034D01*
X131411288Y-98914034D02*
X131316050Y-98961653D01*
X132744621Y-98675939D02*
X132554145Y-98675939D01*
X132554145Y-98675939D02*
X132458907Y-98723558D01*
X132458907Y-98723558D02*
X132411288Y-98771177D01*
X132411288Y-98771177D02*
X132316050Y-98914034D01*
X132316050Y-98914034D02*
X132268431Y-99104510D01*
X132268431Y-99104510D02*
X132268431Y-99485462D01*
X132268431Y-99485462D02*
X132316050Y-99580700D01*
X132316050Y-99580700D02*
X132363669Y-99628320D01*
X132363669Y-99628320D02*
X132458907Y-99675939D01*
X132458907Y-99675939D02*
X132649383Y-99675939D01*
X132649383Y-99675939D02*
X132744621Y-99628320D01*
X132744621Y-99628320D02*
X132792240Y-99580700D01*
X132792240Y-99580700D02*
X132839859Y-99485462D01*
X132839859Y-99485462D02*
X132839859Y-99247367D01*
X132839859Y-99247367D02*
X132792240Y-99152129D01*
X132792240Y-99152129D02*
X132744621Y-99104510D01*
X132744621Y-99104510D02*
X132649383Y-99056891D01*
X132649383Y-99056891D02*
X132458907Y-99056891D01*
X132458907Y-99056891D02*
X132363669Y-99104510D01*
X132363669Y-99104510D02*
X132316050Y-99152129D01*
X132316050Y-99152129D02*
X132268431Y-99247367D01*
X159959271Y-78490212D02*
X160006891Y-78537831D01*
X160006891Y-78537831D02*
X160054510Y-78680688D01*
X160054510Y-78680688D02*
X160054510Y-78775926D01*
X160054510Y-78775926D02*
X160006891Y-78918783D01*
X160006891Y-78918783D02*
X159911652Y-79014021D01*
X159911652Y-79014021D02*
X159816414Y-79061640D01*
X159816414Y-79061640D02*
X159625938Y-79109259D01*
X159625938Y-79109259D02*
X159483081Y-79109259D01*
X159483081Y-79109259D02*
X159292605Y-79061640D01*
X159292605Y-79061640D02*
X159197367Y-79014021D01*
X159197367Y-79014021D02*
X159102129Y-78918783D01*
X159102129Y-78918783D02*
X159054510Y-78775926D01*
X159054510Y-78775926D02*
X159054510Y-78680688D01*
X159054510Y-78680688D02*
X159102129Y-78537831D01*
X159102129Y-78537831D02*
X159149748Y-78490212D01*
X160054510Y-78014021D02*
X160054510Y-77823545D01*
X160054510Y-77823545D02*
X160006891Y-77728307D01*
X160006891Y-77728307D02*
X159959271Y-77680688D01*
X159959271Y-77680688D02*
X159816414Y-77585450D01*
X159816414Y-77585450D02*
X159625938Y-77537831D01*
X159625938Y-77537831D02*
X159244986Y-77537831D01*
X159244986Y-77537831D02*
X159149748Y-77585450D01*
X159149748Y-77585450D02*
X159102129Y-77633069D01*
X159102129Y-77633069D02*
X159054510Y-77728307D01*
X159054510Y-77728307D02*
X159054510Y-77918783D01*
X159054510Y-77918783D02*
X159102129Y-78014021D01*
X159102129Y-78014021D02*
X159149748Y-78061640D01*
X159149748Y-78061640D02*
X159244986Y-78109259D01*
X159244986Y-78109259D02*
X159483081Y-78109259D01*
X159483081Y-78109259D02*
X159578319Y-78061640D01*
X159578319Y-78061640D02*
X159625938Y-78014021D01*
X159625938Y-78014021D02*
X159673557Y-77918783D01*
X159673557Y-77918783D02*
X159673557Y-77728307D01*
X159673557Y-77728307D02*
X159625938Y-77633069D01*
X159625938Y-77633069D02*
X159578319Y-77585450D01*
X159578319Y-77585450D02*
X159483081Y-77537831D01*
X128738333Y-78683126D02*
X128690714Y-78730746D01*
X128690714Y-78730746D02*
X128547857Y-78778365D01*
X128547857Y-78778365D02*
X128452619Y-78778365D01*
X128452619Y-78778365D02*
X128309762Y-78730746D01*
X128309762Y-78730746D02*
X128214524Y-78635507D01*
X128214524Y-78635507D02*
X128166905Y-78540269D01*
X128166905Y-78540269D02*
X128119286Y-78349793D01*
X128119286Y-78349793D02*
X128119286Y-78206936D01*
X128119286Y-78206936D02*
X128166905Y-78016460D01*
X128166905Y-78016460D02*
X128214524Y-77921222D01*
X128214524Y-77921222D02*
X128309762Y-77825984D01*
X128309762Y-77825984D02*
X128452619Y-77778365D01*
X128452619Y-77778365D02*
X128547857Y-77778365D01*
X128547857Y-77778365D02*
X128690714Y-77825984D01*
X128690714Y-77825984D02*
X128738333Y-77873603D01*
X129595476Y-77778365D02*
X129405000Y-77778365D01*
X129405000Y-77778365D02*
X129309762Y-77825984D01*
X129309762Y-77825984D02*
X129262143Y-77873603D01*
X129262143Y-77873603D02*
X129166905Y-78016460D01*
X129166905Y-78016460D02*
X129119286Y-78206936D01*
X129119286Y-78206936D02*
X129119286Y-78587888D01*
X129119286Y-78587888D02*
X129166905Y-78683126D01*
X129166905Y-78683126D02*
X129214524Y-78730746D01*
X129214524Y-78730746D02*
X129309762Y-78778365D01*
X129309762Y-78778365D02*
X129500238Y-78778365D01*
X129500238Y-78778365D02*
X129595476Y-78730746D01*
X129595476Y-78730746D02*
X129643095Y-78683126D01*
X129643095Y-78683126D02*
X129690714Y-78587888D01*
X129690714Y-78587888D02*
X129690714Y-78349793D01*
X129690714Y-78349793D02*
X129643095Y-78254555D01*
X129643095Y-78254555D02*
X129595476Y-78206936D01*
X129595476Y-78206936D02*
X129500238Y-78159317D01*
X129500238Y-78159317D02*
X129309762Y-78159317D01*
X129309762Y-78159317D02*
X129214524Y-78206936D01*
X129214524Y-78206936D02*
X129166905Y-78254555D01*
X129166905Y-78254555D02*
X129119286Y-78349793D01*
X220011651Y-90008020D02*
X220011651Y-90722339D01*
X220011651Y-90722339D02*
X219964029Y-90865203D01*
X219964029Y-90865203D02*
X219868787Y-90960446D01*
X219868787Y-90960446D02*
X219725923Y-91008067D01*
X219725923Y-91008067D02*
X219630680Y-91008067D01*
X220392621Y-90008020D02*
X221011698Y-90008020D01*
X221011698Y-90008020D02*
X220678349Y-90388990D01*
X220678349Y-90388990D02*
X220821213Y-90388990D01*
X220821213Y-90388990D02*
X220916456Y-90436611D01*
X220916456Y-90436611D02*
X220964077Y-90484233D01*
X220964077Y-90484233D02*
X221011698Y-90579475D01*
X221011698Y-90579475D02*
X221011698Y-90817582D01*
X221011698Y-90817582D02*
X220964077Y-90912824D01*
X220964077Y-90912824D02*
X220916456Y-90960446D01*
X220916456Y-90960446D02*
X220821213Y-91008067D01*
X220821213Y-91008067D02*
X220535485Y-91008067D01*
X220535485Y-91008067D02*
X220440243Y-90960446D01*
X220440243Y-90960446D02*
X220392621Y-90912824D01*
X139298024Y-83639819D02*
X138821834Y-83639819D01*
X138821834Y-83639819D02*
X138821834Y-82639819D01*
X140155167Y-83639819D02*
X139583739Y-83639819D01*
X139869453Y-83639819D02*
X139869453Y-82639819D01*
X139869453Y-82639819D02*
X139774215Y-82782676D01*
X139774215Y-82782676D02*
X139678977Y-82877914D01*
X139678977Y-82877914D02*
X139583739Y-82925533D01*
X97677276Y-100743931D02*
X97201085Y-101077264D01*
X97677276Y-101315359D02*
X96677276Y-101315359D01*
X96677276Y-101315359D02*
X96677276Y-100934407D01*
X96677276Y-100934407D02*
X96724895Y-100839169D01*
X96724895Y-100839169D02*
X96772514Y-100791550D01*
X96772514Y-100791550D02*
X96867752Y-100743931D01*
X96867752Y-100743931D02*
X97010609Y-100743931D01*
X97010609Y-100743931D02*
X97105847Y-100791550D01*
X97105847Y-100791550D02*
X97153466Y-100839169D01*
X97153466Y-100839169D02*
X97201085Y-100934407D01*
X97201085Y-100934407D02*
X97201085Y-101315359D01*
X96772514Y-100362978D02*
X96724895Y-100315359D01*
X96724895Y-100315359D02*
X96677276Y-100220121D01*
X96677276Y-100220121D02*
X96677276Y-99982026D01*
X96677276Y-99982026D02*
X96724895Y-99886788D01*
X96724895Y-99886788D02*
X96772514Y-99839169D01*
X96772514Y-99839169D02*
X96867752Y-99791550D01*
X96867752Y-99791550D02*
X96962990Y-99791550D01*
X96962990Y-99791550D02*
X97105847Y-99839169D01*
X97105847Y-99839169D02*
X97677276Y-100410597D01*
X97677276Y-100410597D02*
X97677276Y-99791550D01*
X97010609Y-98934407D02*
X97677276Y-98934407D01*
X96629657Y-99172502D02*
X97343942Y-99410597D01*
X97343942Y-99410597D02*
X97343942Y-98791550D01*
X98851980Y-87913269D02*
X98899600Y-87960888D01*
X98899600Y-87960888D02*
X98947219Y-88103745D01*
X98947219Y-88103745D02*
X98947219Y-88198983D01*
X98947219Y-88198983D02*
X98899600Y-88341840D01*
X98899600Y-88341840D02*
X98804361Y-88437078D01*
X98804361Y-88437078D02*
X98709123Y-88484697D01*
X98709123Y-88484697D02*
X98518647Y-88532316D01*
X98518647Y-88532316D02*
X98375790Y-88532316D01*
X98375790Y-88532316D02*
X98185314Y-88484697D01*
X98185314Y-88484697D02*
X98090076Y-88437078D01*
X98090076Y-88437078D02*
X97994838Y-88341840D01*
X97994838Y-88341840D02*
X97947219Y-88198983D01*
X97947219Y-88198983D02*
X97947219Y-88103745D01*
X97947219Y-88103745D02*
X97994838Y-87960888D01*
X97994838Y-87960888D02*
X98042457Y-87913269D01*
X98042457Y-87532316D02*
X97994838Y-87484697D01*
X97994838Y-87484697D02*
X97947219Y-87389459D01*
X97947219Y-87389459D02*
X97947219Y-87151364D01*
X97947219Y-87151364D02*
X97994838Y-87056126D01*
X97994838Y-87056126D02*
X98042457Y-87008507D01*
X98042457Y-87008507D02*
X98137695Y-86960888D01*
X98137695Y-86960888D02*
X98232933Y-86960888D01*
X98232933Y-86960888D02*
X98375790Y-87008507D01*
X98375790Y-87008507D02*
X98947219Y-87579935D01*
X98947219Y-87579935D02*
X98947219Y-86960888D01*
X98280552Y-86103745D02*
X98947219Y-86103745D01*
X97899600Y-86341840D02*
X98613885Y-86579935D01*
X98613885Y-86579935D02*
X98613885Y-85960888D01*
X138898333Y-115389819D02*
X138422143Y-115389819D01*
X138422143Y-115389819D02*
X138422143Y-114389819D01*
X139136429Y-114389819D02*
X139755476Y-114389819D01*
X139755476Y-114389819D02*
X139422143Y-114770771D01*
X139422143Y-114770771D02*
X139565000Y-114770771D01*
X139565000Y-114770771D02*
X139660238Y-114818390D01*
X139660238Y-114818390D02*
X139707857Y-114866009D01*
X139707857Y-114866009D02*
X139755476Y-114961247D01*
X139755476Y-114961247D02*
X139755476Y-115199342D01*
X139755476Y-115199342D02*
X139707857Y-115294580D01*
X139707857Y-115294580D02*
X139660238Y-115342200D01*
X139660238Y-115342200D02*
X139565000Y-115389819D01*
X139565000Y-115389819D02*
X139279286Y-115389819D01*
X139279286Y-115389819D02*
X139184048Y-115342200D01*
X139184048Y-115342200D02*
X139136429Y-115294580D01*
X189769761Y-80443603D02*
X189674523Y-80395984D01*
X189674523Y-80395984D02*
X189579285Y-80300746D01*
X189579285Y-80300746D02*
X189436428Y-80157888D01*
X189436428Y-80157888D02*
X189341190Y-80110269D01*
X189341190Y-80110269D02*
X189245952Y-80110269D01*
X189293571Y-80348365D02*
X189198333Y-80300746D01*
X189198333Y-80300746D02*
X189103095Y-80205507D01*
X189103095Y-80205507D02*
X189055476Y-80015031D01*
X189055476Y-80015031D02*
X189055476Y-79681698D01*
X189055476Y-79681698D02*
X189103095Y-79491222D01*
X189103095Y-79491222D02*
X189198333Y-79395984D01*
X189198333Y-79395984D02*
X189293571Y-79348365D01*
X189293571Y-79348365D02*
X189484047Y-79348365D01*
X189484047Y-79348365D02*
X189579285Y-79395984D01*
X189579285Y-79395984D02*
X189674523Y-79491222D01*
X189674523Y-79491222D02*
X189722142Y-79681698D01*
X189722142Y-79681698D02*
X189722142Y-80015031D01*
X189722142Y-80015031D02*
X189674523Y-80205507D01*
X189674523Y-80205507D02*
X189579285Y-80300746D01*
X189579285Y-80300746D02*
X189484047Y-80348365D01*
X189484047Y-80348365D02*
X189293571Y-80348365D01*
X190674523Y-80348365D02*
X190103095Y-80348365D01*
X190388809Y-80348365D02*
X190388809Y-79348365D01*
X190388809Y-79348365D02*
X190293571Y-79491222D01*
X190293571Y-79491222D02*
X190198333Y-79586460D01*
X190198333Y-79586460D02*
X190103095Y-79634079D01*
X183939333Y-130793365D02*
X183606000Y-130317174D01*
X183367905Y-130793365D02*
X183367905Y-129793365D01*
X183367905Y-129793365D02*
X183748857Y-129793365D01*
X183748857Y-129793365D02*
X183844095Y-129840984D01*
X183844095Y-129840984D02*
X183891714Y-129888603D01*
X183891714Y-129888603D02*
X183939333Y-129983841D01*
X183939333Y-129983841D02*
X183939333Y-130126698D01*
X183939333Y-130126698D02*
X183891714Y-130221936D01*
X183891714Y-130221936D02*
X183844095Y-130269555D01*
X183844095Y-130269555D02*
X183748857Y-130317174D01*
X183748857Y-130317174D02*
X183367905Y-130317174D01*
X184891714Y-130793365D02*
X184320286Y-130793365D01*
X184606000Y-130793365D02*
X184606000Y-129793365D01*
X184606000Y-129793365D02*
X184510762Y-129936222D01*
X184510762Y-129936222D02*
X184415524Y-130031460D01*
X184415524Y-130031460D02*
X184320286Y-130079079D01*
X185748857Y-130126698D02*
X185748857Y-130793365D01*
X185510762Y-129745746D02*
X185272667Y-130460031D01*
X185272667Y-130460031D02*
X185891714Y-130460031D01*
X123658333Y-92148365D02*
X123325000Y-91672174D01*
X123086905Y-92148365D02*
X123086905Y-91148365D01*
X123086905Y-91148365D02*
X123467857Y-91148365D01*
X123467857Y-91148365D02*
X123563095Y-91195984D01*
X123563095Y-91195984D02*
X123610714Y-91243603D01*
X123610714Y-91243603D02*
X123658333Y-91338841D01*
X123658333Y-91338841D02*
X123658333Y-91481698D01*
X123658333Y-91481698D02*
X123610714Y-91576936D01*
X123610714Y-91576936D02*
X123563095Y-91624555D01*
X123563095Y-91624555D02*
X123467857Y-91672174D01*
X123467857Y-91672174D02*
X123086905Y-91672174D01*
X124229762Y-91576936D02*
X124134524Y-91529317D01*
X124134524Y-91529317D02*
X124086905Y-91481698D01*
X124086905Y-91481698D02*
X124039286Y-91386460D01*
X124039286Y-91386460D02*
X124039286Y-91338841D01*
X124039286Y-91338841D02*
X124086905Y-91243603D01*
X124086905Y-91243603D02*
X124134524Y-91195984D01*
X124134524Y-91195984D02*
X124229762Y-91148365D01*
X124229762Y-91148365D02*
X124420238Y-91148365D01*
X124420238Y-91148365D02*
X124515476Y-91195984D01*
X124515476Y-91195984D02*
X124563095Y-91243603D01*
X124563095Y-91243603D02*
X124610714Y-91338841D01*
X124610714Y-91338841D02*
X124610714Y-91386460D01*
X124610714Y-91386460D02*
X124563095Y-91481698D01*
X124563095Y-91481698D02*
X124515476Y-91529317D01*
X124515476Y-91529317D02*
X124420238Y-91576936D01*
X124420238Y-91576936D02*
X124229762Y-91576936D01*
X124229762Y-91576936D02*
X124134524Y-91624555D01*
X124134524Y-91624555D02*
X124086905Y-91672174D01*
X124086905Y-91672174D02*
X124039286Y-91767412D01*
X124039286Y-91767412D02*
X124039286Y-91957888D01*
X124039286Y-91957888D02*
X124086905Y-92053126D01*
X124086905Y-92053126D02*
X124134524Y-92100746D01*
X124134524Y-92100746D02*
X124229762Y-92148365D01*
X124229762Y-92148365D02*
X124420238Y-92148365D01*
X124420238Y-92148365D02*
X124515476Y-92100746D01*
X124515476Y-92100746D02*
X124563095Y-92053126D01*
X124563095Y-92053126D02*
X124610714Y-91957888D01*
X124610714Y-91957888D02*
X124610714Y-91767412D01*
X124610714Y-91767412D02*
X124563095Y-91672174D01*
X124563095Y-91672174D02*
X124515476Y-91624555D01*
X124515476Y-91624555D02*
X124420238Y-91576936D01*
X126478024Y-85638365D02*
X126144691Y-85162174D01*
X125906596Y-85638365D02*
X125906596Y-84638365D01*
X125906596Y-84638365D02*
X126287548Y-84638365D01*
X126287548Y-84638365D02*
X126382786Y-84685984D01*
X126382786Y-84685984D02*
X126430405Y-84733603D01*
X126430405Y-84733603D02*
X126478024Y-84828841D01*
X126478024Y-84828841D02*
X126478024Y-84971698D01*
X126478024Y-84971698D02*
X126430405Y-85066936D01*
X126430405Y-85066936D02*
X126382786Y-85114555D01*
X126382786Y-85114555D02*
X126287548Y-85162174D01*
X126287548Y-85162174D02*
X125906596Y-85162174D01*
X126811358Y-84638365D02*
X127478024Y-84638365D01*
X127478024Y-84638365D02*
X127049453Y-85638365D01*
X136949333Y-104028126D02*
X136901714Y-104075746D01*
X136901714Y-104075746D02*
X136758857Y-104123365D01*
X136758857Y-104123365D02*
X136663619Y-104123365D01*
X136663619Y-104123365D02*
X136520762Y-104075746D01*
X136520762Y-104075746D02*
X136425524Y-103980507D01*
X136425524Y-103980507D02*
X136377905Y-103885269D01*
X136377905Y-103885269D02*
X136330286Y-103694793D01*
X136330286Y-103694793D02*
X136330286Y-103551936D01*
X136330286Y-103551936D02*
X136377905Y-103361460D01*
X136377905Y-103361460D02*
X136425524Y-103266222D01*
X136425524Y-103266222D02*
X136520762Y-103170984D01*
X136520762Y-103170984D02*
X136663619Y-103123365D01*
X136663619Y-103123365D02*
X136758857Y-103123365D01*
X136758857Y-103123365D02*
X136901714Y-103170984D01*
X136901714Y-103170984D02*
X136949333Y-103218603D01*
X137901714Y-104123365D02*
X137330286Y-104123365D01*
X137616000Y-104123365D02*
X137616000Y-103123365D01*
X137616000Y-103123365D02*
X137520762Y-103266222D01*
X137520762Y-103266222D02*
X137425524Y-103361460D01*
X137425524Y-103361460D02*
X137330286Y-103409079D01*
X138235048Y-103123365D02*
X138901714Y-103123365D01*
X138901714Y-103123365D02*
X138473143Y-104123365D01*
X74642248Y-128046833D02*
X74594629Y-128142071D01*
X74594629Y-128142071D02*
X74499391Y-128237309D01*
X74499391Y-128237309D02*
X74356533Y-128380166D01*
X74356533Y-128380166D02*
X74308914Y-128475404D01*
X74308914Y-128475404D02*
X74308914Y-128570642D01*
X74547010Y-128523023D02*
X74499391Y-128618261D01*
X74499391Y-128618261D02*
X74404152Y-128713499D01*
X74404152Y-128713499D02*
X74213676Y-128761118D01*
X74213676Y-128761118D02*
X73880343Y-128761118D01*
X73880343Y-128761118D02*
X73689867Y-128713499D01*
X73689867Y-128713499D02*
X73594629Y-128618261D01*
X73594629Y-128618261D02*
X73547010Y-128523023D01*
X73547010Y-128523023D02*
X73547010Y-128332547D01*
X73547010Y-128332547D02*
X73594629Y-128237309D01*
X73594629Y-128237309D02*
X73689867Y-128142071D01*
X73689867Y-128142071D02*
X73880343Y-128094452D01*
X73880343Y-128094452D02*
X74213676Y-128094452D01*
X74213676Y-128094452D02*
X74404152Y-128142071D01*
X74404152Y-128142071D02*
X74499391Y-128237309D01*
X74499391Y-128237309D02*
X74547010Y-128332547D01*
X74547010Y-128332547D02*
X74547010Y-128523023D01*
X73975581Y-127523023D02*
X73927962Y-127618261D01*
X73927962Y-127618261D02*
X73880343Y-127665880D01*
X73880343Y-127665880D02*
X73785105Y-127713499D01*
X73785105Y-127713499D02*
X73737486Y-127713499D01*
X73737486Y-127713499D02*
X73642248Y-127665880D01*
X73642248Y-127665880D02*
X73594629Y-127618261D01*
X73594629Y-127618261D02*
X73547010Y-127523023D01*
X73547010Y-127523023D02*
X73547010Y-127332547D01*
X73547010Y-127332547D02*
X73594629Y-127237309D01*
X73594629Y-127237309D02*
X73642248Y-127189690D01*
X73642248Y-127189690D02*
X73737486Y-127142071D01*
X73737486Y-127142071D02*
X73785105Y-127142071D01*
X73785105Y-127142071D02*
X73880343Y-127189690D01*
X73880343Y-127189690D02*
X73927962Y-127237309D01*
X73927962Y-127237309D02*
X73975581Y-127332547D01*
X73975581Y-127332547D02*
X73975581Y-127523023D01*
X73975581Y-127523023D02*
X74023200Y-127618261D01*
X74023200Y-127618261D02*
X74070819Y-127665880D01*
X74070819Y-127665880D02*
X74166057Y-127713499D01*
X74166057Y-127713499D02*
X74356533Y-127713499D01*
X74356533Y-127713499D02*
X74451771Y-127665880D01*
X74451771Y-127665880D02*
X74499391Y-127618261D01*
X74499391Y-127618261D02*
X74547010Y-127523023D01*
X74547010Y-127523023D02*
X74547010Y-127332547D01*
X74547010Y-127332547D02*
X74499391Y-127237309D01*
X74499391Y-127237309D02*
X74451771Y-127189690D01*
X74451771Y-127189690D02*
X74356533Y-127142071D01*
X74356533Y-127142071D02*
X74166057Y-127142071D01*
X74166057Y-127142071D02*
X74070819Y-127189690D01*
X74070819Y-127189690D02*
X74023200Y-127237309D01*
X74023200Y-127237309D02*
X73975581Y-127332547D01*
X145609271Y-99956403D02*
X145656891Y-100004022D01*
X145656891Y-100004022D02*
X145704510Y-100146879D01*
X145704510Y-100146879D02*
X145704510Y-100242117D01*
X145704510Y-100242117D02*
X145656891Y-100384974D01*
X145656891Y-100384974D02*
X145561652Y-100480212D01*
X145561652Y-100480212D02*
X145466414Y-100527831D01*
X145466414Y-100527831D02*
X145275938Y-100575450D01*
X145275938Y-100575450D02*
X145133081Y-100575450D01*
X145133081Y-100575450D02*
X144942605Y-100527831D01*
X144942605Y-100527831D02*
X144847367Y-100480212D01*
X144847367Y-100480212D02*
X144752129Y-100384974D01*
X144752129Y-100384974D02*
X144704510Y-100242117D01*
X144704510Y-100242117D02*
X144704510Y-100146879D01*
X144704510Y-100146879D02*
X144752129Y-100004022D01*
X144752129Y-100004022D02*
X144799748Y-99956403D01*
X145704510Y-99004022D02*
X145704510Y-99575450D01*
X145704510Y-99289736D02*
X144704510Y-99289736D01*
X144704510Y-99289736D02*
X144847367Y-99384974D01*
X144847367Y-99384974D02*
X144942605Y-99480212D01*
X144942605Y-99480212D02*
X144990224Y-99575450D01*
X145037843Y-98146879D02*
X145704510Y-98146879D01*
X144656891Y-98384974D02*
X145371176Y-98623069D01*
X145371176Y-98623069D02*
X145371176Y-98004022D01*
X127627142Y-109108126D02*
X127579523Y-109155746D01*
X127579523Y-109155746D02*
X127436666Y-109203365D01*
X127436666Y-109203365D02*
X127341428Y-109203365D01*
X127341428Y-109203365D02*
X127198571Y-109155746D01*
X127198571Y-109155746D02*
X127103333Y-109060507D01*
X127103333Y-109060507D02*
X127055714Y-108965269D01*
X127055714Y-108965269D02*
X127008095Y-108774793D01*
X127008095Y-108774793D02*
X127008095Y-108631936D01*
X127008095Y-108631936D02*
X127055714Y-108441460D01*
X127055714Y-108441460D02*
X127103333Y-108346222D01*
X127103333Y-108346222D02*
X127198571Y-108250984D01*
X127198571Y-108250984D02*
X127341428Y-108203365D01*
X127341428Y-108203365D02*
X127436666Y-108203365D01*
X127436666Y-108203365D02*
X127579523Y-108250984D01*
X127579523Y-108250984D02*
X127627142Y-108298603D01*
X128579523Y-109203365D02*
X128008095Y-109203365D01*
X128293809Y-109203365D02*
X128293809Y-108203365D01*
X128293809Y-108203365D02*
X128198571Y-108346222D01*
X128198571Y-108346222D02*
X128103333Y-108441460D01*
X128103333Y-108441460D02*
X128008095Y-108489079D01*
X129150952Y-108631936D02*
X129055714Y-108584317D01*
X129055714Y-108584317D02*
X129008095Y-108536698D01*
X129008095Y-108536698D02*
X128960476Y-108441460D01*
X128960476Y-108441460D02*
X128960476Y-108393841D01*
X128960476Y-108393841D02*
X129008095Y-108298603D01*
X129008095Y-108298603D02*
X129055714Y-108250984D01*
X129055714Y-108250984D02*
X129150952Y-108203365D01*
X129150952Y-108203365D02*
X129341428Y-108203365D01*
X129341428Y-108203365D02*
X129436666Y-108250984D01*
X129436666Y-108250984D02*
X129484285Y-108298603D01*
X129484285Y-108298603D02*
X129531904Y-108393841D01*
X129531904Y-108393841D02*
X129531904Y-108441460D01*
X129531904Y-108441460D02*
X129484285Y-108536698D01*
X129484285Y-108536698D02*
X129436666Y-108584317D01*
X129436666Y-108584317D02*
X129341428Y-108631936D01*
X129341428Y-108631936D02*
X129150952Y-108631936D01*
X129150952Y-108631936D02*
X129055714Y-108679555D01*
X129055714Y-108679555D02*
X129008095Y-108727174D01*
X129008095Y-108727174D02*
X128960476Y-108822412D01*
X128960476Y-108822412D02*
X128960476Y-109012888D01*
X128960476Y-109012888D02*
X129008095Y-109108126D01*
X129008095Y-109108126D02*
X129055714Y-109155746D01*
X129055714Y-109155746D02*
X129150952Y-109203365D01*
X129150952Y-109203365D02*
X129341428Y-109203365D01*
X129341428Y-109203365D02*
X129436666Y-109155746D01*
X129436666Y-109155746D02*
X129484285Y-109108126D01*
X129484285Y-109108126D02*
X129531904Y-109012888D01*
X129531904Y-109012888D02*
X129531904Y-108822412D01*
X129531904Y-108822412D02*
X129484285Y-108727174D01*
X129484285Y-108727174D02*
X129436666Y-108679555D01*
X129436666Y-108679555D02*
X129341428Y-108631936D01*
X104895365Y-86387331D02*
X104847746Y-86434951D01*
X104847746Y-86434951D02*
X104704889Y-86482570D01*
X104704889Y-86482570D02*
X104609651Y-86482570D01*
X104609651Y-86482570D02*
X104466794Y-86434951D01*
X104466794Y-86434951D02*
X104371556Y-86339712D01*
X104371556Y-86339712D02*
X104323937Y-86244474D01*
X104323937Y-86244474D02*
X104276318Y-86053998D01*
X104276318Y-86053998D02*
X104276318Y-85911141D01*
X104276318Y-85911141D02*
X104323937Y-85720665D01*
X104323937Y-85720665D02*
X104371556Y-85625427D01*
X104371556Y-85625427D02*
X104466794Y-85530189D01*
X104466794Y-85530189D02*
X104609651Y-85482570D01*
X104609651Y-85482570D02*
X104704889Y-85482570D01*
X104704889Y-85482570D02*
X104847746Y-85530189D01*
X104847746Y-85530189D02*
X104895365Y-85577808D01*
X105276318Y-85577808D02*
X105323937Y-85530189D01*
X105323937Y-85530189D02*
X105419175Y-85482570D01*
X105419175Y-85482570D02*
X105657270Y-85482570D01*
X105657270Y-85482570D02*
X105752508Y-85530189D01*
X105752508Y-85530189D02*
X105800127Y-85577808D01*
X105800127Y-85577808D02*
X105847746Y-85673046D01*
X105847746Y-85673046D02*
X105847746Y-85768284D01*
X105847746Y-85768284D02*
X105800127Y-85911141D01*
X105800127Y-85911141D02*
X105228699Y-86482570D01*
X105228699Y-86482570D02*
X105847746Y-86482570D01*
X106181080Y-85482570D02*
X106800127Y-85482570D01*
X106800127Y-85482570D02*
X106466794Y-85863522D01*
X106466794Y-85863522D02*
X106609651Y-85863522D01*
X106609651Y-85863522D02*
X106704889Y-85911141D01*
X106704889Y-85911141D02*
X106752508Y-85958760D01*
X106752508Y-85958760D02*
X106800127Y-86053998D01*
X106800127Y-86053998D02*
X106800127Y-86292093D01*
X106800127Y-86292093D02*
X106752508Y-86387331D01*
X106752508Y-86387331D02*
X106704889Y-86434951D01*
X106704889Y-86434951D02*
X106609651Y-86482570D01*
X106609651Y-86482570D02*
X106323937Y-86482570D01*
X106323937Y-86482570D02*
X106228699Y-86434951D01*
X106228699Y-86434951D02*
X106181080Y-86387331D01*
X193032142Y-76654819D02*
X192698809Y-76178628D01*
X192460714Y-76654819D02*
X192460714Y-75654819D01*
X192460714Y-75654819D02*
X192841666Y-75654819D01*
X192841666Y-75654819D02*
X192936904Y-75702438D01*
X192936904Y-75702438D02*
X192984523Y-75750057D01*
X192984523Y-75750057D02*
X193032142Y-75845295D01*
X193032142Y-75845295D02*
X193032142Y-75988152D01*
X193032142Y-75988152D02*
X192984523Y-76083390D01*
X192984523Y-76083390D02*
X192936904Y-76131009D01*
X192936904Y-76131009D02*
X192841666Y-76178628D01*
X192841666Y-76178628D02*
X192460714Y-76178628D01*
X193984523Y-76654819D02*
X193413095Y-76654819D01*
X193698809Y-76654819D02*
X193698809Y-75654819D01*
X193698809Y-75654819D02*
X193603571Y-75797676D01*
X193603571Y-75797676D02*
X193508333Y-75892914D01*
X193508333Y-75892914D02*
X193413095Y-75940533D01*
X194460714Y-76654819D02*
X194651190Y-76654819D01*
X194651190Y-76654819D02*
X194746428Y-76607200D01*
X194746428Y-76607200D02*
X194794047Y-76559580D01*
X194794047Y-76559580D02*
X194889285Y-76416723D01*
X194889285Y-76416723D02*
X194936904Y-76226247D01*
X194936904Y-76226247D02*
X194936904Y-75845295D01*
X194936904Y-75845295D02*
X194889285Y-75750057D01*
X194889285Y-75750057D02*
X194841666Y-75702438D01*
X194841666Y-75702438D02*
X194746428Y-75654819D01*
X194746428Y-75654819D02*
X194555952Y-75654819D01*
X194555952Y-75654819D02*
X194460714Y-75702438D01*
X194460714Y-75702438D02*
X194413095Y-75750057D01*
X194413095Y-75750057D02*
X194365476Y-75845295D01*
X194365476Y-75845295D02*
X194365476Y-76083390D01*
X194365476Y-76083390D02*
X194413095Y-76178628D01*
X194413095Y-76178628D02*
X194460714Y-76226247D01*
X194460714Y-76226247D02*
X194555952Y-76273866D01*
X194555952Y-76273866D02*
X194746428Y-76273866D01*
X194746428Y-76273866D02*
X194841666Y-76226247D01*
X194841666Y-76226247D02*
X194889285Y-76178628D01*
X194889285Y-76178628D02*
X194936904Y-76083390D01*
X100508977Y-94804881D02*
X100461358Y-94900119D01*
X100461358Y-94900119D02*
X100366120Y-94995357D01*
X100366120Y-94995357D02*
X100223262Y-95138214D01*
X100223262Y-95138214D02*
X100175643Y-95233452D01*
X100175643Y-95233452D02*
X100175643Y-95328690D01*
X100413739Y-95281071D02*
X100366120Y-95376309D01*
X100366120Y-95376309D02*
X100270881Y-95471547D01*
X100270881Y-95471547D02*
X100080405Y-95519166D01*
X100080405Y-95519166D02*
X99747072Y-95519166D01*
X99747072Y-95519166D02*
X99556596Y-95471547D01*
X99556596Y-95471547D02*
X99461358Y-95376309D01*
X99461358Y-95376309D02*
X99413739Y-95281071D01*
X99413739Y-95281071D02*
X99413739Y-95090595D01*
X99413739Y-95090595D02*
X99461358Y-94995357D01*
X99461358Y-94995357D02*
X99556596Y-94900119D01*
X99556596Y-94900119D02*
X99747072Y-94852500D01*
X99747072Y-94852500D02*
X100080405Y-94852500D01*
X100080405Y-94852500D02*
X100270881Y-94900119D01*
X100270881Y-94900119D02*
X100366120Y-94995357D01*
X100366120Y-94995357D02*
X100413739Y-95090595D01*
X100413739Y-95090595D02*
X100413739Y-95281071D01*
X99413739Y-93995357D02*
X99413739Y-94185833D01*
X99413739Y-94185833D02*
X99461358Y-94281071D01*
X99461358Y-94281071D02*
X99508977Y-94328690D01*
X99508977Y-94328690D02*
X99651834Y-94423928D01*
X99651834Y-94423928D02*
X99842310Y-94471547D01*
X99842310Y-94471547D02*
X100223262Y-94471547D01*
X100223262Y-94471547D02*
X100318500Y-94423928D01*
X100318500Y-94423928D02*
X100366120Y-94376309D01*
X100366120Y-94376309D02*
X100413739Y-94281071D01*
X100413739Y-94281071D02*
X100413739Y-94090595D01*
X100413739Y-94090595D02*
X100366120Y-93995357D01*
X100366120Y-93995357D02*
X100318500Y-93947738D01*
X100318500Y-93947738D02*
X100223262Y-93900119D01*
X100223262Y-93900119D02*
X99985167Y-93900119D01*
X99985167Y-93900119D02*
X99889929Y-93947738D01*
X99889929Y-93947738D02*
X99842310Y-93995357D01*
X99842310Y-93995357D02*
X99794691Y-94090595D01*
X99794691Y-94090595D02*
X99794691Y-94281071D01*
X99794691Y-94281071D02*
X99842310Y-94376309D01*
X99842310Y-94376309D02*
X99889929Y-94423928D01*
X99889929Y-94423928D02*
X99985167Y-94471547D01*
X196119761Y-68495057D02*
X196024523Y-68447438D01*
X196024523Y-68447438D02*
X195929285Y-68352200D01*
X195929285Y-68352200D02*
X195786428Y-68209342D01*
X195786428Y-68209342D02*
X195691190Y-68161723D01*
X195691190Y-68161723D02*
X195595952Y-68161723D01*
X195643571Y-68399819D02*
X195548333Y-68352200D01*
X195548333Y-68352200D02*
X195453095Y-68256961D01*
X195453095Y-68256961D02*
X195405476Y-68066485D01*
X195405476Y-68066485D02*
X195405476Y-67733152D01*
X195405476Y-67733152D02*
X195453095Y-67542676D01*
X195453095Y-67542676D02*
X195548333Y-67447438D01*
X195548333Y-67447438D02*
X195643571Y-67399819D01*
X195643571Y-67399819D02*
X195834047Y-67399819D01*
X195834047Y-67399819D02*
X195929285Y-67447438D01*
X195929285Y-67447438D02*
X196024523Y-67542676D01*
X196024523Y-67542676D02*
X196072142Y-67733152D01*
X196072142Y-67733152D02*
X196072142Y-68066485D01*
X196072142Y-68066485D02*
X196024523Y-68256961D01*
X196024523Y-68256961D02*
X195929285Y-68352200D01*
X195929285Y-68352200D02*
X195834047Y-68399819D01*
X195834047Y-68399819D02*
X195643571Y-68399819D01*
X196453095Y-67495057D02*
X196500714Y-67447438D01*
X196500714Y-67447438D02*
X196595952Y-67399819D01*
X196595952Y-67399819D02*
X196834047Y-67399819D01*
X196834047Y-67399819D02*
X196929285Y-67447438D01*
X196929285Y-67447438D02*
X196976904Y-67495057D01*
X196976904Y-67495057D02*
X197024523Y-67590295D01*
X197024523Y-67590295D02*
X197024523Y-67685533D01*
X197024523Y-67685533D02*
X196976904Y-67828390D01*
X196976904Y-67828390D02*
X196405476Y-68399819D01*
X196405476Y-68399819D02*
X197024523Y-68399819D01*
X95880745Y-106965853D02*
X95547412Y-106489662D01*
X95309317Y-106965853D02*
X95309317Y-105965853D01*
X95309317Y-105965853D02*
X95690269Y-105965853D01*
X95690269Y-105965853D02*
X95785507Y-106013472D01*
X95785507Y-106013472D02*
X95833126Y-106061091D01*
X95833126Y-106061091D02*
X95880745Y-106156329D01*
X95880745Y-106156329D02*
X95880745Y-106299186D01*
X95880745Y-106299186D02*
X95833126Y-106394424D01*
X95833126Y-106394424D02*
X95785507Y-106442043D01*
X95785507Y-106442043D02*
X95690269Y-106489662D01*
X95690269Y-106489662D02*
X95309317Y-106489662D01*
X96261698Y-106061091D02*
X96309317Y-106013472D01*
X96309317Y-106013472D02*
X96404555Y-105965853D01*
X96404555Y-105965853D02*
X96642650Y-105965853D01*
X96642650Y-105965853D02*
X96737888Y-106013472D01*
X96737888Y-106013472D02*
X96785507Y-106061091D01*
X96785507Y-106061091D02*
X96833126Y-106156329D01*
X96833126Y-106156329D02*
X96833126Y-106251567D01*
X96833126Y-106251567D02*
X96785507Y-106394424D01*
X96785507Y-106394424D02*
X96214079Y-106965853D01*
X96214079Y-106965853D02*
X96833126Y-106965853D01*
X97214079Y-106061091D02*
X97261698Y-106013472D01*
X97261698Y-106013472D02*
X97356936Y-105965853D01*
X97356936Y-105965853D02*
X97595031Y-105965853D01*
X97595031Y-105965853D02*
X97690269Y-106013472D01*
X97690269Y-106013472D02*
X97737888Y-106061091D01*
X97737888Y-106061091D02*
X97785507Y-106156329D01*
X97785507Y-106156329D02*
X97785507Y-106251567D01*
X97785507Y-106251567D02*
X97737888Y-106394424D01*
X97737888Y-106394424D02*
X97166460Y-106965853D01*
X97166460Y-106965853D02*
X97785507Y-106965853D01*
X108704775Y-78159004D02*
X108228584Y-78492337D01*
X108704775Y-78730432D02*
X107704775Y-78730432D01*
X107704775Y-78730432D02*
X107704775Y-78349480D01*
X107704775Y-78349480D02*
X107752394Y-78254242D01*
X107752394Y-78254242D02*
X107800013Y-78206623D01*
X107800013Y-78206623D02*
X107895251Y-78159004D01*
X107895251Y-78159004D02*
X108038108Y-78159004D01*
X108038108Y-78159004D02*
X108133346Y-78206623D01*
X108133346Y-78206623D02*
X108180965Y-78254242D01*
X108180965Y-78254242D02*
X108228584Y-78349480D01*
X108228584Y-78349480D02*
X108228584Y-78730432D01*
X108704775Y-77206623D02*
X108704775Y-77778051D01*
X108704775Y-77492337D02*
X107704775Y-77492337D01*
X107704775Y-77492337D02*
X107847632Y-77587575D01*
X107847632Y-77587575D02*
X107942870Y-77682813D01*
X107942870Y-77682813D02*
X107990489Y-77778051D01*
X127962604Y-104415440D02*
X127962604Y-105063059D01*
X127962604Y-105063059D02*
X127993081Y-105139249D01*
X127993081Y-105139249D02*
X128023557Y-105177345D01*
X128023557Y-105177345D02*
X128084509Y-105215440D01*
X128084509Y-105215440D02*
X128206414Y-105215440D01*
X128206414Y-105215440D02*
X128267366Y-105177345D01*
X128267366Y-105177345D02*
X128297843Y-105139249D01*
X128297843Y-105139249D02*
X128328319Y-105063059D01*
X128328319Y-105063059D02*
X128328319Y-104415440D01*
X128937842Y-104415440D02*
X128633080Y-104415440D01*
X128633080Y-104415440D02*
X128602604Y-104796392D01*
X128602604Y-104796392D02*
X128633080Y-104758297D01*
X128633080Y-104758297D02*
X128694033Y-104720202D01*
X128694033Y-104720202D02*
X128846414Y-104720202D01*
X128846414Y-104720202D02*
X128907366Y-104758297D01*
X128907366Y-104758297D02*
X128937842Y-104796392D01*
X128937842Y-104796392D02*
X128968319Y-104872583D01*
X128968319Y-104872583D02*
X128968319Y-105063059D01*
X128968319Y-105063059D02*
X128937842Y-105139249D01*
X128937842Y-105139249D02*
X128907366Y-105177345D01*
X128907366Y-105177345D02*
X128846414Y-105215440D01*
X128846414Y-105215440D02*
X128694033Y-105215440D01*
X128694033Y-105215440D02*
X128633080Y-105177345D01*
X128633080Y-105177345D02*
X128602604Y-105139249D01*
X117960193Y-78164319D02*
X118007813Y-78211938D01*
X118007813Y-78211938D02*
X118055432Y-78354795D01*
X118055432Y-78354795D02*
X118055432Y-78450033D01*
X118055432Y-78450033D02*
X118007813Y-78592890D01*
X118007813Y-78592890D02*
X117912574Y-78688128D01*
X117912574Y-78688128D02*
X117817336Y-78735747D01*
X117817336Y-78735747D02*
X117626860Y-78783366D01*
X117626860Y-78783366D02*
X117484003Y-78783366D01*
X117484003Y-78783366D02*
X117293527Y-78735747D01*
X117293527Y-78735747D02*
X117198289Y-78688128D01*
X117198289Y-78688128D02*
X117103051Y-78592890D01*
X117103051Y-78592890D02*
X117055432Y-78450033D01*
X117055432Y-78450033D02*
X117055432Y-78354795D01*
X117055432Y-78354795D02*
X117103051Y-78211938D01*
X117103051Y-78211938D02*
X117150670Y-78164319D01*
X117055432Y-77830985D02*
X117055432Y-77211938D01*
X117055432Y-77211938D02*
X117436384Y-77545271D01*
X117436384Y-77545271D02*
X117436384Y-77402414D01*
X117436384Y-77402414D02*
X117484003Y-77307176D01*
X117484003Y-77307176D02*
X117531622Y-77259557D01*
X117531622Y-77259557D02*
X117626860Y-77211938D01*
X117626860Y-77211938D02*
X117864955Y-77211938D01*
X117864955Y-77211938D02*
X117960193Y-77259557D01*
X117960193Y-77259557D02*
X118007813Y-77307176D01*
X118007813Y-77307176D02*
X118055432Y-77402414D01*
X118055432Y-77402414D02*
X118055432Y-77688128D01*
X118055432Y-77688128D02*
X118007813Y-77783366D01*
X118007813Y-77783366D02*
X117960193Y-77830985D01*
X135882142Y-87989580D02*
X135834523Y-88037200D01*
X135834523Y-88037200D02*
X135691666Y-88084819D01*
X135691666Y-88084819D02*
X135596428Y-88084819D01*
X135596428Y-88084819D02*
X135453571Y-88037200D01*
X135453571Y-88037200D02*
X135358333Y-87941961D01*
X135358333Y-87941961D02*
X135310714Y-87846723D01*
X135310714Y-87846723D02*
X135263095Y-87656247D01*
X135263095Y-87656247D02*
X135263095Y-87513390D01*
X135263095Y-87513390D02*
X135310714Y-87322914D01*
X135310714Y-87322914D02*
X135358333Y-87227676D01*
X135358333Y-87227676D02*
X135453571Y-87132438D01*
X135453571Y-87132438D02*
X135596428Y-87084819D01*
X135596428Y-87084819D02*
X135691666Y-87084819D01*
X135691666Y-87084819D02*
X135834523Y-87132438D01*
X135834523Y-87132438D02*
X135882142Y-87180057D01*
X136834523Y-88084819D02*
X136263095Y-88084819D01*
X136548809Y-88084819D02*
X136548809Y-87084819D01*
X136548809Y-87084819D02*
X136453571Y-87227676D01*
X136453571Y-87227676D02*
X136358333Y-87322914D01*
X136358333Y-87322914D02*
X136263095Y-87370533D01*
X137786904Y-88084819D02*
X137215476Y-88084819D01*
X137501190Y-88084819D02*
X137501190Y-87084819D01*
X137501190Y-87084819D02*
X137405952Y-87227676D01*
X137405952Y-87227676D02*
X137310714Y-87322914D01*
X137310714Y-87322914D02*
X137215476Y-87370533D01*
X84909819Y-125737857D02*
X84433628Y-126071190D01*
X84909819Y-126309285D02*
X83909819Y-126309285D01*
X83909819Y-126309285D02*
X83909819Y-125928333D01*
X83909819Y-125928333D02*
X83957438Y-125833095D01*
X83957438Y-125833095D02*
X84005057Y-125785476D01*
X84005057Y-125785476D02*
X84100295Y-125737857D01*
X84100295Y-125737857D02*
X84243152Y-125737857D01*
X84243152Y-125737857D02*
X84338390Y-125785476D01*
X84338390Y-125785476D02*
X84386009Y-125833095D01*
X84386009Y-125833095D02*
X84433628Y-125928333D01*
X84433628Y-125928333D02*
X84433628Y-126309285D01*
X84005057Y-125356904D02*
X83957438Y-125309285D01*
X83957438Y-125309285D02*
X83909819Y-125214047D01*
X83909819Y-125214047D02*
X83909819Y-124975952D01*
X83909819Y-124975952D02*
X83957438Y-124880714D01*
X83957438Y-124880714D02*
X84005057Y-124833095D01*
X84005057Y-124833095D02*
X84100295Y-124785476D01*
X84100295Y-124785476D02*
X84195533Y-124785476D01*
X84195533Y-124785476D02*
X84338390Y-124833095D01*
X84338390Y-124833095D02*
X84909819Y-125404523D01*
X84909819Y-125404523D02*
X84909819Y-124785476D01*
X83909819Y-124452142D02*
X83909819Y-123785476D01*
X83909819Y-123785476D02*
X84909819Y-124214047D01*
X96745286Y-72479819D02*
X96745286Y-73289342D01*
X96745286Y-73289342D02*
X96792905Y-73384580D01*
X96792905Y-73384580D02*
X96840524Y-73432200D01*
X96840524Y-73432200D02*
X96935762Y-73479819D01*
X96935762Y-73479819D02*
X97126238Y-73479819D01*
X97126238Y-73479819D02*
X97221476Y-73432200D01*
X97221476Y-73432200D02*
X97269095Y-73384580D01*
X97269095Y-73384580D02*
X97316714Y-73289342D01*
X97316714Y-73289342D02*
X97316714Y-72479819D01*
X98316714Y-73479819D02*
X97745286Y-73479819D01*
X98031000Y-73479819D02*
X98031000Y-72479819D01*
X98031000Y-72479819D02*
X97935762Y-72622676D01*
X97935762Y-72622676D02*
X97840524Y-72717914D01*
X97840524Y-72717914D02*
X97745286Y-72765533D01*
X194702010Y-137997831D02*
X193702010Y-137997831D01*
X193702010Y-137997831D02*
X193702010Y-137759736D01*
X193702010Y-137759736D02*
X193749629Y-137616879D01*
X193749629Y-137616879D02*
X193844867Y-137521641D01*
X193844867Y-137521641D02*
X193940105Y-137474022D01*
X193940105Y-137474022D02*
X194130581Y-137426403D01*
X194130581Y-137426403D02*
X194273438Y-137426403D01*
X194273438Y-137426403D02*
X194463914Y-137474022D01*
X194463914Y-137474022D02*
X194559152Y-137521641D01*
X194559152Y-137521641D02*
X194654391Y-137616879D01*
X194654391Y-137616879D02*
X194702010Y-137759736D01*
X194702010Y-137759736D02*
X194702010Y-137997831D01*
X194654391Y-137045450D02*
X194702010Y-136902593D01*
X194702010Y-136902593D02*
X194702010Y-136664498D01*
X194702010Y-136664498D02*
X194654391Y-136569260D01*
X194654391Y-136569260D02*
X194606771Y-136521641D01*
X194606771Y-136521641D02*
X194511533Y-136474022D01*
X194511533Y-136474022D02*
X194416295Y-136474022D01*
X194416295Y-136474022D02*
X194321057Y-136521641D01*
X194321057Y-136521641D02*
X194273438Y-136569260D01*
X194273438Y-136569260D02*
X194225819Y-136664498D01*
X194225819Y-136664498D02*
X194178200Y-136854974D01*
X194178200Y-136854974D02*
X194130581Y-136950212D01*
X194130581Y-136950212D02*
X194082962Y-136997831D01*
X194082962Y-136997831D02*
X193987724Y-137045450D01*
X193987724Y-137045450D02*
X193892486Y-137045450D01*
X193892486Y-137045450D02*
X193797248Y-136997831D01*
X193797248Y-136997831D02*
X193749629Y-136950212D01*
X193749629Y-136950212D02*
X193702010Y-136854974D01*
X193702010Y-136854974D02*
X193702010Y-136616879D01*
X193702010Y-136616879D02*
X193749629Y-136474022D01*
X194702010Y-135521641D02*
X194702010Y-136093069D01*
X194702010Y-135807355D02*
X193702010Y-135807355D01*
X193702010Y-135807355D02*
X193844867Y-135902593D01*
X193844867Y-135902593D02*
X193940105Y-135997831D01*
X193940105Y-135997831D02*
X193987724Y-136093069D01*
X145989271Y-73826666D02*
X146036891Y-73874285D01*
X146036891Y-73874285D02*
X146084510Y-74017142D01*
X146084510Y-74017142D02*
X146084510Y-74112380D01*
X146084510Y-74112380D02*
X146036891Y-74255237D01*
X146036891Y-74255237D02*
X145941652Y-74350475D01*
X145941652Y-74350475D02*
X145846414Y-74398094D01*
X145846414Y-74398094D02*
X145655938Y-74445713D01*
X145655938Y-74445713D02*
X145513081Y-74445713D01*
X145513081Y-74445713D02*
X145322605Y-74398094D01*
X145322605Y-74398094D02*
X145227367Y-74350475D01*
X145227367Y-74350475D02*
X145132129Y-74255237D01*
X145132129Y-74255237D02*
X145084510Y-74112380D01*
X145084510Y-74112380D02*
X145084510Y-74017142D01*
X145084510Y-74017142D02*
X145132129Y-73874285D01*
X145132129Y-73874285D02*
X145179748Y-73826666D01*
X145513081Y-73255237D02*
X145465462Y-73350475D01*
X145465462Y-73350475D02*
X145417843Y-73398094D01*
X145417843Y-73398094D02*
X145322605Y-73445713D01*
X145322605Y-73445713D02*
X145274986Y-73445713D01*
X145274986Y-73445713D02*
X145179748Y-73398094D01*
X145179748Y-73398094D02*
X145132129Y-73350475D01*
X145132129Y-73350475D02*
X145084510Y-73255237D01*
X145084510Y-73255237D02*
X145084510Y-73064761D01*
X145084510Y-73064761D02*
X145132129Y-72969523D01*
X145132129Y-72969523D02*
X145179748Y-72921904D01*
X145179748Y-72921904D02*
X145274986Y-72874285D01*
X145274986Y-72874285D02*
X145322605Y-72874285D01*
X145322605Y-72874285D02*
X145417843Y-72921904D01*
X145417843Y-72921904D02*
X145465462Y-72969523D01*
X145465462Y-72969523D02*
X145513081Y-73064761D01*
X145513081Y-73064761D02*
X145513081Y-73255237D01*
X145513081Y-73255237D02*
X145560700Y-73350475D01*
X145560700Y-73350475D02*
X145608319Y-73398094D01*
X145608319Y-73398094D02*
X145703557Y-73445713D01*
X145703557Y-73445713D02*
X145894033Y-73445713D01*
X145894033Y-73445713D02*
X145989271Y-73398094D01*
X145989271Y-73398094D02*
X146036891Y-73350475D01*
X146036891Y-73350475D02*
X146084510Y-73255237D01*
X146084510Y-73255237D02*
X146084510Y-73064761D01*
X146084510Y-73064761D02*
X146036891Y-72969523D01*
X146036891Y-72969523D02*
X145989271Y-72921904D01*
X145989271Y-72921904D02*
X145894033Y-72874285D01*
X145894033Y-72874285D02*
X145703557Y-72874285D01*
X145703557Y-72874285D02*
X145608319Y-72921904D01*
X145608319Y-72921904D02*
X145560700Y-72969523D01*
X145560700Y-72969523D02*
X145513081Y-73064761D01*
X167584510Y-125385450D02*
X168394033Y-125385450D01*
X168394033Y-125385450D02*
X168489271Y-125337831D01*
X168489271Y-125337831D02*
X168536891Y-125290212D01*
X168536891Y-125290212D02*
X168584510Y-125194974D01*
X168584510Y-125194974D02*
X168584510Y-125004498D01*
X168584510Y-125004498D02*
X168536891Y-124909260D01*
X168536891Y-124909260D02*
X168489271Y-124861641D01*
X168489271Y-124861641D02*
X168394033Y-124814022D01*
X168394033Y-124814022D02*
X167584510Y-124814022D01*
X167584510Y-123909260D02*
X167584510Y-124099736D01*
X167584510Y-124099736D02*
X167632129Y-124194974D01*
X167632129Y-124194974D02*
X167679748Y-124242593D01*
X167679748Y-124242593D02*
X167822605Y-124337831D01*
X167822605Y-124337831D02*
X168013081Y-124385450D01*
X168013081Y-124385450D02*
X168394033Y-124385450D01*
X168394033Y-124385450D02*
X168489271Y-124337831D01*
X168489271Y-124337831D02*
X168536891Y-124290212D01*
X168536891Y-124290212D02*
X168584510Y-124194974D01*
X168584510Y-124194974D02*
X168584510Y-124004498D01*
X168584510Y-124004498D02*
X168536891Y-123909260D01*
X168536891Y-123909260D02*
X168489271Y-123861641D01*
X168489271Y-123861641D02*
X168394033Y-123814022D01*
X168394033Y-123814022D02*
X168155938Y-123814022D01*
X168155938Y-123814022D02*
X168060700Y-123861641D01*
X168060700Y-123861641D02*
X168013081Y-123909260D01*
X168013081Y-123909260D02*
X167965462Y-124004498D01*
X167965462Y-124004498D02*
X167965462Y-124194974D01*
X167965462Y-124194974D02*
X168013081Y-124290212D01*
X168013081Y-124290212D02*
X168060700Y-124337831D01*
X168060700Y-124337831D02*
X168155938Y-124385450D01*
X94434819Y-103852246D02*
X93958628Y-104185579D01*
X94434819Y-104423674D02*
X93434819Y-104423674D01*
X93434819Y-104423674D02*
X93434819Y-104042722D01*
X93434819Y-104042722D02*
X93482438Y-103947484D01*
X93482438Y-103947484D02*
X93530057Y-103899865D01*
X93530057Y-103899865D02*
X93625295Y-103852246D01*
X93625295Y-103852246D02*
X93768152Y-103852246D01*
X93768152Y-103852246D02*
X93863390Y-103899865D01*
X93863390Y-103899865D02*
X93911009Y-103947484D01*
X93911009Y-103947484D02*
X93958628Y-104042722D01*
X93958628Y-104042722D02*
X93958628Y-104423674D01*
X93530057Y-103471293D02*
X93482438Y-103423674D01*
X93482438Y-103423674D02*
X93434819Y-103328436D01*
X93434819Y-103328436D02*
X93434819Y-103090341D01*
X93434819Y-103090341D02*
X93482438Y-102995103D01*
X93482438Y-102995103D02*
X93530057Y-102947484D01*
X93530057Y-102947484D02*
X93625295Y-102899865D01*
X93625295Y-102899865D02*
X93720533Y-102899865D01*
X93720533Y-102899865D02*
X93863390Y-102947484D01*
X93863390Y-102947484D02*
X94434819Y-103518912D01*
X94434819Y-103518912D02*
X94434819Y-102899865D01*
X93434819Y-102566531D02*
X93434819Y-101947484D01*
X93434819Y-101947484D02*
X93815771Y-102280817D01*
X93815771Y-102280817D02*
X93815771Y-102137960D01*
X93815771Y-102137960D02*
X93863390Y-102042722D01*
X93863390Y-102042722D02*
X93911009Y-101995103D01*
X93911009Y-101995103D02*
X94006247Y-101947484D01*
X94006247Y-101947484D02*
X94244342Y-101947484D01*
X94244342Y-101947484D02*
X94339580Y-101995103D01*
X94339580Y-101995103D02*
X94387200Y-102042722D01*
X94387200Y-102042722D02*
X94434819Y-102137960D01*
X94434819Y-102137960D02*
X94434819Y-102423674D01*
X94434819Y-102423674D02*
X94387200Y-102518912D01*
X94387200Y-102518912D02*
X94339580Y-102566531D01*
X196119761Y-87545057D02*
X196024523Y-87497438D01*
X196024523Y-87497438D02*
X195929285Y-87402200D01*
X195929285Y-87402200D02*
X195786428Y-87259342D01*
X195786428Y-87259342D02*
X195691190Y-87211723D01*
X195691190Y-87211723D02*
X195595952Y-87211723D01*
X195643571Y-87449819D02*
X195548333Y-87402200D01*
X195548333Y-87402200D02*
X195453095Y-87306961D01*
X195453095Y-87306961D02*
X195405476Y-87116485D01*
X195405476Y-87116485D02*
X195405476Y-86783152D01*
X195405476Y-86783152D02*
X195453095Y-86592676D01*
X195453095Y-86592676D02*
X195548333Y-86497438D01*
X195548333Y-86497438D02*
X195643571Y-86449819D01*
X195643571Y-86449819D02*
X195834047Y-86449819D01*
X195834047Y-86449819D02*
X195929285Y-86497438D01*
X195929285Y-86497438D02*
X196024523Y-86592676D01*
X196024523Y-86592676D02*
X196072142Y-86783152D01*
X196072142Y-86783152D02*
X196072142Y-87116485D01*
X196072142Y-87116485D02*
X196024523Y-87306961D01*
X196024523Y-87306961D02*
X195929285Y-87402200D01*
X195929285Y-87402200D02*
X195834047Y-87449819D01*
X195834047Y-87449819D02*
X195643571Y-87449819D01*
X196405476Y-86449819D02*
X197024523Y-86449819D01*
X197024523Y-86449819D02*
X196691190Y-86830771D01*
X196691190Y-86830771D02*
X196834047Y-86830771D01*
X196834047Y-86830771D02*
X196929285Y-86878390D01*
X196929285Y-86878390D02*
X196976904Y-86926009D01*
X196976904Y-86926009D02*
X197024523Y-87021247D01*
X197024523Y-87021247D02*
X197024523Y-87259342D01*
X197024523Y-87259342D02*
X196976904Y-87354580D01*
X196976904Y-87354580D02*
X196929285Y-87402200D01*
X196929285Y-87402200D02*
X196834047Y-87449819D01*
X196834047Y-87449819D02*
X196548333Y-87449819D01*
X196548333Y-87449819D02*
X196453095Y-87402200D01*
X196453095Y-87402200D02*
X196405476Y-87354580D01*
X145609271Y-89516403D02*
X145656891Y-89564022D01*
X145656891Y-89564022D02*
X145704510Y-89706879D01*
X145704510Y-89706879D02*
X145704510Y-89802117D01*
X145704510Y-89802117D02*
X145656891Y-89944974D01*
X145656891Y-89944974D02*
X145561652Y-90040212D01*
X145561652Y-90040212D02*
X145466414Y-90087831D01*
X145466414Y-90087831D02*
X145275938Y-90135450D01*
X145275938Y-90135450D02*
X145133081Y-90135450D01*
X145133081Y-90135450D02*
X144942605Y-90087831D01*
X144942605Y-90087831D02*
X144847367Y-90040212D01*
X144847367Y-90040212D02*
X144752129Y-89944974D01*
X144752129Y-89944974D02*
X144704510Y-89802117D01*
X144704510Y-89802117D02*
X144704510Y-89706879D01*
X144704510Y-89706879D02*
X144752129Y-89564022D01*
X144752129Y-89564022D02*
X144799748Y-89516403D01*
X145704510Y-88564022D02*
X145704510Y-89135450D01*
X145704510Y-88849736D02*
X144704510Y-88849736D01*
X144704510Y-88849736D02*
X144847367Y-88944974D01*
X144847367Y-88944974D02*
X144942605Y-89040212D01*
X144942605Y-89040212D02*
X144990224Y-89135450D01*
X144704510Y-88230688D02*
X144704510Y-87611641D01*
X144704510Y-87611641D02*
X145085462Y-87944974D01*
X145085462Y-87944974D02*
X145085462Y-87802117D01*
X145085462Y-87802117D02*
X145133081Y-87706879D01*
X145133081Y-87706879D02*
X145180700Y-87659260D01*
X145180700Y-87659260D02*
X145275938Y-87611641D01*
X145275938Y-87611641D02*
X145514033Y-87611641D01*
X145514033Y-87611641D02*
X145609271Y-87659260D01*
X145609271Y-87659260D02*
X145656891Y-87706879D01*
X145656891Y-87706879D02*
X145704510Y-87802117D01*
X145704510Y-87802117D02*
X145704510Y-88087831D01*
X145704510Y-88087831D02*
X145656891Y-88183069D01*
X145656891Y-88183069D02*
X145609271Y-88230688D01*
X114589148Y-87717985D02*
X114636768Y-87765604D01*
X114636768Y-87765604D02*
X114684387Y-87908461D01*
X114684387Y-87908461D02*
X114684387Y-88003699D01*
X114684387Y-88003699D02*
X114636768Y-88146556D01*
X114636768Y-88146556D02*
X114541529Y-88241794D01*
X114541529Y-88241794D02*
X114446291Y-88289413D01*
X114446291Y-88289413D02*
X114255815Y-88337032D01*
X114255815Y-88337032D02*
X114112958Y-88337032D01*
X114112958Y-88337032D02*
X113922482Y-88289413D01*
X113922482Y-88289413D02*
X113827244Y-88241794D01*
X113827244Y-88241794D02*
X113732006Y-88146556D01*
X113732006Y-88146556D02*
X113684387Y-88003699D01*
X113684387Y-88003699D02*
X113684387Y-87908461D01*
X113684387Y-87908461D02*
X113732006Y-87765604D01*
X113732006Y-87765604D02*
X113779625Y-87717985D01*
X113779625Y-87337032D02*
X113732006Y-87289413D01*
X113732006Y-87289413D02*
X113684387Y-87194175D01*
X113684387Y-87194175D02*
X113684387Y-86956080D01*
X113684387Y-86956080D02*
X113732006Y-86860842D01*
X113732006Y-86860842D02*
X113779625Y-86813223D01*
X113779625Y-86813223D02*
X113874863Y-86765604D01*
X113874863Y-86765604D02*
X113970101Y-86765604D01*
X113970101Y-86765604D02*
X114112958Y-86813223D01*
X114112958Y-86813223D02*
X114684387Y-87384651D01*
X114684387Y-87384651D02*
X114684387Y-86765604D01*
X114112958Y-86194175D02*
X114065339Y-86289413D01*
X114065339Y-86289413D02*
X114017720Y-86337032D01*
X114017720Y-86337032D02*
X113922482Y-86384651D01*
X113922482Y-86384651D02*
X113874863Y-86384651D01*
X113874863Y-86384651D02*
X113779625Y-86337032D01*
X113779625Y-86337032D02*
X113732006Y-86289413D01*
X113732006Y-86289413D02*
X113684387Y-86194175D01*
X113684387Y-86194175D02*
X113684387Y-86003699D01*
X113684387Y-86003699D02*
X113732006Y-85908461D01*
X113732006Y-85908461D02*
X113779625Y-85860842D01*
X113779625Y-85860842D02*
X113874863Y-85813223D01*
X113874863Y-85813223D02*
X113922482Y-85813223D01*
X113922482Y-85813223D02*
X114017720Y-85860842D01*
X114017720Y-85860842D02*
X114065339Y-85908461D01*
X114065339Y-85908461D02*
X114112958Y-86003699D01*
X114112958Y-86003699D02*
X114112958Y-86194175D01*
X114112958Y-86194175D02*
X114160577Y-86289413D01*
X114160577Y-86289413D02*
X114208196Y-86337032D01*
X114208196Y-86337032D02*
X114303434Y-86384651D01*
X114303434Y-86384651D02*
X114493910Y-86384651D01*
X114493910Y-86384651D02*
X114589148Y-86337032D01*
X114589148Y-86337032D02*
X114636768Y-86289413D01*
X114636768Y-86289413D02*
X114684387Y-86194175D01*
X114684387Y-86194175D02*
X114684387Y-86003699D01*
X114684387Y-86003699D02*
X114636768Y-85908461D01*
X114636768Y-85908461D02*
X114589148Y-85860842D01*
X114589148Y-85860842D02*
X114493910Y-85813223D01*
X114493910Y-85813223D02*
X114303434Y-85813223D01*
X114303434Y-85813223D02*
X114208196Y-85860842D01*
X114208196Y-85860842D02*
X114160577Y-85908461D01*
X114160577Y-85908461D02*
X114112958Y-86003699D01*
X108844498Y-127642857D02*
X108368307Y-127976190D01*
X108844498Y-128214285D02*
X107844498Y-128214285D01*
X107844498Y-128214285D02*
X107844498Y-127833333D01*
X107844498Y-127833333D02*
X107892117Y-127738095D01*
X107892117Y-127738095D02*
X107939736Y-127690476D01*
X107939736Y-127690476D02*
X108034974Y-127642857D01*
X108034974Y-127642857D02*
X108177831Y-127642857D01*
X108177831Y-127642857D02*
X108273069Y-127690476D01*
X108273069Y-127690476D02*
X108320688Y-127738095D01*
X108320688Y-127738095D02*
X108368307Y-127833333D01*
X108368307Y-127833333D02*
X108368307Y-128214285D01*
X107939736Y-127261904D02*
X107892117Y-127214285D01*
X107892117Y-127214285D02*
X107844498Y-127119047D01*
X107844498Y-127119047D02*
X107844498Y-126880952D01*
X107844498Y-126880952D02*
X107892117Y-126785714D01*
X107892117Y-126785714D02*
X107939736Y-126738095D01*
X107939736Y-126738095D02*
X108034974Y-126690476D01*
X108034974Y-126690476D02*
X108130212Y-126690476D01*
X108130212Y-126690476D02*
X108273069Y-126738095D01*
X108273069Y-126738095D02*
X108844498Y-127309523D01*
X108844498Y-127309523D02*
X108844498Y-126690476D01*
X107844498Y-125833333D02*
X107844498Y-126023809D01*
X107844498Y-126023809D02*
X107892117Y-126119047D01*
X107892117Y-126119047D02*
X107939736Y-126166666D01*
X107939736Y-126166666D02*
X108082593Y-126261904D01*
X108082593Y-126261904D02*
X108273069Y-126309523D01*
X108273069Y-126309523D02*
X108654021Y-126309523D01*
X108654021Y-126309523D02*
X108749259Y-126261904D01*
X108749259Y-126261904D02*
X108796879Y-126214285D01*
X108796879Y-126214285D02*
X108844498Y-126119047D01*
X108844498Y-126119047D02*
X108844498Y-125928571D01*
X108844498Y-125928571D02*
X108796879Y-125833333D01*
X108796879Y-125833333D02*
X108749259Y-125785714D01*
X108749259Y-125785714D02*
X108654021Y-125738095D01*
X108654021Y-125738095D02*
X108415926Y-125738095D01*
X108415926Y-125738095D02*
X108320688Y-125785714D01*
X108320688Y-125785714D02*
X108273069Y-125833333D01*
X108273069Y-125833333D02*
X108225450Y-125928571D01*
X108225450Y-125928571D02*
X108225450Y-126119047D01*
X108225450Y-126119047D02*
X108273069Y-126214285D01*
X108273069Y-126214285D02*
X108320688Y-126261904D01*
X108320688Y-126261904D02*
X108415926Y-126309523D01*
X121922915Y-100531410D02*
X121970535Y-100579029D01*
X121970535Y-100579029D02*
X122018154Y-100721886D01*
X122018154Y-100721886D02*
X122018154Y-100817124D01*
X122018154Y-100817124D02*
X121970535Y-100959981D01*
X121970535Y-100959981D02*
X121875296Y-101055219D01*
X121875296Y-101055219D02*
X121780058Y-101102838D01*
X121780058Y-101102838D02*
X121589582Y-101150457D01*
X121589582Y-101150457D02*
X121446725Y-101150457D01*
X121446725Y-101150457D02*
X121256249Y-101102838D01*
X121256249Y-101102838D02*
X121161011Y-101055219D01*
X121161011Y-101055219D02*
X121065773Y-100959981D01*
X121065773Y-100959981D02*
X121018154Y-100817124D01*
X121018154Y-100817124D02*
X121018154Y-100721886D01*
X121018154Y-100721886D02*
X121065773Y-100579029D01*
X121065773Y-100579029D02*
X121113392Y-100531410D01*
X121018154Y-100198076D02*
X121018154Y-99579029D01*
X121018154Y-99579029D02*
X121399106Y-99912362D01*
X121399106Y-99912362D02*
X121399106Y-99769505D01*
X121399106Y-99769505D02*
X121446725Y-99674267D01*
X121446725Y-99674267D02*
X121494344Y-99626648D01*
X121494344Y-99626648D02*
X121589582Y-99579029D01*
X121589582Y-99579029D02*
X121827677Y-99579029D01*
X121827677Y-99579029D02*
X121922915Y-99626648D01*
X121922915Y-99626648D02*
X121970535Y-99674267D01*
X121970535Y-99674267D02*
X122018154Y-99769505D01*
X122018154Y-99769505D02*
X122018154Y-100055219D01*
X122018154Y-100055219D02*
X121970535Y-100150457D01*
X121970535Y-100150457D02*
X121922915Y-100198076D01*
X121018154Y-98959981D02*
X121018154Y-98864743D01*
X121018154Y-98864743D02*
X121065773Y-98769505D01*
X121065773Y-98769505D02*
X121113392Y-98721886D01*
X121113392Y-98721886D02*
X121208630Y-98674267D01*
X121208630Y-98674267D02*
X121399106Y-98626648D01*
X121399106Y-98626648D02*
X121637201Y-98626648D01*
X121637201Y-98626648D02*
X121827677Y-98674267D01*
X121827677Y-98674267D02*
X121922915Y-98721886D01*
X121922915Y-98721886D02*
X121970535Y-98769505D01*
X121970535Y-98769505D02*
X122018154Y-98864743D01*
X122018154Y-98864743D02*
X122018154Y-98959981D01*
X122018154Y-98959981D02*
X121970535Y-99055219D01*
X121970535Y-99055219D02*
X121922915Y-99102838D01*
X121922915Y-99102838D02*
X121827677Y-99150457D01*
X121827677Y-99150457D02*
X121637201Y-99198076D01*
X121637201Y-99198076D02*
X121399106Y-99198076D01*
X121399106Y-99198076D02*
X121208630Y-99150457D01*
X121208630Y-99150457D02*
X121113392Y-99102838D01*
X121113392Y-99102838D02*
X121065773Y-99055219D01*
X121065773Y-99055219D02*
X121018154Y-98959981D01*
X99687142Y-107848681D02*
X99639523Y-107896301D01*
X99639523Y-107896301D02*
X99496666Y-107943920D01*
X99496666Y-107943920D02*
X99401428Y-107943920D01*
X99401428Y-107943920D02*
X99258571Y-107896301D01*
X99258571Y-107896301D02*
X99163333Y-107801062D01*
X99163333Y-107801062D02*
X99115714Y-107705824D01*
X99115714Y-107705824D02*
X99068095Y-107515348D01*
X99068095Y-107515348D02*
X99068095Y-107372491D01*
X99068095Y-107372491D02*
X99115714Y-107182015D01*
X99115714Y-107182015D02*
X99163333Y-107086777D01*
X99163333Y-107086777D02*
X99258571Y-106991539D01*
X99258571Y-106991539D02*
X99401428Y-106943920D01*
X99401428Y-106943920D02*
X99496666Y-106943920D01*
X99496666Y-106943920D02*
X99639523Y-106991539D01*
X99639523Y-106991539D02*
X99687142Y-107039158D01*
X100068095Y-107039158D02*
X100115714Y-106991539D01*
X100115714Y-106991539D02*
X100210952Y-106943920D01*
X100210952Y-106943920D02*
X100449047Y-106943920D01*
X100449047Y-106943920D02*
X100544285Y-106991539D01*
X100544285Y-106991539D02*
X100591904Y-107039158D01*
X100591904Y-107039158D02*
X100639523Y-107134396D01*
X100639523Y-107134396D02*
X100639523Y-107229634D01*
X100639523Y-107229634D02*
X100591904Y-107372491D01*
X100591904Y-107372491D02*
X100020476Y-107943920D01*
X100020476Y-107943920D02*
X100639523Y-107943920D01*
X100972857Y-106943920D02*
X101639523Y-106943920D01*
X101639523Y-106943920D02*
X101210952Y-107943920D01*
X193032142Y-95704819D02*
X192698809Y-95228628D01*
X192460714Y-95704819D02*
X192460714Y-94704819D01*
X192460714Y-94704819D02*
X192841666Y-94704819D01*
X192841666Y-94704819D02*
X192936904Y-94752438D01*
X192936904Y-94752438D02*
X192984523Y-94800057D01*
X192984523Y-94800057D02*
X193032142Y-94895295D01*
X193032142Y-94895295D02*
X193032142Y-95038152D01*
X193032142Y-95038152D02*
X192984523Y-95133390D01*
X192984523Y-95133390D02*
X192936904Y-95181009D01*
X192936904Y-95181009D02*
X192841666Y-95228628D01*
X192841666Y-95228628D02*
X192460714Y-95228628D01*
X193413095Y-94800057D02*
X193460714Y-94752438D01*
X193460714Y-94752438D02*
X193555952Y-94704819D01*
X193555952Y-94704819D02*
X193794047Y-94704819D01*
X193794047Y-94704819D02*
X193889285Y-94752438D01*
X193889285Y-94752438D02*
X193936904Y-94800057D01*
X193936904Y-94800057D02*
X193984523Y-94895295D01*
X193984523Y-94895295D02*
X193984523Y-94990533D01*
X193984523Y-94990533D02*
X193936904Y-95133390D01*
X193936904Y-95133390D02*
X193365476Y-95704819D01*
X193365476Y-95704819D02*
X193984523Y-95704819D01*
X194603571Y-94704819D02*
X194698809Y-94704819D01*
X194698809Y-94704819D02*
X194794047Y-94752438D01*
X194794047Y-94752438D02*
X194841666Y-94800057D01*
X194841666Y-94800057D02*
X194889285Y-94895295D01*
X194889285Y-94895295D02*
X194936904Y-95085771D01*
X194936904Y-95085771D02*
X194936904Y-95323866D01*
X194936904Y-95323866D02*
X194889285Y-95514342D01*
X194889285Y-95514342D02*
X194841666Y-95609580D01*
X194841666Y-95609580D02*
X194794047Y-95657200D01*
X194794047Y-95657200D02*
X194698809Y-95704819D01*
X194698809Y-95704819D02*
X194603571Y-95704819D01*
X194603571Y-95704819D02*
X194508333Y-95657200D01*
X194508333Y-95657200D02*
X194460714Y-95609580D01*
X194460714Y-95609580D02*
X194413095Y-95514342D01*
X194413095Y-95514342D02*
X194365476Y-95323866D01*
X194365476Y-95323866D02*
X194365476Y-95085771D01*
X194365476Y-95085771D02*
X194413095Y-94895295D01*
X194413095Y-94895295D02*
X194460714Y-94800057D01*
X194460714Y-94800057D02*
X194508333Y-94752438D01*
X194508333Y-94752438D02*
X194603571Y-94704819D01*
X211882010Y-77141640D02*
X210882010Y-77141640D01*
X210882010Y-77141640D02*
X210882010Y-76903545D01*
X210882010Y-76903545D02*
X210929629Y-76760688D01*
X210929629Y-76760688D02*
X211024867Y-76665450D01*
X211024867Y-76665450D02*
X211120105Y-76617831D01*
X211120105Y-76617831D02*
X211310581Y-76570212D01*
X211310581Y-76570212D02*
X211453438Y-76570212D01*
X211453438Y-76570212D02*
X211643914Y-76617831D01*
X211643914Y-76617831D02*
X211739152Y-76665450D01*
X211739152Y-76665450D02*
X211834391Y-76760688D01*
X211834391Y-76760688D02*
X211882010Y-76903545D01*
X211882010Y-76903545D02*
X211882010Y-77141640D01*
X211882010Y-75617831D02*
X211882010Y-76189259D01*
X211882010Y-75903545D02*
X210882010Y-75903545D01*
X210882010Y-75903545D02*
X211024867Y-75998783D01*
X211024867Y-75998783D02*
X211120105Y-76094021D01*
X211120105Y-76094021D02*
X211167724Y-76189259D01*
X111792103Y-81394559D02*
X111458770Y-80918368D01*
X111220675Y-81394559D02*
X111220675Y-80394559D01*
X111220675Y-80394559D02*
X111601627Y-80394559D01*
X111601627Y-80394559D02*
X111696865Y-80442178D01*
X111696865Y-80442178D02*
X111744484Y-80489797D01*
X111744484Y-80489797D02*
X111792103Y-80585035D01*
X111792103Y-80585035D02*
X111792103Y-80727892D01*
X111792103Y-80727892D02*
X111744484Y-80823130D01*
X111744484Y-80823130D02*
X111696865Y-80870749D01*
X111696865Y-80870749D02*
X111601627Y-80918368D01*
X111601627Y-80918368D02*
X111220675Y-80918368D01*
X112173056Y-80489797D02*
X112220675Y-80442178D01*
X112220675Y-80442178D02*
X112315913Y-80394559D01*
X112315913Y-80394559D02*
X112554008Y-80394559D01*
X112554008Y-80394559D02*
X112649246Y-80442178D01*
X112649246Y-80442178D02*
X112696865Y-80489797D01*
X112696865Y-80489797D02*
X112744484Y-80585035D01*
X112744484Y-80585035D02*
X112744484Y-80680273D01*
X112744484Y-80680273D02*
X112696865Y-80823130D01*
X112696865Y-80823130D02*
X112125437Y-81394559D01*
X112125437Y-81394559D02*
X112744484Y-81394559D01*
X86661666Y-130264819D02*
X86661666Y-130979104D01*
X86661666Y-130979104D02*
X86614047Y-131121961D01*
X86614047Y-131121961D02*
X86518809Y-131217200D01*
X86518809Y-131217200D02*
X86375952Y-131264819D01*
X86375952Y-131264819D02*
X86280714Y-131264819D01*
X87614047Y-130264819D02*
X87137857Y-130264819D01*
X87137857Y-130264819D02*
X87090238Y-130741009D01*
X87090238Y-130741009D02*
X87137857Y-130693390D01*
X87137857Y-130693390D02*
X87233095Y-130645771D01*
X87233095Y-130645771D02*
X87471190Y-130645771D01*
X87471190Y-130645771D02*
X87566428Y-130693390D01*
X87566428Y-130693390D02*
X87614047Y-130741009D01*
X87614047Y-130741009D02*
X87661666Y-130836247D01*
X87661666Y-130836247D02*
X87661666Y-131074342D01*
X87661666Y-131074342D02*
X87614047Y-131169580D01*
X87614047Y-131169580D02*
X87566428Y-131217200D01*
X87566428Y-131217200D02*
X87471190Y-131264819D01*
X87471190Y-131264819D02*
X87233095Y-131264819D01*
X87233095Y-131264819D02*
X87137857Y-131217200D01*
X87137857Y-131217200D02*
X87090238Y-131169580D01*
X98378123Y-129896624D02*
X98330504Y-129991862D01*
X98330504Y-129991862D02*
X98235266Y-130087100D01*
X98235266Y-130087100D02*
X98092408Y-130229957D01*
X98092408Y-130229957D02*
X98044789Y-130325195D01*
X98044789Y-130325195D02*
X98044789Y-130420433D01*
X98282885Y-130372814D02*
X98235266Y-130468052D01*
X98235266Y-130468052D02*
X98140027Y-130563290D01*
X98140027Y-130563290D02*
X97949551Y-130610909D01*
X97949551Y-130610909D02*
X97616218Y-130610909D01*
X97616218Y-130610909D02*
X97425742Y-130563290D01*
X97425742Y-130563290D02*
X97330504Y-130468052D01*
X97330504Y-130468052D02*
X97282885Y-130372814D01*
X97282885Y-130372814D02*
X97282885Y-130182338D01*
X97282885Y-130182338D02*
X97330504Y-130087100D01*
X97330504Y-130087100D02*
X97425742Y-129991862D01*
X97425742Y-129991862D02*
X97616218Y-129944243D01*
X97616218Y-129944243D02*
X97949551Y-129944243D01*
X97949551Y-129944243D02*
X98140027Y-129991862D01*
X98140027Y-129991862D02*
X98235266Y-130087100D01*
X98235266Y-130087100D02*
X98282885Y-130182338D01*
X98282885Y-130182338D02*
X98282885Y-130372814D01*
X97282885Y-129610909D02*
X97282885Y-128944243D01*
X97282885Y-128944243D02*
X98282885Y-129372814D01*
X104711667Y-105182200D02*
X104854524Y-105229819D01*
X104854524Y-105229819D02*
X105092619Y-105229819D01*
X105092619Y-105229819D02*
X105187857Y-105182200D01*
X105187857Y-105182200D02*
X105235476Y-105134580D01*
X105235476Y-105134580D02*
X105283095Y-105039342D01*
X105283095Y-105039342D02*
X105283095Y-104944104D01*
X105283095Y-104944104D02*
X105235476Y-104848866D01*
X105235476Y-104848866D02*
X105187857Y-104801247D01*
X105187857Y-104801247D02*
X105092619Y-104753628D01*
X105092619Y-104753628D02*
X104902143Y-104706009D01*
X104902143Y-104706009D02*
X104806905Y-104658390D01*
X104806905Y-104658390D02*
X104759286Y-104610771D01*
X104759286Y-104610771D02*
X104711667Y-104515533D01*
X104711667Y-104515533D02*
X104711667Y-104420295D01*
X104711667Y-104420295D02*
X104759286Y-104325057D01*
X104759286Y-104325057D02*
X104806905Y-104277438D01*
X104806905Y-104277438D02*
X104902143Y-104229819D01*
X104902143Y-104229819D02*
X105140238Y-104229819D01*
X105140238Y-104229819D02*
X105283095Y-104277438D01*
X105616429Y-104229819D02*
X105854524Y-105229819D01*
X105854524Y-105229819D02*
X106045000Y-104515533D01*
X106045000Y-104515533D02*
X106235476Y-105229819D01*
X106235476Y-105229819D02*
X106473572Y-104229819D01*
X106806905Y-104325057D02*
X106854524Y-104277438D01*
X106854524Y-104277438D02*
X106949762Y-104229819D01*
X106949762Y-104229819D02*
X107187857Y-104229819D01*
X107187857Y-104229819D02*
X107283095Y-104277438D01*
X107283095Y-104277438D02*
X107330714Y-104325057D01*
X107330714Y-104325057D02*
X107378333Y-104420295D01*
X107378333Y-104420295D02*
X107378333Y-104515533D01*
X107378333Y-104515533D02*
X107330714Y-104658390D01*
X107330714Y-104658390D02*
X106759286Y-105229819D01*
X106759286Y-105229819D02*
X107378333Y-105229819D01*
X138548024Y-99514819D02*
X138071834Y-99514819D01*
X138071834Y-99514819D02*
X138071834Y-98514819D01*
X138833739Y-98610057D02*
X138881358Y-98562438D01*
X138881358Y-98562438D02*
X138976596Y-98514819D01*
X138976596Y-98514819D02*
X139214691Y-98514819D01*
X139214691Y-98514819D02*
X139309929Y-98562438D01*
X139309929Y-98562438D02*
X139357548Y-98610057D01*
X139357548Y-98610057D02*
X139405167Y-98705295D01*
X139405167Y-98705295D02*
X139405167Y-98800533D01*
X139405167Y-98800533D02*
X139357548Y-98943390D01*
X139357548Y-98943390D02*
X138786120Y-99514819D01*
X138786120Y-99514819D02*
X139405167Y-99514819D01*
X190492142Y-88084819D02*
X190158809Y-87608628D01*
X189920714Y-88084819D02*
X189920714Y-87084819D01*
X189920714Y-87084819D02*
X190301666Y-87084819D01*
X190301666Y-87084819D02*
X190396904Y-87132438D01*
X190396904Y-87132438D02*
X190444523Y-87180057D01*
X190444523Y-87180057D02*
X190492142Y-87275295D01*
X190492142Y-87275295D02*
X190492142Y-87418152D01*
X190492142Y-87418152D02*
X190444523Y-87513390D01*
X190444523Y-87513390D02*
X190396904Y-87561009D01*
X190396904Y-87561009D02*
X190301666Y-87608628D01*
X190301666Y-87608628D02*
X189920714Y-87608628D01*
X190873095Y-87180057D02*
X190920714Y-87132438D01*
X190920714Y-87132438D02*
X191015952Y-87084819D01*
X191015952Y-87084819D02*
X191254047Y-87084819D01*
X191254047Y-87084819D02*
X191349285Y-87132438D01*
X191349285Y-87132438D02*
X191396904Y-87180057D01*
X191396904Y-87180057D02*
X191444523Y-87275295D01*
X191444523Y-87275295D02*
X191444523Y-87370533D01*
X191444523Y-87370533D02*
X191396904Y-87513390D01*
X191396904Y-87513390D02*
X190825476Y-88084819D01*
X190825476Y-88084819D02*
X191444523Y-88084819D01*
X192396904Y-88084819D02*
X191825476Y-88084819D01*
X192111190Y-88084819D02*
X192111190Y-87084819D01*
X192111190Y-87084819D02*
X192015952Y-87227676D01*
X192015952Y-87227676D02*
X191920714Y-87322914D01*
X191920714Y-87322914D02*
X191825476Y-87370533D01*
X125964333Y-100149819D02*
X125631000Y-99673628D01*
X125392905Y-100149819D02*
X125392905Y-99149819D01*
X125392905Y-99149819D02*
X125773857Y-99149819D01*
X125773857Y-99149819D02*
X125869095Y-99197438D01*
X125869095Y-99197438D02*
X125916714Y-99245057D01*
X125916714Y-99245057D02*
X125964333Y-99340295D01*
X125964333Y-99340295D02*
X125964333Y-99483152D01*
X125964333Y-99483152D02*
X125916714Y-99578390D01*
X125916714Y-99578390D02*
X125869095Y-99626009D01*
X125869095Y-99626009D02*
X125773857Y-99673628D01*
X125773857Y-99673628D02*
X125392905Y-99673628D01*
X126916714Y-100149819D02*
X126345286Y-100149819D01*
X126631000Y-100149819D02*
X126631000Y-99149819D01*
X126631000Y-99149819D02*
X126535762Y-99292676D01*
X126535762Y-99292676D02*
X126440524Y-99387914D01*
X126440524Y-99387914D02*
X126345286Y-99435533D01*
X127535762Y-99149819D02*
X127631000Y-99149819D01*
X127631000Y-99149819D02*
X127726238Y-99197438D01*
X127726238Y-99197438D02*
X127773857Y-99245057D01*
X127773857Y-99245057D02*
X127821476Y-99340295D01*
X127821476Y-99340295D02*
X127869095Y-99530771D01*
X127869095Y-99530771D02*
X127869095Y-99768866D01*
X127869095Y-99768866D02*
X127821476Y-99959342D01*
X127821476Y-99959342D02*
X127773857Y-100054580D01*
X127773857Y-100054580D02*
X127726238Y-100102200D01*
X127726238Y-100102200D02*
X127631000Y-100149819D01*
X127631000Y-100149819D02*
X127535762Y-100149819D01*
X127535762Y-100149819D02*
X127440524Y-100102200D01*
X127440524Y-100102200D02*
X127392905Y-100054580D01*
X127392905Y-100054580D02*
X127345286Y-99959342D01*
X127345286Y-99959342D02*
X127297667Y-99768866D01*
X127297667Y-99768866D02*
X127297667Y-99530771D01*
X127297667Y-99530771D02*
X127345286Y-99340295D01*
X127345286Y-99340295D02*
X127392905Y-99245057D01*
X127392905Y-99245057D02*
X127440524Y-99197438D01*
X127440524Y-99197438D02*
X127535762Y-99149819D01*
X124293333Y-76654819D02*
X123960000Y-76178628D01*
X123721905Y-76654819D02*
X123721905Y-75654819D01*
X123721905Y-75654819D02*
X124102857Y-75654819D01*
X124102857Y-75654819D02*
X124198095Y-75702438D01*
X124198095Y-75702438D02*
X124245714Y-75750057D01*
X124245714Y-75750057D02*
X124293333Y-75845295D01*
X124293333Y-75845295D02*
X124293333Y-75988152D01*
X124293333Y-75988152D02*
X124245714Y-76083390D01*
X124245714Y-76083390D02*
X124198095Y-76131009D01*
X124198095Y-76131009D02*
X124102857Y-76178628D01*
X124102857Y-76178628D02*
X123721905Y-76178628D01*
X125150476Y-75988152D02*
X125150476Y-76654819D01*
X124912381Y-75607200D02*
X124674286Y-76321485D01*
X124674286Y-76321485D02*
X125293333Y-76321485D01*
X123658333Y-89608365D02*
X123325000Y-89132174D01*
X123086905Y-89608365D02*
X123086905Y-88608365D01*
X123086905Y-88608365D02*
X123467857Y-88608365D01*
X123467857Y-88608365D02*
X123563095Y-88655984D01*
X123563095Y-88655984D02*
X123610714Y-88703603D01*
X123610714Y-88703603D02*
X123658333Y-88798841D01*
X123658333Y-88798841D02*
X123658333Y-88941698D01*
X123658333Y-88941698D02*
X123610714Y-89036936D01*
X123610714Y-89036936D02*
X123563095Y-89084555D01*
X123563095Y-89084555D02*
X123467857Y-89132174D01*
X123467857Y-89132174D02*
X123086905Y-89132174D01*
X124134524Y-89608365D02*
X124325000Y-89608365D01*
X124325000Y-89608365D02*
X124420238Y-89560746D01*
X124420238Y-89560746D02*
X124467857Y-89513126D01*
X124467857Y-89513126D02*
X124563095Y-89370269D01*
X124563095Y-89370269D02*
X124610714Y-89179793D01*
X124610714Y-89179793D02*
X124610714Y-88798841D01*
X124610714Y-88798841D02*
X124563095Y-88703603D01*
X124563095Y-88703603D02*
X124515476Y-88655984D01*
X124515476Y-88655984D02*
X124420238Y-88608365D01*
X124420238Y-88608365D02*
X124229762Y-88608365D01*
X124229762Y-88608365D02*
X124134524Y-88655984D01*
X124134524Y-88655984D02*
X124086905Y-88703603D01*
X124086905Y-88703603D02*
X124039286Y-88798841D01*
X124039286Y-88798841D02*
X124039286Y-89036936D01*
X124039286Y-89036936D02*
X124086905Y-89132174D01*
X124086905Y-89132174D02*
X124134524Y-89179793D01*
X124134524Y-89179793D02*
X124229762Y-89227412D01*
X124229762Y-89227412D02*
X124420238Y-89227412D01*
X124420238Y-89227412D02*
X124515476Y-89179793D01*
X124515476Y-89179793D02*
X124563095Y-89132174D01*
X124563095Y-89132174D02*
X124610714Y-89036936D01*
X220103960Y-70958020D02*
X220103960Y-71672339D01*
X220103960Y-71672339D02*
X220056338Y-71815203D01*
X220056338Y-71815203D02*
X219961096Y-71910446D01*
X219961096Y-71910446D02*
X219818232Y-71958067D01*
X219818232Y-71958067D02*
X219722989Y-71958067D01*
X220532552Y-71053262D02*
X220580173Y-71005641D01*
X220580173Y-71005641D02*
X220675416Y-70958020D01*
X220675416Y-70958020D02*
X220913522Y-70958020D01*
X220913522Y-70958020D02*
X221008765Y-71005641D01*
X221008765Y-71005641D02*
X221056386Y-71053262D01*
X221056386Y-71053262D02*
X221104007Y-71148505D01*
X221104007Y-71148505D02*
X221104007Y-71243748D01*
X221104007Y-71243748D02*
X221056386Y-71386611D01*
X221056386Y-71386611D02*
X220484930Y-71958067D01*
X220484930Y-71958067D02*
X221104007Y-71958067D01*
X106037142Y-102848580D02*
X105989523Y-102896200D01*
X105989523Y-102896200D02*
X105846666Y-102943819D01*
X105846666Y-102943819D02*
X105751428Y-102943819D01*
X105751428Y-102943819D02*
X105608571Y-102896200D01*
X105608571Y-102896200D02*
X105513333Y-102800961D01*
X105513333Y-102800961D02*
X105465714Y-102705723D01*
X105465714Y-102705723D02*
X105418095Y-102515247D01*
X105418095Y-102515247D02*
X105418095Y-102372390D01*
X105418095Y-102372390D02*
X105465714Y-102181914D01*
X105465714Y-102181914D02*
X105513333Y-102086676D01*
X105513333Y-102086676D02*
X105608571Y-101991438D01*
X105608571Y-101991438D02*
X105751428Y-101943819D01*
X105751428Y-101943819D02*
X105846666Y-101943819D01*
X105846666Y-101943819D02*
X105989523Y-101991438D01*
X105989523Y-101991438D02*
X106037142Y-102039057D01*
X106418095Y-102039057D02*
X106465714Y-101991438D01*
X106465714Y-101991438D02*
X106560952Y-101943819D01*
X106560952Y-101943819D02*
X106799047Y-101943819D01*
X106799047Y-101943819D02*
X106894285Y-101991438D01*
X106894285Y-101991438D02*
X106941904Y-102039057D01*
X106941904Y-102039057D02*
X106989523Y-102134295D01*
X106989523Y-102134295D02*
X106989523Y-102229533D01*
X106989523Y-102229533D02*
X106941904Y-102372390D01*
X106941904Y-102372390D02*
X106370476Y-102943819D01*
X106370476Y-102943819D02*
X106989523Y-102943819D01*
X107894285Y-101943819D02*
X107418095Y-101943819D01*
X107418095Y-101943819D02*
X107370476Y-102420009D01*
X107370476Y-102420009D02*
X107418095Y-102372390D01*
X107418095Y-102372390D02*
X107513333Y-102324771D01*
X107513333Y-102324771D02*
X107751428Y-102324771D01*
X107751428Y-102324771D02*
X107846666Y-102372390D01*
X107846666Y-102372390D02*
X107894285Y-102420009D01*
X107894285Y-102420009D02*
X107941904Y-102515247D01*
X107941904Y-102515247D02*
X107941904Y-102753342D01*
X107941904Y-102753342D02*
X107894285Y-102848580D01*
X107894285Y-102848580D02*
X107846666Y-102896200D01*
X107846666Y-102896200D02*
X107751428Y-102943819D01*
X107751428Y-102943819D02*
X107513333Y-102943819D01*
X107513333Y-102943819D02*
X107418095Y-102896200D01*
X107418095Y-102896200D02*
X107370476Y-102848580D01*
X105209714Y-98432857D02*
X105257334Y-98480476D01*
X105257334Y-98480476D02*
X105304953Y-98623333D01*
X105304953Y-98623333D02*
X105304953Y-98718571D01*
X105304953Y-98718571D02*
X105257334Y-98861428D01*
X105257334Y-98861428D02*
X105162095Y-98956666D01*
X105162095Y-98956666D02*
X105066857Y-99004285D01*
X105066857Y-99004285D02*
X104876381Y-99051904D01*
X104876381Y-99051904D02*
X104733524Y-99051904D01*
X104733524Y-99051904D02*
X104543048Y-99004285D01*
X104543048Y-99004285D02*
X104447810Y-98956666D01*
X104447810Y-98956666D02*
X104352572Y-98861428D01*
X104352572Y-98861428D02*
X104304953Y-98718571D01*
X104304953Y-98718571D02*
X104304953Y-98623333D01*
X104304953Y-98623333D02*
X104352572Y-98480476D01*
X104352572Y-98480476D02*
X104400191Y-98432857D01*
X104400191Y-98051904D02*
X104352572Y-98004285D01*
X104352572Y-98004285D02*
X104304953Y-97909047D01*
X104304953Y-97909047D02*
X104304953Y-97670952D01*
X104304953Y-97670952D02*
X104352572Y-97575714D01*
X104352572Y-97575714D02*
X104400191Y-97528095D01*
X104400191Y-97528095D02*
X104495429Y-97480476D01*
X104495429Y-97480476D02*
X104590667Y-97480476D01*
X104590667Y-97480476D02*
X104733524Y-97528095D01*
X104733524Y-97528095D02*
X105304953Y-98099523D01*
X105304953Y-98099523D02*
X105304953Y-97480476D01*
X104304953Y-96623333D02*
X104304953Y-96813809D01*
X104304953Y-96813809D02*
X104352572Y-96909047D01*
X104352572Y-96909047D02*
X104400191Y-96956666D01*
X104400191Y-96956666D02*
X104543048Y-97051904D01*
X104543048Y-97051904D02*
X104733524Y-97099523D01*
X104733524Y-97099523D02*
X105114476Y-97099523D01*
X105114476Y-97099523D02*
X105209714Y-97051904D01*
X105209714Y-97051904D02*
X105257334Y-97004285D01*
X105257334Y-97004285D02*
X105304953Y-96909047D01*
X105304953Y-96909047D02*
X105304953Y-96718571D01*
X105304953Y-96718571D02*
X105257334Y-96623333D01*
X105257334Y-96623333D02*
X105209714Y-96575714D01*
X105209714Y-96575714D02*
X105114476Y-96528095D01*
X105114476Y-96528095D02*
X104876381Y-96528095D01*
X104876381Y-96528095D02*
X104781143Y-96575714D01*
X104781143Y-96575714D02*
X104733524Y-96623333D01*
X104733524Y-96623333D02*
X104685905Y-96718571D01*
X104685905Y-96718571D02*
X104685905Y-96909047D01*
X104685905Y-96909047D02*
X104733524Y-97004285D01*
X104733524Y-97004285D02*
X104781143Y-97051904D01*
X104781143Y-97051904D02*
X104876381Y-97099523D01*
X117372955Y-93462801D02*
X117325336Y-93510421D01*
X117325336Y-93510421D02*
X117182479Y-93558040D01*
X117182479Y-93558040D02*
X117087241Y-93558040D01*
X117087241Y-93558040D02*
X116944384Y-93510421D01*
X116944384Y-93510421D02*
X116849146Y-93415182D01*
X116849146Y-93415182D02*
X116801527Y-93319944D01*
X116801527Y-93319944D02*
X116753908Y-93129468D01*
X116753908Y-93129468D02*
X116753908Y-92986611D01*
X116753908Y-92986611D02*
X116801527Y-92796135D01*
X116801527Y-92796135D02*
X116849146Y-92700897D01*
X116849146Y-92700897D02*
X116944384Y-92605659D01*
X116944384Y-92605659D02*
X117087241Y-92558040D01*
X117087241Y-92558040D02*
X117182479Y-92558040D01*
X117182479Y-92558040D02*
X117325336Y-92605659D01*
X117325336Y-92605659D02*
X117372955Y-92653278D01*
X117753908Y-92653278D02*
X117801527Y-92605659D01*
X117801527Y-92605659D02*
X117896765Y-92558040D01*
X117896765Y-92558040D02*
X118134860Y-92558040D01*
X118134860Y-92558040D02*
X118230098Y-92605659D01*
X118230098Y-92605659D02*
X118277717Y-92653278D01*
X118277717Y-92653278D02*
X118325336Y-92748516D01*
X118325336Y-92748516D02*
X118325336Y-92843754D01*
X118325336Y-92843754D02*
X118277717Y-92986611D01*
X118277717Y-92986611D02*
X117706289Y-93558040D01*
X117706289Y-93558040D02*
X118325336Y-93558040D01*
X118801527Y-93558040D02*
X118992003Y-93558040D01*
X118992003Y-93558040D02*
X119087241Y-93510421D01*
X119087241Y-93510421D02*
X119134860Y-93462801D01*
X119134860Y-93462801D02*
X119230098Y-93319944D01*
X119230098Y-93319944D02*
X119277717Y-93129468D01*
X119277717Y-93129468D02*
X119277717Y-92748516D01*
X119277717Y-92748516D02*
X119230098Y-92653278D01*
X119230098Y-92653278D02*
X119182479Y-92605659D01*
X119182479Y-92605659D02*
X119087241Y-92558040D01*
X119087241Y-92558040D02*
X118896765Y-92558040D01*
X118896765Y-92558040D02*
X118801527Y-92605659D01*
X118801527Y-92605659D02*
X118753908Y-92653278D01*
X118753908Y-92653278D02*
X118706289Y-92748516D01*
X118706289Y-92748516D02*
X118706289Y-92986611D01*
X118706289Y-92986611D02*
X118753908Y-93081849D01*
X118753908Y-93081849D02*
X118801527Y-93129468D01*
X118801527Y-93129468D02*
X118896765Y-93177087D01*
X118896765Y-93177087D02*
X119087241Y-93177087D01*
X119087241Y-93177087D02*
X119182479Y-93129468D01*
X119182479Y-93129468D02*
X119230098Y-93081849D01*
X119230098Y-93081849D02*
X119277717Y-92986611D01*
X131484973Y-69271591D02*
X131437354Y-69319211D01*
X131437354Y-69319211D02*
X131294497Y-69366830D01*
X131294497Y-69366830D02*
X131199259Y-69366830D01*
X131199259Y-69366830D02*
X131056402Y-69319211D01*
X131056402Y-69319211D02*
X130961164Y-69223972D01*
X130961164Y-69223972D02*
X130913545Y-69128734D01*
X130913545Y-69128734D02*
X130865926Y-68938258D01*
X130865926Y-68938258D02*
X130865926Y-68795401D01*
X130865926Y-68795401D02*
X130913545Y-68604925D01*
X130913545Y-68604925D02*
X130961164Y-68509687D01*
X130961164Y-68509687D02*
X131056402Y-68414449D01*
X131056402Y-68414449D02*
X131199259Y-68366830D01*
X131199259Y-68366830D02*
X131294497Y-68366830D01*
X131294497Y-68366830D02*
X131437354Y-68414449D01*
X131437354Y-68414449D02*
X131484973Y-68462068D01*
X132389735Y-68366830D02*
X131913545Y-68366830D01*
X131913545Y-68366830D02*
X131865926Y-68843020D01*
X131865926Y-68843020D02*
X131913545Y-68795401D01*
X131913545Y-68795401D02*
X132008783Y-68747782D01*
X132008783Y-68747782D02*
X132246878Y-68747782D01*
X132246878Y-68747782D02*
X132342116Y-68795401D01*
X132342116Y-68795401D02*
X132389735Y-68843020D01*
X132389735Y-68843020D02*
X132437354Y-68938258D01*
X132437354Y-68938258D02*
X132437354Y-69176353D01*
X132437354Y-69176353D02*
X132389735Y-69271591D01*
X132389735Y-69271591D02*
X132342116Y-69319211D01*
X132342116Y-69319211D02*
X132246878Y-69366830D01*
X132246878Y-69366830D02*
X132008783Y-69366830D01*
X132008783Y-69366830D02*
X131913545Y-69319211D01*
X131913545Y-69319211D02*
X131865926Y-69271591D01*
X100496248Y-90301784D02*
X100448629Y-90397022D01*
X100448629Y-90397022D02*
X100353391Y-90492260D01*
X100353391Y-90492260D02*
X100210533Y-90635117D01*
X100210533Y-90635117D02*
X100162914Y-90730355D01*
X100162914Y-90730355D02*
X100162914Y-90825593D01*
X100401010Y-90777974D02*
X100353391Y-90873212D01*
X100353391Y-90873212D02*
X100258152Y-90968450D01*
X100258152Y-90968450D02*
X100067676Y-91016069D01*
X100067676Y-91016069D02*
X99734343Y-91016069D01*
X99734343Y-91016069D02*
X99543867Y-90968450D01*
X99543867Y-90968450D02*
X99448629Y-90873212D01*
X99448629Y-90873212D02*
X99401010Y-90777974D01*
X99401010Y-90777974D02*
X99401010Y-90587498D01*
X99401010Y-90587498D02*
X99448629Y-90492260D01*
X99448629Y-90492260D02*
X99543867Y-90397022D01*
X99543867Y-90397022D02*
X99734343Y-90349403D01*
X99734343Y-90349403D02*
X100067676Y-90349403D01*
X100067676Y-90349403D02*
X100258152Y-90397022D01*
X100258152Y-90397022D02*
X100353391Y-90492260D01*
X100353391Y-90492260D02*
X100401010Y-90587498D01*
X100401010Y-90587498D02*
X100401010Y-90777974D01*
X99401010Y-89444641D02*
X99401010Y-89920831D01*
X99401010Y-89920831D02*
X99877200Y-89968450D01*
X99877200Y-89968450D02*
X99829581Y-89920831D01*
X99829581Y-89920831D02*
X99781962Y-89825593D01*
X99781962Y-89825593D02*
X99781962Y-89587498D01*
X99781962Y-89587498D02*
X99829581Y-89492260D01*
X99829581Y-89492260D02*
X99877200Y-89444641D01*
X99877200Y-89444641D02*
X99972438Y-89397022D01*
X99972438Y-89397022D02*
X100210533Y-89397022D01*
X100210533Y-89397022D02*
X100305771Y-89444641D01*
X100305771Y-89444641D02*
X100353391Y-89492260D01*
X100353391Y-89492260D02*
X100401010Y-89587498D01*
X100401010Y-89587498D02*
X100401010Y-89825593D01*
X100401010Y-89825593D02*
X100353391Y-89920831D01*
X100353391Y-89920831D02*
X100305771Y-89968450D01*
X134528024Y-72114580D02*
X134480405Y-72162200D01*
X134480405Y-72162200D02*
X134337548Y-72209819D01*
X134337548Y-72209819D02*
X134242310Y-72209819D01*
X134242310Y-72209819D02*
X134099453Y-72162200D01*
X134099453Y-72162200D02*
X134004215Y-72066961D01*
X134004215Y-72066961D02*
X133956596Y-71971723D01*
X133956596Y-71971723D02*
X133908977Y-71781247D01*
X133908977Y-71781247D02*
X133908977Y-71638390D01*
X133908977Y-71638390D02*
X133956596Y-71447914D01*
X133956596Y-71447914D02*
X134004215Y-71352676D01*
X134004215Y-71352676D02*
X134099453Y-71257438D01*
X134099453Y-71257438D02*
X134242310Y-71209819D01*
X134242310Y-71209819D02*
X134337548Y-71209819D01*
X134337548Y-71209819D02*
X134480405Y-71257438D01*
X134480405Y-71257438D02*
X134528024Y-71305057D01*
X135385167Y-71543152D02*
X135385167Y-72209819D01*
X135147072Y-71162200D02*
X134908977Y-71876485D01*
X134908977Y-71876485D02*
X135528024Y-71876485D01*
X124293333Y-73698365D02*
X123960000Y-73222174D01*
X123721905Y-73698365D02*
X123721905Y-72698365D01*
X123721905Y-72698365D02*
X124102857Y-72698365D01*
X124102857Y-72698365D02*
X124198095Y-72745984D01*
X124198095Y-72745984D02*
X124245714Y-72793603D01*
X124245714Y-72793603D02*
X124293333Y-72888841D01*
X124293333Y-72888841D02*
X124293333Y-73031698D01*
X124293333Y-73031698D02*
X124245714Y-73126936D01*
X124245714Y-73126936D02*
X124198095Y-73174555D01*
X124198095Y-73174555D02*
X124102857Y-73222174D01*
X124102857Y-73222174D02*
X123721905Y-73222174D01*
X125198095Y-72698365D02*
X124721905Y-72698365D01*
X124721905Y-72698365D02*
X124674286Y-73174555D01*
X124674286Y-73174555D02*
X124721905Y-73126936D01*
X124721905Y-73126936D02*
X124817143Y-73079317D01*
X124817143Y-73079317D02*
X125055238Y-73079317D01*
X125055238Y-73079317D02*
X125150476Y-73126936D01*
X125150476Y-73126936D02*
X125198095Y-73174555D01*
X125198095Y-73174555D02*
X125245714Y-73269793D01*
X125245714Y-73269793D02*
X125245714Y-73507888D01*
X125245714Y-73507888D02*
X125198095Y-73603126D01*
X125198095Y-73603126D02*
X125150476Y-73650746D01*
X125150476Y-73650746D02*
X125055238Y-73698365D01*
X125055238Y-73698365D02*
X124817143Y-73698365D01*
X124817143Y-73698365D02*
X124721905Y-73650746D01*
X124721905Y-73650746D02*
X124674286Y-73603126D01*
X159541771Y-111931403D02*
X159589391Y-111979022D01*
X159589391Y-111979022D02*
X159637010Y-112121879D01*
X159637010Y-112121879D02*
X159637010Y-112217117D01*
X159637010Y-112217117D02*
X159589391Y-112359974D01*
X159589391Y-112359974D02*
X159494152Y-112455212D01*
X159494152Y-112455212D02*
X159398914Y-112502831D01*
X159398914Y-112502831D02*
X159208438Y-112550450D01*
X159208438Y-112550450D02*
X159065581Y-112550450D01*
X159065581Y-112550450D02*
X158875105Y-112502831D01*
X158875105Y-112502831D02*
X158779867Y-112455212D01*
X158779867Y-112455212D02*
X158684629Y-112359974D01*
X158684629Y-112359974D02*
X158637010Y-112217117D01*
X158637010Y-112217117D02*
X158637010Y-112121879D01*
X158637010Y-112121879D02*
X158684629Y-111979022D01*
X158684629Y-111979022D02*
X158732248Y-111931403D01*
X158732248Y-111550450D02*
X158684629Y-111502831D01*
X158684629Y-111502831D02*
X158637010Y-111407593D01*
X158637010Y-111407593D02*
X158637010Y-111169498D01*
X158637010Y-111169498D02*
X158684629Y-111074260D01*
X158684629Y-111074260D02*
X158732248Y-111026641D01*
X158732248Y-111026641D02*
X158827486Y-110979022D01*
X158827486Y-110979022D02*
X158922724Y-110979022D01*
X158922724Y-110979022D02*
X159065581Y-111026641D01*
X159065581Y-111026641D02*
X159637010Y-111598069D01*
X159637010Y-111598069D02*
X159637010Y-110979022D01*
X159637010Y-110026641D02*
X159637010Y-110598069D01*
X159637010Y-110312355D02*
X158637010Y-110312355D01*
X158637010Y-110312355D02*
X158779867Y-110407593D01*
X158779867Y-110407593D02*
X158875105Y-110502831D01*
X158875105Y-110502831D02*
X158922724Y-110598069D01*
X189769761Y-100245057D02*
X189674523Y-100197438D01*
X189674523Y-100197438D02*
X189579285Y-100102200D01*
X189579285Y-100102200D02*
X189436428Y-99959342D01*
X189436428Y-99959342D02*
X189341190Y-99911723D01*
X189341190Y-99911723D02*
X189245952Y-99911723D01*
X189293571Y-100149819D02*
X189198333Y-100102200D01*
X189198333Y-100102200D02*
X189103095Y-100006961D01*
X189103095Y-100006961D02*
X189055476Y-99816485D01*
X189055476Y-99816485D02*
X189055476Y-99483152D01*
X189055476Y-99483152D02*
X189103095Y-99292676D01*
X189103095Y-99292676D02*
X189198333Y-99197438D01*
X189198333Y-99197438D02*
X189293571Y-99149819D01*
X189293571Y-99149819D02*
X189484047Y-99149819D01*
X189484047Y-99149819D02*
X189579285Y-99197438D01*
X189579285Y-99197438D02*
X189674523Y-99292676D01*
X189674523Y-99292676D02*
X189722142Y-99483152D01*
X189722142Y-99483152D02*
X189722142Y-99816485D01*
X189722142Y-99816485D02*
X189674523Y-100006961D01*
X189674523Y-100006961D02*
X189579285Y-100102200D01*
X189579285Y-100102200D02*
X189484047Y-100149819D01*
X189484047Y-100149819D02*
X189293571Y-100149819D01*
X190579285Y-99483152D02*
X190579285Y-100149819D01*
X190341190Y-99102200D02*
X190103095Y-99816485D01*
X190103095Y-99816485D02*
X190722142Y-99816485D01*
X211882010Y-96191640D02*
X210882010Y-96191640D01*
X210882010Y-96191640D02*
X210882010Y-95953545D01*
X210882010Y-95953545D02*
X210929629Y-95810688D01*
X210929629Y-95810688D02*
X211024867Y-95715450D01*
X211024867Y-95715450D02*
X211120105Y-95667831D01*
X211120105Y-95667831D02*
X211310581Y-95620212D01*
X211310581Y-95620212D02*
X211453438Y-95620212D01*
X211453438Y-95620212D02*
X211643914Y-95667831D01*
X211643914Y-95667831D02*
X211739152Y-95715450D01*
X211739152Y-95715450D02*
X211834391Y-95810688D01*
X211834391Y-95810688D02*
X211882010Y-95953545D01*
X211882010Y-95953545D02*
X211882010Y-96191640D01*
X210977248Y-95239259D02*
X210929629Y-95191640D01*
X210929629Y-95191640D02*
X210882010Y-95096402D01*
X210882010Y-95096402D02*
X210882010Y-94858307D01*
X210882010Y-94858307D02*
X210929629Y-94763069D01*
X210929629Y-94763069D02*
X210977248Y-94715450D01*
X210977248Y-94715450D02*
X211072486Y-94667831D01*
X211072486Y-94667831D02*
X211167724Y-94667831D01*
X211167724Y-94667831D02*
X211310581Y-94715450D01*
X211310581Y-94715450D02*
X211882010Y-95286878D01*
X211882010Y-95286878D02*
X211882010Y-94667831D01*
X122979333Y-103959819D02*
X122646000Y-103483628D01*
X122407905Y-103959819D02*
X122407905Y-102959819D01*
X122407905Y-102959819D02*
X122788857Y-102959819D01*
X122788857Y-102959819D02*
X122884095Y-103007438D01*
X122884095Y-103007438D02*
X122931714Y-103055057D01*
X122931714Y-103055057D02*
X122979333Y-103150295D01*
X122979333Y-103150295D02*
X122979333Y-103293152D01*
X122979333Y-103293152D02*
X122931714Y-103388390D01*
X122931714Y-103388390D02*
X122884095Y-103436009D01*
X122884095Y-103436009D02*
X122788857Y-103483628D01*
X122788857Y-103483628D02*
X122407905Y-103483628D01*
X123931714Y-103959819D02*
X123360286Y-103959819D01*
X123646000Y-103959819D02*
X123646000Y-102959819D01*
X123646000Y-102959819D02*
X123550762Y-103102676D01*
X123550762Y-103102676D02*
X123455524Y-103197914D01*
X123455524Y-103197914D02*
X123360286Y-103245533D01*
X124312667Y-103055057D02*
X124360286Y-103007438D01*
X124360286Y-103007438D02*
X124455524Y-102959819D01*
X124455524Y-102959819D02*
X124693619Y-102959819D01*
X124693619Y-102959819D02*
X124788857Y-103007438D01*
X124788857Y-103007438D02*
X124836476Y-103055057D01*
X124836476Y-103055057D02*
X124884095Y-103150295D01*
X124884095Y-103150295D02*
X124884095Y-103245533D01*
X124884095Y-103245533D02*
X124836476Y-103388390D01*
X124836476Y-103388390D02*
X124265048Y-103959819D01*
X124265048Y-103959819D02*
X124884095Y-103959819D01*
X127627142Y-94339580D02*
X127579523Y-94387200D01*
X127579523Y-94387200D02*
X127436666Y-94434819D01*
X127436666Y-94434819D02*
X127341428Y-94434819D01*
X127341428Y-94434819D02*
X127198571Y-94387200D01*
X127198571Y-94387200D02*
X127103333Y-94291961D01*
X127103333Y-94291961D02*
X127055714Y-94196723D01*
X127055714Y-94196723D02*
X127008095Y-94006247D01*
X127008095Y-94006247D02*
X127008095Y-93863390D01*
X127008095Y-93863390D02*
X127055714Y-93672914D01*
X127055714Y-93672914D02*
X127103333Y-93577676D01*
X127103333Y-93577676D02*
X127198571Y-93482438D01*
X127198571Y-93482438D02*
X127341428Y-93434819D01*
X127341428Y-93434819D02*
X127436666Y-93434819D01*
X127436666Y-93434819D02*
X127579523Y-93482438D01*
X127579523Y-93482438D02*
X127627142Y-93530057D01*
X128579523Y-94434819D02*
X128008095Y-94434819D01*
X128293809Y-94434819D02*
X128293809Y-93434819D01*
X128293809Y-93434819D02*
X128198571Y-93577676D01*
X128198571Y-93577676D02*
X128103333Y-93672914D01*
X128103333Y-93672914D02*
X128008095Y-93720533D01*
X128960476Y-93530057D02*
X129008095Y-93482438D01*
X129008095Y-93482438D02*
X129103333Y-93434819D01*
X129103333Y-93434819D02*
X129341428Y-93434819D01*
X129341428Y-93434819D02*
X129436666Y-93482438D01*
X129436666Y-93482438D02*
X129484285Y-93530057D01*
X129484285Y-93530057D02*
X129531904Y-93625295D01*
X129531904Y-93625295D02*
X129531904Y-93720533D01*
X129531904Y-93720533D02*
X129484285Y-93863390D01*
X129484285Y-93863390D02*
X128912857Y-94434819D01*
X128912857Y-94434819D02*
X129531904Y-94434819D01*
X107616666Y-135344819D02*
X107616666Y-136059104D01*
X107616666Y-136059104D02*
X107569047Y-136201961D01*
X107569047Y-136201961D02*
X107473809Y-136297200D01*
X107473809Y-136297200D02*
X107330952Y-136344819D01*
X107330952Y-136344819D02*
X107235714Y-136344819D01*
X108521428Y-135678152D02*
X108521428Y-136344819D01*
X108283333Y-135297200D02*
X108045238Y-136011485D01*
X108045238Y-136011485D02*
X108664285Y-136011485D01*
X96486142Y-97910340D02*
X96438523Y-97957960D01*
X96438523Y-97957960D02*
X96295666Y-98005579D01*
X96295666Y-98005579D02*
X96200428Y-98005579D01*
X96200428Y-98005579D02*
X96057571Y-97957960D01*
X96057571Y-97957960D02*
X95962333Y-97862721D01*
X95962333Y-97862721D02*
X95914714Y-97767483D01*
X95914714Y-97767483D02*
X95867095Y-97577007D01*
X95867095Y-97577007D02*
X95867095Y-97434150D01*
X95867095Y-97434150D02*
X95914714Y-97243674D01*
X95914714Y-97243674D02*
X95962333Y-97148436D01*
X95962333Y-97148436D02*
X96057571Y-97053198D01*
X96057571Y-97053198D02*
X96200428Y-97005579D01*
X96200428Y-97005579D02*
X96295666Y-97005579D01*
X96295666Y-97005579D02*
X96438523Y-97053198D01*
X96438523Y-97053198D02*
X96486142Y-97100817D01*
X96867095Y-97100817D02*
X96914714Y-97053198D01*
X96914714Y-97053198D02*
X97009952Y-97005579D01*
X97009952Y-97005579D02*
X97248047Y-97005579D01*
X97248047Y-97005579D02*
X97343285Y-97053198D01*
X97343285Y-97053198D02*
X97390904Y-97100817D01*
X97390904Y-97100817D02*
X97438523Y-97196055D01*
X97438523Y-97196055D02*
X97438523Y-97291293D01*
X97438523Y-97291293D02*
X97390904Y-97434150D01*
X97390904Y-97434150D02*
X96819476Y-98005579D01*
X96819476Y-98005579D02*
X97438523Y-98005579D01*
X97819476Y-97100817D02*
X97867095Y-97053198D01*
X97867095Y-97053198D02*
X97962333Y-97005579D01*
X97962333Y-97005579D02*
X98200428Y-97005579D01*
X98200428Y-97005579D02*
X98295666Y-97053198D01*
X98295666Y-97053198D02*
X98343285Y-97100817D01*
X98343285Y-97100817D02*
X98390904Y-97196055D01*
X98390904Y-97196055D02*
X98390904Y-97291293D01*
X98390904Y-97291293D02*
X98343285Y-97434150D01*
X98343285Y-97434150D02*
X97771857Y-98005579D01*
X97771857Y-98005579D02*
X98390904Y-98005579D01*
X172089912Y-90439241D02*
X171756579Y-89963050D01*
X171518484Y-90439241D02*
X171518484Y-89439241D01*
X171518484Y-89439241D02*
X171899436Y-89439241D01*
X171899436Y-89439241D02*
X171994674Y-89486860D01*
X171994674Y-89486860D02*
X172042293Y-89534479D01*
X172042293Y-89534479D02*
X172089912Y-89629717D01*
X172089912Y-89629717D02*
X172089912Y-89772574D01*
X172089912Y-89772574D02*
X172042293Y-89867812D01*
X172042293Y-89867812D02*
X171994674Y-89915431D01*
X171994674Y-89915431D02*
X171899436Y-89963050D01*
X171899436Y-89963050D02*
X171518484Y-89963050D01*
X173042293Y-90439241D02*
X172470865Y-90439241D01*
X172756579Y-90439241D02*
X172756579Y-89439241D01*
X172756579Y-89439241D02*
X172661341Y-89582098D01*
X172661341Y-89582098D02*
X172566103Y-89677336D01*
X172566103Y-89677336D02*
X172470865Y-89724955D01*
X173375627Y-89439241D02*
X174042293Y-89439241D01*
X174042293Y-89439241D02*
X173613722Y-90439241D01*
X189857142Y-69034819D02*
X189523809Y-68558628D01*
X189285714Y-69034819D02*
X189285714Y-68034819D01*
X189285714Y-68034819D02*
X189666666Y-68034819D01*
X189666666Y-68034819D02*
X189761904Y-68082438D01*
X189761904Y-68082438D02*
X189809523Y-68130057D01*
X189809523Y-68130057D02*
X189857142Y-68225295D01*
X189857142Y-68225295D02*
X189857142Y-68368152D01*
X189857142Y-68368152D02*
X189809523Y-68463390D01*
X189809523Y-68463390D02*
X189761904Y-68511009D01*
X189761904Y-68511009D02*
X189666666Y-68558628D01*
X189666666Y-68558628D02*
X189285714Y-68558628D01*
X190809523Y-69034819D02*
X190238095Y-69034819D01*
X190523809Y-69034819D02*
X190523809Y-68034819D01*
X190523809Y-68034819D02*
X190428571Y-68177676D01*
X190428571Y-68177676D02*
X190333333Y-68272914D01*
X190333333Y-68272914D02*
X190238095Y-68320533D01*
X191380952Y-68463390D02*
X191285714Y-68415771D01*
X191285714Y-68415771D02*
X191238095Y-68368152D01*
X191238095Y-68368152D02*
X191190476Y-68272914D01*
X191190476Y-68272914D02*
X191190476Y-68225295D01*
X191190476Y-68225295D02*
X191238095Y-68130057D01*
X191238095Y-68130057D02*
X191285714Y-68082438D01*
X191285714Y-68082438D02*
X191380952Y-68034819D01*
X191380952Y-68034819D02*
X191571428Y-68034819D01*
X191571428Y-68034819D02*
X191666666Y-68082438D01*
X191666666Y-68082438D02*
X191714285Y-68130057D01*
X191714285Y-68130057D02*
X191761904Y-68225295D01*
X191761904Y-68225295D02*
X191761904Y-68272914D01*
X191761904Y-68272914D02*
X191714285Y-68368152D01*
X191714285Y-68368152D02*
X191666666Y-68415771D01*
X191666666Y-68415771D02*
X191571428Y-68463390D01*
X191571428Y-68463390D02*
X191380952Y-68463390D01*
X191380952Y-68463390D02*
X191285714Y-68511009D01*
X191285714Y-68511009D02*
X191238095Y-68558628D01*
X191238095Y-68558628D02*
X191190476Y-68653866D01*
X191190476Y-68653866D02*
X191190476Y-68844342D01*
X191190476Y-68844342D02*
X191238095Y-68939580D01*
X191238095Y-68939580D02*
X191285714Y-68987200D01*
X191285714Y-68987200D02*
X191380952Y-69034819D01*
X191380952Y-69034819D02*
X191571428Y-69034819D01*
X191571428Y-69034819D02*
X191666666Y-68987200D01*
X191666666Y-68987200D02*
X191714285Y-68939580D01*
X191714285Y-68939580D02*
X191761904Y-68844342D01*
X191761904Y-68844342D02*
X191761904Y-68653866D01*
X191761904Y-68653866D02*
X191714285Y-68558628D01*
X191714285Y-68558628D02*
X191666666Y-68511009D01*
X191666666Y-68511009D02*
X191571428Y-68463390D01*
X145571771Y-105581403D02*
X145619391Y-105629022D01*
X145619391Y-105629022D02*
X145667010Y-105771879D01*
X145667010Y-105771879D02*
X145667010Y-105867117D01*
X145667010Y-105867117D02*
X145619391Y-106009974D01*
X145619391Y-106009974D02*
X145524152Y-106105212D01*
X145524152Y-106105212D02*
X145428914Y-106152831D01*
X145428914Y-106152831D02*
X145238438Y-106200450D01*
X145238438Y-106200450D02*
X145095581Y-106200450D01*
X145095581Y-106200450D02*
X144905105Y-106152831D01*
X144905105Y-106152831D02*
X144809867Y-106105212D01*
X144809867Y-106105212D02*
X144714629Y-106009974D01*
X144714629Y-106009974D02*
X144667010Y-105867117D01*
X144667010Y-105867117D02*
X144667010Y-105771879D01*
X144667010Y-105771879D02*
X144714629Y-105629022D01*
X144714629Y-105629022D02*
X144762248Y-105581403D01*
X145667010Y-104629022D02*
X145667010Y-105200450D01*
X145667010Y-104914736D02*
X144667010Y-104914736D01*
X144667010Y-104914736D02*
X144809867Y-105009974D01*
X144809867Y-105009974D02*
X144905105Y-105105212D01*
X144905105Y-105105212D02*
X144952724Y-105200450D01*
X145667010Y-104152831D02*
X145667010Y-103962355D01*
X145667010Y-103962355D02*
X145619391Y-103867117D01*
X145619391Y-103867117D02*
X145571771Y-103819498D01*
X145571771Y-103819498D02*
X145428914Y-103724260D01*
X145428914Y-103724260D02*
X145238438Y-103676641D01*
X145238438Y-103676641D02*
X144857486Y-103676641D01*
X144857486Y-103676641D02*
X144762248Y-103724260D01*
X144762248Y-103724260D02*
X144714629Y-103771879D01*
X144714629Y-103771879D02*
X144667010Y-103867117D01*
X144667010Y-103867117D02*
X144667010Y-104057593D01*
X144667010Y-104057593D02*
X144714629Y-104152831D01*
X144714629Y-104152831D02*
X144762248Y-104200450D01*
X144762248Y-104200450D02*
X144857486Y-104248069D01*
X144857486Y-104248069D02*
X145095581Y-104248069D01*
X145095581Y-104248069D02*
X145190819Y-104200450D01*
X145190819Y-104200450D02*
X145238438Y-104152831D01*
X145238438Y-104152831D02*
X145286057Y-104057593D01*
X145286057Y-104057593D02*
X145286057Y-103867117D01*
X145286057Y-103867117D02*
X145238438Y-103771879D01*
X145238438Y-103771879D02*
X145190819Y-103724260D01*
X145190819Y-103724260D02*
X145095581Y-103676641D01*
X169705010Y-83295450D02*
X170514533Y-83295450D01*
X170514533Y-83295450D02*
X170609771Y-83247831D01*
X170609771Y-83247831D02*
X170657391Y-83200212D01*
X170657391Y-83200212D02*
X170705010Y-83104974D01*
X170705010Y-83104974D02*
X170705010Y-82914498D01*
X170705010Y-82914498D02*
X170657391Y-82819260D01*
X170657391Y-82819260D02*
X170609771Y-82771641D01*
X170609771Y-82771641D02*
X170514533Y-82724022D01*
X170514533Y-82724022D02*
X169705010Y-82724022D01*
X169705010Y-82343069D02*
X169705010Y-81676403D01*
X169705010Y-81676403D02*
X170705010Y-82104974D01*
X102296771Y-73490212D02*
X102344391Y-73537831D01*
X102344391Y-73537831D02*
X102392010Y-73680688D01*
X102392010Y-73680688D02*
X102392010Y-73775926D01*
X102392010Y-73775926D02*
X102344391Y-73918783D01*
X102344391Y-73918783D02*
X102249152Y-74014021D01*
X102249152Y-74014021D02*
X102153914Y-74061640D01*
X102153914Y-74061640D02*
X101963438Y-74109259D01*
X101963438Y-74109259D02*
X101820581Y-74109259D01*
X101820581Y-74109259D02*
X101630105Y-74061640D01*
X101630105Y-74061640D02*
X101534867Y-74014021D01*
X101534867Y-74014021D02*
X101439629Y-73918783D01*
X101439629Y-73918783D02*
X101392010Y-73775926D01*
X101392010Y-73775926D02*
X101392010Y-73680688D01*
X101392010Y-73680688D02*
X101439629Y-73537831D01*
X101439629Y-73537831D02*
X101487248Y-73490212D01*
X102392010Y-72537831D02*
X102392010Y-73109259D01*
X102392010Y-72823545D02*
X101392010Y-72823545D01*
X101392010Y-72823545D02*
X101534867Y-72918783D01*
X101534867Y-72918783D02*
X101630105Y-73014021D01*
X101630105Y-73014021D02*
X101677724Y-73109259D01*
X122979333Y-106663365D02*
X122646000Y-106187174D01*
X122407905Y-106663365D02*
X122407905Y-105663365D01*
X122407905Y-105663365D02*
X122788857Y-105663365D01*
X122788857Y-105663365D02*
X122884095Y-105710984D01*
X122884095Y-105710984D02*
X122931714Y-105758603D01*
X122931714Y-105758603D02*
X122979333Y-105853841D01*
X122979333Y-105853841D02*
X122979333Y-105996698D01*
X122979333Y-105996698D02*
X122931714Y-106091936D01*
X122931714Y-106091936D02*
X122884095Y-106139555D01*
X122884095Y-106139555D02*
X122788857Y-106187174D01*
X122788857Y-106187174D02*
X122407905Y-106187174D01*
X123931714Y-106663365D02*
X123360286Y-106663365D01*
X123646000Y-106663365D02*
X123646000Y-105663365D01*
X123646000Y-105663365D02*
X123550762Y-105806222D01*
X123550762Y-105806222D02*
X123455524Y-105901460D01*
X123455524Y-105901460D02*
X123360286Y-105949079D01*
X124884095Y-106663365D02*
X124312667Y-106663365D01*
X124598381Y-106663365D02*
X124598381Y-105663365D01*
X124598381Y-105663365D02*
X124503143Y-105806222D01*
X124503143Y-105806222D02*
X124407905Y-105901460D01*
X124407905Y-105901460D02*
X124312667Y-105949079D01*
X126858024Y-69728365D02*
X126524691Y-69252174D01*
X126286596Y-69728365D02*
X126286596Y-68728365D01*
X126286596Y-68728365D02*
X126667548Y-68728365D01*
X126667548Y-68728365D02*
X126762786Y-68775984D01*
X126762786Y-68775984D02*
X126810405Y-68823603D01*
X126810405Y-68823603D02*
X126858024Y-68918841D01*
X126858024Y-68918841D02*
X126858024Y-69061698D01*
X126858024Y-69061698D02*
X126810405Y-69156936D01*
X126810405Y-69156936D02*
X126762786Y-69204555D01*
X126762786Y-69204555D02*
X126667548Y-69252174D01*
X126667548Y-69252174D02*
X126286596Y-69252174D01*
X127715167Y-68728365D02*
X127524691Y-68728365D01*
X127524691Y-68728365D02*
X127429453Y-68775984D01*
X127429453Y-68775984D02*
X127381834Y-68823603D01*
X127381834Y-68823603D02*
X127286596Y-68966460D01*
X127286596Y-68966460D02*
X127238977Y-69156936D01*
X127238977Y-69156936D02*
X127238977Y-69537888D01*
X127238977Y-69537888D02*
X127286596Y-69633126D01*
X127286596Y-69633126D02*
X127334215Y-69680746D01*
X127334215Y-69680746D02*
X127429453Y-69728365D01*
X127429453Y-69728365D02*
X127619929Y-69728365D01*
X127619929Y-69728365D02*
X127715167Y-69680746D01*
X127715167Y-69680746D02*
X127762786Y-69633126D01*
X127762786Y-69633126D02*
X127810405Y-69537888D01*
X127810405Y-69537888D02*
X127810405Y-69299793D01*
X127810405Y-69299793D02*
X127762786Y-69204555D01*
X127762786Y-69204555D02*
X127715167Y-69156936D01*
X127715167Y-69156936D02*
X127619929Y-69109317D01*
X127619929Y-69109317D02*
X127429453Y-69109317D01*
X127429453Y-69109317D02*
X127334215Y-69156936D01*
X127334215Y-69156936D02*
X127286596Y-69204555D01*
X127286596Y-69204555D02*
X127238977Y-69299793D01*
X159579271Y-96146403D02*
X159626891Y-96194022D01*
X159626891Y-96194022D02*
X159674510Y-96336879D01*
X159674510Y-96336879D02*
X159674510Y-96432117D01*
X159674510Y-96432117D02*
X159626891Y-96574974D01*
X159626891Y-96574974D02*
X159531652Y-96670212D01*
X159531652Y-96670212D02*
X159436414Y-96717831D01*
X159436414Y-96717831D02*
X159245938Y-96765450D01*
X159245938Y-96765450D02*
X159103081Y-96765450D01*
X159103081Y-96765450D02*
X158912605Y-96717831D01*
X158912605Y-96717831D02*
X158817367Y-96670212D01*
X158817367Y-96670212D02*
X158722129Y-96574974D01*
X158722129Y-96574974D02*
X158674510Y-96432117D01*
X158674510Y-96432117D02*
X158674510Y-96336879D01*
X158674510Y-96336879D02*
X158722129Y-96194022D01*
X158722129Y-96194022D02*
X158769748Y-96146403D01*
X159674510Y-95194022D02*
X159674510Y-95765450D01*
X159674510Y-95479736D02*
X158674510Y-95479736D01*
X158674510Y-95479736D02*
X158817367Y-95574974D01*
X158817367Y-95574974D02*
X158912605Y-95670212D01*
X158912605Y-95670212D02*
X158960224Y-95765450D01*
X158674510Y-94289260D02*
X158674510Y-94765450D01*
X158674510Y-94765450D02*
X159150700Y-94813069D01*
X159150700Y-94813069D02*
X159103081Y-94765450D01*
X159103081Y-94765450D02*
X159055462Y-94670212D01*
X159055462Y-94670212D02*
X159055462Y-94432117D01*
X159055462Y-94432117D02*
X159103081Y-94336879D01*
X159103081Y-94336879D02*
X159150700Y-94289260D01*
X159150700Y-94289260D02*
X159245938Y-94241641D01*
X159245938Y-94241641D02*
X159484033Y-94241641D01*
X159484033Y-94241641D02*
X159579271Y-94289260D01*
X159579271Y-94289260D02*
X159626891Y-94336879D01*
X159626891Y-94336879D02*
X159674510Y-94432117D01*
X159674510Y-94432117D02*
X159674510Y-94670212D01*
X159674510Y-94670212D02*
X159626891Y-94765450D01*
X159626891Y-94765450D02*
X159579271Y-94813069D01*
X129646180Y-72785033D02*
X129646180Y-73432652D01*
X129646180Y-73432652D02*
X129676657Y-73508842D01*
X129676657Y-73508842D02*
X129707133Y-73546938D01*
X129707133Y-73546938D02*
X129768085Y-73585033D01*
X129768085Y-73585033D02*
X129889990Y-73585033D01*
X129889990Y-73585033D02*
X129950942Y-73546938D01*
X129950942Y-73546938D02*
X129981419Y-73508842D01*
X129981419Y-73508842D02*
X130011895Y-73432652D01*
X130011895Y-73432652D02*
X130011895Y-72785033D01*
X130255704Y-72785033D02*
X130651895Y-72785033D01*
X130651895Y-72785033D02*
X130438561Y-73089795D01*
X130438561Y-73089795D02*
X130529990Y-73089795D01*
X130529990Y-73089795D02*
X130590942Y-73127890D01*
X130590942Y-73127890D02*
X130621418Y-73165985D01*
X130621418Y-73165985D02*
X130651895Y-73242176D01*
X130651895Y-73242176D02*
X130651895Y-73432652D01*
X130651895Y-73432652D02*
X130621418Y-73508842D01*
X130621418Y-73508842D02*
X130590942Y-73546938D01*
X130590942Y-73546938D02*
X130529990Y-73585033D01*
X130529990Y-73585033D02*
X130347133Y-73585033D01*
X130347133Y-73585033D02*
X130286180Y-73546938D01*
X130286180Y-73546938D02*
X130255704Y-73508842D01*
X112980167Y-70282841D02*
X112980167Y-70930460D01*
X112980167Y-70930460D02*
X113018262Y-71006650D01*
X113018262Y-71006650D02*
X113056357Y-71044746D01*
X113056357Y-71044746D02*
X113132548Y-71082841D01*
X113132548Y-71082841D02*
X113284929Y-71082841D01*
X113284929Y-71082841D02*
X113361119Y-71044746D01*
X113361119Y-71044746D02*
X113399214Y-71006650D01*
X113399214Y-71006650D02*
X113437310Y-70930460D01*
X113437310Y-70930460D02*
X113437310Y-70282841D01*
X113780166Y-70359031D02*
X113818262Y-70320936D01*
X113818262Y-70320936D02*
X113894452Y-70282841D01*
X113894452Y-70282841D02*
X114084928Y-70282841D01*
X114084928Y-70282841D02*
X114161119Y-70320936D01*
X114161119Y-70320936D02*
X114199214Y-70359031D01*
X114199214Y-70359031D02*
X114237309Y-70435222D01*
X114237309Y-70435222D02*
X114237309Y-70511412D01*
X114237309Y-70511412D02*
X114199214Y-70625698D01*
X114199214Y-70625698D02*
X113742071Y-71082841D01*
X113742071Y-71082841D02*
X114237309Y-71082841D01*
X179697142Y-107769819D02*
X179363809Y-107293628D01*
X179125714Y-107769819D02*
X179125714Y-106769819D01*
X179125714Y-106769819D02*
X179506666Y-106769819D01*
X179506666Y-106769819D02*
X179601904Y-106817438D01*
X179601904Y-106817438D02*
X179649523Y-106865057D01*
X179649523Y-106865057D02*
X179697142Y-106960295D01*
X179697142Y-106960295D02*
X179697142Y-107103152D01*
X179697142Y-107103152D02*
X179649523Y-107198390D01*
X179649523Y-107198390D02*
X179601904Y-107246009D01*
X179601904Y-107246009D02*
X179506666Y-107293628D01*
X179506666Y-107293628D02*
X179125714Y-107293628D01*
X180649523Y-107769819D02*
X180078095Y-107769819D01*
X180363809Y-107769819D02*
X180363809Y-106769819D01*
X180363809Y-106769819D02*
X180268571Y-106912676D01*
X180268571Y-106912676D02*
X180173333Y-107007914D01*
X180173333Y-107007914D02*
X180078095Y-107055533D01*
X181554285Y-106769819D02*
X181078095Y-106769819D01*
X181078095Y-106769819D02*
X181030476Y-107246009D01*
X181030476Y-107246009D02*
X181078095Y-107198390D01*
X181078095Y-107198390D02*
X181173333Y-107150771D01*
X181173333Y-107150771D02*
X181411428Y-107150771D01*
X181411428Y-107150771D02*
X181506666Y-107198390D01*
X181506666Y-107198390D02*
X181554285Y-107246009D01*
X181554285Y-107246009D02*
X181601904Y-107341247D01*
X181601904Y-107341247D02*
X181601904Y-107579342D01*
X181601904Y-107579342D02*
X181554285Y-107674580D01*
X181554285Y-107674580D02*
X181506666Y-107722200D01*
X181506666Y-107722200D02*
X181411428Y-107769819D01*
X181411428Y-107769819D02*
X181173333Y-107769819D01*
X181173333Y-107769819D02*
X181078095Y-107722200D01*
X181078095Y-107722200D02*
X181030476Y-107674580D01*
X174237142Y-130793365D02*
X173903809Y-130317174D01*
X173665714Y-130793365D02*
X173665714Y-129793365D01*
X173665714Y-129793365D02*
X174046666Y-129793365D01*
X174046666Y-129793365D02*
X174141904Y-129840984D01*
X174141904Y-129840984D02*
X174189523Y-129888603D01*
X174189523Y-129888603D02*
X174237142Y-129983841D01*
X174237142Y-129983841D02*
X174237142Y-130126698D01*
X174237142Y-130126698D02*
X174189523Y-130221936D01*
X174189523Y-130221936D02*
X174141904Y-130269555D01*
X174141904Y-130269555D02*
X174046666Y-130317174D01*
X174046666Y-130317174D02*
X173665714Y-130317174D01*
X175189523Y-130793365D02*
X174618095Y-130793365D01*
X174903809Y-130793365D02*
X174903809Y-129793365D01*
X174903809Y-129793365D02*
X174808571Y-129936222D01*
X174808571Y-129936222D02*
X174713333Y-130031460D01*
X174713333Y-130031460D02*
X174618095Y-130079079D01*
X175522857Y-129793365D02*
X176141904Y-129793365D01*
X176141904Y-129793365D02*
X175808571Y-130174317D01*
X175808571Y-130174317D02*
X175951428Y-130174317D01*
X175951428Y-130174317D02*
X176046666Y-130221936D01*
X176046666Y-130221936D02*
X176094285Y-130269555D01*
X176094285Y-130269555D02*
X176141904Y-130364793D01*
X176141904Y-130364793D02*
X176141904Y-130602888D01*
X176141904Y-130602888D02*
X176094285Y-130698126D01*
X176094285Y-130698126D02*
X176046666Y-130745746D01*
X176046666Y-130745746D02*
X175951428Y-130793365D01*
X175951428Y-130793365D02*
X175665714Y-130793365D01*
X175665714Y-130793365D02*
X175570476Y-130745746D01*
X175570476Y-130745746D02*
X175522857Y-130698126D01*
X108793529Y-87210617D02*
X108317339Y-87210617D01*
X108317339Y-87210617D02*
X108317339Y-86210617D01*
X109555434Y-86543950D02*
X109555434Y-87210617D01*
X109317339Y-86162998D02*
X109079244Y-86877283D01*
X109079244Y-86877283D02*
X109698291Y-86877283D01*
X103484333Y-108564819D02*
X103151000Y-108088628D01*
X102912905Y-108564819D02*
X102912905Y-107564819D01*
X102912905Y-107564819D02*
X103293857Y-107564819D01*
X103293857Y-107564819D02*
X103389095Y-107612438D01*
X103389095Y-107612438D02*
X103436714Y-107660057D01*
X103436714Y-107660057D02*
X103484333Y-107755295D01*
X103484333Y-107755295D02*
X103484333Y-107898152D01*
X103484333Y-107898152D02*
X103436714Y-107993390D01*
X103436714Y-107993390D02*
X103389095Y-108041009D01*
X103389095Y-108041009D02*
X103293857Y-108088628D01*
X103293857Y-108088628D02*
X102912905Y-108088628D01*
X103865286Y-107660057D02*
X103912905Y-107612438D01*
X103912905Y-107612438D02*
X104008143Y-107564819D01*
X104008143Y-107564819D02*
X104246238Y-107564819D01*
X104246238Y-107564819D02*
X104341476Y-107612438D01*
X104341476Y-107612438D02*
X104389095Y-107660057D01*
X104389095Y-107660057D02*
X104436714Y-107755295D01*
X104436714Y-107755295D02*
X104436714Y-107850533D01*
X104436714Y-107850533D02*
X104389095Y-107993390D01*
X104389095Y-107993390D02*
X103817667Y-108564819D01*
X103817667Y-108564819D02*
X104436714Y-108564819D01*
X105341476Y-107564819D02*
X104865286Y-107564819D01*
X104865286Y-107564819D02*
X104817667Y-108041009D01*
X104817667Y-108041009D02*
X104865286Y-107993390D01*
X104865286Y-107993390D02*
X104960524Y-107945771D01*
X104960524Y-107945771D02*
X105198619Y-107945771D01*
X105198619Y-107945771D02*
X105293857Y-107993390D01*
X105293857Y-107993390D02*
X105341476Y-108041009D01*
X105341476Y-108041009D02*
X105389095Y-108136247D01*
X105389095Y-108136247D02*
X105389095Y-108374342D01*
X105389095Y-108374342D02*
X105341476Y-108469580D01*
X105341476Y-108469580D02*
X105293857Y-108517200D01*
X105293857Y-108517200D02*
X105198619Y-108564819D01*
X105198619Y-108564819D02*
X104960524Y-108564819D01*
X104960524Y-108564819D02*
X104865286Y-108517200D01*
X104865286Y-108517200D02*
X104817667Y-108469580D01*
X169705010Y-102345450D02*
X170514533Y-102345450D01*
X170514533Y-102345450D02*
X170609771Y-102297831D01*
X170609771Y-102297831D02*
X170657391Y-102250212D01*
X170657391Y-102250212D02*
X170705010Y-102154974D01*
X170705010Y-102154974D02*
X170705010Y-101964498D01*
X170705010Y-101964498D02*
X170657391Y-101869260D01*
X170657391Y-101869260D02*
X170609771Y-101821641D01*
X170609771Y-101821641D02*
X170514533Y-101774022D01*
X170514533Y-101774022D02*
X169705010Y-101774022D01*
X170133581Y-101154974D02*
X170085962Y-101250212D01*
X170085962Y-101250212D02*
X170038343Y-101297831D01*
X170038343Y-101297831D02*
X169943105Y-101345450D01*
X169943105Y-101345450D02*
X169895486Y-101345450D01*
X169895486Y-101345450D02*
X169800248Y-101297831D01*
X169800248Y-101297831D02*
X169752629Y-101250212D01*
X169752629Y-101250212D02*
X169705010Y-101154974D01*
X169705010Y-101154974D02*
X169705010Y-100964498D01*
X169705010Y-100964498D02*
X169752629Y-100869260D01*
X169752629Y-100869260D02*
X169800248Y-100821641D01*
X169800248Y-100821641D02*
X169895486Y-100774022D01*
X169895486Y-100774022D02*
X169943105Y-100774022D01*
X169943105Y-100774022D02*
X170038343Y-100821641D01*
X170038343Y-100821641D02*
X170085962Y-100869260D01*
X170085962Y-100869260D02*
X170133581Y-100964498D01*
X170133581Y-100964498D02*
X170133581Y-101154974D01*
X170133581Y-101154974D02*
X170181200Y-101250212D01*
X170181200Y-101250212D02*
X170228819Y-101297831D01*
X170228819Y-101297831D02*
X170324057Y-101345450D01*
X170324057Y-101345450D02*
X170514533Y-101345450D01*
X170514533Y-101345450D02*
X170609771Y-101297831D01*
X170609771Y-101297831D02*
X170657391Y-101250212D01*
X170657391Y-101250212D02*
X170705010Y-101154974D01*
X170705010Y-101154974D02*
X170705010Y-100964498D01*
X170705010Y-100964498D02*
X170657391Y-100869260D01*
X170657391Y-100869260D02*
X170609771Y-100821641D01*
X170609771Y-100821641D02*
X170514533Y-100774022D01*
X170514533Y-100774022D02*
X170324057Y-100774022D01*
X170324057Y-100774022D02*
X170228819Y-100821641D01*
X170228819Y-100821641D02*
X170181200Y-100869260D01*
X170181200Y-100869260D02*
X170133581Y-100964498D01*
X129085859Y-88149357D02*
X129085859Y-88796976D01*
X129085859Y-88796976D02*
X129116336Y-88873166D01*
X129116336Y-88873166D02*
X129146812Y-88911262D01*
X129146812Y-88911262D02*
X129207764Y-88949357D01*
X129207764Y-88949357D02*
X129329669Y-88949357D01*
X129329669Y-88949357D02*
X129390621Y-88911262D01*
X129390621Y-88911262D02*
X129421098Y-88873166D01*
X129421098Y-88873166D02*
X129451574Y-88796976D01*
X129451574Y-88796976D02*
X129451574Y-88149357D01*
X130030621Y-88416023D02*
X130030621Y-88949357D01*
X129878240Y-88111262D02*
X129725859Y-88682690D01*
X129725859Y-88682690D02*
X130122050Y-88682690D01*
%TO.C,J1*%
D11*
X89237191Y-66148546D02*
X89237191Y-65468546D01*
X89237191Y-62908546D02*
X89237191Y-62558546D01*
X80297191Y-66148546D02*
X80297191Y-65468546D01*
X80297191Y-62558546D02*
X80297191Y-62908546D01*
X87842191Y-69998546D02*
G75*
G02*
X87642191Y-69998546I-100000J0D01*
G01*
X87642191Y-69998546D02*
G75*
G02*
X87842191Y-69998546I100000J0D01*
G01*
%TO.C,R3*%
D12*
X113966483Y-78312742D02*
X113966483Y-78787258D01*
X115011483Y-78312742D02*
X115011483Y-78787258D01*
%TO.C,R16*%
X174481755Y-72748546D02*
X170127627Y-72748546D01*
X174481755Y-76168546D02*
X170127627Y-76168546D01*
%TO.C,C10*%
X132039691Y-86967966D02*
X132039691Y-87249126D01*
X133059691Y-86967966D02*
X133059691Y-87249126D01*
%TO.C,SW1*%
X180522191Y-135648546D02*
X180522191Y-137148546D01*
X181772191Y-139648546D02*
X186272191Y-139648546D01*
X186272191Y-133148546D02*
X181772191Y-133148546D01*
X187522191Y-137148546D02*
X187522191Y-135648546D01*
%TO.C,C7*%
X145119691Y-80509126D02*
X145119691Y-80227966D01*
X146139691Y-80509126D02*
X146139691Y-80227966D01*
%TO.C,C20*%
X144702191Y-112204126D02*
X144702191Y-111922966D01*
X145722191Y-112204126D02*
X145722191Y-111922966D01*
%TO.C,C16*%
X130732191Y-101482966D02*
X130732191Y-101764126D01*
X131752191Y-101482966D02*
X131752191Y-101764126D01*
%TO.C,C9*%
X147889691Y-72963546D02*
X151739691Y-72963546D01*
X147889691Y-82619109D02*
X147889691Y-72963546D01*
X148954128Y-83683546D02*
X147889691Y-82619109D01*
X148954128Y-83683546D02*
X151739691Y-83683546D01*
X149864691Y-84548546D02*
X151114691Y-84548546D01*
X150489691Y-85173546D02*
X150489691Y-83923546D01*
X157545254Y-83683546D02*
X154759691Y-83683546D01*
X157545254Y-83683546D02*
X158609691Y-82619109D01*
X158609691Y-72963546D02*
X154759691Y-72963546D01*
X158609691Y-82619109D02*
X158609691Y-72963546D01*
%TO.C,C6*%
X131164420Y-77813546D02*
X131445580Y-77813546D01*
X131164420Y-78833546D02*
X131445580Y-78833546D01*
%TO.C,J3*%
D13*
X217252191Y-92818546D02*
X218402191Y-92818546D01*
X217252191Y-94768546D02*
X217252191Y-92818546D01*
X217252191Y-101818546D02*
X217252191Y-99968546D01*
X223502191Y-92818546D02*
X231652191Y-92818546D01*
X231652191Y-92818546D02*
X231652191Y-101818546D01*
X231652191Y-101818546D02*
X217252191Y-101818546D01*
D14*
X216152191Y-97318546D02*
G75*
G02*
X215752191Y-97318546I-200000J0D01*
G01*
X215752191Y-97318546D02*
G75*
G02*
X216152191Y-97318546I200000J0D01*
G01*
%TO.C,L1*%
D11*
X136064691Y-74923546D02*
X142864691Y-74923546D01*
X136064691Y-76223546D02*
X136064691Y-74923546D01*
X136064691Y-80423546D02*
X136064691Y-81723546D01*
X136064691Y-81723546D02*
X142864691Y-81723546D01*
X142864691Y-74923546D02*
X142864691Y-76223546D01*
X142864691Y-81723546D02*
X142864691Y-80423546D01*
D14*
X134664691Y-78323546D02*
G75*
G02*
X134264691Y-78323546I-200000J0D01*
G01*
X134264691Y-78323546D02*
G75*
G02*
X134664691Y-78323546I200000J0D01*
G01*
%TO.C,R24*%
D12*
X96683691Y-102860288D02*
X96683691Y-103334804D01*
X97728691Y-102860288D02*
X97728691Y-103334804D01*
%TO.C,C24*%
X99412400Y-87410992D02*
X99412400Y-87129832D01*
X100432400Y-87410992D02*
X100432400Y-87129832D01*
%TO.C,L3*%
D11*
X135647191Y-106618546D02*
X142447191Y-106618546D01*
X135647191Y-107918546D02*
X135647191Y-106618546D01*
X135647191Y-112118546D02*
X135647191Y-113418546D01*
X135647191Y-113418546D02*
X142447191Y-113418546D01*
X142447191Y-106618546D02*
X142447191Y-107918546D01*
X142447191Y-113418546D02*
X142447191Y-112118546D01*
D14*
X134247191Y-110018546D02*
G75*
G02*
X133847191Y-110018546I-200000J0D01*
G01*
X133847191Y-110018546D02*
G75*
G02*
X134247191Y-110018546I200000J0D01*
G01*
%TO.C,Q1*%
D15*
X181305191Y-77099546D02*
X187859191Y-77099546D01*
X181305591Y-83093946D02*
X181305191Y-77099546D01*
X187859191Y-77099546D02*
X187858791Y-83093946D01*
D16*
X185013991Y-76997946D02*
X184150391Y-76997946D01*
X184150391Y-76235946D01*
X185013991Y-76235946D01*
X185013991Y-76997946D01*
G36*
X185013991Y-76997946D02*
G01*
X184150391Y-76997946D01*
X184150391Y-76235946D01*
X185013991Y-76235946D01*
X185013991Y-76997946D01*
G37*
%TO.C,R14*%
D12*
X181834449Y-128546046D02*
X181359933Y-128546046D01*
X181834449Y-129591046D02*
X181359933Y-129591046D01*
%TO.C,R8*%
X126407433Y-91171046D02*
X126881949Y-91171046D01*
X126407433Y-92216046D02*
X126881949Y-92216046D01*
%TO.C,R7*%
X126407433Y-86091046D02*
X126881949Y-86091046D01*
X126407433Y-87136046D02*
X126881949Y-87136046D01*
%TO.C,C17*%
X134697771Y-103158546D02*
X134416611Y-103158546D01*
X134697771Y-104178546D02*
X134416611Y-104178546D01*
%TO.C,Q8*%
D13*
X75132191Y-126326595D02*
X75132191Y-125776595D01*
X78132191Y-126326595D02*
X78132191Y-125776595D01*
D11*
X77707191Y-125076595D02*
G75*
G02*
X77507191Y-125076595I-100000J0D01*
G01*
X77507191Y-125076595D02*
G75*
G02*
X77707191Y-125076595I100000J0D01*
G01*
%TO.C,C14*%
D12*
X144739691Y-96419126D02*
X144739691Y-96137966D01*
X145759691Y-96419126D02*
X145759691Y-96137966D01*
%TO.C,C18*%
X131164420Y-108238546D02*
X131445580Y-108238546D01*
X131164420Y-109258546D02*
X131445580Y-109258546D01*
%TO.C,C23*%
X102436843Y-85551378D02*
X102718003Y-85551378D01*
X102436843Y-86571378D02*
X102718003Y-86571378D01*
%TO.C,C2*%
X112044316Y-77273671D02*
X112325476Y-77273671D01*
X112044316Y-78293671D02*
X112325476Y-78293671D01*
%TO.C,R19*%
X192949691Y-74250804D02*
X192949691Y-73776288D01*
X193994691Y-74250804D02*
X193994691Y-73776288D01*
%TO.C,Q6*%
D13*
X101081191Y-94836546D02*
X101081191Y-95386546D01*
X104081191Y-94836546D02*
X104081191Y-95386546D01*
D11*
X101706191Y-96086546D02*
G75*
G02*
X101506191Y-96086546I-100000J0D01*
G01*
X101506191Y-96086546D02*
G75*
G02*
X101706191Y-96086546I100000J0D01*
G01*
%TO.C,Q2*%
D13*
X194882191Y-70068546D02*
X194882191Y-70918546D01*
X195632191Y-70068546D02*
X194882191Y-70068546D01*
X197032191Y-70068546D02*
X197782191Y-70068546D01*
X197782191Y-70068546D02*
X197782191Y-70918546D01*
D11*
X195482191Y-73078546D02*
G75*
G02*
X195282191Y-73078546I-100000J0D01*
G01*
X195282191Y-73078546D02*
G75*
G02*
X195482191Y-73078546I100000J0D01*
G01*
%TO.C,R22*%
D12*
X98211294Y-104850322D02*
X98211294Y-105324838D01*
X99256294Y-104850322D02*
X99256294Y-105324838D01*
%TO.C,R1*%
X109167191Y-77677742D02*
X109167191Y-78152258D01*
X110212191Y-77677742D02*
X110212191Y-78152258D01*
%TO.C,U5*%
D13*
X132057191Y-104323546D02*
X130457191Y-104323546D01*
X132057191Y-107453546D02*
X130457191Y-107453546D01*
D11*
X133757191Y-107088546D02*
G75*
G02*
X133557191Y-107088546I-100000J0D01*
G01*
X133557191Y-107088546D02*
G75*
G02*
X133757191Y-107088546I100000J0D01*
G01*
%TO.C,C3*%
D12*
X115660613Y-77857073D02*
X115660613Y-78138233D01*
X116680613Y-77857073D02*
X116680613Y-78138233D01*
%TO.C,C11*%
X135230271Y-88643546D02*
X134949111Y-88643546D01*
X135230271Y-89663546D02*
X134949111Y-89663546D01*
%TO.C,R27*%
X80099425Y-127494288D02*
X80099425Y-123140160D01*
X83519425Y-127494288D02*
X83519425Y-123140160D01*
%TO.C,U1*%
X95447191Y-66738546D02*
X99567191Y-66738546D01*
X99567191Y-71858546D02*
X95447191Y-71858546D01*
X101247191Y-71298546D02*
X101577191Y-71058546D01*
X101577191Y-71538546D01*
X101247191Y-71298546D01*
G36*
X101577191Y-71538546D02*
G01*
X101247191Y-71298546D01*
X101577191Y-71058546D01*
X101577191Y-71538546D01*
G37*
%TO.C,DS1*%
D13*
X195282191Y-104458546D02*
X228982191Y-104458546D01*
X195282191Y-139958546D02*
X195282191Y-104458546D01*
X228982191Y-104458546D02*
X228982191Y-139958546D01*
X228982191Y-139958546D02*
X195282191Y-139958546D01*
D11*
X194832191Y-126018546D02*
G75*
G02*
X194632191Y-126018546I-100000J0D01*
G01*
X194632191Y-126018546D02*
G75*
G02*
X194832191Y-126018546I100000J0D01*
G01*
%TO.C,C8*%
D12*
X145119691Y-76417966D02*
X145119691Y-76699126D01*
X146139691Y-76417966D02*
X146139691Y-76699126D01*
%TO.C,U6*%
D13*
X169132191Y-114408546D02*
X169132191Y-123408546D01*
X169132191Y-114408546D02*
X170432191Y-114408546D01*
X169132191Y-123408546D02*
X170432191Y-123408546D01*
X170432191Y-109908546D02*
X170432191Y-114408546D01*
X170432191Y-123408546D02*
X170432191Y-127908546D01*
X193132191Y-109908546D02*
X170432191Y-109908546D01*
X193132191Y-109908546D02*
X193132191Y-127908546D01*
X193132191Y-127908546D02*
X170432191Y-127908546D01*
%TO.C,R23*%
D12*
X95116539Y-102889505D02*
X95116539Y-103364021D01*
X96161539Y-102889505D02*
X96161539Y-103364021D01*
%TO.C,Q3*%
D13*
X194882191Y-89118546D02*
X194882191Y-89968546D01*
X195632191Y-89118546D02*
X194882191Y-89118546D01*
X197032191Y-89118546D02*
X197782191Y-89118546D01*
X197782191Y-89118546D02*
X197782191Y-89968546D01*
D11*
X195482191Y-92128546D02*
G75*
G02*
X195282191Y-92128546I-100000J0D01*
G01*
X195282191Y-92128546D02*
G75*
G02*
X195482191Y-92128546I100000J0D01*
G01*
%TO.C,C13*%
D12*
X144739691Y-92047966D02*
X144739691Y-92329126D01*
X145759691Y-92047966D02*
X145759691Y-92329126D01*
%TO.C,C28*%
X113719568Y-90223548D02*
X113719568Y-90504708D01*
X114739568Y-90223548D02*
X114739568Y-90504708D01*
%TO.C,R26*%
X103782809Y-130024564D02*
X103782809Y-125670436D01*
X107202809Y-130024564D02*
X107202809Y-125670436D01*
%TO.C,C30*%
X109626191Y-97730983D02*
X109626191Y-107386546D01*
X109626191Y-107386546D02*
X113476191Y-107386546D01*
X110690628Y-96666546D02*
X109626191Y-97730983D01*
X110690628Y-96666546D02*
X113476191Y-96666546D01*
X117746191Y-95176546D02*
X117746191Y-96426546D01*
X118371191Y-95801546D02*
X117121191Y-95801546D01*
X119281754Y-96666546D02*
X116496191Y-96666546D01*
X119281754Y-96666546D02*
X120346191Y-97730983D01*
X120346191Y-97730983D02*
X120346191Y-107386546D01*
X120346191Y-107386546D02*
X116496191Y-107386546D01*
%TO.C,C27*%
X100920408Y-105455101D02*
X101201568Y-105455101D01*
X100920408Y-106475101D02*
X101201568Y-106475101D01*
%TO.C,R20*%
X192949691Y-92920804D02*
X192949691Y-92446288D01*
X193994691Y-92920804D02*
X193994691Y-92446288D01*
%TO.C,D1*%
D13*
X212512191Y-73988546D02*
X212512191Y-78318546D01*
X212512191Y-78318546D02*
X212722191Y-78318546D01*
X212722191Y-73988546D02*
X212512191Y-73988546D01*
X215072191Y-73988546D02*
X214862191Y-73988546D01*
X215072191Y-78318546D02*
X214862191Y-78318546D01*
X215072191Y-78318546D02*
X215072191Y-73988546D01*
D11*
X213992191Y-80053546D02*
G75*
G02*
X213792191Y-80053546I-100000J0D01*
G01*
X213792191Y-80053546D02*
G75*
G02*
X213992191Y-80053546I100000J0D01*
G01*
%TO.C,R2*%
D12*
X111725302Y-78841374D02*
X112199818Y-78841374D01*
X111725302Y-79886374D02*
X112199818Y-79886374D01*
%TO.C,J5*%
D11*
X71303181Y-144296714D02*
X71303181Y-144796714D01*
X71303181Y-144796714D02*
X86003181Y-144796714D01*
X71603181Y-130446714D02*
X71603181Y-132496714D01*
X71603181Y-130446714D02*
X85703181Y-130446714D01*
X72303181Y-136396714D02*
X72303181Y-144296714D01*
X72303181Y-144296714D02*
X71303181Y-144296714D01*
X85003181Y-144296714D02*
X85003181Y-136396714D01*
X85703181Y-130446714D02*
X85703181Y-132496714D01*
X86003181Y-144296714D02*
X85003181Y-144296714D01*
X86003181Y-144796714D02*
X86003181Y-144296714D01*
D14*
X73603181Y-131796714D02*
G75*
G02*
X73203181Y-131796714I-200000J0D01*
G01*
X73203181Y-131796714D02*
G75*
G02*
X73603181Y-131796714I200000J0D01*
G01*
%TO.C,Q7*%
D13*
X98912809Y-130770000D02*
X98912809Y-130220000D01*
X101912809Y-130770000D02*
X101912809Y-130220000D01*
D11*
X101487809Y-129520000D02*
G75*
G02*
X101287809Y-129520000I-100000J0D01*
G01*
X101287809Y-129520000D02*
G75*
G02*
X101487809Y-129520000I100000J0D01*
G01*
%TO.C,SW2*%
D10*
X100206191Y-99626546D02*
X100786191Y-99626546D01*
X100206191Y-100206546D02*
X100206191Y-99626546D01*
X100206191Y-103206546D02*
X100206191Y-103786546D01*
X100206191Y-103786546D02*
X100786191Y-103786546D01*
X104366191Y-99626546D02*
X103786191Y-99626546D01*
X104366191Y-100206546D02*
X104366191Y-99626546D01*
X104366191Y-103206546D02*
X104366191Y-103786546D01*
X104366191Y-103786546D02*
X103786191Y-103786546D01*
X101166191Y-104246546D02*
G75*
G02*
X101006191Y-104246546I-80000J0D01*
G01*
X101006191Y-104246546D02*
G75*
G02*
X101166191Y-104246546I80000J0D01*
G01*
%TO.C,L2*%
D11*
X135314691Y-90833546D02*
X142114691Y-90833546D01*
X135314691Y-92133546D02*
X135314691Y-90833546D01*
X135314691Y-96333546D02*
X135314691Y-97633546D01*
X135314691Y-97633546D02*
X142114691Y-97633546D01*
X142114691Y-90833546D02*
X142114691Y-92133546D01*
X142114691Y-97633546D02*
X142114691Y-96333546D01*
D14*
X133914691Y-94233546D02*
G75*
G02*
X133514691Y-94233546I-200000J0D01*
G01*
X133514691Y-94233546D02*
G75*
G02*
X133914691Y-94233546I200000J0D01*
G01*
%TO.C,R21*%
D12*
X190409691Y-89906288D02*
X190409691Y-90380804D01*
X191454691Y-89906288D02*
X191454691Y-90380804D01*
%TO.C,R10*%
X126369933Y-100666046D02*
X126844449Y-100666046D01*
X126369933Y-101711046D02*
X126844449Y-101711046D01*
%TO.C,R4*%
X126787433Y-75261046D02*
X127261949Y-75261046D01*
X126787433Y-76306046D02*
X127261949Y-76306046D01*
%TO.C,R9*%
X126407433Y-88631046D02*
X126881949Y-88631046D01*
X126407433Y-89676046D02*
X126881949Y-89676046D01*
%TO.C,J2*%
D13*
X217252191Y-73768546D02*
X218402191Y-73768546D01*
X217252191Y-75718546D02*
X217252191Y-73768546D01*
X217252191Y-82768546D02*
X217252191Y-80918546D01*
X223502191Y-73768546D02*
X231652191Y-73768546D01*
X231652191Y-73768546D02*
X231652191Y-82768546D01*
X231652191Y-82768546D02*
X217252191Y-82768546D01*
D14*
X216152191Y-78268546D02*
G75*
G02*
X215752191Y-78268546I-200000J0D01*
G01*
X215752191Y-78268546D02*
G75*
G02*
X216152191Y-78268546I200000J0D01*
G01*
%TO.C,C25*%
D12*
X107315580Y-100455000D02*
X107034420Y-100455000D01*
X107315580Y-101475000D02*
X107034420Y-101475000D01*
%TO.C,C26*%
X105887007Y-98895069D02*
X105887007Y-98613909D01*
X106907007Y-98895069D02*
X106907007Y-98613909D01*
%TO.C,C29*%
X115108393Y-92593221D02*
X114827233Y-92593221D01*
X115108393Y-93613221D02*
X114827233Y-93613221D01*
%TO.C,C5*%
X131149691Y-71057966D02*
X131149691Y-71339126D01*
X132169691Y-71057966D02*
X132169691Y-71339126D01*
%TO.C,Q5*%
D13*
X101081191Y-89756546D02*
X101081191Y-90306546D01*
X104081191Y-89756546D02*
X104081191Y-90306546D01*
D11*
X101706191Y-91006546D02*
G75*
G02*
X101506191Y-91006546I-100000J0D01*
G01*
X101506191Y-91006546D02*
G75*
G02*
X101706191Y-91006546I100000J0D01*
G01*
%TO.C,C4*%
D12*
X134835271Y-72733546D02*
X134554111Y-72733546D01*
X134835271Y-73753546D02*
X134554111Y-73753546D01*
%TO.C,R5*%
X126787433Y-72721046D02*
X127261949Y-72721046D01*
X126787433Y-73766046D02*
X127261949Y-73766046D01*
%TO.C,C21*%
X147472191Y-106318546D02*
X151322191Y-106318546D01*
X147472191Y-115974109D02*
X147472191Y-106318546D01*
X148536628Y-117038546D02*
X147472191Y-115974109D01*
X148536628Y-117038546D02*
X151322191Y-117038546D01*
X149447191Y-117903546D02*
X150697191Y-117903546D01*
X150072191Y-118528546D02*
X150072191Y-117278546D01*
X157127754Y-117038546D02*
X154342191Y-117038546D01*
X157127754Y-117038546D02*
X158192191Y-115974109D01*
X158192191Y-106318546D02*
X154342191Y-106318546D01*
X158192191Y-115974109D02*
X158192191Y-106318546D01*
%TO.C,Q4*%
D15*
X181045191Y-96149546D02*
X187599191Y-96149546D01*
X181045591Y-102143946D02*
X181045191Y-96149546D01*
X187599191Y-96149546D02*
X187598791Y-102143946D01*
D16*
X184753991Y-96047946D02*
X183890391Y-96047946D01*
X183890391Y-95285946D01*
X184753991Y-95285946D01*
X184753991Y-96047946D01*
G36*
X184753991Y-96047946D02*
G01*
X183890391Y-96047946D01*
X183890391Y-95285946D01*
X184753991Y-95285946D01*
X184753991Y-96047946D01*
G37*
%TO.C,D2*%
D13*
X212512191Y-93038546D02*
X212512191Y-97368546D01*
X212512191Y-97368546D02*
X212722191Y-97368546D01*
X212722191Y-93038546D02*
X212512191Y-93038546D01*
X215072191Y-93038546D02*
X214862191Y-93038546D01*
X215072191Y-97368546D02*
X214862191Y-97368546D01*
X215072191Y-97368546D02*
X215072191Y-93038546D01*
D11*
X213992191Y-99103546D02*
G75*
G02*
X213792191Y-99103546I-100000J0D01*
G01*
X213792191Y-99103546D02*
G75*
G02*
X213992191Y-99103546I100000J0D01*
G01*
%TO.C,R12*%
D12*
X126369933Y-103146046D02*
X126844449Y-103146046D01*
X126369933Y-104191046D02*
X126844449Y-104191046D01*
%TO.C,C12*%
X131164420Y-93470000D02*
X131445580Y-93470000D01*
X131164420Y-94490000D02*
X131445580Y-94490000D01*
%TO.C,J4*%
D11*
X97130000Y-138648546D02*
X97130000Y-139328546D01*
X97130000Y-141888546D02*
X97130000Y-142238546D01*
X106070000Y-138648546D02*
X106070000Y-139328546D01*
X106070000Y-142238546D02*
X106070000Y-141888546D01*
X98725000Y-134798546D02*
G75*
G02*
X98525000Y-134798546I-100000J0D01*
G01*
X98525000Y-134798546D02*
G75*
G02*
X98725000Y-134798546I100000J0D01*
G01*
%TO.C,C22*%
D12*
X100049420Y-96913760D02*
X100330580Y-96913760D01*
X100049420Y-97933760D02*
X100330580Y-97933760D01*
%TO.C,R17*%
X174906755Y-90953546D02*
X170552627Y-90953546D01*
X174906755Y-94373546D02*
X170552627Y-94373546D01*
%TO.C,R18*%
X190409691Y-70856288D02*
X190409691Y-71330804D01*
X191454691Y-70856288D02*
X191454691Y-71330804D01*
%TO.C,C19*%
X144702191Y-107832966D02*
X144702191Y-108114126D01*
X145722191Y-107832966D02*
X145722191Y-108114126D01*
%TO.C,U7*%
D13*
X171262191Y-84098546D02*
X171262191Y-80198546D01*
X176312191Y-84098546D02*
X176312191Y-80198546D01*
D11*
X171582191Y-86188546D02*
G75*
G02*
X171382191Y-86188546I-100000J0D01*
G01*
X171382191Y-86188546D02*
G75*
G02*
X171582191Y-86188546I100000J0D01*
G01*
%TO.C,C1*%
D12*
X99997191Y-73182966D02*
X99997191Y-73464126D01*
X101017191Y-73182966D02*
X101017191Y-73464126D01*
%TO.C,R11*%
X126369933Y-105686046D02*
X126844449Y-105686046D01*
X126369933Y-106731046D02*
X126844449Y-106731046D01*
%TO.C,R6*%
X126787433Y-70181046D02*
X127261949Y-70181046D01*
X126787433Y-71226046D02*
X127261949Y-71226046D01*
%TO.C,C15*%
X147509691Y-90533546D02*
X151359691Y-90533546D01*
X147509691Y-100189109D02*
X147509691Y-90533546D01*
X148574128Y-101253546D02*
X147509691Y-100189109D01*
X148574128Y-101253546D02*
X151359691Y-101253546D01*
X149484691Y-102118546D02*
X150734691Y-102118546D01*
X150109691Y-102743546D02*
X150109691Y-101493546D01*
X157165254Y-101253546D02*
X154379691Y-101253546D01*
X157165254Y-101253546D02*
X158229691Y-100189109D01*
X158229691Y-90533546D02*
X154379691Y-90533546D01*
X158229691Y-100189109D02*
X158229691Y-90533546D01*
%TO.C,U3*%
D13*
X132444691Y-73898546D02*
X130844691Y-73898546D01*
X132444691Y-77028546D02*
X130844691Y-77028546D01*
D11*
X134144691Y-76663546D02*
G75*
G02*
X133944691Y-76663546I-100000J0D01*
G01*
X133944691Y-76663546D02*
G75*
G02*
X134144691Y-76663546I100000J0D01*
G01*
%TO.C,U2*%
D13*
X111499691Y-71978546D02*
X111809691Y-71978546D01*
X111499691Y-72288546D02*
X111499691Y-71978546D01*
X111499691Y-75978546D02*
X111499691Y-75668546D01*
X111809691Y-75978546D02*
X111499691Y-75978546D01*
X115189691Y-71978546D02*
X115499691Y-71978546D01*
X115499691Y-71978546D02*
X115499691Y-72288546D01*
X115499691Y-75978546D02*
X115189691Y-75978546D01*
X115499691Y-75978546D02*
X115499691Y-75668546D01*
D11*
X110399691Y-72728546D02*
G75*
G02*
X110199691Y-72728546I-100000J0D01*
G01*
X110199691Y-72728546D02*
G75*
G02*
X110399691Y-72728546I100000J0D01*
G01*
%TO.C,R15*%
D12*
X180564449Y-108226046D02*
X180089933Y-108226046D01*
X180564449Y-109271046D02*
X180089933Y-109271046D01*
%TO.C,R13*%
X178007742Y-128546046D02*
X178482258Y-128546046D01*
X178007742Y-129591046D02*
X178482258Y-129591046D01*
%TO.C,L4*%
D11*
X105560196Y-87990798D02*
X112360196Y-87990798D01*
X105560196Y-89290798D02*
X105560196Y-87990798D01*
X105560196Y-93490798D02*
X105560196Y-94790798D01*
X105560196Y-94790798D02*
X112360196Y-94790798D01*
X112360196Y-87990798D02*
X112360196Y-89290798D01*
X112360196Y-94790798D02*
X112360196Y-93490798D01*
D14*
X104160196Y-91390798D02*
G75*
G02*
X103760196Y-91390798I-200000J0D01*
G01*
X103760196Y-91390798D02*
G75*
G02*
X104160196Y-91390798I200000J0D01*
G01*
%TO.C,R25*%
D12*
X104364449Y-106157500D02*
X103889933Y-106157500D01*
X104364449Y-107202500D02*
X103889933Y-107202500D01*
%TO.C,U8*%
D13*
X171262191Y-103148546D02*
X171262191Y-99248546D01*
X176312191Y-103148546D02*
X176312191Y-99248546D01*
D11*
X171582191Y-105238546D02*
G75*
G02*
X171382191Y-105238546I-100000J0D01*
G01*
X171382191Y-105238546D02*
G75*
G02*
X171582191Y-105238546I100000J0D01*
G01*
%TO.C,U4*%
D13*
X132094691Y-89178546D02*
X130494691Y-89178546D01*
X132094691Y-92308546D02*
X130494691Y-92308546D01*
D11*
X133794691Y-91943546D02*
G75*
G02*
X133594691Y-91943546I-100000J0D01*
G01*
X133594691Y-91943546D02*
G75*
G02*
X133794691Y-91943546I100000J0D01*
G01*
%TD*%
%LPC*%
D16*
%TO.C,Q8*%
X77957191Y-126546595D02*
X77957191Y-126961595D01*
X78337191Y-126961595D01*
X78337191Y-127591595D01*
X77957191Y-127591595D01*
X77957191Y-128726595D01*
X77907191Y-128726595D01*
X77907191Y-129026595D01*
X75382191Y-129026595D01*
X75382191Y-128726595D01*
X75307191Y-128726595D01*
X75307191Y-127591595D01*
X74927191Y-127591595D01*
X74927191Y-126961595D01*
X75307191Y-126961595D01*
X75307191Y-126546595D01*
X77957191Y-126546595D01*
G36*
X77957191Y-126961595D02*
G01*
X78337191Y-126961595D01*
X78337191Y-127591595D01*
X77957191Y-127591595D01*
X77957191Y-128726595D01*
X77907191Y-128726595D01*
X77907191Y-129026595D01*
X75382191Y-129026595D01*
X75382191Y-128726595D01*
X75307191Y-128726595D01*
X75307191Y-127591595D01*
X74927191Y-127591595D01*
X74927191Y-126961595D01*
X75307191Y-126961595D01*
X75307191Y-126546595D01*
X77957191Y-126546595D01*
X77957191Y-126961595D01*
G37*
%TO.C,Q6*%
X101256191Y-94616546D02*
X101256191Y-94201546D01*
X100876191Y-94201546D01*
X100876191Y-93571546D01*
X101256191Y-93571546D01*
X101256191Y-92436546D01*
X101306191Y-92436546D01*
X101306191Y-92136546D01*
X103831191Y-92136546D01*
X103831191Y-92436546D01*
X103906191Y-92436546D01*
X103906191Y-93571546D01*
X104286191Y-93571546D01*
X104286191Y-94201546D01*
X103906191Y-94201546D01*
X103906191Y-94616546D01*
X101256191Y-94616546D01*
G36*
X103831191Y-92436546D02*
G01*
X103906191Y-92436546D01*
X103906191Y-93571546D01*
X104286191Y-93571546D01*
X104286191Y-94201546D01*
X103906191Y-94201546D01*
X103906191Y-94616546D01*
X101256191Y-94616546D01*
X101256191Y-94201546D01*
X100876191Y-94201546D01*
X100876191Y-93571546D01*
X101256191Y-93571546D01*
X101256191Y-92436546D01*
X101306191Y-92436546D01*
X101306191Y-92136546D01*
X103831191Y-92136546D01*
X103831191Y-92436546D01*
G37*
%TO.C,Q7*%
X101737809Y-130990000D02*
X101737809Y-131405000D01*
X102117809Y-131405000D01*
X102117809Y-132035000D01*
X101737809Y-132035000D01*
X101737809Y-133170000D01*
X101687809Y-133170000D01*
X101687809Y-133470000D01*
X99162809Y-133470000D01*
X99162809Y-133170000D01*
X99087809Y-133170000D01*
X99087809Y-132035000D01*
X98707809Y-132035000D01*
X98707809Y-131405000D01*
X99087809Y-131405000D01*
X99087809Y-130990000D01*
X101737809Y-130990000D01*
G36*
X101737809Y-131405000D02*
G01*
X102117809Y-131405000D01*
X102117809Y-132035000D01*
X101737809Y-132035000D01*
X101737809Y-133170000D01*
X101687809Y-133170000D01*
X101687809Y-133470000D01*
X99162809Y-133470000D01*
X99162809Y-133170000D01*
X99087809Y-133170000D01*
X99087809Y-132035000D01*
X98707809Y-132035000D01*
X98707809Y-131405000D01*
X99087809Y-131405000D01*
X99087809Y-130990000D01*
X101737809Y-130990000D01*
X101737809Y-131405000D01*
G37*
%TO.C,Q5*%
X101256191Y-89536546D02*
X101256191Y-89121546D01*
X100876191Y-89121546D01*
X100876191Y-88491546D01*
X101256191Y-88491546D01*
X101256191Y-87356546D01*
X101306191Y-87356546D01*
X101306191Y-87056546D01*
X103831191Y-87056546D01*
X103831191Y-87356546D01*
X103906191Y-87356546D01*
X103906191Y-88491546D01*
X104286191Y-88491546D01*
X104286191Y-89121546D01*
X103906191Y-89121546D01*
X103906191Y-89536546D01*
X101256191Y-89536546D01*
G36*
X103831191Y-87356546D02*
G01*
X103906191Y-87356546D01*
X103906191Y-88491546D01*
X104286191Y-88491546D01*
X104286191Y-89121546D01*
X103906191Y-89121546D01*
X103906191Y-89536546D01*
X101256191Y-89536546D01*
X101256191Y-89121546D01*
X100876191Y-89121546D01*
X100876191Y-88491546D01*
X101256191Y-88491546D01*
X101256191Y-87356546D01*
X101306191Y-87356546D01*
X101306191Y-87056546D01*
X103831191Y-87056546D01*
X103831191Y-87356546D01*
G37*
%TD*%
D17*
%TO.C,J1*%
X86892191Y-68658546D03*
X85192191Y-68658546D03*
X87742191Y-68658546D03*
X86042191Y-68658546D03*
X84342191Y-68658546D03*
X83492191Y-68658546D03*
X82642191Y-68658546D03*
X81792191Y-68658546D03*
X81792191Y-67308546D03*
X82642191Y-67308546D03*
X83492191Y-67308546D03*
X84342191Y-67308546D03*
X85192191Y-67308546D03*
X86042191Y-67308546D03*
X86892191Y-67308546D03*
X87742191Y-67308546D03*
D18*
X89092191Y-64298546D03*
X80442191Y-64298546D03*
D19*
X89092191Y-67678546D03*
X80442191Y-67678546D03*
%TD*%
D20*
%TO.C,R3*%
X114488983Y-77725000D03*
X114488983Y-79375000D03*
%TD*%
D21*
%TO.C,R16*%
X175267191Y-74458546D03*
X169342191Y-74458546D03*
%TD*%
D22*
%TO.C,C10*%
X132549691Y-86333546D03*
X132549691Y-87883546D03*
%TD*%
D23*
%TO.C,SW1*%
X187272191Y-138648546D03*
X180772191Y-138648546D03*
X187272191Y-134148546D03*
X180772191Y-134148546D03*
%TD*%
D24*
%TO.C,C7*%
X145629691Y-81143546D03*
X145629691Y-79593546D03*
%TD*%
%TO.C,C20*%
X145212191Y-112838546D03*
X145212191Y-111288546D03*
%TD*%
D22*
%TO.C,C16*%
X131242191Y-100848546D03*
X131242191Y-102398546D03*
%TD*%
D25*
%TO.C,C9*%
X153249691Y-82523546D03*
X153249691Y-74123546D03*
%TD*%
D26*
%TO.C,C6*%
X130530000Y-78323546D03*
X132080000Y-78323546D03*
%TD*%
D27*
%TO.C,J3*%
X217952191Y-97318546D03*
D28*
X223952191Y-97318546D03*
D29*
X220952191Y-92618546D03*
%TD*%
D30*
%TO.C,L1*%
X136739691Y-78323546D03*
X142189691Y-78323546D03*
%TD*%
D20*
%TO.C,R24*%
X97206191Y-102272546D03*
X97206191Y-103922546D03*
%TD*%
D24*
%TO.C,C24*%
X99922400Y-88045412D03*
X99922400Y-86495412D03*
%TD*%
D30*
%TO.C,L3*%
X136322191Y-110018546D03*
X141772191Y-110018546D03*
%TD*%
D31*
%TO.C,Q1*%
X186862191Y-74458546D03*
X182302191Y-74458546D03*
D32*
X184582191Y-81758546D03*
%TD*%
D33*
%TO.C,R14*%
X182422191Y-129068546D03*
X180772191Y-129068546D03*
%TD*%
D34*
%TO.C,R8*%
X125819691Y-91693546D03*
X127469691Y-91693546D03*
%TD*%
%TO.C,R7*%
X125819691Y-86613546D03*
X127469691Y-86613546D03*
%TD*%
D35*
%TO.C,C17*%
X135332191Y-103668546D03*
X133782191Y-103668546D03*
%TD*%
D36*
%TO.C,Q8*%
X77607191Y-125876595D03*
X76957191Y-125876595D03*
X76307191Y-125876595D03*
X75657191Y-125876595D03*
%TD*%
D24*
%TO.C,C14*%
X145249691Y-97053546D03*
X145249691Y-95503546D03*
%TD*%
D26*
%TO.C,C18*%
X130530000Y-108748546D03*
X132080000Y-108748546D03*
%TD*%
%TO.C,C23*%
X101802423Y-86061378D03*
X103352423Y-86061378D03*
%TD*%
%TO.C,C2*%
X111409896Y-77783671D03*
X112959896Y-77783671D03*
%TD*%
D37*
%TO.C,R19*%
X193472191Y-74838546D03*
X193472191Y-73188546D03*
%TD*%
D38*
%TO.C,Q6*%
X101606191Y-95286546D03*
X102256191Y-95286546D03*
X102906191Y-95286546D03*
X103556191Y-95286546D03*
%TD*%
D39*
%TO.C,Q2*%
X195382191Y-71918546D03*
X197282191Y-71918546D03*
X196332191Y-69518546D03*
%TD*%
D20*
%TO.C,R22*%
X98733794Y-104262580D03*
X98733794Y-105912580D03*
%TD*%
%TO.C,R1*%
X109689691Y-77090000D03*
X109689691Y-78740000D03*
%TD*%
D40*
%TO.C,U5*%
X132512191Y-106838546D03*
X132512191Y-105888546D03*
X132512191Y-104938546D03*
X130002191Y-104938546D03*
X130002191Y-105888546D03*
X130002191Y-106838546D03*
%TD*%
D22*
%TO.C,C3*%
X116170613Y-77222653D03*
X116170613Y-78772653D03*
%TD*%
D35*
%TO.C,C11*%
X135864691Y-89153546D03*
X134314691Y-89153546D03*
%TD*%
D41*
%TO.C,R27*%
X81809425Y-128279724D03*
X81809425Y-122354724D03*
%TD*%
D42*
%TO.C,U1*%
X100144691Y-71298546D03*
X100144691Y-70298546D03*
X100144691Y-69298546D03*
X100144691Y-68298546D03*
X100144691Y-67298546D03*
X94869691Y-67298546D03*
X94869691Y-68298546D03*
X94869691Y-69298546D03*
X94869691Y-70298546D03*
X94869691Y-71298546D03*
D43*
X97507191Y-69298546D03*
%TD*%
D44*
%TO.C,DS1*%
X197282191Y-137958546D03*
X226982191Y-137958546D03*
X197282191Y-106458546D03*
X226982191Y-106458546D03*
D45*
X196582191Y-126018546D03*
D46*
X196582191Y-123478546D03*
X196582191Y-120938546D03*
X196582191Y-118398546D03*
%TD*%
D22*
%TO.C,C8*%
X145629691Y-75783546D03*
X145629691Y-77333546D03*
%TD*%
D47*
%TO.C,U6*%
X189662191Y-111288546D03*
X187122191Y-111288546D03*
X184582191Y-111288546D03*
X182042191Y-111288546D03*
X176962191Y-111288546D03*
X179502191Y-111288546D03*
X171882191Y-126528546D03*
X171882191Y-111288546D03*
X174422191Y-126528546D03*
X176962191Y-126528546D03*
X179502191Y-126528546D03*
X182042191Y-126528546D03*
X184582191Y-126528546D03*
X187122191Y-126528546D03*
X189662191Y-126528546D03*
X174422191Y-111288546D03*
%TD*%
D20*
%TO.C,R23*%
X95639039Y-102301763D03*
X95639039Y-103951763D03*
%TD*%
D39*
%TO.C,Q3*%
X195382191Y-90968546D03*
X197282191Y-90968546D03*
X196332191Y-88568546D03*
%TD*%
D22*
%TO.C,C13*%
X145249691Y-91413546D03*
X145249691Y-92963546D03*
%TD*%
%TO.C,C28*%
X114229568Y-89589128D03*
X114229568Y-91139128D03*
%TD*%
D41*
%TO.C,R26*%
X105492809Y-130810000D03*
X105492809Y-124885000D03*
%TD*%
D48*
%TO.C,C30*%
X114986191Y-97826546D03*
X114986191Y-106226546D03*
%TD*%
D26*
%TO.C,C27*%
X100285988Y-105965101D03*
X101835988Y-105965101D03*
%TD*%
D37*
%TO.C,R20*%
X193472191Y-93508546D03*
X193472191Y-91858546D03*
%TD*%
D49*
%TO.C,D1*%
X213792191Y-74038546D03*
X213792191Y-78268546D03*
%TD*%
D34*
%TO.C,R2*%
X111137560Y-79363874D03*
X112787560Y-79363874D03*
%TD*%
D50*
%TO.C,J5*%
X75153181Y-131686714D03*
X77653181Y-131686714D03*
X79653181Y-131686714D03*
X82153181Y-131686714D03*
D51*
X72083181Y-134396714D03*
X85223181Y-134396714D03*
%TD*%
D36*
%TO.C,Q7*%
X101387809Y-130320000D03*
X100737809Y-130320000D03*
X100087809Y-130320000D03*
X99437809Y-130320000D03*
%TD*%
D52*
%TO.C,SW2*%
X101086191Y-103616546D03*
X101486191Y-103616546D03*
X101886191Y-103616546D03*
X102286191Y-103616546D03*
X102686191Y-103616546D03*
X103086191Y-103616546D03*
X103486191Y-103616546D03*
D53*
X104196191Y-102906546D03*
X104196191Y-102506546D03*
X104196191Y-102106546D03*
X104196191Y-101706546D03*
X104196191Y-101306546D03*
X104196191Y-100906546D03*
X104196191Y-100506546D03*
D52*
X103486191Y-99796546D03*
X103086191Y-99796546D03*
X102686191Y-99796546D03*
X102286191Y-99796546D03*
X101886191Y-99796546D03*
X101486191Y-99796546D03*
X101086191Y-99796546D03*
D53*
X100376191Y-100506546D03*
X100376191Y-100906546D03*
X100376191Y-101306546D03*
X100376191Y-101706546D03*
X100376191Y-102106546D03*
X100376191Y-102506546D03*
X100376191Y-102906546D03*
D54*
X102286191Y-101706546D03*
%TD*%
D30*
%TO.C,L2*%
X135989691Y-94233546D03*
X141439691Y-94233546D03*
%TD*%
D20*
%TO.C,R21*%
X190932191Y-89318546D03*
X190932191Y-90968546D03*
%TD*%
D34*
%TO.C,R10*%
X125782191Y-101188546D03*
X127432191Y-101188546D03*
%TD*%
%TO.C,R4*%
X126199691Y-75783546D03*
X127849691Y-75783546D03*
%TD*%
%TO.C,R9*%
X125819691Y-89153546D03*
X127469691Y-89153546D03*
%TD*%
D27*
%TO.C,J2*%
X217952191Y-78268546D03*
D28*
X223952191Y-78268546D03*
D29*
X220952191Y-73568546D03*
%TD*%
D35*
%TO.C,C25*%
X107950000Y-100965000D03*
X106400000Y-100965000D03*
%TD*%
D24*
%TO.C,C26*%
X106397007Y-99529489D03*
X106397007Y-97979489D03*
%TD*%
D35*
%TO.C,C29*%
X115742813Y-93103221D03*
X114192813Y-93103221D03*
%TD*%
D22*
%TO.C,C5*%
X131659691Y-70423546D03*
X131659691Y-71973546D03*
%TD*%
D38*
%TO.C,Q5*%
X101606191Y-90206546D03*
X102256191Y-90206546D03*
X102906191Y-90206546D03*
X103556191Y-90206546D03*
%TD*%
D35*
%TO.C,C4*%
X135469691Y-73243546D03*
X133919691Y-73243546D03*
%TD*%
D34*
%TO.C,R5*%
X126199691Y-73243546D03*
X127849691Y-73243546D03*
%TD*%
D25*
%TO.C,C21*%
X152832191Y-115878546D03*
X152832191Y-107478546D03*
%TD*%
D31*
%TO.C,Q4*%
X186602191Y-93508546D03*
X182042191Y-93508546D03*
D32*
X184322191Y-100808546D03*
%TD*%
D49*
%TO.C,D2*%
X213792191Y-93088546D03*
X213792191Y-97318546D03*
%TD*%
D34*
%TO.C,R12*%
X125782191Y-103668546D03*
X127432191Y-103668546D03*
%TD*%
D26*
%TO.C,C12*%
X130530000Y-93980000D03*
X132080000Y-93980000D03*
%TD*%
D17*
%TO.C,J4*%
X98625000Y-136138546D03*
X99475000Y-136138546D03*
X100325000Y-136138546D03*
X101175000Y-136138546D03*
X102025000Y-136138546D03*
X102875000Y-136138546D03*
X103725000Y-136138546D03*
X104575000Y-136138546D03*
X104575000Y-137488546D03*
X103725000Y-137488546D03*
X102875000Y-137488546D03*
X102025000Y-137488546D03*
X101175000Y-137488546D03*
X100325000Y-137488546D03*
X99475000Y-137488546D03*
X98625000Y-137488546D03*
D18*
X97275000Y-140498546D03*
X105925000Y-140498546D03*
D19*
X97275000Y-137118546D03*
X105925000Y-137118546D03*
%TD*%
D26*
%TO.C,C22*%
X99415000Y-97423760D03*
X100965000Y-97423760D03*
%TD*%
D21*
%TO.C,R17*%
X175692191Y-92663546D03*
X169767191Y-92663546D03*
%TD*%
D20*
%TO.C,R18*%
X190932191Y-70268546D03*
X190932191Y-71918546D03*
%TD*%
D22*
%TO.C,C19*%
X145212191Y-107198546D03*
X145212191Y-108748546D03*
%TD*%
D55*
%TO.C,U7*%
X171882191Y-84618546D03*
X173152191Y-84618546D03*
X174422191Y-84618546D03*
X175692191Y-84618546D03*
X175692191Y-79678546D03*
X174422191Y-79678546D03*
X173152191Y-79678546D03*
X171882191Y-79678546D03*
%TD*%
D22*
%TO.C,C1*%
X100507191Y-72548546D03*
X100507191Y-74098546D03*
%TD*%
D34*
%TO.C,R11*%
X125782191Y-106208546D03*
X127432191Y-106208546D03*
%TD*%
%TO.C,R6*%
X126199691Y-70703546D03*
X127849691Y-70703546D03*
%TD*%
D25*
%TO.C,C15*%
X152869691Y-100093546D03*
X152869691Y-91693546D03*
%TD*%
D40*
%TO.C,U3*%
X132899691Y-76413546D03*
X132899691Y-75463546D03*
X132899691Y-74513546D03*
X130389691Y-74513546D03*
X130389691Y-75463546D03*
X130389691Y-76413546D03*
%TD*%
D56*
%TO.C,U2*%
X111587191Y-72728546D03*
X111587191Y-73228546D03*
X111587191Y-73728546D03*
X111587191Y-74228546D03*
X111587191Y-74728546D03*
X111587191Y-75228546D03*
D57*
X112249691Y-75891046D03*
X112749691Y-75891046D03*
X113249691Y-75891046D03*
X113749691Y-75891046D03*
X114249691Y-75891046D03*
X114749691Y-75891046D03*
D56*
X115412191Y-75228546D03*
X115412191Y-74728546D03*
X115412191Y-74228546D03*
X115412191Y-73728546D03*
X115412191Y-73228546D03*
X115412191Y-72728546D03*
D57*
X114749691Y-72066046D03*
X114249691Y-72066046D03*
X113749691Y-72066046D03*
X113249691Y-72066046D03*
X112749691Y-72066046D03*
X112249691Y-72066046D03*
D58*
X113499691Y-73353546D03*
D59*
X113499691Y-74903546D03*
%TD*%
D33*
%TO.C,R15*%
X181152191Y-108748546D03*
X179502191Y-108748546D03*
%TD*%
D34*
%TO.C,R13*%
X177420000Y-129068546D03*
X179070000Y-129068546D03*
%TD*%
D30*
%TO.C,L4*%
X106235196Y-91390798D03*
X111685196Y-91390798D03*
%TD*%
D33*
%TO.C,R25*%
X104952191Y-106680000D03*
X103302191Y-106680000D03*
%TD*%
D55*
%TO.C,U8*%
X171882191Y-103668546D03*
X173152191Y-103668546D03*
X174422191Y-103668546D03*
X175692191Y-103668546D03*
X175692191Y-98728546D03*
X174422191Y-98728546D03*
X173152191Y-98728546D03*
X171882191Y-98728546D03*
%TD*%
D40*
%TO.C,U4*%
X132549691Y-91693546D03*
X132549691Y-90743546D03*
X132549691Y-89793546D03*
X130039691Y-89793546D03*
X130039691Y-90743546D03*
X130039691Y-91693546D03*
%TD*%
%LPD*%
M02*
