%TF.GenerationSoftware,KiCad,Pcbnew,10.0.3*%
%TF.CreationDate,2026-08-05T17:05:08+05:30*%
%TF.ProjectId,Digital_HUB,44696769-7461-46c5-9f48-55422e6b6963,V1.0*%
%TF.SameCoordinates,Original*%
%TF.FileFunction,Copper,L2,Inr*%
%TF.FilePolarity,Positive*%
%FSLAX46Y46*%
G04 Gerber Fmt 4.6, Leading zero omitted, Abs format (unit mm)*
G04 Created by KiCad (PCBNEW 10.0.3) date 2026-08-05 17:05:08*
%MOMM*%
%LPD*%
G01*
G04 APERTURE LIST*
%TA.AperFunction,ComponentPad*%
%ADD10C,0.650000*%
%TD*%
%TA.AperFunction,ComponentPad*%
%ADD11O,0.900000X1.700000*%
%TD*%
%TA.AperFunction,ComponentPad*%
%ADD12O,0.900000X2.400000*%
%TD*%
%TA.AperFunction,ComponentPad*%
%ADD13C,2.000000*%
%TD*%
%TA.AperFunction,ComponentPad*%
%ADD14O,2.500000X5.000000*%
%TD*%
%TA.AperFunction,ComponentPad*%
%ADD15O,2.250000X4.500000*%
%TD*%
%TA.AperFunction,ComponentPad*%
%ADD16O,4.500000X2.250000*%
%TD*%
%TA.AperFunction,ComponentPad*%
%ADD17R,1.508000X1.508000*%
%TD*%
%TA.AperFunction,ComponentPad*%
%ADD18C,1.508000*%
%TD*%
%TA.AperFunction,ComponentPad*%
%ADD19C,1.348000*%
%TD*%
%TA.AperFunction,ComponentPad*%
%ADD20C,1.428000*%
%TD*%
%TA.AperFunction,ComponentPad*%
%ADD21C,3.316000*%
%TD*%
%TA.AperFunction,ComponentPad*%
%ADD22C,0.600000*%
%TD*%
%TA.AperFunction,ViaPad*%
%ADD23C,0.600000*%
%TD*%
%TA.AperFunction,Conductor*%
%ADD24C,0.200000*%
%TD*%
G04 APERTURE END LIST*
D10*
%TO.N,+RAW_USB_VBUS*%
%TO.C,J1*%
X86892191Y-68658546D03*
%TO.N,unconnected-(J1-DP1-PadA6)*%
X85192191Y-68658546D03*
%TO.N,GND*%
X87742191Y-68658546D03*
%TO.N,Net-(J1-CC1)*%
X86042191Y-68658546D03*
%TO.N,unconnected-(J1-DN1-PadA7)*%
X84342191Y-68658546D03*
%TO.N,unconnected-(J1-SBU1-PadA8)*%
X83492191Y-68658546D03*
%TO.N,+RAW_USB_VBUS*%
X82642191Y-68658546D03*
%TO.N,GND*%
X81792191Y-68658546D03*
X81792191Y-67308546D03*
%TO.N,+RAW_USB_VBUS*%
X82642191Y-67308546D03*
%TO.N,Net-(J1-CC2)*%
X83492191Y-67308546D03*
%TO.N,unconnected-(J1-DP2-PadB6)*%
X84342191Y-67308546D03*
%TO.N,unconnected-(J1-DN2-PadB7)*%
X85192191Y-67308546D03*
%TO.N,unconnected-(J1-SBU2-PadB8)*%
X86042191Y-67308546D03*
%TO.N,+RAW_USB_VBUS*%
X86892191Y-67308546D03*
%TO.N,GND*%
X87742191Y-67308546D03*
D11*
X89092191Y-64298546D03*
X80442191Y-64298546D03*
D12*
X89092191Y-67678546D03*
X80442191Y-67678546D03*
%TD*%
D13*
%TO.N,GND*%
%TO.C,SW1*%
X187272191Y-138648546D03*
X180772191Y-138648546D03*
%TO.N,Net-(U6-GPIO2)*%
X187272191Y-134148546D03*
X180772191Y-134148546D03*
%TD*%
D14*
%TO.N,+9V_OUTPUT*%
%TO.C,J3*%
X217952191Y-97318546D03*
D15*
%TO.N,GND*%
X223952191Y-97318546D03*
D16*
X220952191Y-92618546D03*
%TD*%
D17*
%TO.N,+5V_LOGIC*%
%TO.C,DS1*%
X196582191Y-126018546D03*
D18*
%TO.N,GND*%
X196582191Y-123478546D03*
%TO.N,I2C_SCL*%
X196582191Y-120938546D03*
%TO.N,I2C_SDA*%
X196582191Y-118398546D03*
%TD*%
D19*
%TO.N,CUTOFF_12V*%
%TO.C,U6*%
X189662191Y-111288546D03*
%TO.N,CUTOFF_9V*%
X187122191Y-111288546D03*
%TO.N,Net-(U6-GPIO2)*%
X184582191Y-111288546D03*
%TO.N,unconnected-(U6-GPIO3-Pad3)*%
X182042191Y-111288546D03*
%TO.N,+3V3_REF*%
X176962191Y-111288546D03*
%TO.N,unconnected-(U6-GPIO4-Pad4)*%
X179502191Y-111288546D03*
%TO.N,unconnected-(U6-GPIO5-Pad5)*%
X171882191Y-126528546D03*
%TO.N,+5V_LOGIC*%
X171882191Y-111288546D03*
%TO.N,unconnected-(U6-GPIO6-Pad6)*%
X174422191Y-126528546D03*
%TO.N,unconnected-(U6-GPIO7-Pad7)*%
X176962191Y-126528546D03*
%TO.N,I2C_SDA*%
X179502191Y-126528546D03*
%TO.N,I2C_SCL*%
X182042191Y-126528546D03*
%TO.N,unconnected-(U6-GPIO10-Pad10)*%
X184582191Y-126528546D03*
%TO.N,unconnected-(U6-GPIO20-Pad20)*%
X187122191Y-126528546D03*
%TO.N,unconnected-(U6-GPIO21-Pad21)*%
X189662191Y-126528546D03*
%TO.N,GND*%
X174422191Y-111288546D03*
%TD*%
D20*
%TO.N,+VBUS_TYPE_A*%
%TO.C,J5*%
X75153181Y-131686714D03*
%TO.N,USB_A_DM*%
X77653181Y-131686714D03*
%TO.N,USB_A_DP*%
X79653181Y-131686714D03*
%TO.N,GND*%
X82153181Y-131686714D03*
D21*
X72083181Y-134396714D03*
X85223181Y-134396714D03*
%TD*%
D14*
%TO.N,+12V_OUTPUT*%
%TO.C,J2*%
X217952191Y-78268546D03*
D15*
%TO.N,GND*%
X223952191Y-78268546D03*
D16*
X220952191Y-73568546D03*
%TD*%
D10*
%TO.N,GND*%
%TO.C,J4*%
X98625000Y-136138546D03*
%TO.N,+VBUS_TYPE_C*%
X99475000Y-136138546D03*
%TO.N,USB_C_CC1*%
X100325000Y-136138546D03*
%TO.N,USB_C_DP*%
X101175000Y-136138546D03*
%TO.N,USB_C_DM*%
X102025000Y-136138546D03*
%TO.N,unconnected-(J4-SBU1-PadA8)*%
X102875000Y-136138546D03*
%TO.N,+VBUS_TYPE_C*%
X103725000Y-136138546D03*
%TO.N,GND*%
X104575000Y-136138546D03*
X104575000Y-137488546D03*
%TO.N,+VBUS_TYPE_C*%
X103725000Y-137488546D03*
%TO.N,USB_C_CC2*%
X102875000Y-137488546D03*
%TO.N,USB_C_DP*%
X102025000Y-137488546D03*
%TO.N,USB_C_DM*%
X101175000Y-137488546D03*
%TO.N,unconnected-(J4-SBU2-PadB8)*%
X100325000Y-137488546D03*
%TO.N,+VBUS_TYPE_C*%
X99475000Y-137488546D03*
%TO.N,GND*%
X98625000Y-137488546D03*
D11*
X97275000Y-140498546D03*
X105925000Y-140498546D03*
D12*
X97275000Y-137118546D03*
X105925000Y-137118546D03*
%TD*%
D22*
%TO.N,+RAW_USB_VBUS*%
%TO.C,U2*%
X112399691Y-72878546D03*
X112399691Y-73828546D03*
X113499691Y-72878546D03*
X113499691Y-73828546D03*
X114599691Y-72878546D03*
X114599691Y-73828546D03*
%TO.N,GND*%
X112399691Y-74903546D03*
X113499691Y-74903546D03*
X114599691Y-74903546D03*
%TD*%
D23*
%TO.N,GND*%
X154940000Y-72390000D03*
X133291527Y-76990415D03*
X105016090Y-100706547D03*
X116143139Y-74903569D03*
X153245795Y-105029570D03*
X145937608Y-97517006D03*
X133158112Y-107416265D03*
X115809615Y-79473669D03*
X213877247Y-72698469D03*
X153405389Y-89193957D03*
X116516248Y-108114438D03*
X174615325Y-78385251D03*
X131375884Y-69697911D03*
X107081228Y-97577755D03*
X100250020Y-74828251D03*
X112798282Y-80112216D03*
X128097997Y-86115859D03*
X152144464Y-104967796D03*
X154488600Y-90037044D03*
X128469766Y-70176822D03*
X131628502Y-100103928D03*
X145915920Y-106716361D03*
X103668989Y-85283899D03*
X154316669Y-105658270D03*
X146355313Y-81407118D03*
X128324502Y-100926300D03*
X97120000Y-104641947D03*
X114323935Y-108671797D03*
X112747489Y-77050090D03*
X133268057Y-85919941D03*
X115979172Y-92369601D03*
X114213246Y-80061423D03*
X115646431Y-108697069D03*
X135632484Y-102917406D03*
X212604696Y-91851153D03*
X114249691Y-76481333D03*
X114935000Y-89535000D03*
X197499592Y-91762821D03*
X145981226Y-112822473D03*
X152404342Y-71628135D03*
X146355313Y-75333660D03*
X136186760Y-72887021D03*
X214031646Y-91695351D03*
X197434571Y-72723986D03*
X108648572Y-100745096D03*
X135929997Y-88413411D03*
X152138008Y-89236550D03*
X133254094Y-92230828D03*
X102096726Y-107889925D03*
X110914583Y-74462256D03*
X173200361Y-85884557D03*
X174519867Y-97417669D03*
X101127570Y-95243026D03*
X102235000Y-101600000D03*
X97499751Y-69287562D03*
X153870098Y-71609264D03*
X145908584Y-90884818D03*
X99848587Y-85839000D03*
X214820718Y-72886586D03*
X171062398Y-103958794D03*
%TO.N,+12V_SUPPLY*%
X144145000Y-76200000D03*
X126365000Y-74295000D03*
%TO.N,Net-(U6-GPIO2)*%
X181610000Y-109220000D03*
%TO.N,+5V_LOGIC*%
X125730000Y-104775000D03*
X143510000Y-109855000D03*
X154940000Y-118110000D03*
%TO.N,I2C_SCL*%
X183649320Y-129039320D03*
X176606475Y-85162762D03*
X100023200Y-99277754D03*
X176530000Y-104140000D03*
%TO.N,+3V3_REF*%
X180657137Y-128405088D03*
X176301390Y-99018213D03*
X176315780Y-79846734D03*
X179070000Y-109220000D03*
X177571428Y-128209170D03*
X173215682Y-104993713D03*
%TO.N,+VBUS_TYPE_A*%
X76389266Y-125119263D03*
X108585000Y-102235000D03*
%TO.N,Net-(Q8-G)*%
X75565000Y-125095000D03*
X98889619Y-100625381D03*
%TO.N,Net-(SW2-CSNA)*%
X105020394Y-103889019D03*
X81280000Y-129540000D03*
%TO.N,+9V_SUPPLY*%
X143510000Y-93345000D03*
X126365000Y-90170000D03*
%TO.N,CUTOFF_12V*%
X194233063Y-75193110D03*
%TO.N,+VBUS_OUT_1*%
X105068957Y-123901270D03*
X81856627Y-121342727D03*
X105026193Y-102870000D03*
X103595702Y-104453804D03*
%TO.N,Net-(J1-CC2)*%
X93702449Y-67342653D03*
%TO.N,Net-(J1-CC1)*%
X93679188Y-68601768D03*
%TO.N,I2C_SDA*%
X174701716Y-85989972D03*
X179502191Y-129972191D03*
X174675997Y-104938385D03*
X100965000Y-98928760D03*
%TO.N,CUTOFF_9V*%
X193498370Y-94197159D03*
%TO.N,Net-(SW2-CSNC)*%
X104454706Y-104454706D03*
X105410000Y-132080000D03*
%TO.N,USB_A_DM*%
X79438572Y-129838092D03*
X99063709Y-103239299D03*
%TO.N,USB_A_DP*%
X98952120Y-102419364D03*
%TO.N,+VBUS_TYPE_C*%
X100330000Y-129540000D03*
X102870000Y-110490000D03*
%TO.N,Net-(Q7-G)*%
X99548012Y-129328164D03*
X99535738Y-100034908D03*
%TO.N,USB_C_CC2*%
X100847290Y-103896060D03*
%TO.N,USB_C_CC1*%
X100123707Y-104237282D03*
%TO.N,USB_C_DP*%
X101663223Y-104818043D03*
%TO.N,USB_C_DM*%
X102840652Y-105439348D03*
%TO.N,Net-(SW2-BST)*%
X103686193Y-99169182D03*
X99060000Y-97790000D03*
%TO.N,Net-(Q5-G)*%
X100330000Y-92710000D03*
X103505000Y-90805000D03*
%TD*%
%TO.N,GND*%
D24*
X97275000Y-137118546D02*
X97275000Y-140498546D01*
X146374662Y-81426467D02*
X146606862Y-81426467D01*
X106638546Y-137118546D02*
X106680000Y-137160000D01*
X104945000Y-137118546D02*
X104575000Y-137488546D01*
X115809615Y-79480925D02*
X115606441Y-79684099D01*
X152144464Y-104967796D02*
X152207204Y-104967796D01*
X145981226Y-113061928D02*
X146046532Y-113127234D01*
X89832618Y-64298546D02*
X89889674Y-64355602D01*
X86771714Y-134396714D02*
X86995000Y-134620000D01*
X86771714Y-134396714D02*
X85223181Y-134396714D01*
X105014263Y-100706547D02*
X104730011Y-100990799D01*
X112747489Y-77050090D02*
X112747489Y-76992041D01*
X154488600Y-90037044D02*
X154488600Y-89914236D01*
X146126270Y-90667132D02*
X146126270Y-90645363D01*
X97275000Y-137118546D02*
X96561454Y-137118546D01*
X97645000Y-137118546D02*
X98625000Y-136138546D01*
X97275000Y-137118546D02*
X97645000Y-137118546D01*
X100862674Y-95243026D02*
X100839548Y-95219900D01*
X97499751Y-69287562D02*
X97686799Y-69287562D01*
X152404342Y-71529888D02*
X152262430Y-71387976D01*
X136186760Y-72887021D02*
X136393562Y-72680219D01*
X145915920Y-106716361D02*
X146002995Y-106629286D01*
X103668989Y-85253989D02*
X103505000Y-85090000D01*
X152138008Y-89203801D02*
X151974264Y-89040057D01*
X116143139Y-75112643D02*
X116243175Y-75212679D01*
X146355313Y-75178860D02*
X146471412Y-75062761D01*
X133442756Y-92419490D02*
X133479037Y-92419490D01*
X153870098Y-71609264D02*
X153870098Y-71462326D01*
X98255000Y-137118546D02*
X98625000Y-137488546D01*
X82153181Y-131686714D02*
X84863181Y-134396714D01*
X102235000Y-101600000D02*
X102235000Y-101730612D01*
X107081228Y-97381836D02*
X107195513Y-97267551D01*
X114162453Y-80112216D02*
X113930253Y-80112216D01*
X153405389Y-89193957D02*
X153405389Y-89099626D01*
X115646431Y-108697069D02*
X115864118Y-108914755D01*
X105925000Y-137118546D02*
X105925000Y-140498546D01*
X102235000Y-101600000D02*
X102235000Y-101679819D01*
X85223181Y-134396714D02*
X72083181Y-134396714D01*
X114323935Y-108846457D02*
X114222049Y-108948343D01*
X80812191Y-67678546D02*
X81792191Y-68658546D01*
X214820718Y-72886586D02*
X214820718Y-72613678D01*
X133443907Y-77142795D02*
X133443907Y-77251639D01*
X100250020Y-75024169D02*
X100155689Y-75118500D01*
X223952191Y-77037809D02*
X224790000Y-76200000D01*
X110725921Y-74462256D02*
X110634009Y-74554168D01*
X113665000Y-74903546D02*
X113440273Y-74903546D01*
X146140783Y-97720181D02*
X146140783Y-97741949D01*
X112747489Y-76992041D02*
X112595108Y-76839660D01*
X173200361Y-86167550D02*
X173233014Y-86200203D01*
X174615325Y-78385251D02*
X174615325Y-78114675D01*
X79652658Y-64298546D02*
X79530104Y-64421100D01*
X105016090Y-100706547D02*
X105014263Y-100706547D01*
X135842594Y-102917406D02*
X135890000Y-102870000D01*
X116143139Y-74903569D02*
X116143139Y-75112643D01*
X128469766Y-70176822D02*
X128469766Y-70133284D01*
X145908584Y-90884818D02*
X146126270Y-90667132D01*
X114507980Y-76481333D02*
X114554289Y-76527642D01*
X135929997Y-88413411D02*
X135929997Y-88181212D01*
X133268057Y-85919941D02*
X133268057Y-85811097D01*
X88722191Y-67678546D02*
X87742191Y-68658546D01*
X146002995Y-106629286D02*
X146177144Y-106629286D01*
X99848587Y-85773694D02*
X99685322Y-85610429D01*
X223952191Y-97318546D02*
X224626454Y-97318546D01*
X115979172Y-92300828D02*
X116205000Y-92075000D01*
X197499592Y-91762821D02*
X197499592Y-92060408D01*
X187272191Y-138648546D02*
X187960000Y-139336355D01*
X131628502Y-100016853D02*
X131778464Y-99866891D01*
X224626454Y-97318546D02*
X225425000Y-96520000D01*
X153245795Y-104844537D02*
X153332870Y-104757462D01*
X145981226Y-112822473D02*
X145981226Y-113061928D01*
X99848587Y-85839000D02*
X99848587Y-85773694D01*
X197138546Y-123478546D02*
X197485000Y-123825000D01*
X105925000Y-137118546D02*
X104945000Y-137118546D01*
X213877247Y-72507753D02*
X213995000Y-72390000D01*
X154940000Y-72390000D02*
X154940000Y-72269662D01*
X133291527Y-76990415D02*
X133443907Y-77142795D01*
X128469766Y-70133284D02*
X128633031Y-69970019D01*
X180772191Y-139267809D02*
X180340000Y-139700000D01*
X180772191Y-138648546D02*
X187272191Y-138648546D01*
X214031646Y-91476646D02*
X213995000Y-91440000D01*
X96520000Y-137160000D02*
X96561454Y-137118546D01*
X81422191Y-67678546D02*
X81792191Y-67308546D01*
X97275000Y-137118546D02*
X98255000Y-137118546D01*
X131375884Y-69534646D02*
X131256156Y-69414918D01*
X153870098Y-71462326D02*
X154000710Y-71331714D01*
X112798282Y-80112216D02*
X112994201Y-80308135D01*
X116516248Y-108310931D02*
X116688180Y-108482863D01*
X214031646Y-91695351D02*
X214031646Y-91476646D01*
X153245795Y-105029570D02*
X153245795Y-104844537D01*
X133303236Y-107416265D02*
X133368542Y-107481571D01*
X116516248Y-108114438D02*
X116516248Y-108310931D01*
X84863181Y-134396714D02*
X85223181Y-134396714D01*
X145937608Y-97517006D02*
X146140783Y-97720181D01*
X128097997Y-86115859D02*
X128097997Y-86072322D01*
X89092191Y-67678546D02*
X89092191Y-64298546D01*
X154316669Y-105658270D02*
X154341230Y-105633709D01*
X110914583Y-74462256D02*
X110725921Y-74462256D01*
X133158112Y-107416265D02*
X133303236Y-107416265D01*
X105555000Y-137118546D02*
X104575000Y-136138546D01*
X89092191Y-67678546D02*
X88112191Y-67678546D01*
X105016090Y-100706547D02*
X105016090Y-100685370D01*
X80442191Y-64298546D02*
X79652658Y-64298546D01*
X100250020Y-74828251D02*
X100250020Y-75024169D01*
X105925000Y-137118546D02*
X105555000Y-137118546D01*
X89092191Y-64298546D02*
X89832618Y-64298546D01*
X108779184Y-100614484D02*
X108877143Y-100614484D01*
X220952191Y-92102809D02*
X221615000Y-91440000D01*
X221071454Y-73568546D02*
X220952191Y-73568546D01*
X154341230Y-105633709D02*
X154635970Y-105633709D01*
X102235000Y-101679819D02*
X102423661Y-101868480D01*
X97686799Y-69287562D02*
X97777099Y-69197262D01*
X128097997Y-86072322D02*
X128272147Y-85898172D01*
X97120000Y-104699448D02*
X97318988Y-104898436D01*
X154488600Y-89914236D02*
X154586847Y-89815989D01*
X116143116Y-74903546D02*
X116143139Y-74903569D01*
X170996206Y-103958794D02*
X170815000Y-104140000D01*
X197434571Y-72974571D02*
X197485000Y-73025000D01*
X174519867Y-97260133D02*
X174625000Y-97155000D01*
X154940000Y-72269662D02*
X155053519Y-72156143D01*
X88112191Y-67678546D02*
X87742191Y-67308546D01*
X89092191Y-67678546D02*
X88722191Y-67678546D01*
X152207204Y-104967796D02*
X152400000Y-104775000D01*
X196582191Y-123478546D02*
X197138546Y-123478546D01*
X221071454Y-73568546D02*
X222250000Y-72390000D01*
X80442191Y-67678546D02*
X80812191Y-67678546D01*
X131628502Y-100103928D02*
X131628502Y-100016853D01*
X97120000Y-104641947D02*
X97120000Y-104699448D01*
X153405389Y-89099626D02*
X153543257Y-88961758D01*
X220952191Y-92618546D02*
X220952191Y-92102809D01*
X80442191Y-67678546D02*
X80442191Y-64298546D01*
X133268057Y-85811097D02*
X133387784Y-85691370D01*
X112399691Y-74903546D02*
X112421454Y-74903546D01*
X112994201Y-80308135D02*
X113044994Y-80308135D01*
X212604696Y-91851153D02*
X212604696Y-91560304D01*
X152404342Y-71628135D02*
X152404342Y-71529888D01*
X135929997Y-88181212D02*
X135879203Y-88130418D01*
X174422191Y-110922191D02*
X173990000Y-110490000D01*
X213877247Y-72698469D02*
X213877247Y-72507753D01*
X80442191Y-67678546D02*
X81422191Y-67678546D01*
X128324502Y-100926300D02*
X128324502Y-100819875D01*
X102235000Y-101730612D02*
X102256768Y-101752380D01*
X214820718Y-72613678D02*
X214853467Y-72580929D01*
X106638546Y-137118546D02*
X105925000Y-137118546D01*
X128324502Y-100819875D02*
X128445439Y-100698938D01*
%TD*%
%TA.AperFunction,Conductor*%
%TO.N,GND*%
G36*
X230581621Y-62836523D02*
G01*
X230628114Y-62890179D01*
X230639500Y-62942521D01*
X230639500Y-141824556D01*
X230619498Y-141892677D01*
X230565842Y-141939170D01*
X230513500Y-141950556D01*
X68974354Y-141950556D01*
X68906233Y-141930554D01*
X68859740Y-141876898D01*
X68848354Y-141824556D01*
X68848354Y-136062253D01*
X98895500Y-136062253D01*
X98895500Y-136214839D01*
X98934992Y-136362223D01*
X98934994Y-136362228D01*
X99011282Y-136494363D01*
X99011290Y-136494373D01*
X99119172Y-136602255D01*
X99119177Y-136602259D01*
X99119179Y-136602261D01*
X99119180Y-136602262D01*
X99119182Y-136602263D01*
X99183918Y-136639638D01*
X99251322Y-136678554D01*
X99251328Y-136678555D01*
X99251329Y-136678556D01*
X99300904Y-136691840D01*
X99361526Y-136728791D01*
X99392548Y-136792652D01*
X99384118Y-136863147D01*
X99338915Y-136917893D01*
X99300904Y-136935252D01*
X99251329Y-136948535D01*
X99251317Y-136948540D01*
X99119182Y-137024828D01*
X99119172Y-137024836D01*
X99011290Y-137132718D01*
X99011282Y-137132728D01*
X98934994Y-137264863D01*
X98934992Y-137264868D01*
X98895500Y-137412253D01*
X98895500Y-137564839D01*
X98909293Y-137616314D01*
X98934992Y-137712223D01*
X98934994Y-137712228D01*
X99011282Y-137844363D01*
X99011290Y-137844373D01*
X99119172Y-137952255D01*
X99119177Y-137952259D01*
X99119179Y-137952261D01*
X99251322Y-138028554D01*
X99398707Y-138068046D01*
X99398710Y-138068046D01*
X99551290Y-138068046D01*
X99551293Y-138068046D01*
X99698678Y-138028554D01*
X99830821Y-137952261D01*
X99830822Y-137952259D01*
X99837000Y-137948693D01*
X99905995Y-137931955D01*
X99963000Y-137948693D01*
X99969177Y-137952259D01*
X99969179Y-137952261D01*
X100101322Y-138028554D01*
X100248707Y-138068046D01*
X100248710Y-138068046D01*
X100401290Y-138068046D01*
X100401293Y-138068046D01*
X100548678Y-138028554D01*
X100680821Y-137952261D01*
X100680822Y-137952259D01*
X100687000Y-137948693D01*
X100755995Y-137931955D01*
X100813000Y-137948693D01*
X100819177Y-137952259D01*
X100819179Y-137952261D01*
X100951322Y-138028554D01*
X101098707Y-138068046D01*
X101098710Y-138068046D01*
X101251290Y-138068046D01*
X101251293Y-138068046D01*
X101398678Y-138028554D01*
X101530821Y-137952261D01*
X101530822Y-137952259D01*
X101537000Y-137948693D01*
X101605995Y-137931955D01*
X101663000Y-137948693D01*
X101669177Y-137952259D01*
X101669179Y-137952261D01*
X101801322Y-138028554D01*
X101948707Y-138068046D01*
X101948710Y-138068046D01*
X102101290Y-138068046D01*
X102101293Y-138068046D01*
X102248678Y-138028554D01*
X102380821Y-137952261D01*
X102380822Y-137952259D01*
X102387000Y-137948693D01*
X102455995Y-137931955D01*
X102513000Y-137948693D01*
X102519177Y-137952259D01*
X102519179Y-137952261D01*
X102651322Y-138028554D01*
X102798707Y-138068046D01*
X102798710Y-138068046D01*
X102951290Y-138068046D01*
X102951293Y-138068046D01*
X103098678Y-138028554D01*
X103230821Y-137952261D01*
X103230822Y-137952259D01*
X103237000Y-137948693D01*
X103305995Y-137931955D01*
X103363000Y-137948693D01*
X103369177Y-137952259D01*
X103369179Y-137952261D01*
X103501322Y-138028554D01*
X103648707Y-138068046D01*
X103648710Y-138068046D01*
X103801290Y-138068046D01*
X103801293Y-138068046D01*
X103948678Y-138028554D01*
X104080821Y-137952261D01*
X104188715Y-137844367D01*
X104189037Y-137843809D01*
X195531691Y-137843809D01*
X195531691Y-138073282D01*
X195561641Y-138300777D01*
X195561643Y-138300784D01*
X195621033Y-138522433D01*
X195708847Y-138734434D01*
X195708848Y-138734435D01*
X195708853Y-138734446D01*
X195823577Y-138933154D01*
X195823582Y-138933161D01*
X195963264Y-139115198D01*
X195963283Y-139115219D01*
X196125517Y-139277453D01*
X196125538Y-139277472D01*
X196307575Y-139417154D01*
X196307582Y-139417159D01*
X196506290Y-139531883D01*
X196506294Y-139531884D01*
X196506303Y-139531890D01*
X196718304Y-139619704D01*
X196939953Y-139679094D01*
X196939957Y-139679094D01*
X196939959Y-139679095D01*
X196998589Y-139686813D01*
X197167457Y-139709046D01*
X197167464Y-139709046D01*
X197396918Y-139709046D01*
X197396925Y-139709046D01*
X197602536Y-139681976D01*
X197624422Y-139679095D01*
X197624422Y-139679094D01*
X197624429Y-139679094D01*
X197846078Y-139619704D01*
X198058079Y-139531890D01*
X198256803Y-139417157D01*
X198438852Y-139277465D01*
X198601110Y-139115207D01*
X198740802Y-138933158D01*
X198855535Y-138734434D01*
X198943349Y-138522433D01*
X199002739Y-138300784D01*
X199032691Y-138073280D01*
X199032691Y-137843812D01*
X199032691Y-137843809D01*
X225231691Y-137843809D01*
X225231691Y-138073282D01*
X225261641Y-138300777D01*
X225261643Y-138300784D01*
X225321033Y-138522433D01*
X225408847Y-138734434D01*
X225408848Y-138734435D01*
X225408853Y-138734446D01*
X225523577Y-138933154D01*
X225523582Y-138933161D01*
X225663264Y-139115198D01*
X225663283Y-139115219D01*
X225825517Y-139277453D01*
X225825538Y-139277472D01*
X226007575Y-139417154D01*
X226007582Y-139417159D01*
X226206290Y-139531883D01*
X226206294Y-139531884D01*
X226206303Y-139531890D01*
X226418304Y-139619704D01*
X226639953Y-139679094D01*
X226639957Y-139679094D01*
X226639959Y-139679095D01*
X226698589Y-139686813D01*
X226867457Y-139709046D01*
X226867464Y-139709046D01*
X227096918Y-139709046D01*
X227096925Y-139709046D01*
X227302536Y-139681976D01*
X227324422Y-139679095D01*
X227324422Y-139679094D01*
X227324429Y-139679094D01*
X227546078Y-139619704D01*
X227758079Y-139531890D01*
X227956803Y-139417157D01*
X228138852Y-139277465D01*
X228301110Y-139115207D01*
X228440802Y-138933158D01*
X228555535Y-138734434D01*
X228643349Y-138522433D01*
X228702739Y-138300784D01*
X228732691Y-138073280D01*
X228732691Y-137843812D01*
X228702739Y-137616308D01*
X228643349Y-137394659D01*
X228555535Y-137182658D01*
X228555529Y-137182649D01*
X228555528Y-137182645D01*
X228440804Y-136983937D01*
X228440799Y-136983930D01*
X228301117Y-136801893D01*
X228301098Y-136801872D01*
X228138864Y-136639638D01*
X228138843Y-136639619D01*
X227956806Y-136499937D01*
X227956799Y-136499932D01*
X227758091Y-136385208D01*
X227758083Y-136385204D01*
X227758079Y-136385202D01*
X227546078Y-136297388D01*
X227324429Y-136237998D01*
X227324422Y-136237996D01*
X227096927Y-136208046D01*
X227096925Y-136208046D01*
X226867457Y-136208046D01*
X226867454Y-136208046D01*
X226639959Y-136237996D01*
X226418304Y-136297388D01*
X226206301Y-136385203D01*
X226206290Y-136385208D01*
X226007582Y-136499932D01*
X226007575Y-136499937D01*
X225825538Y-136639619D01*
X225825517Y-136639638D01*
X225663283Y-136801872D01*
X225663264Y-136801893D01*
X225523582Y-136983930D01*
X225523577Y-136983937D01*
X225408853Y-137182645D01*
X225408848Y-137182656D01*
X225408847Y-137182658D01*
X225374794Y-137264868D01*
X225321033Y-137394659D01*
X225261641Y-137616314D01*
X225231691Y-137843809D01*
X199032691Y-137843809D01*
X199002739Y-137616308D01*
X198943349Y-137394659D01*
X198855535Y-137182658D01*
X198855529Y-137182649D01*
X198855528Y-137182645D01*
X198740804Y-136983937D01*
X198740799Y-136983930D01*
X198601117Y-136801893D01*
X198601098Y-136801872D01*
X198438864Y-136639638D01*
X198438843Y-136639619D01*
X198256806Y-136499937D01*
X198256799Y-136499932D01*
X198058091Y-136385208D01*
X198058083Y-136385204D01*
X198058079Y-136385202D01*
X197846078Y-136297388D01*
X197624429Y-136237998D01*
X197624422Y-136237996D01*
X197396927Y-136208046D01*
X197396925Y-136208046D01*
X197167457Y-136208046D01*
X197167454Y-136208046D01*
X196939959Y-136237996D01*
X196718304Y-136297388D01*
X196506301Y-136385203D01*
X196506290Y-136385208D01*
X196307582Y-136499932D01*
X196307575Y-136499937D01*
X196125538Y-136639619D01*
X196125517Y-136639638D01*
X195963283Y-136801872D01*
X195963264Y-136801893D01*
X195823582Y-136983930D01*
X195823577Y-136983937D01*
X195708853Y-137182645D01*
X195708848Y-137182656D01*
X195708847Y-137182658D01*
X195674794Y-137264868D01*
X195621033Y-137394659D01*
X195561641Y-137616314D01*
X195531691Y-137843809D01*
X104189037Y-137843809D01*
X104265008Y-137712224D01*
X104304500Y-137564839D01*
X104304500Y-137412253D01*
X104265008Y-137264868D01*
X104217543Y-137182656D01*
X104188717Y-137132728D01*
X104188709Y-137132718D01*
X104080827Y-137024836D01*
X104080817Y-137024828D01*
X103948682Y-136948540D01*
X103948679Y-136948539D01*
X103948678Y-136948538D01*
X103948676Y-136948537D01*
X103948675Y-136948537D01*
X103935823Y-136945093D01*
X103899094Y-136935251D01*
X103838473Y-136898301D01*
X103807452Y-136834440D01*
X103815880Y-136763946D01*
X103861083Y-136709199D01*
X103899093Y-136691840D01*
X103948678Y-136678554D01*
X104080821Y-136602261D01*
X104188715Y-136494367D01*
X104265008Y-136362224D01*
X104304500Y-136214839D01*
X104304500Y-136062253D01*
X104265008Y-135914868D01*
X104188715Y-135782725D01*
X104188713Y-135782723D01*
X104188709Y-135782718D01*
X104080827Y-135674836D01*
X104080817Y-135674828D01*
X103948682Y-135598540D01*
X103948680Y-135598539D01*
X103948678Y-135598538D01*
X103801293Y-135559046D01*
X103648707Y-135559046D01*
X103501322Y-135598538D01*
X103501317Y-135598540D01*
X103363000Y-135678398D01*
X103294004Y-135695136D01*
X103237000Y-135678398D01*
X103098682Y-135598540D01*
X103098680Y-135598539D01*
X103098678Y-135598538D01*
X102951293Y-135559046D01*
X102798707Y-135559046D01*
X102651322Y-135598538D01*
X102651317Y-135598540D01*
X102513000Y-135678398D01*
X102444004Y-135695136D01*
X102387000Y-135678398D01*
X102248682Y-135598540D01*
X102248680Y-135598539D01*
X102248678Y-135598538D01*
X102101293Y-135559046D01*
X101948707Y-135559046D01*
X101801322Y-135598538D01*
X101801317Y-135598540D01*
X101663000Y-135678398D01*
X101594004Y-135695136D01*
X101537000Y-135678398D01*
X101398682Y-135598540D01*
X101398680Y-135598539D01*
X101398678Y-135598538D01*
X101251293Y-135559046D01*
X101098707Y-135559046D01*
X100951322Y-135598538D01*
X100951317Y-135598540D01*
X100813000Y-135678398D01*
X100744004Y-135695136D01*
X100687000Y-135678398D01*
X100548682Y-135598540D01*
X100548680Y-135598539D01*
X100548678Y-135598538D01*
X100401293Y-135559046D01*
X100248707Y-135559046D01*
X100101322Y-135598538D01*
X100101317Y-135598540D01*
X99963000Y-135678398D01*
X99894004Y-135695136D01*
X99837000Y-135678398D01*
X99698682Y-135598540D01*
X99698680Y-135598539D01*
X99698678Y-135598538D01*
X99551293Y-135559046D01*
X99398707Y-135559046D01*
X99251322Y-135598538D01*
X99251317Y-135598540D01*
X99119182Y-135674828D01*
X99119172Y-135674836D01*
X99011290Y-135782718D01*
X99011282Y-135782728D01*
X98934994Y-135914863D01*
X98934992Y-135914868D01*
X98895500Y-136062253D01*
X68848354Y-136062253D01*
X68848354Y-134049815D01*
X179517691Y-134049815D01*
X179517691Y-134247277D01*
X179548581Y-134442309D01*
X179548582Y-134442314D01*
X179609598Y-134630102D01*
X179609600Y-134630107D01*
X179699247Y-134806047D01*
X179815312Y-134965798D01*
X179815314Y-134965800D01*
X179815316Y-134965803D01*
X179954933Y-135105420D01*
X179954936Y-135105422D01*
X179954939Y-135105425D01*
X180114690Y-135221490D01*
X180290630Y-135311137D01*
X180478428Y-135372156D01*
X180673460Y-135403046D01*
X180673463Y-135403046D01*
X180870919Y-135403046D01*
X180870922Y-135403046D01*
X181065954Y-135372156D01*
X181253752Y-135311137D01*
X181429692Y-135221490D01*
X181589443Y-135105425D01*
X181729070Y-134965798D01*
X181845135Y-134806047D01*
X181934782Y-134630107D01*
X181995801Y-134442309D01*
X182026691Y-134247277D01*
X182026691Y-134049815D01*
X186017691Y-134049815D01*
X186017691Y-134247277D01*
X186048581Y-134442309D01*
X186048582Y-134442314D01*
X186109598Y-134630102D01*
X186109600Y-134630107D01*
X186199247Y-134806047D01*
X186315312Y-134965798D01*
X186315314Y-134965800D01*
X186315316Y-134965803D01*
X186454933Y-135105420D01*
X186454936Y-135105422D01*
X186454939Y-135105425D01*
X186614690Y-135221490D01*
X186790630Y-135311137D01*
X186978428Y-135372156D01*
X187173460Y-135403046D01*
X187173463Y-135403046D01*
X187370919Y-135403046D01*
X187370922Y-135403046D01*
X187565954Y-135372156D01*
X187753752Y-135311137D01*
X187929692Y-135221490D01*
X188089443Y-135105425D01*
X188229070Y-134965798D01*
X188345135Y-134806047D01*
X188434782Y-134630107D01*
X188495801Y-134442309D01*
X188526691Y-134247277D01*
X188526691Y-134049815D01*
X188495801Y-133854783D01*
X188434782Y-133666985D01*
X188345135Y-133491045D01*
X188229070Y-133331294D01*
X188229067Y-133331291D01*
X188229065Y-133331288D01*
X188089448Y-133191671D01*
X188089445Y-133191669D01*
X188089443Y-133191667D01*
X187929692Y-133075602D01*
X187753752Y-132985955D01*
X187753749Y-132985954D01*
X187753747Y-132985953D01*
X187565959Y-132924937D01*
X187565955Y-132924936D01*
X187565954Y-132924936D01*
X187370922Y-132894046D01*
X187173460Y-132894046D01*
X186978428Y-132924936D01*
X186978422Y-132924937D01*
X186790634Y-132985953D01*
X186790628Y-132985956D01*
X186614686Y-133075604D01*
X186454936Y-133191669D01*
X186454933Y-133191671D01*
X186315316Y-133331288D01*
X186315314Y-133331291D01*
X186199249Y-133491041D01*
X186109601Y-133666983D01*
X186109598Y-133666989D01*
X186048582Y-133854777D01*
X186048581Y-133854782D01*
X186048581Y-133854783D01*
X186017691Y-134049815D01*
X182026691Y-134049815D01*
X181995801Y-133854783D01*
X181934782Y-133666985D01*
X181845135Y-133491045D01*
X181729070Y-133331294D01*
X181729067Y-133331291D01*
X181729065Y-133331288D01*
X181589448Y-133191671D01*
X181589445Y-133191669D01*
X181589443Y-133191667D01*
X181429692Y-133075602D01*
X181253752Y-132985955D01*
X181253749Y-132985954D01*
X181253747Y-132985953D01*
X181065959Y-132924937D01*
X181065955Y-132924936D01*
X181065954Y-132924936D01*
X180870922Y-132894046D01*
X180673460Y-132894046D01*
X180478428Y-132924936D01*
X180478422Y-132924937D01*
X180290634Y-132985953D01*
X180290628Y-132985956D01*
X180114686Y-133075604D01*
X179954936Y-133191669D01*
X179954933Y-133191671D01*
X179815316Y-133331288D01*
X179815314Y-133331291D01*
X179699249Y-133491041D01*
X179609601Y-133666983D01*
X179609598Y-133666989D01*
X179548582Y-133854777D01*
X179548581Y-133854782D01*
X179548581Y-133854783D01*
X179517691Y-134049815D01*
X68848354Y-134049815D01*
X68848354Y-131591322D01*
X74184681Y-131591322D01*
X74184681Y-131782105D01*
X74221900Y-131969215D01*
X74221901Y-131969218D01*
X74237551Y-132006999D01*
X74294908Y-132145471D01*
X74400898Y-132304097D01*
X74535798Y-132438997D01*
X74694424Y-132544987D01*
X74870680Y-132617995D01*
X75057792Y-132655214D01*
X75057793Y-132655214D01*
X75248569Y-132655214D01*
X75248570Y-132655214D01*
X75435682Y-132617995D01*
X75611938Y-132544987D01*
X75770564Y-132438997D01*
X75905464Y-132304097D01*
X76011454Y-132145471D01*
X76084462Y-131969215D01*
X76121681Y-131782103D01*
X76121681Y-131591325D01*
X76121680Y-131591322D01*
X76684681Y-131591322D01*
X76684681Y-131782105D01*
X76721900Y-131969215D01*
X76721901Y-131969218D01*
X76737551Y-132006999D01*
X76794908Y-132145471D01*
X76900898Y-132304097D01*
X77035798Y-132438997D01*
X77194424Y-132544987D01*
X77370680Y-132617995D01*
X77557792Y-132655214D01*
X77557793Y-132655214D01*
X77748569Y-132655214D01*
X77748570Y-132655214D01*
X77935682Y-132617995D01*
X78111938Y-132544987D01*
X78270564Y-132438997D01*
X78405464Y-132304097D01*
X78511454Y-132145471D01*
X78536772Y-132084347D01*
X78581321Y-132029067D01*
X78648684Y-132006646D01*
X78717475Y-132024204D01*
X78765853Y-132076166D01*
X78769588Y-132084345D01*
X78794908Y-132145471D01*
X78900898Y-132304097D01*
X79035798Y-132438997D01*
X79194424Y-132544987D01*
X79370680Y-132617995D01*
X79557792Y-132655214D01*
X79557793Y-132655214D01*
X79748569Y-132655214D01*
X79748570Y-132655214D01*
X79935682Y-132617995D01*
X80111938Y-132544987D01*
X80270564Y-132438997D01*
X80405464Y-132304097D01*
X80511454Y-132145471D01*
X80568811Y-132006999D01*
X104855500Y-132006999D01*
X104855500Y-132153001D01*
X104888824Y-132277372D01*
X104893289Y-132294033D01*
X104966286Y-132420467D01*
X104966294Y-132420477D01*
X105069522Y-132523705D01*
X105069527Y-132523709D01*
X105069529Y-132523711D01*
X105069530Y-132523712D01*
X105069532Y-132523713D01*
X105195966Y-132596710D01*
X105195968Y-132596710D01*
X105195971Y-132596712D01*
X105336999Y-132634500D01*
X105337001Y-132634500D01*
X105482999Y-132634500D01*
X105483001Y-132634500D01*
X105624029Y-132596712D01*
X105624032Y-132596710D01*
X105624033Y-132596710D01*
X105713621Y-132544986D01*
X105750471Y-132523711D01*
X105853711Y-132420471D01*
X105920897Y-132304101D01*
X105926710Y-132294033D01*
X105926710Y-132294032D01*
X105926712Y-132294029D01*
X105964500Y-132153001D01*
X105964500Y-132006999D01*
X105926712Y-131865971D01*
X105926710Y-131865968D01*
X105926710Y-131865966D01*
X105853713Y-131739532D01*
X105853705Y-131739522D01*
X105750477Y-131636294D01*
X105750467Y-131636286D01*
X105624033Y-131563289D01*
X105607372Y-131558824D01*
X105483001Y-131525500D01*
X105336999Y-131525500D01*
X105250686Y-131548627D01*
X105195966Y-131563289D01*
X105069532Y-131636286D01*
X105069522Y-131636294D01*
X104966294Y-131739522D01*
X104966286Y-131739532D01*
X104893289Y-131865966D01*
X104893288Y-131865971D01*
X104855500Y-132006999D01*
X80568811Y-132006999D01*
X80584462Y-131969215D01*
X80621681Y-131782103D01*
X80621681Y-131591325D01*
X80584462Y-131404213D01*
X80511454Y-131227957D01*
X80405464Y-131069331D01*
X80270564Y-130934431D01*
X80111938Y-130828441D01*
X80000793Y-130782403D01*
X79935685Y-130755434D01*
X79935682Y-130755433D01*
X79748572Y-130718214D01*
X79748570Y-130718214D01*
X79557792Y-130718214D01*
X79557789Y-130718214D01*
X79370679Y-130755433D01*
X79370676Y-130755434D01*
X79194424Y-130828441D01*
X79035799Y-130934430D01*
X79035793Y-130934435D01*
X78900902Y-131069326D01*
X78900897Y-131069332D01*
X78794907Y-131227957D01*
X78794905Y-131227961D01*
X78769589Y-131289080D01*
X78725041Y-131344361D01*
X78657677Y-131366781D01*
X78588886Y-131349222D01*
X78540508Y-131297260D01*
X78536773Y-131289080D01*
X78511456Y-131227961D01*
X78511454Y-131227957D01*
X78405464Y-131069331D01*
X78270564Y-130934431D01*
X78111938Y-130828441D01*
X78000793Y-130782403D01*
X77935685Y-130755434D01*
X77935682Y-130755433D01*
X77748572Y-130718214D01*
X77748570Y-130718214D01*
X77557792Y-130718214D01*
X77557789Y-130718214D01*
X77370679Y-130755433D01*
X77370676Y-130755434D01*
X77194424Y-130828441D01*
X77035799Y-130934430D01*
X77035793Y-130934435D01*
X76900902Y-131069326D01*
X76900897Y-131069332D01*
X76794908Y-131227957D01*
X76721901Y-131404209D01*
X76721900Y-131404212D01*
X76684681Y-131591322D01*
X76121680Y-131591322D01*
X76084462Y-131404213D01*
X76011454Y-131227957D01*
X75905464Y-131069331D01*
X75770564Y-130934431D01*
X75611938Y-130828441D01*
X75500793Y-130782403D01*
X75435685Y-130755434D01*
X75435682Y-130755433D01*
X75248572Y-130718214D01*
X75248570Y-130718214D01*
X75057792Y-130718214D01*
X75057789Y-130718214D01*
X74870679Y-130755433D01*
X74870676Y-130755434D01*
X74694424Y-130828441D01*
X74535799Y-130934430D01*
X74535793Y-130934435D01*
X74400902Y-131069326D01*
X74400897Y-131069332D01*
X74294908Y-131227957D01*
X74221901Y-131404209D01*
X74221900Y-131404212D01*
X74184681Y-131591322D01*
X68848354Y-131591322D01*
X68848354Y-129765091D01*
X78884072Y-129765091D01*
X78884072Y-129911093D01*
X78917396Y-130035464D01*
X78921861Y-130052125D01*
X78994858Y-130178559D01*
X78994866Y-130178569D01*
X79098094Y-130281797D01*
X79098099Y-130281801D01*
X79098101Y-130281803D01*
X79098102Y-130281804D01*
X79098104Y-130281805D01*
X79224538Y-130354802D01*
X79224540Y-130354802D01*
X79224543Y-130354804D01*
X79365571Y-130392592D01*
X79365573Y-130392592D01*
X79511571Y-130392592D01*
X79511573Y-130392592D01*
X79652601Y-130354804D01*
X79652604Y-130354802D01*
X79652605Y-130354802D01*
X79725600Y-130312658D01*
X79779043Y-130281803D01*
X79882283Y-130178563D01*
X79930817Y-130094500D01*
X79955282Y-130052125D01*
X79955282Y-130052124D01*
X79955284Y-130052121D01*
X79993072Y-129911093D01*
X79993072Y-129765091D01*
X79955284Y-129624063D01*
X79955282Y-129624060D01*
X79955282Y-129624058D01*
X79896209Y-129521741D01*
X79882285Y-129497624D01*
X79882277Y-129497614D01*
X79851662Y-129466999D01*
X80725500Y-129466999D01*
X80725500Y-129613001D01*
X80740406Y-129668631D01*
X80763289Y-129754033D01*
X80836286Y-129880467D01*
X80836294Y-129880477D01*
X80939522Y-129983705D01*
X80939527Y-129983709D01*
X80939529Y-129983711D01*
X80939530Y-129983712D01*
X80939532Y-129983713D01*
X81065966Y-130056710D01*
X81065968Y-130056710D01*
X81065971Y-130056712D01*
X81206999Y-130094500D01*
X81207001Y-130094500D01*
X81352999Y-130094500D01*
X81353001Y-130094500D01*
X81494029Y-130056712D01*
X81494032Y-130056710D01*
X81494033Y-130056710D01*
X81557250Y-130020211D01*
X81620471Y-129983711D01*
X81723711Y-129880471D01*
X81770186Y-129799973D01*
X81796710Y-129754033D01*
X81796710Y-129754032D01*
X81796712Y-129754029D01*
X81834500Y-129613001D01*
X81834500Y-129466999D01*
X81796712Y-129325971D01*
X81796710Y-129325968D01*
X81796710Y-129325966D01*
X81787437Y-129309905D01*
X81755832Y-129255163D01*
X98993512Y-129255163D01*
X98993512Y-129401165D01*
X99015446Y-129483025D01*
X99031301Y-129542197D01*
X99104298Y-129668631D01*
X99104306Y-129668641D01*
X99207534Y-129771869D01*
X99207539Y-129771873D01*
X99207541Y-129771875D01*
X99207542Y-129771876D01*
X99207544Y-129771877D01*
X99333978Y-129844874D01*
X99333980Y-129844874D01*
X99333983Y-129844876D01*
X99475011Y-129882664D01*
X99475013Y-129882664D01*
X99621012Y-129882664D01*
X99621013Y-129882664D01*
X99761693Y-129844969D01*
X99832667Y-129846658D01*
X99883397Y-129877580D01*
X99989522Y-129983705D01*
X99989527Y-129983709D01*
X99989529Y-129983711D01*
X99989530Y-129983712D01*
X99989532Y-129983713D01*
X100115966Y-130056710D01*
X100115968Y-130056710D01*
X100115971Y-130056712D01*
X100256999Y-130094500D01*
X100257001Y-130094500D01*
X100402999Y-130094500D01*
X100403001Y-130094500D01*
X100544029Y-130056712D01*
X100544032Y-130056710D01*
X100544033Y-130056710D01*
X100607250Y-130020211D01*
X100670471Y-129983711D01*
X100754992Y-129899190D01*
X178947691Y-129899190D01*
X178947691Y-130045192D01*
X178950778Y-130056712D01*
X178985480Y-130186224D01*
X179058477Y-130312658D01*
X179058485Y-130312668D01*
X179161713Y-130415896D01*
X179161718Y-130415900D01*
X179161720Y-130415902D01*
X179161721Y-130415903D01*
X179161723Y-130415904D01*
X179288157Y-130488901D01*
X179288159Y-130488901D01*
X179288162Y-130488903D01*
X179429190Y-130526691D01*
X179429192Y-130526691D01*
X179575190Y-130526691D01*
X179575192Y-130526691D01*
X179716220Y-130488903D01*
X179716223Y-130488901D01*
X179716224Y-130488901D01*
X179779441Y-130452402D01*
X179842662Y-130415902D01*
X179945902Y-130312662D01*
X180018903Y-130186220D01*
X180056691Y-130045192D01*
X180056691Y-129899190D01*
X180018903Y-129758162D01*
X180018901Y-129758159D01*
X180018901Y-129758157D01*
X179945904Y-129631723D01*
X179945896Y-129631713D01*
X179842668Y-129528485D01*
X179842658Y-129528477D01*
X179716224Y-129455480D01*
X179699563Y-129451015D01*
X179575192Y-129417691D01*
X179429190Y-129417691D01*
X179342877Y-129440818D01*
X179288157Y-129455480D01*
X179161723Y-129528477D01*
X179161713Y-129528485D01*
X179058485Y-129631713D01*
X179058477Y-129631723D01*
X178985480Y-129758157D01*
X178981804Y-129771877D01*
X178947691Y-129899190D01*
X100754992Y-129899190D01*
X100773711Y-129880471D01*
X100820186Y-129799973D01*
X100846710Y-129754033D01*
X100846710Y-129754032D01*
X100846712Y-129754029D01*
X100884500Y-129613001D01*
X100884500Y-129466999D01*
X100846712Y-129325971D01*
X100846710Y-129325968D01*
X100846710Y-129325966D01*
X100773713Y-129199532D01*
X100773705Y-129199522D01*
X100670477Y-129096294D01*
X100670467Y-129096286D01*
X100544033Y-129023289D01*
X100527372Y-129018824D01*
X100403001Y-128985500D01*
X100256999Y-128985500D01*
X100116318Y-129023194D01*
X100045344Y-129021505D01*
X99994614Y-128990583D01*
X99970350Y-128966319D01*
X183094820Y-128966319D01*
X183094820Y-129112321D01*
X183118185Y-129199522D01*
X183132609Y-129253353D01*
X183205606Y-129379787D01*
X183205614Y-129379797D01*
X183308842Y-129483025D01*
X183308847Y-129483029D01*
X183308849Y-129483031D01*
X183308850Y-129483032D01*
X183308852Y-129483033D01*
X183435286Y-129556030D01*
X183435288Y-129556030D01*
X183435291Y-129556032D01*
X183576319Y-129593820D01*
X183576321Y-129593820D01*
X183722319Y-129593820D01*
X183722321Y-129593820D01*
X183863349Y-129556032D01*
X183863352Y-129556030D01*
X183863353Y-129556030D01*
X183964532Y-129497614D01*
X183989791Y-129483031D01*
X184093031Y-129379791D01*
X184166032Y-129253349D01*
X184203820Y-129112321D01*
X184203820Y-128966319D01*
X184166032Y-128825291D01*
X184166030Y-128825288D01*
X184166030Y-128825286D01*
X184093033Y-128698852D01*
X184093025Y-128698842D01*
X183989797Y-128595614D01*
X183989787Y-128595606D01*
X183863353Y-128522609D01*
X183846692Y-128518144D01*
X183722321Y-128484820D01*
X183576319Y-128484820D01*
X183490006Y-128507947D01*
X183435286Y-128522609D01*
X183308852Y-128595606D01*
X183308842Y-128595614D01*
X183205614Y-128698842D01*
X183205606Y-128698852D01*
X183132609Y-128825286D01*
X183116756Y-128884453D01*
X183094820Y-128966319D01*
X99970350Y-128966319D01*
X99888489Y-128884458D01*
X99888479Y-128884450D01*
X99762045Y-128811453D01*
X99745384Y-128806988D01*
X99621013Y-128773664D01*
X99475011Y-128773664D01*
X99388698Y-128796791D01*
X99333978Y-128811453D01*
X99207544Y-128884450D01*
X99207534Y-128884458D01*
X99104306Y-128987686D01*
X99104298Y-128987696D01*
X99031301Y-129114130D01*
X99031300Y-129114135D01*
X98993512Y-129255163D01*
X81755832Y-129255163D01*
X81723713Y-129199532D01*
X81723705Y-129199522D01*
X81620477Y-129096294D01*
X81620467Y-129096286D01*
X81494033Y-129023289D01*
X81477372Y-129018824D01*
X81353001Y-128985500D01*
X81206999Y-128985500D01*
X81120686Y-129008627D01*
X81065966Y-129023289D01*
X80939532Y-129096286D01*
X80939522Y-129096294D01*
X80836294Y-129199522D01*
X80836286Y-129199532D01*
X80763289Y-129325966D01*
X80763288Y-129325971D01*
X80725500Y-129466999D01*
X79851662Y-129466999D01*
X79779049Y-129394386D01*
X79779039Y-129394378D01*
X79652605Y-129321381D01*
X79609775Y-129309905D01*
X79511573Y-129283592D01*
X79365571Y-129283592D01*
X79279258Y-129306719D01*
X79224538Y-129321381D01*
X79098104Y-129394378D01*
X79098094Y-129394386D01*
X78994866Y-129497614D01*
X78994858Y-129497624D01*
X78921861Y-129624058D01*
X78909918Y-129668631D01*
X78884072Y-129765091D01*
X68848354Y-129765091D01*
X68848354Y-128136169D01*
X177016928Y-128136169D01*
X177016928Y-128282171D01*
X177030303Y-128332087D01*
X177054717Y-128423203D01*
X177127714Y-128549637D01*
X177127722Y-128549647D01*
X177230950Y-128652875D01*
X177230955Y-128652879D01*
X177230957Y-128652881D01*
X177230958Y-128652882D01*
X177230960Y-128652883D01*
X177357394Y-128725880D01*
X177357396Y-128725880D01*
X177357399Y-128725882D01*
X177498427Y-128763670D01*
X177498429Y-128763670D01*
X177644427Y-128763670D01*
X177644429Y-128763670D01*
X177785457Y-128725882D01*
X177785460Y-128725880D01*
X177785461Y-128725880D01*
X177848678Y-128689381D01*
X177911899Y-128652881D01*
X178015139Y-128549641D01*
X178088140Y-128423199D01*
X178112553Y-128332087D01*
X180102637Y-128332087D01*
X180102637Y-128478089D01*
X180104441Y-128484820D01*
X180140426Y-128619121D01*
X180213423Y-128745555D01*
X180213431Y-128745565D01*
X180316659Y-128848793D01*
X180316664Y-128848797D01*
X180316666Y-128848799D01*
X180316667Y-128848800D01*
X180316669Y-128848801D01*
X180443103Y-128921798D01*
X180443105Y-128921798D01*
X180443108Y-128921800D01*
X180584136Y-128959588D01*
X180584138Y-128959588D01*
X180730136Y-128959588D01*
X180730138Y-128959588D01*
X180871166Y-128921800D01*
X180871169Y-128921798D01*
X180871170Y-128921798D01*
X180997361Y-128848942D01*
X180997497Y-128848862D01*
X180997608Y-128848799D01*
X181100848Y-128745559D01*
X181154354Y-128652883D01*
X181173847Y-128619121D01*
X181173847Y-128619120D01*
X181173849Y-128619117D01*
X181211637Y-128478089D01*
X181211637Y-128332087D01*
X181173849Y-128191059D01*
X181173847Y-128191056D01*
X181173847Y-128191054D01*
X181100850Y-128064620D01*
X181100842Y-128064610D01*
X180997614Y-127961382D01*
X180997604Y-127961374D01*
X180871170Y-127888377D01*
X180854509Y-127883912D01*
X180730138Y-127850588D01*
X180584136Y-127850588D01*
X180516533Y-127868702D01*
X180443103Y-127888377D01*
X180316669Y-127961374D01*
X180316659Y-127961382D01*
X180213431Y-128064610D01*
X180213423Y-128064620D01*
X180140426Y-128191054D01*
X180140425Y-128191059D01*
X180102637Y-128332087D01*
X178112553Y-128332087D01*
X178125928Y-128282171D01*
X178125928Y-128136169D01*
X178088140Y-127995141D01*
X178088138Y-127995138D01*
X178088138Y-127995136D01*
X178015141Y-127868702D01*
X178015133Y-127868692D01*
X177911905Y-127765464D01*
X177911895Y-127765456D01*
X177785461Y-127692459D01*
X177768800Y-127687994D01*
X177644429Y-127654670D01*
X177498427Y-127654670D01*
X177412114Y-127677797D01*
X177357394Y-127692459D01*
X177230960Y-127765456D01*
X177230950Y-127765464D01*
X177127722Y-127868692D01*
X177127714Y-127868702D01*
X177054717Y-127995136D01*
X177054716Y-127995141D01*
X177016928Y-128136169D01*
X68848354Y-128136169D01*
X68848354Y-126437091D01*
X170953691Y-126437091D01*
X170953691Y-126620000D01*
X170989373Y-126799386D01*
X171059362Y-126968351D01*
X171059364Y-126968355D01*
X171160977Y-127120429D01*
X171160982Y-127120435D01*
X171290301Y-127249754D01*
X171290307Y-127249759D01*
X171442381Y-127351372D01*
X171442385Y-127351374D01*
X171611350Y-127421363D01*
X171611354Y-127421363D01*
X171611357Y-127421365D01*
X171747418Y-127448428D01*
X171790736Y-127457045D01*
X171790739Y-127457045D01*
X171790742Y-127457046D01*
X171790743Y-127457046D01*
X171973639Y-127457046D01*
X171973640Y-127457046D01*
X172153025Y-127421365D01*
X172153028Y-127421363D01*
X172153031Y-127421363D01*
X172321996Y-127351374D01*
X172321995Y-127351374D01*
X172322001Y-127351372D01*
X172474075Y-127249759D01*
X172603404Y-127120430D01*
X172705017Y-126968356D01*
X172713961Y-126946761D01*
X172775008Y-126799386D01*
X172775008Y-126799383D01*
X172775010Y-126799380D01*
X172810691Y-126619995D01*
X172810691Y-126437097D01*
X172810690Y-126437091D01*
X173493691Y-126437091D01*
X173493691Y-126620000D01*
X173529373Y-126799386D01*
X173599362Y-126968351D01*
X173599364Y-126968355D01*
X173700977Y-127120429D01*
X173700982Y-127120435D01*
X173830301Y-127249754D01*
X173830307Y-127249759D01*
X173982381Y-127351372D01*
X173982385Y-127351374D01*
X174151350Y-127421363D01*
X174151354Y-127421363D01*
X174151357Y-127421365D01*
X174287418Y-127448428D01*
X174330736Y-127457045D01*
X174330739Y-127457045D01*
X174330742Y-127457046D01*
X174330743Y-127457046D01*
X174513639Y-127457046D01*
X174513640Y-127457046D01*
X174693025Y-127421365D01*
X174693028Y-127421363D01*
X174693031Y-127421363D01*
X174861996Y-127351374D01*
X174861995Y-127351374D01*
X174862001Y-127351372D01*
X175014075Y-127249759D01*
X175143404Y-127120430D01*
X175245017Y-126968356D01*
X175253961Y-126946761D01*
X175315008Y-126799386D01*
X175315008Y-126799383D01*
X175315010Y-126799380D01*
X175350691Y-126619995D01*
X175350691Y-126437097D01*
X175350690Y-126437091D01*
X176033691Y-126437091D01*
X176033691Y-126620000D01*
X176069373Y-126799386D01*
X176139362Y-126968351D01*
X176139364Y-126968355D01*
X176240977Y-127120429D01*
X176240982Y-127120435D01*
X176370301Y-127249754D01*
X176370307Y-127249759D01*
X176522381Y-127351372D01*
X176522385Y-127351374D01*
X176691350Y-127421363D01*
X176691354Y-127421363D01*
X176691357Y-127421365D01*
X176827418Y-127448428D01*
X176870736Y-127457045D01*
X176870739Y-127457045D01*
X176870742Y-127457046D01*
X176870743Y-127457046D01*
X177053639Y-127457046D01*
X177053640Y-127457046D01*
X177233025Y-127421365D01*
X177233028Y-127421363D01*
X177233031Y-127421363D01*
X177401996Y-127351374D01*
X177401995Y-127351374D01*
X177402001Y-127351372D01*
X177554075Y-127249759D01*
X177683404Y-127120430D01*
X177785017Y-126968356D01*
X177793961Y-126946761D01*
X177855008Y-126799386D01*
X177855008Y-126799383D01*
X177855010Y-126799380D01*
X177890691Y-126619995D01*
X177890691Y-126437097D01*
X177890690Y-126437091D01*
X178573691Y-126437091D01*
X178573691Y-126620000D01*
X178609373Y-126799386D01*
X178679362Y-126968351D01*
X178679364Y-126968355D01*
X178780977Y-127120429D01*
X178780982Y-127120435D01*
X178910301Y-127249754D01*
X178910307Y-127249759D01*
X179062381Y-127351372D01*
X179062385Y-127351374D01*
X179231350Y-127421363D01*
X179231354Y-127421363D01*
X179231357Y-127421365D01*
X179367418Y-127448428D01*
X179410736Y-127457045D01*
X179410739Y-127457045D01*
X179410742Y-127457046D01*
X179410743Y-127457046D01*
X179593639Y-127457046D01*
X179593640Y-127457046D01*
X179773025Y-127421365D01*
X179773028Y-127421363D01*
X179773031Y-127421363D01*
X179941996Y-127351374D01*
X179941995Y-127351374D01*
X179942001Y-127351372D01*
X180094075Y-127249759D01*
X180223404Y-127120430D01*
X180325017Y-126968356D01*
X180333961Y-126946761D01*
X180395008Y-126799386D01*
X180395008Y-126799383D01*
X180395010Y-126799380D01*
X180430691Y-126619995D01*
X180430691Y-126437097D01*
X180430690Y-126437091D01*
X181113691Y-126437091D01*
X181113691Y-126620000D01*
X181149373Y-126799386D01*
X181219362Y-126968351D01*
X181219364Y-126968355D01*
X181320977Y-127120429D01*
X181320982Y-127120435D01*
X181450301Y-127249754D01*
X181450307Y-127249759D01*
X181602381Y-127351372D01*
X181602385Y-127351374D01*
X181771350Y-127421363D01*
X181771354Y-127421363D01*
X181771357Y-127421365D01*
X181907418Y-127448428D01*
X181950736Y-127457045D01*
X181950739Y-127457045D01*
X181950742Y-127457046D01*
X181950743Y-127457046D01*
X182133639Y-127457046D01*
X182133640Y-127457046D01*
X182313025Y-127421365D01*
X182313028Y-127421363D01*
X182313031Y-127421363D01*
X182481996Y-127351374D01*
X182481995Y-127351374D01*
X182482001Y-127351372D01*
X182634075Y-127249759D01*
X182763404Y-127120430D01*
X182865017Y-126968356D01*
X182873961Y-126946761D01*
X182935008Y-126799386D01*
X182935008Y-126799383D01*
X182935010Y-126799380D01*
X182970691Y-126619995D01*
X182970691Y-126437097D01*
X182970690Y-126437091D01*
X183653691Y-126437091D01*
X183653691Y-126620000D01*
X183689373Y-126799386D01*
X183759362Y-126968351D01*
X183759364Y-126968355D01*
X183860977Y-127120429D01*
X183860982Y-127120435D01*
X183990301Y-127249754D01*
X183990307Y-127249759D01*
X184142381Y-127351372D01*
X184142385Y-127351374D01*
X184311350Y-127421363D01*
X184311354Y-127421363D01*
X184311357Y-127421365D01*
X184447418Y-127448428D01*
X184490736Y-127457045D01*
X184490739Y-127457045D01*
X184490742Y-127457046D01*
X184490743Y-127457046D01*
X184673639Y-127457046D01*
X184673640Y-127457046D01*
X184853025Y-127421365D01*
X184853028Y-127421363D01*
X184853031Y-127421363D01*
X185021996Y-127351374D01*
X185021995Y-127351374D01*
X185022001Y-127351372D01*
X185174075Y-127249759D01*
X185303404Y-127120430D01*
X185405017Y-126968356D01*
X185413961Y-126946761D01*
X185475008Y-126799386D01*
X185475008Y-126799383D01*
X185475010Y-126799380D01*
X185510691Y-126619995D01*
X185510691Y-126437097D01*
X185510690Y-126437091D01*
X186193691Y-126437091D01*
X186193691Y-126620000D01*
X186229373Y-126799386D01*
X186299362Y-126968351D01*
X186299364Y-126968355D01*
X186400977Y-127120429D01*
X186400982Y-127120435D01*
X186530301Y-127249754D01*
X186530307Y-127249759D01*
X186682381Y-127351372D01*
X186682385Y-127351374D01*
X186851350Y-127421363D01*
X186851354Y-127421363D01*
X186851357Y-127421365D01*
X186987418Y-127448428D01*
X187030736Y-127457045D01*
X187030739Y-127457045D01*
X187030742Y-127457046D01*
X187030743Y-127457046D01*
X187213639Y-127457046D01*
X187213640Y-127457046D01*
X187393025Y-127421365D01*
X187393028Y-127421363D01*
X187393031Y-127421363D01*
X187561996Y-127351374D01*
X187561995Y-127351374D01*
X187562001Y-127351372D01*
X187714075Y-127249759D01*
X187843404Y-127120430D01*
X187945017Y-126968356D01*
X187953961Y-126946761D01*
X188015008Y-126799386D01*
X188015008Y-126799383D01*
X188015010Y-126799380D01*
X188050691Y-126619995D01*
X188050691Y-126437097D01*
X188050690Y-126437091D01*
X188733691Y-126437091D01*
X188733691Y-126620000D01*
X188769373Y-126799386D01*
X188839362Y-126968351D01*
X188839364Y-126968355D01*
X188940977Y-127120429D01*
X188940982Y-127120435D01*
X189070301Y-127249754D01*
X189070307Y-127249759D01*
X189222381Y-127351372D01*
X189222385Y-127351374D01*
X189391350Y-127421363D01*
X189391354Y-127421363D01*
X189391357Y-127421365D01*
X189527418Y-127448428D01*
X189570736Y-127457045D01*
X189570739Y-127457045D01*
X189570742Y-127457046D01*
X189570743Y-127457046D01*
X189753639Y-127457046D01*
X189753640Y-127457046D01*
X189933025Y-127421365D01*
X189933028Y-127421363D01*
X189933031Y-127421363D01*
X190101996Y-127351374D01*
X190101995Y-127351374D01*
X190102001Y-127351372D01*
X190254075Y-127249759D01*
X190383404Y-127120430D01*
X190485017Y-126968356D01*
X190493961Y-126946761D01*
X190555008Y-126799386D01*
X190555008Y-126799383D01*
X190555010Y-126799380D01*
X190590691Y-126619995D01*
X190590691Y-126437097D01*
X190555010Y-126257712D01*
X190555008Y-126257709D01*
X190555008Y-126257705D01*
X190485019Y-126088740D01*
X190485017Y-126088736D01*
X190383404Y-125936662D01*
X190383399Y-125936656D01*
X190254080Y-125807337D01*
X190254074Y-125807332D01*
X190102000Y-125705719D01*
X190101996Y-125705717D01*
X189933031Y-125635728D01*
X189753645Y-125600046D01*
X189753640Y-125600046D01*
X189570742Y-125600046D01*
X189570736Y-125600046D01*
X189391350Y-125635728D01*
X189222385Y-125705717D01*
X189222381Y-125705719D01*
X189070307Y-125807332D01*
X189070301Y-125807337D01*
X188940982Y-125936656D01*
X188940977Y-125936662D01*
X188839364Y-126088736D01*
X188839362Y-126088740D01*
X188769373Y-126257705D01*
X188733691Y-126437091D01*
X188050690Y-126437091D01*
X188015010Y-126257712D01*
X188015008Y-126257709D01*
X188015008Y-126257705D01*
X187945019Y-126088740D01*
X187945017Y-126088736D01*
X187843404Y-125936662D01*
X187843399Y-125936656D01*
X187714080Y-125807337D01*
X187714074Y-125807332D01*
X187562000Y-125705719D01*
X187561996Y-125705717D01*
X187393031Y-125635728D01*
X187213645Y-125600046D01*
X187213640Y-125600046D01*
X187030742Y-125600046D01*
X187030736Y-125600046D01*
X186851350Y-125635728D01*
X186682385Y-125705717D01*
X186682381Y-125705719D01*
X186530307Y-125807332D01*
X186530301Y-125807337D01*
X186400982Y-125936656D01*
X186400977Y-125936662D01*
X186299364Y-126088736D01*
X186299362Y-126088740D01*
X186229373Y-126257705D01*
X186193691Y-126437091D01*
X185510690Y-126437091D01*
X185475010Y-126257712D01*
X185475008Y-126257709D01*
X185475008Y-126257705D01*
X185405019Y-126088740D01*
X185405017Y-126088736D01*
X185303404Y-125936662D01*
X185303399Y-125936656D01*
X185174080Y-125807337D01*
X185174074Y-125807332D01*
X185022000Y-125705719D01*
X185021996Y-125705717D01*
X184853031Y-125635728D01*
X184673645Y-125600046D01*
X184673640Y-125600046D01*
X184490742Y-125600046D01*
X184490736Y-125600046D01*
X184311350Y-125635728D01*
X184142385Y-125705717D01*
X184142381Y-125705719D01*
X183990307Y-125807332D01*
X183990301Y-125807337D01*
X183860982Y-125936656D01*
X183860977Y-125936662D01*
X183759364Y-126088736D01*
X183759362Y-126088740D01*
X183689373Y-126257705D01*
X183653691Y-126437091D01*
X182970690Y-126437091D01*
X182935010Y-126257712D01*
X182935008Y-126257709D01*
X182935008Y-126257705D01*
X182865019Y-126088740D01*
X182865017Y-126088736D01*
X182763404Y-125936662D01*
X182763399Y-125936656D01*
X182634080Y-125807337D01*
X182634074Y-125807332D01*
X182482000Y-125705719D01*
X182481996Y-125705717D01*
X182313031Y-125635728D01*
X182133645Y-125600046D01*
X182133640Y-125600046D01*
X181950742Y-125600046D01*
X181950736Y-125600046D01*
X181771350Y-125635728D01*
X181602385Y-125705717D01*
X181602381Y-125705719D01*
X181450307Y-125807332D01*
X181450301Y-125807337D01*
X181320982Y-125936656D01*
X181320977Y-125936662D01*
X181219364Y-126088736D01*
X181219362Y-126088740D01*
X181149373Y-126257705D01*
X181113691Y-126437091D01*
X180430690Y-126437091D01*
X180395010Y-126257712D01*
X180395008Y-126257709D01*
X180395008Y-126257705D01*
X180325019Y-126088740D01*
X180325017Y-126088736D01*
X180223404Y-125936662D01*
X180223399Y-125936656D01*
X180094080Y-125807337D01*
X180094074Y-125807332D01*
X179942000Y-125705719D01*
X179941996Y-125705717D01*
X179773031Y-125635728D01*
X179593645Y-125600046D01*
X179593640Y-125600046D01*
X179410742Y-125600046D01*
X179410736Y-125600046D01*
X179231350Y-125635728D01*
X179062385Y-125705717D01*
X179062381Y-125705719D01*
X178910307Y-125807332D01*
X178910301Y-125807337D01*
X178780982Y-125936656D01*
X178780977Y-125936662D01*
X178679364Y-126088736D01*
X178679362Y-126088740D01*
X178609373Y-126257705D01*
X178573691Y-126437091D01*
X177890690Y-126437091D01*
X177855010Y-126257712D01*
X177855008Y-126257709D01*
X177855008Y-126257705D01*
X177785019Y-126088740D01*
X177785017Y-126088736D01*
X177683404Y-125936662D01*
X177683399Y-125936656D01*
X177554080Y-125807337D01*
X177554074Y-125807332D01*
X177402000Y-125705719D01*
X177401996Y-125705717D01*
X177233031Y-125635728D01*
X177053645Y-125600046D01*
X177053640Y-125600046D01*
X176870742Y-125600046D01*
X176870736Y-125600046D01*
X176691350Y-125635728D01*
X176522385Y-125705717D01*
X176522381Y-125705719D01*
X176370307Y-125807332D01*
X176370301Y-125807337D01*
X176240982Y-125936656D01*
X176240977Y-125936662D01*
X176139364Y-126088736D01*
X176139362Y-126088740D01*
X176069373Y-126257705D01*
X176033691Y-126437091D01*
X175350690Y-126437091D01*
X175315010Y-126257712D01*
X175315008Y-126257709D01*
X175315008Y-126257705D01*
X175245019Y-126088740D01*
X175245017Y-126088736D01*
X175143404Y-125936662D01*
X175143399Y-125936656D01*
X175014080Y-125807337D01*
X175014074Y-125807332D01*
X174862000Y-125705719D01*
X174861996Y-125705717D01*
X174693031Y-125635728D01*
X174513645Y-125600046D01*
X174513640Y-125600046D01*
X174330742Y-125600046D01*
X174330736Y-125600046D01*
X174151350Y-125635728D01*
X173982385Y-125705717D01*
X173982381Y-125705719D01*
X173830307Y-125807332D01*
X173830301Y-125807337D01*
X173700982Y-125936656D01*
X173700977Y-125936662D01*
X173599364Y-126088736D01*
X173599362Y-126088740D01*
X173529373Y-126257705D01*
X173493691Y-126437091D01*
X172810690Y-126437091D01*
X172775010Y-126257712D01*
X172775008Y-126257709D01*
X172775008Y-126257705D01*
X172705019Y-126088740D01*
X172705017Y-126088736D01*
X172603404Y-125936662D01*
X172603399Y-125936656D01*
X172474080Y-125807337D01*
X172474074Y-125807332D01*
X172322000Y-125705719D01*
X172321996Y-125705717D01*
X172153031Y-125635728D01*
X171973645Y-125600046D01*
X171973640Y-125600046D01*
X171790742Y-125600046D01*
X171790736Y-125600046D01*
X171611350Y-125635728D01*
X171442385Y-125705717D01*
X171442381Y-125705719D01*
X171290307Y-125807332D01*
X171290301Y-125807337D01*
X171160982Y-125936656D01*
X171160977Y-125936662D01*
X171059364Y-126088736D01*
X171059362Y-126088740D01*
X170989373Y-126257705D01*
X170953691Y-126437091D01*
X68848354Y-126437091D01*
X68848354Y-125021999D01*
X75010500Y-125021999D01*
X75010500Y-125168001D01*
X75029653Y-125239480D01*
X75048289Y-125309033D01*
X75121286Y-125435467D01*
X75121294Y-125435477D01*
X75224522Y-125538705D01*
X75224527Y-125538709D01*
X75224529Y-125538711D01*
X75224530Y-125538712D01*
X75224532Y-125538713D01*
X75350966Y-125611710D01*
X75350968Y-125611710D01*
X75350971Y-125611712D01*
X75491999Y-125649500D01*
X75492001Y-125649500D01*
X75637999Y-125649500D01*
X75638001Y-125649500D01*
X75779029Y-125611712D01*
X75897224Y-125543472D01*
X75966217Y-125526735D01*
X76033309Y-125549955D01*
X76047753Y-125562174D01*
X76048798Y-125562976D01*
X76175232Y-125635973D01*
X76175234Y-125635973D01*
X76175237Y-125635975D01*
X76316265Y-125673763D01*
X76316267Y-125673763D01*
X76462265Y-125673763D01*
X76462267Y-125673763D01*
X76603295Y-125635975D01*
X76603298Y-125635973D01*
X76603299Y-125635973D01*
X76666516Y-125599474D01*
X76729737Y-125562974D01*
X76832977Y-125459734D01*
X76905978Y-125333292D01*
X76931116Y-125239476D01*
X195573691Y-125239476D01*
X195573691Y-126797609D01*
X195573692Y-126797619D01*
X195588456Y-126871846D01*
X195644707Y-126956030D01*
X195728888Y-127012279D01*
X195728890Y-127012280D01*
X195803124Y-127027046D01*
X197361257Y-127027045D01*
X197361260Y-127027044D01*
X197361264Y-127027044D01*
X197410517Y-127017247D01*
X197435492Y-127012280D01*
X197519675Y-126956030D01*
X197575925Y-126871847D01*
X197590691Y-126797613D01*
X197590690Y-125239480D01*
X197590689Y-125239476D01*
X197590689Y-125239472D01*
X197575925Y-125165245D01*
X197519674Y-125081061D01*
X197435493Y-125024812D01*
X197361258Y-125010046D01*
X195803127Y-125010046D01*
X195803117Y-125010047D01*
X195728890Y-125024811D01*
X195644706Y-125081062D01*
X195588457Y-125165243D01*
X195573691Y-125239476D01*
X76931116Y-125239476D01*
X76943766Y-125192264D01*
X76943766Y-125046262D01*
X76905978Y-124905234D01*
X76905976Y-124905231D01*
X76905976Y-124905229D01*
X76832979Y-124778795D01*
X76832971Y-124778785D01*
X76729743Y-124675557D01*
X76729733Y-124675549D01*
X76603299Y-124602552D01*
X76586638Y-124598087D01*
X76462267Y-124564763D01*
X76316265Y-124564763D01*
X76229952Y-124587890D01*
X76175232Y-124602552D01*
X76057043Y-124670789D01*
X75988047Y-124687527D01*
X75920955Y-124664306D01*
X75906514Y-124652090D01*
X75905467Y-124651286D01*
X75779033Y-124578289D01*
X75762372Y-124573824D01*
X75638001Y-124540500D01*
X75491999Y-124540500D01*
X75405686Y-124563627D01*
X75350966Y-124578289D01*
X75224532Y-124651286D01*
X75224522Y-124651294D01*
X75121294Y-124754522D01*
X75121286Y-124754532D01*
X75048289Y-124880966D01*
X75048288Y-124880971D01*
X75010500Y-125021999D01*
X68848354Y-125021999D01*
X68848354Y-123828269D01*
X104514457Y-123828269D01*
X104514457Y-123974271D01*
X104547781Y-124098642D01*
X104552246Y-124115303D01*
X104625243Y-124241737D01*
X104625251Y-124241747D01*
X104728479Y-124344975D01*
X104728484Y-124344979D01*
X104728486Y-124344981D01*
X104728487Y-124344982D01*
X104728489Y-124344983D01*
X104854923Y-124417980D01*
X104854925Y-124417980D01*
X104854928Y-124417982D01*
X104995956Y-124455770D01*
X104995958Y-124455770D01*
X105141956Y-124455770D01*
X105141958Y-124455770D01*
X105282986Y-124417982D01*
X105282989Y-124417980D01*
X105282990Y-124417980D01*
X105346207Y-124381481D01*
X105409428Y-124344981D01*
X105512668Y-124241741D01*
X105585669Y-124115299D01*
X105623457Y-123974271D01*
X105623457Y-123828269D01*
X105585669Y-123687241D01*
X105585667Y-123687238D01*
X105585667Y-123687236D01*
X105512670Y-123560802D01*
X105512662Y-123560792D01*
X105409434Y-123457564D01*
X105409424Y-123457556D01*
X105282990Y-123384559D01*
X105266329Y-123380094D01*
X105141958Y-123346770D01*
X104995956Y-123346770D01*
X104909643Y-123369897D01*
X104854923Y-123384559D01*
X104728489Y-123457556D01*
X104728479Y-123457564D01*
X104625251Y-123560792D01*
X104625243Y-123560802D01*
X104552246Y-123687236D01*
X104552245Y-123687241D01*
X104514457Y-123828269D01*
X68848354Y-123828269D01*
X68848354Y-121269726D01*
X81302127Y-121269726D01*
X81302127Y-121415728D01*
X81302267Y-121416249D01*
X81339916Y-121556760D01*
X81412913Y-121683194D01*
X81412921Y-121683204D01*
X81516149Y-121786432D01*
X81516154Y-121786436D01*
X81516156Y-121786438D01*
X81516157Y-121786439D01*
X81516159Y-121786440D01*
X81642593Y-121859437D01*
X81642595Y-121859437D01*
X81642598Y-121859439D01*
X81783626Y-121897227D01*
X81783628Y-121897227D01*
X81929626Y-121897227D01*
X81929628Y-121897227D01*
X82070656Y-121859439D01*
X82070659Y-121859437D01*
X82070660Y-121859437D01*
X82133877Y-121822938D01*
X82197098Y-121786438D01*
X82300338Y-121683198D01*
X82373339Y-121556756D01*
X82411127Y-121415728D01*
X82411127Y-121269726D01*
X82373339Y-121128698D01*
X82373337Y-121128695D01*
X82373337Y-121128693D01*
X82300340Y-121002259D01*
X82300332Y-121002249D01*
X82197104Y-120899021D01*
X82197094Y-120899013D01*
X82093520Y-120839214D01*
X195573691Y-120839214D01*
X195573691Y-120839217D01*
X195573691Y-121037875D01*
X195612447Y-121232715D01*
X195688470Y-121416250D01*
X195798838Y-121581427D01*
X195939310Y-121721899D01*
X196104487Y-121832267D01*
X196288022Y-121908290D01*
X196482862Y-121947046D01*
X196482863Y-121947046D01*
X196681519Y-121947046D01*
X196681520Y-121947046D01*
X196876360Y-121908290D01*
X197059895Y-121832267D01*
X197225072Y-121721899D01*
X197365544Y-121581427D01*
X197475912Y-121416250D01*
X197551935Y-121232715D01*
X197590691Y-121037875D01*
X197590691Y-120839217D01*
X197551935Y-120644377D01*
X197475912Y-120460842D01*
X197365544Y-120295665D01*
X197225072Y-120155193D01*
X197059895Y-120044825D01*
X196876360Y-119968802D01*
X196681522Y-119930046D01*
X196681520Y-119930046D01*
X196482862Y-119930046D01*
X196482859Y-119930046D01*
X196288021Y-119968802D01*
X196288016Y-119968804D01*
X196104487Y-120044825D01*
X195939314Y-120155190D01*
X195939307Y-120155195D01*
X195798840Y-120295662D01*
X195798835Y-120295669D01*
X195688470Y-120460842D01*
X195612449Y-120644371D01*
X195612447Y-120644376D01*
X195573691Y-120839214D01*
X82093520Y-120839214D01*
X82070660Y-120826016D01*
X82053999Y-120821551D01*
X81929628Y-120788227D01*
X81783626Y-120788227D01*
X81697313Y-120811354D01*
X81642593Y-120826016D01*
X81516159Y-120899013D01*
X81516149Y-120899021D01*
X81412921Y-121002249D01*
X81412913Y-121002259D01*
X81339916Y-121128693D01*
X81339915Y-121128698D01*
X81302127Y-121269726D01*
X68848354Y-121269726D01*
X68848354Y-118036999D01*
X154385500Y-118036999D01*
X154385500Y-118183001D01*
X154416639Y-118299214D01*
X154423289Y-118324033D01*
X154496286Y-118450467D01*
X154496294Y-118450477D01*
X154599522Y-118553705D01*
X154599527Y-118553709D01*
X154599529Y-118553711D01*
X154599530Y-118553712D01*
X154599532Y-118553713D01*
X154725966Y-118626710D01*
X154725968Y-118626710D01*
X154725971Y-118626712D01*
X154866999Y-118664500D01*
X154867001Y-118664500D01*
X155012999Y-118664500D01*
X155013001Y-118664500D01*
X155154029Y-118626712D01*
X155154032Y-118626710D01*
X155154033Y-118626710D01*
X155217250Y-118590211D01*
X155280471Y-118553711D01*
X155383711Y-118450471D01*
X155456712Y-118324029D01*
X155463361Y-118299214D01*
X195573691Y-118299214D01*
X195573691Y-118299217D01*
X195573691Y-118497875D01*
X195612447Y-118692715D01*
X195688470Y-118876250D01*
X195798838Y-119041427D01*
X195939310Y-119181899D01*
X196104487Y-119292267D01*
X196288022Y-119368290D01*
X196482862Y-119407046D01*
X196482863Y-119407046D01*
X196681519Y-119407046D01*
X196681520Y-119407046D01*
X196876360Y-119368290D01*
X197059895Y-119292267D01*
X197225072Y-119181899D01*
X197365544Y-119041427D01*
X197475912Y-118876250D01*
X197551935Y-118692715D01*
X197590691Y-118497875D01*
X197590691Y-118299217D01*
X197551935Y-118104377D01*
X197475912Y-117920842D01*
X197365544Y-117755665D01*
X197225072Y-117615193D01*
X197059895Y-117504825D01*
X196876360Y-117428802D01*
X196681522Y-117390046D01*
X196681520Y-117390046D01*
X196482862Y-117390046D01*
X196482859Y-117390046D01*
X196288021Y-117428802D01*
X196288016Y-117428804D01*
X196104487Y-117504825D01*
X195939314Y-117615190D01*
X195939307Y-117615195D01*
X195798840Y-117755662D01*
X195798835Y-117755669D01*
X195688470Y-117920842D01*
X195612449Y-118104371D01*
X195612447Y-118104376D01*
X195573691Y-118299214D01*
X155463361Y-118299214D01*
X155494500Y-118183001D01*
X155494500Y-118036999D01*
X155456712Y-117895971D01*
X155456710Y-117895968D01*
X155456710Y-117895966D01*
X155383713Y-117769532D01*
X155383705Y-117769522D01*
X155280477Y-117666294D01*
X155280467Y-117666286D01*
X155154033Y-117593289D01*
X155137372Y-117588824D01*
X155013001Y-117555500D01*
X154866999Y-117555500D01*
X154780686Y-117578627D01*
X154725966Y-117593289D01*
X154599532Y-117666286D01*
X154599522Y-117666294D01*
X154496294Y-117769522D01*
X154496286Y-117769532D01*
X154423289Y-117895966D01*
X154423288Y-117895971D01*
X154385500Y-118036999D01*
X68848354Y-118036999D01*
X68848354Y-111197091D01*
X170953691Y-111197091D01*
X170953691Y-111380000D01*
X170989373Y-111559386D01*
X171059362Y-111728351D01*
X171059364Y-111728355D01*
X171160977Y-111880429D01*
X171160982Y-111880435D01*
X171290301Y-112009754D01*
X171290307Y-112009759D01*
X171442381Y-112111372D01*
X171442385Y-112111374D01*
X171611350Y-112181363D01*
X171611354Y-112181363D01*
X171611357Y-112181365D01*
X171747418Y-112208428D01*
X171790736Y-112217045D01*
X171790739Y-112217045D01*
X171790742Y-112217046D01*
X171790743Y-112217046D01*
X171973639Y-112217046D01*
X171973640Y-112217046D01*
X172153025Y-112181365D01*
X172153028Y-112181363D01*
X172153031Y-112181363D01*
X172321996Y-112111374D01*
X172321995Y-112111374D01*
X172322001Y-112111372D01*
X172474075Y-112009759D01*
X172603404Y-111880430D01*
X172705017Y-111728356D01*
X172775010Y-111559380D01*
X172810691Y-111379995D01*
X172810691Y-111197097D01*
X172810690Y-111197091D01*
X176033691Y-111197091D01*
X176033691Y-111380000D01*
X176069373Y-111559386D01*
X176139362Y-111728351D01*
X176139364Y-111728355D01*
X176240977Y-111880429D01*
X176240982Y-111880435D01*
X176370301Y-112009754D01*
X176370307Y-112009759D01*
X176522381Y-112111372D01*
X176522385Y-112111374D01*
X176691350Y-112181363D01*
X176691354Y-112181363D01*
X176691357Y-112181365D01*
X176827418Y-112208428D01*
X176870736Y-112217045D01*
X176870739Y-112217045D01*
X176870742Y-112217046D01*
X176870743Y-112217046D01*
X177053639Y-112217046D01*
X177053640Y-112217046D01*
X177233025Y-112181365D01*
X177233028Y-112181363D01*
X177233031Y-112181363D01*
X177401996Y-112111374D01*
X177401995Y-112111374D01*
X177402001Y-112111372D01*
X177554075Y-112009759D01*
X177683404Y-111880430D01*
X177785017Y-111728356D01*
X177855010Y-111559380D01*
X177890691Y-111379995D01*
X177890691Y-111197097D01*
X177890690Y-111197091D01*
X178573691Y-111197091D01*
X178573691Y-111380000D01*
X178609373Y-111559386D01*
X178679362Y-111728351D01*
X178679364Y-111728355D01*
X178780977Y-111880429D01*
X178780982Y-111880435D01*
X178910301Y-112009754D01*
X178910307Y-112009759D01*
X179062381Y-112111372D01*
X179062385Y-112111374D01*
X179231350Y-112181363D01*
X179231354Y-112181363D01*
X179231357Y-112181365D01*
X179367418Y-112208428D01*
X179410736Y-112217045D01*
X179410739Y-112217045D01*
X179410742Y-112217046D01*
X179410743Y-112217046D01*
X179593639Y-112217046D01*
X179593640Y-112217046D01*
X179773025Y-112181365D01*
X179773028Y-112181363D01*
X179773031Y-112181363D01*
X179941996Y-112111374D01*
X179941995Y-112111374D01*
X179942001Y-112111372D01*
X180094075Y-112009759D01*
X180223404Y-111880430D01*
X180325017Y-111728356D01*
X180395010Y-111559380D01*
X180430691Y-111379995D01*
X180430691Y-111197097D01*
X180430690Y-111197091D01*
X181113691Y-111197091D01*
X181113691Y-111380000D01*
X181149373Y-111559386D01*
X181219362Y-111728351D01*
X181219364Y-111728355D01*
X181320977Y-111880429D01*
X181320982Y-111880435D01*
X181450301Y-112009754D01*
X181450307Y-112009759D01*
X181602381Y-112111372D01*
X181602385Y-112111374D01*
X181771350Y-112181363D01*
X181771354Y-112181363D01*
X181771357Y-112181365D01*
X181907418Y-112208428D01*
X181950736Y-112217045D01*
X181950739Y-112217045D01*
X181950742Y-112217046D01*
X181950743Y-112217046D01*
X182133639Y-112217046D01*
X182133640Y-112217046D01*
X182313025Y-112181365D01*
X182313028Y-112181363D01*
X182313031Y-112181363D01*
X182481996Y-112111374D01*
X182481995Y-112111374D01*
X182482001Y-112111372D01*
X182634075Y-112009759D01*
X182763404Y-111880430D01*
X182865017Y-111728356D01*
X182935010Y-111559380D01*
X182970691Y-111379995D01*
X182970691Y-111197097D01*
X182970690Y-111197091D01*
X183653691Y-111197091D01*
X183653691Y-111380000D01*
X183689373Y-111559386D01*
X183759362Y-111728351D01*
X183759364Y-111728355D01*
X183860977Y-111880429D01*
X183860982Y-111880435D01*
X183990301Y-112009754D01*
X183990307Y-112009759D01*
X184142381Y-112111372D01*
X184142385Y-112111374D01*
X184311350Y-112181363D01*
X184311354Y-112181363D01*
X184311357Y-112181365D01*
X184447418Y-112208428D01*
X184490736Y-112217045D01*
X184490739Y-112217045D01*
X184490742Y-112217046D01*
X184490743Y-112217046D01*
X184673639Y-112217046D01*
X184673640Y-112217046D01*
X184853025Y-112181365D01*
X184853028Y-112181363D01*
X184853031Y-112181363D01*
X185021996Y-112111374D01*
X185021995Y-112111374D01*
X185022001Y-112111372D01*
X185174075Y-112009759D01*
X185303404Y-111880430D01*
X185405017Y-111728356D01*
X185475010Y-111559380D01*
X185510691Y-111379995D01*
X185510691Y-111197097D01*
X185510690Y-111197091D01*
X186193691Y-111197091D01*
X186193691Y-111380000D01*
X186229373Y-111559386D01*
X186299362Y-111728351D01*
X186299364Y-111728355D01*
X186400977Y-111880429D01*
X186400982Y-111880435D01*
X186530301Y-112009754D01*
X186530307Y-112009759D01*
X186682381Y-112111372D01*
X186682385Y-112111374D01*
X186851350Y-112181363D01*
X186851354Y-112181363D01*
X186851357Y-112181365D01*
X186987418Y-112208428D01*
X187030736Y-112217045D01*
X187030739Y-112217045D01*
X187030742Y-112217046D01*
X187030743Y-112217046D01*
X187213639Y-112217046D01*
X187213640Y-112217046D01*
X187393025Y-112181365D01*
X187393028Y-112181363D01*
X187393031Y-112181363D01*
X187561996Y-112111374D01*
X187561995Y-112111374D01*
X187562001Y-112111372D01*
X187714075Y-112009759D01*
X187843404Y-111880430D01*
X187945017Y-111728356D01*
X188015010Y-111559380D01*
X188050691Y-111379995D01*
X188050691Y-111197097D01*
X188050690Y-111197091D01*
X188733691Y-111197091D01*
X188733691Y-111380000D01*
X188769373Y-111559386D01*
X188839362Y-111728351D01*
X188839364Y-111728355D01*
X188940977Y-111880429D01*
X188940982Y-111880435D01*
X189070301Y-112009754D01*
X189070307Y-112009759D01*
X189222381Y-112111372D01*
X189222385Y-112111374D01*
X189391350Y-112181363D01*
X189391354Y-112181363D01*
X189391357Y-112181365D01*
X189527418Y-112208428D01*
X189570736Y-112217045D01*
X189570739Y-112217045D01*
X189570742Y-112217046D01*
X189570743Y-112217046D01*
X189753639Y-112217046D01*
X189753640Y-112217046D01*
X189933025Y-112181365D01*
X189933028Y-112181363D01*
X189933031Y-112181363D01*
X190101996Y-112111374D01*
X190101995Y-112111374D01*
X190102001Y-112111372D01*
X190254075Y-112009759D01*
X190383404Y-111880430D01*
X190485017Y-111728356D01*
X190555010Y-111559380D01*
X190590691Y-111379995D01*
X190590691Y-111197097D01*
X190555010Y-111017712D01*
X190555008Y-111017709D01*
X190555008Y-111017705D01*
X190485019Y-110848740D01*
X190485017Y-110848736D01*
X190383404Y-110696662D01*
X190383399Y-110696656D01*
X190254080Y-110567337D01*
X190254074Y-110567332D01*
X190102000Y-110465719D01*
X190101996Y-110465717D01*
X189933031Y-110395728D01*
X189753645Y-110360046D01*
X189753640Y-110360046D01*
X189570742Y-110360046D01*
X189570736Y-110360046D01*
X189391350Y-110395728D01*
X189222385Y-110465717D01*
X189222381Y-110465719D01*
X189070307Y-110567332D01*
X189070301Y-110567337D01*
X188940982Y-110696656D01*
X188940977Y-110696662D01*
X188839364Y-110848736D01*
X188839362Y-110848740D01*
X188769373Y-111017705D01*
X188733691Y-111197091D01*
X188050690Y-111197091D01*
X188015010Y-111017712D01*
X188015008Y-111017709D01*
X188015008Y-111017705D01*
X187945019Y-110848740D01*
X187945017Y-110848736D01*
X187843404Y-110696662D01*
X187843399Y-110696656D01*
X187714080Y-110567337D01*
X187714074Y-110567332D01*
X187562000Y-110465719D01*
X187561996Y-110465717D01*
X187393031Y-110395728D01*
X187213645Y-110360046D01*
X187213640Y-110360046D01*
X187030742Y-110360046D01*
X187030736Y-110360046D01*
X186851350Y-110395728D01*
X186682385Y-110465717D01*
X186682381Y-110465719D01*
X186530307Y-110567332D01*
X186530301Y-110567337D01*
X186400982Y-110696656D01*
X186400977Y-110696662D01*
X186299364Y-110848736D01*
X186299362Y-110848740D01*
X186229373Y-111017705D01*
X186193691Y-111197091D01*
X185510690Y-111197091D01*
X185475010Y-111017712D01*
X185475008Y-111017709D01*
X185475008Y-111017705D01*
X185405019Y-110848740D01*
X185405017Y-110848736D01*
X185303404Y-110696662D01*
X185303399Y-110696656D01*
X185174080Y-110567337D01*
X185174074Y-110567332D01*
X185022000Y-110465719D01*
X185021996Y-110465717D01*
X184853031Y-110395728D01*
X184673645Y-110360046D01*
X184673640Y-110360046D01*
X184490742Y-110360046D01*
X184490736Y-110360046D01*
X184311350Y-110395728D01*
X184142385Y-110465717D01*
X184142381Y-110465719D01*
X183990307Y-110567332D01*
X183990301Y-110567337D01*
X183860982Y-110696656D01*
X183860977Y-110696662D01*
X183759364Y-110848736D01*
X183759362Y-110848740D01*
X183689373Y-111017705D01*
X183653691Y-111197091D01*
X182970690Y-111197091D01*
X182935010Y-111017712D01*
X182935008Y-111017709D01*
X182935008Y-111017705D01*
X182865019Y-110848740D01*
X182865017Y-110848736D01*
X182763404Y-110696662D01*
X182763399Y-110696656D01*
X182634080Y-110567337D01*
X182634074Y-110567332D01*
X182482000Y-110465719D01*
X182481996Y-110465717D01*
X182313031Y-110395728D01*
X182133645Y-110360046D01*
X182133640Y-110360046D01*
X181950742Y-110360046D01*
X181950736Y-110360046D01*
X181771350Y-110395728D01*
X181602385Y-110465717D01*
X181602381Y-110465719D01*
X181450307Y-110567332D01*
X181450301Y-110567337D01*
X181320982Y-110696656D01*
X181320977Y-110696662D01*
X181219364Y-110848736D01*
X181219362Y-110848740D01*
X181149373Y-111017705D01*
X181113691Y-111197091D01*
X180430690Y-111197091D01*
X180395010Y-111017712D01*
X180395008Y-111017709D01*
X180395008Y-111017705D01*
X180325019Y-110848740D01*
X180325017Y-110848736D01*
X180223404Y-110696662D01*
X180223399Y-110696656D01*
X180094080Y-110567337D01*
X180094074Y-110567332D01*
X179942000Y-110465719D01*
X179941996Y-110465717D01*
X179773031Y-110395728D01*
X179593645Y-110360046D01*
X179593640Y-110360046D01*
X179410742Y-110360046D01*
X179410736Y-110360046D01*
X179231350Y-110395728D01*
X179062385Y-110465717D01*
X179062381Y-110465719D01*
X178910307Y-110567332D01*
X178910301Y-110567337D01*
X178780982Y-110696656D01*
X178780977Y-110696662D01*
X178679364Y-110848736D01*
X178679362Y-110848740D01*
X178609373Y-111017705D01*
X178573691Y-111197091D01*
X177890690Y-111197091D01*
X177855010Y-111017712D01*
X177855008Y-111017709D01*
X177855008Y-111017705D01*
X177785019Y-110848740D01*
X177785017Y-110848736D01*
X177683404Y-110696662D01*
X177683399Y-110696656D01*
X177554080Y-110567337D01*
X177554074Y-110567332D01*
X177402000Y-110465719D01*
X177401996Y-110465717D01*
X177233031Y-110395728D01*
X177053645Y-110360046D01*
X177053640Y-110360046D01*
X176870742Y-110360046D01*
X176870736Y-110360046D01*
X176691350Y-110395728D01*
X176522385Y-110465717D01*
X176522381Y-110465719D01*
X176370307Y-110567332D01*
X176370301Y-110567337D01*
X176240982Y-110696656D01*
X176240977Y-110696662D01*
X176139364Y-110848736D01*
X176139362Y-110848740D01*
X176069373Y-111017705D01*
X176033691Y-111197091D01*
X172810690Y-111197091D01*
X172775010Y-111017712D01*
X172775008Y-111017709D01*
X172775008Y-111017705D01*
X172705019Y-110848740D01*
X172705017Y-110848736D01*
X172603404Y-110696662D01*
X172603399Y-110696656D01*
X172474080Y-110567337D01*
X172474074Y-110567332D01*
X172322000Y-110465719D01*
X172321996Y-110465717D01*
X172153031Y-110395728D01*
X171973645Y-110360046D01*
X171973640Y-110360046D01*
X171790742Y-110360046D01*
X171790736Y-110360046D01*
X171611350Y-110395728D01*
X171442385Y-110465717D01*
X171442381Y-110465719D01*
X171290307Y-110567332D01*
X171290301Y-110567337D01*
X171160982Y-110696656D01*
X171160977Y-110696662D01*
X171059364Y-110848736D01*
X171059362Y-110848740D01*
X170989373Y-111017705D01*
X170953691Y-111197091D01*
X68848354Y-111197091D01*
X68848354Y-110416999D01*
X102315500Y-110416999D01*
X102315500Y-110563001D01*
X102316661Y-110567333D01*
X102353289Y-110704033D01*
X102426286Y-110830467D01*
X102426294Y-110830477D01*
X102529522Y-110933705D01*
X102529527Y-110933709D01*
X102529529Y-110933711D01*
X102529530Y-110933712D01*
X102529532Y-110933713D01*
X102655966Y-111006710D01*
X102655968Y-111006710D01*
X102655971Y-111006712D01*
X102796999Y-111044500D01*
X102797001Y-111044500D01*
X102942999Y-111044500D01*
X102943001Y-111044500D01*
X103084029Y-111006712D01*
X103084032Y-111006710D01*
X103084033Y-111006710D01*
X103147250Y-110970211D01*
X103210471Y-110933711D01*
X103313711Y-110830471D01*
X103386712Y-110704029D01*
X103424500Y-110563001D01*
X103424500Y-110416999D01*
X103386712Y-110275971D01*
X103386710Y-110275968D01*
X103386710Y-110275966D01*
X103313713Y-110149532D01*
X103313705Y-110149522D01*
X103210477Y-110046294D01*
X103210467Y-110046286D01*
X103084033Y-109973289D01*
X103067372Y-109968824D01*
X102943001Y-109935500D01*
X102796999Y-109935500D01*
X102710686Y-109958627D01*
X102655966Y-109973289D01*
X102529532Y-110046286D01*
X102529522Y-110046294D01*
X102426294Y-110149522D01*
X102426286Y-110149532D01*
X102353289Y-110275966D01*
X102353288Y-110275971D01*
X102315500Y-110416999D01*
X68848354Y-110416999D01*
X68848354Y-109781999D01*
X142955500Y-109781999D01*
X142955500Y-109928001D01*
X142967635Y-109973288D01*
X142993289Y-110069033D01*
X143066286Y-110195467D01*
X143066294Y-110195477D01*
X143169522Y-110298705D01*
X143169527Y-110298709D01*
X143169529Y-110298711D01*
X143169530Y-110298712D01*
X143169532Y-110298713D01*
X143295966Y-110371710D01*
X143295968Y-110371710D01*
X143295971Y-110371712D01*
X143436999Y-110409500D01*
X143437001Y-110409500D01*
X143582999Y-110409500D01*
X143583001Y-110409500D01*
X143724029Y-110371712D01*
X143724032Y-110371710D01*
X143724033Y-110371710D01*
X143787250Y-110335211D01*
X143850471Y-110298711D01*
X143953711Y-110195471D01*
X144026712Y-110069029D01*
X144064500Y-109928001D01*
X144064500Y-109781999D01*
X144026712Y-109640971D01*
X144026710Y-109640968D01*
X144026710Y-109640966D01*
X143953713Y-109514532D01*
X143953705Y-109514522D01*
X143850477Y-109411294D01*
X143850467Y-109411286D01*
X143724033Y-109338289D01*
X143707372Y-109333824D01*
X143583001Y-109300500D01*
X143436999Y-109300500D01*
X143350686Y-109323627D01*
X143295966Y-109338289D01*
X143169532Y-109411286D01*
X143169522Y-109411294D01*
X143066294Y-109514522D01*
X143066286Y-109514532D01*
X142993289Y-109640966D01*
X142993288Y-109640971D01*
X142955500Y-109781999D01*
X68848354Y-109781999D01*
X68848354Y-109146999D01*
X178515500Y-109146999D01*
X178515500Y-109293001D01*
X178527635Y-109338288D01*
X178553289Y-109434033D01*
X178626286Y-109560467D01*
X178626294Y-109560477D01*
X178729522Y-109663705D01*
X178729527Y-109663709D01*
X178729529Y-109663711D01*
X178729530Y-109663712D01*
X178729532Y-109663713D01*
X178855966Y-109736710D01*
X178855968Y-109736710D01*
X178855971Y-109736712D01*
X178996999Y-109774500D01*
X178997001Y-109774500D01*
X179142999Y-109774500D01*
X179143001Y-109774500D01*
X179284029Y-109736712D01*
X179284032Y-109736710D01*
X179284033Y-109736710D01*
X179347250Y-109700211D01*
X179410471Y-109663711D01*
X179513711Y-109560471D01*
X179586712Y-109434029D01*
X179624500Y-109293001D01*
X179624500Y-109146999D01*
X181055500Y-109146999D01*
X181055500Y-109293001D01*
X181067635Y-109338288D01*
X181093289Y-109434033D01*
X181166286Y-109560467D01*
X181166294Y-109560477D01*
X181269522Y-109663705D01*
X181269527Y-109663709D01*
X181269529Y-109663711D01*
X181269530Y-109663712D01*
X181269532Y-109663713D01*
X181395966Y-109736710D01*
X181395968Y-109736710D01*
X181395971Y-109736712D01*
X181536999Y-109774500D01*
X181537001Y-109774500D01*
X181682999Y-109774500D01*
X181683001Y-109774500D01*
X181824029Y-109736712D01*
X181824032Y-109736710D01*
X181824033Y-109736710D01*
X181887250Y-109700211D01*
X181950471Y-109663711D01*
X182053711Y-109560471D01*
X182126712Y-109434029D01*
X182164500Y-109293001D01*
X182164500Y-109146999D01*
X182126712Y-109005971D01*
X182126710Y-109005968D01*
X182126710Y-109005966D01*
X182053713Y-108879532D01*
X182053705Y-108879522D01*
X181950477Y-108776294D01*
X181950467Y-108776286D01*
X181824033Y-108703289D01*
X181807372Y-108698824D01*
X181683001Y-108665500D01*
X181536999Y-108665500D01*
X181450686Y-108688627D01*
X181395966Y-108703289D01*
X181269532Y-108776286D01*
X181269522Y-108776294D01*
X181166294Y-108879522D01*
X181166286Y-108879532D01*
X181093289Y-109005966D01*
X181093288Y-109005971D01*
X181055500Y-109146999D01*
X179624500Y-109146999D01*
X179586712Y-109005971D01*
X179586710Y-109005968D01*
X179586710Y-109005966D01*
X179513713Y-108879532D01*
X179513705Y-108879522D01*
X179410477Y-108776294D01*
X179410467Y-108776286D01*
X179284033Y-108703289D01*
X179267372Y-108698824D01*
X179143001Y-108665500D01*
X178996999Y-108665500D01*
X178910686Y-108688627D01*
X178855966Y-108703289D01*
X178729532Y-108776286D01*
X178729522Y-108776294D01*
X178626294Y-108879522D01*
X178626286Y-108879532D01*
X178553289Y-109005966D01*
X178553288Y-109005971D01*
X178515500Y-109146999D01*
X68848354Y-109146999D01*
X68848354Y-106343809D01*
X195531691Y-106343809D01*
X195531691Y-106573282D01*
X195561641Y-106800777D01*
X195561643Y-106800784D01*
X195621033Y-107022433D01*
X195708847Y-107234434D01*
X195708848Y-107234435D01*
X195708853Y-107234446D01*
X195823577Y-107433154D01*
X195823582Y-107433161D01*
X195963264Y-107615198D01*
X195963283Y-107615219D01*
X196125517Y-107777453D01*
X196125538Y-107777472D01*
X196307575Y-107917154D01*
X196307582Y-107917159D01*
X196506290Y-108031883D01*
X196506294Y-108031884D01*
X196506303Y-108031890D01*
X196718304Y-108119704D01*
X196939953Y-108179094D01*
X196939957Y-108179094D01*
X196939959Y-108179095D01*
X196998589Y-108186813D01*
X197167457Y-108209046D01*
X197167464Y-108209046D01*
X197396918Y-108209046D01*
X197396925Y-108209046D01*
X197602536Y-108181976D01*
X197624422Y-108179095D01*
X197624422Y-108179094D01*
X197624429Y-108179094D01*
X197846078Y-108119704D01*
X198058079Y-108031890D01*
X198256803Y-107917157D01*
X198438852Y-107777465D01*
X198601110Y-107615207D01*
X198740802Y-107433158D01*
X198855535Y-107234434D01*
X198943349Y-107022433D01*
X199002739Y-106800784D01*
X199032691Y-106573280D01*
X199032691Y-106343812D01*
X199032691Y-106343809D01*
X225231691Y-106343809D01*
X225231691Y-106573282D01*
X225261641Y-106800777D01*
X225261643Y-106800784D01*
X225321033Y-107022433D01*
X225408847Y-107234434D01*
X225408848Y-107234435D01*
X225408853Y-107234446D01*
X225523577Y-107433154D01*
X225523582Y-107433161D01*
X225663264Y-107615198D01*
X225663283Y-107615219D01*
X225825517Y-107777453D01*
X225825538Y-107777472D01*
X226007575Y-107917154D01*
X226007582Y-107917159D01*
X226206290Y-108031883D01*
X226206294Y-108031884D01*
X226206303Y-108031890D01*
X226418304Y-108119704D01*
X226639953Y-108179094D01*
X226639957Y-108179094D01*
X226639959Y-108179095D01*
X226698589Y-108186813D01*
X226867457Y-108209046D01*
X226867464Y-108209046D01*
X227096918Y-108209046D01*
X227096925Y-108209046D01*
X227302536Y-108181976D01*
X227324422Y-108179095D01*
X227324422Y-108179094D01*
X227324429Y-108179094D01*
X227546078Y-108119704D01*
X227758079Y-108031890D01*
X227956803Y-107917157D01*
X228138852Y-107777465D01*
X228301110Y-107615207D01*
X228440802Y-107433158D01*
X228555535Y-107234434D01*
X228643349Y-107022433D01*
X228702739Y-106800784D01*
X228732691Y-106573280D01*
X228732691Y-106343812D01*
X228702739Y-106116308D01*
X228643349Y-105894659D01*
X228555535Y-105682658D01*
X228555529Y-105682649D01*
X228555528Y-105682645D01*
X228440804Y-105483937D01*
X228440799Y-105483930D01*
X228301117Y-105301893D01*
X228301098Y-105301872D01*
X228138864Y-105139638D01*
X228138843Y-105139619D01*
X227956806Y-104999937D01*
X227956799Y-104999932D01*
X227758091Y-104885208D01*
X227758083Y-104885204D01*
X227758079Y-104885202D01*
X227546078Y-104797388D01*
X227324429Y-104737998D01*
X227324422Y-104737996D01*
X227096927Y-104708046D01*
X227096925Y-104708046D01*
X226867457Y-104708046D01*
X226867454Y-104708046D01*
X226639959Y-104737996D01*
X226484377Y-104779684D01*
X226418304Y-104797388D01*
X226219244Y-104879842D01*
X226206301Y-104885203D01*
X226206290Y-104885208D01*
X226007582Y-104999932D01*
X226007575Y-104999937D01*
X225825538Y-105139619D01*
X225825517Y-105139638D01*
X225663283Y-105301872D01*
X225663264Y-105301893D01*
X225523582Y-105483930D01*
X225523577Y-105483937D01*
X225408853Y-105682645D01*
X225408848Y-105682656D01*
X225408847Y-105682658D01*
X225368599Y-105779825D01*
X225321033Y-105894659D01*
X225261641Y-106116314D01*
X225231691Y-106343809D01*
X199032691Y-106343809D01*
X199002739Y-106116308D01*
X198943349Y-105894659D01*
X198855535Y-105682658D01*
X198855529Y-105682649D01*
X198855528Y-105682645D01*
X198740804Y-105483937D01*
X198740799Y-105483930D01*
X198601117Y-105301893D01*
X198601098Y-105301872D01*
X198438864Y-105139638D01*
X198438843Y-105139619D01*
X198256806Y-104999937D01*
X198256799Y-104999932D01*
X198058091Y-104885208D01*
X198058083Y-104885204D01*
X198058079Y-104885202D01*
X197846078Y-104797388D01*
X197624429Y-104737998D01*
X197624422Y-104737996D01*
X197396927Y-104708046D01*
X197396925Y-104708046D01*
X197167457Y-104708046D01*
X197167454Y-104708046D01*
X196939959Y-104737996D01*
X196784377Y-104779684D01*
X196718304Y-104797388D01*
X196519244Y-104879842D01*
X196506301Y-104885203D01*
X196506290Y-104885208D01*
X196307582Y-104999932D01*
X196307575Y-104999937D01*
X196125538Y-105139619D01*
X196125517Y-105139638D01*
X195963283Y-105301872D01*
X195963264Y-105301893D01*
X195823582Y-105483930D01*
X195823577Y-105483937D01*
X195708853Y-105682645D01*
X195708848Y-105682656D01*
X195708847Y-105682658D01*
X195668599Y-105779825D01*
X195621033Y-105894659D01*
X195561641Y-106116314D01*
X195531691Y-106343809D01*
X68848354Y-106343809D01*
X68848354Y-104164281D01*
X99569207Y-104164281D01*
X99569207Y-104310283D01*
X99594782Y-104405731D01*
X99606996Y-104451315D01*
X99679993Y-104577749D01*
X99680001Y-104577759D01*
X99783229Y-104680987D01*
X99783234Y-104680991D01*
X99783236Y-104680993D01*
X99783237Y-104680994D01*
X99783239Y-104680995D01*
X99909673Y-104753992D01*
X99909675Y-104753992D01*
X99909678Y-104753994D01*
X100050706Y-104791782D01*
X100050708Y-104791782D01*
X100196706Y-104791782D01*
X100196708Y-104791782D01*
X100337736Y-104753994D01*
X100337739Y-104753992D01*
X100337740Y-104753992D01*
X100407808Y-104713538D01*
X100464178Y-104680993D01*
X100567418Y-104577753D01*
X100610388Y-104503325D01*
X100661770Y-104454333D01*
X100731483Y-104440896D01*
X100752114Y-104444618D01*
X100774289Y-104450560D01*
X100774290Y-104450560D01*
X100920290Y-104450560D01*
X100920291Y-104450560D01*
X100999455Y-104429348D01*
X101070429Y-104431037D01*
X101129225Y-104470830D01*
X101157174Y-104536094D01*
X101148479Y-104599259D01*
X101146514Y-104604003D01*
X101146511Y-104604013D01*
X101146511Y-104604014D01*
X101108723Y-104745042D01*
X101108723Y-104891044D01*
X101130259Y-104971418D01*
X101146512Y-105032076D01*
X101219509Y-105158510D01*
X101219517Y-105158520D01*
X101322745Y-105261748D01*
X101322750Y-105261752D01*
X101322752Y-105261754D01*
X101322753Y-105261755D01*
X101322755Y-105261756D01*
X101449189Y-105334753D01*
X101449191Y-105334753D01*
X101449194Y-105334755D01*
X101590222Y-105372543D01*
X101590224Y-105372543D01*
X101736222Y-105372543D01*
X101736224Y-105372543D01*
X101877252Y-105334755D01*
X101877255Y-105334753D01*
X101877256Y-105334753D01*
X101974079Y-105278852D01*
X102003694Y-105261754D01*
X102095315Y-105170132D01*
X102157625Y-105136109D01*
X102228441Y-105141173D01*
X102285277Y-105183719D01*
X102310088Y-105250240D01*
X102306116Y-105291839D01*
X102294618Y-105334753D01*
X102286152Y-105366347D01*
X102286152Y-105512349D01*
X102295762Y-105548213D01*
X102323941Y-105653381D01*
X102396938Y-105779815D01*
X102396946Y-105779825D01*
X102500174Y-105883053D01*
X102500179Y-105883057D01*
X102500181Y-105883059D01*
X102500182Y-105883060D01*
X102500184Y-105883061D01*
X102626618Y-105956058D01*
X102626620Y-105956058D01*
X102626623Y-105956060D01*
X102767651Y-105993848D01*
X102767653Y-105993848D01*
X102913651Y-105993848D01*
X102913653Y-105993848D01*
X103054681Y-105956060D01*
X103054684Y-105956058D01*
X103054685Y-105956058D01*
X103161031Y-105894659D01*
X103181123Y-105883059D01*
X103284363Y-105779819D01*
X103357364Y-105653377D01*
X103395152Y-105512349D01*
X103395152Y-105366347D01*
X103357364Y-105225319D01*
X103357362Y-105225316D01*
X103357362Y-105225314D01*
X103330977Y-105179614D01*
X103314239Y-105110619D01*
X103337459Y-105043527D01*
X103393267Y-104999640D01*
X103463942Y-104992891D01*
X103472687Y-104994903D01*
X103522701Y-105008304D01*
X103522702Y-105008304D01*
X103668701Y-105008304D01*
X103668703Y-105008304D01*
X103809731Y-104970516D01*
X103809734Y-104970514D01*
X103809735Y-104970514D01*
X103934607Y-104898419D01*
X103936173Y-104897515D01*
X103936177Y-104897510D01*
X103942725Y-104892487D01*
X103943636Y-104893675D01*
X103997958Y-104864007D01*
X104068774Y-104869065D01*
X104107333Y-104893845D01*
X104107683Y-104893389D01*
X104113144Y-104897579D01*
X104113853Y-104898035D01*
X104114235Y-104898417D01*
X104114237Y-104898418D01*
X104114238Y-104898419D01*
X104240672Y-104971416D01*
X104240674Y-104971416D01*
X104240677Y-104971418D01*
X104381705Y-105009206D01*
X104381707Y-105009206D01*
X104527705Y-105009206D01*
X104527707Y-105009206D01*
X104668735Y-104971418D01*
X104668738Y-104971416D01*
X104668739Y-104971416D01*
X104731956Y-104934917D01*
X104795177Y-104898417D01*
X104898417Y-104795177D01*
X104952213Y-104701999D01*
X125175500Y-104701999D01*
X125175500Y-104848001D01*
X125206997Y-104965549D01*
X125213289Y-104989033D01*
X125286286Y-105115467D01*
X125286294Y-105115477D01*
X125389522Y-105218705D01*
X125389527Y-105218709D01*
X125389529Y-105218711D01*
X125389530Y-105218712D01*
X125389532Y-105218713D01*
X125515966Y-105291710D01*
X125515968Y-105291710D01*
X125515971Y-105291712D01*
X125656999Y-105329500D01*
X125657001Y-105329500D01*
X125802999Y-105329500D01*
X125803001Y-105329500D01*
X125944029Y-105291712D01*
X125944032Y-105291710D01*
X125944033Y-105291710D01*
X126015861Y-105250240D01*
X126070471Y-105218711D01*
X126173711Y-105115471D01*
X126233804Y-105011386D01*
X126246710Y-104989033D01*
X126246710Y-104989032D01*
X126246712Y-104989029D01*
X126265017Y-104920712D01*
X172661182Y-104920712D01*
X172661182Y-105066714D01*
X172685780Y-105158514D01*
X172698971Y-105207746D01*
X172771968Y-105334180D01*
X172771976Y-105334190D01*
X172875204Y-105437418D01*
X172875209Y-105437422D01*
X172875211Y-105437424D01*
X172875212Y-105437425D01*
X172875214Y-105437426D01*
X173001648Y-105510423D01*
X173001650Y-105510423D01*
X173001653Y-105510425D01*
X173142681Y-105548213D01*
X173142683Y-105548213D01*
X173288681Y-105548213D01*
X173288683Y-105548213D01*
X173429711Y-105510425D01*
X173429714Y-105510423D01*
X173429715Y-105510423D01*
X173525546Y-105455095D01*
X173556153Y-105437424D01*
X173659393Y-105334184D01*
X173732394Y-105207742D01*
X173770182Y-105066714D01*
X173770182Y-104920712D01*
X173755357Y-104865384D01*
X174121497Y-104865384D01*
X174121497Y-105011386D01*
X174144940Y-105098877D01*
X174159286Y-105152418D01*
X174232283Y-105278852D01*
X174232291Y-105278862D01*
X174335519Y-105382090D01*
X174335524Y-105382094D01*
X174335526Y-105382096D01*
X174335527Y-105382097D01*
X174335529Y-105382098D01*
X174461963Y-105455095D01*
X174461965Y-105455095D01*
X174461968Y-105455097D01*
X174602996Y-105492885D01*
X174602998Y-105492885D01*
X174748996Y-105492885D01*
X174748998Y-105492885D01*
X174890026Y-105455097D01*
X174890029Y-105455095D01*
X174890030Y-105455095D01*
X174953247Y-105418596D01*
X175016468Y-105382096D01*
X175119708Y-105278856D01*
X175177005Y-105179614D01*
X175192707Y-105152418D01*
X175192707Y-105152417D01*
X175192709Y-105152414D01*
X175230497Y-105011386D01*
X175230497Y-104865384D01*
X175192709Y-104724356D01*
X175192707Y-104724353D01*
X175192707Y-104724351D01*
X175119710Y-104597917D01*
X175119702Y-104597907D01*
X175016474Y-104494679D01*
X175016464Y-104494671D01*
X174890030Y-104421674D01*
X174873120Y-104417143D01*
X174748998Y-104383885D01*
X174602996Y-104383885D01*
X174521472Y-104405729D01*
X174461963Y-104421674D01*
X174335529Y-104494671D01*
X174335519Y-104494679D01*
X174232291Y-104597907D01*
X174232283Y-104597917D01*
X174159286Y-104724351D01*
X174144461Y-104779679D01*
X174121497Y-104865384D01*
X173755357Y-104865384D01*
X173732394Y-104779684D01*
X173732392Y-104779681D01*
X173732392Y-104779679D01*
X173659395Y-104653245D01*
X173659387Y-104653235D01*
X173556159Y-104550007D01*
X173556149Y-104549999D01*
X173429715Y-104477002D01*
X173406680Y-104470830D01*
X173288683Y-104439213D01*
X173142681Y-104439213D01*
X173056368Y-104462340D01*
X173001648Y-104477002D01*
X172875214Y-104549999D01*
X172875204Y-104550007D01*
X172771976Y-104653235D01*
X172771968Y-104653245D01*
X172698971Y-104779679D01*
X172677844Y-104858526D01*
X172661182Y-104920712D01*
X126265017Y-104920712D01*
X126284500Y-104848001D01*
X126284500Y-104701999D01*
X126246712Y-104560971D01*
X126246710Y-104560968D01*
X126246710Y-104560966D01*
X126173713Y-104434532D01*
X126173705Y-104434522D01*
X126070477Y-104331294D01*
X126070467Y-104331286D01*
X125944033Y-104258289D01*
X125887984Y-104243271D01*
X125803001Y-104220500D01*
X125656999Y-104220500D01*
X125585082Y-104239770D01*
X125515966Y-104258289D01*
X125389532Y-104331286D01*
X125389522Y-104331294D01*
X125286294Y-104434522D01*
X125286286Y-104434532D01*
X125213289Y-104560966D01*
X125207196Y-104583705D01*
X125175500Y-104701999D01*
X104952213Y-104701999D01*
X104971418Y-104668735D01*
X105008169Y-104531573D01*
X105045119Y-104470955D01*
X105097261Y-104442483D01*
X105234423Y-104405731D01*
X105360865Y-104332730D01*
X105464105Y-104229490D01*
X105537106Y-104103048D01*
X105546765Y-104066999D01*
X175975500Y-104066999D01*
X175975500Y-104213001D01*
X176007194Y-104331286D01*
X176013289Y-104354033D01*
X176086286Y-104480467D01*
X176086294Y-104480477D01*
X176189522Y-104583705D01*
X176189527Y-104583709D01*
X176189529Y-104583711D01*
X176189530Y-104583712D01*
X176189532Y-104583713D01*
X176315966Y-104656710D01*
X176315968Y-104656710D01*
X176315971Y-104656712D01*
X176456999Y-104694500D01*
X176457001Y-104694500D01*
X176602999Y-104694500D01*
X176603001Y-104694500D01*
X176744029Y-104656712D01*
X176744032Y-104656710D01*
X176744033Y-104656710D01*
X176835305Y-104604014D01*
X176870471Y-104583711D01*
X176973711Y-104480471D01*
X177046712Y-104354029D01*
X177084500Y-104213001D01*
X177084500Y-104066999D01*
X177046712Y-103925971D01*
X177046710Y-103925968D01*
X177046710Y-103925966D01*
X176973713Y-103799532D01*
X176973705Y-103799522D01*
X176870477Y-103696294D01*
X176870467Y-103696286D01*
X176744033Y-103623289D01*
X176727372Y-103618824D01*
X176603001Y-103585500D01*
X176456999Y-103585500D01*
X176370686Y-103608627D01*
X176315966Y-103623289D01*
X176189532Y-103696286D01*
X176189522Y-103696294D01*
X176086294Y-103799522D01*
X176086286Y-103799532D01*
X176013289Y-103925966D01*
X176003629Y-103962020D01*
X175975500Y-104066999D01*
X105546765Y-104066999D01*
X105574894Y-103962020D01*
X105574894Y-103816018D01*
X105537106Y-103674990D01*
X105537104Y-103674987D01*
X105537104Y-103674985D01*
X105464107Y-103548551D01*
X105464099Y-103548541D01*
X105387062Y-103471504D01*
X105353036Y-103409192D01*
X105358101Y-103338377D01*
X105387062Y-103293314D01*
X105469898Y-103210477D01*
X105469904Y-103210471D01*
X105542905Y-103084029D01*
X105580693Y-102943001D01*
X105580693Y-102796999D01*
X105542905Y-102655971D01*
X105542903Y-102655968D01*
X105542903Y-102655966D01*
X105469906Y-102529532D01*
X105469898Y-102529522D01*
X105366670Y-102426294D01*
X105366660Y-102426286D01*
X105240226Y-102353289D01*
X105214377Y-102346363D01*
X105099194Y-102315500D01*
X104953192Y-102315500D01*
X104866879Y-102338627D01*
X104812159Y-102353289D01*
X104685725Y-102426286D01*
X104685715Y-102426294D01*
X104582487Y-102529522D01*
X104582479Y-102529532D01*
X104509482Y-102655966D01*
X104509481Y-102655971D01*
X104471693Y-102796999D01*
X104471693Y-102943001D01*
X104493736Y-103025266D01*
X104509482Y-103084033D01*
X104582479Y-103210467D01*
X104582487Y-103210477D01*
X104659525Y-103287515D01*
X104693551Y-103349827D01*
X104688486Y-103420642D01*
X104659525Y-103465705D01*
X104576688Y-103548541D01*
X104576680Y-103548551D01*
X104503684Y-103674984D01*
X104503682Y-103674988D01*
X104503682Y-103674990D01*
X104491469Y-103720570D01*
X104466931Y-103812148D01*
X104429979Y-103872770D01*
X104377835Y-103901243D01*
X104240672Y-103937995D01*
X104114238Y-104010992D01*
X104107683Y-104016023D01*
X104106773Y-104014837D01*
X104052426Y-104044507D01*
X103981610Y-104039436D01*
X103943074Y-104014665D01*
X103942725Y-104015121D01*
X103937261Y-104010928D01*
X103936553Y-104010473D01*
X103936173Y-104010093D01*
X103936170Y-104010091D01*
X103936169Y-104010090D01*
X103809735Y-103937093D01*
X103768226Y-103925971D01*
X103668703Y-103899304D01*
X103522701Y-103899304D01*
X103436388Y-103922431D01*
X103381668Y-103937093D01*
X103255234Y-104010090D01*
X103255224Y-104010098D01*
X103151996Y-104113326D01*
X103151988Y-104113336D01*
X103078991Y-104239770D01*
X103066938Y-104284755D01*
X103041202Y-104380803D01*
X103041202Y-104526805D01*
X103075081Y-104653245D01*
X103078991Y-104667836D01*
X103105377Y-104713538D01*
X103122114Y-104782533D01*
X103098893Y-104849625D01*
X103043086Y-104893512D01*
X102972411Y-104900260D01*
X102963660Y-104898247D01*
X102913653Y-104884848D01*
X102767651Y-104884848D01*
X102681338Y-104907975D01*
X102626618Y-104922637D01*
X102500184Y-104995634D01*
X102500178Y-104995639D01*
X102408560Y-105087257D01*
X102346248Y-105121282D01*
X102275432Y-105116216D01*
X102218596Y-105073669D01*
X102193786Y-105007149D01*
X102197758Y-104965552D01*
X102217723Y-104891044D01*
X102217723Y-104745042D01*
X102179935Y-104604014D01*
X102179933Y-104604011D01*
X102179933Y-104604009D01*
X102106936Y-104477575D01*
X102106928Y-104477565D01*
X102003700Y-104374337D01*
X102003690Y-104374329D01*
X101877256Y-104301332D01*
X101860595Y-104296867D01*
X101736224Y-104263543D01*
X101590222Y-104263543D01*
X101511057Y-104284754D01*
X101440081Y-104283065D01*
X101381286Y-104243271D01*
X101353338Y-104178006D01*
X101362037Y-104114832D01*
X101363998Y-104110095D01*
X101364002Y-104110089D01*
X101401790Y-103969061D01*
X101401790Y-103823059D01*
X101364002Y-103682031D01*
X101364000Y-103682028D01*
X101364000Y-103682026D01*
X101291003Y-103555592D01*
X101291002Y-103555590D01*
X101291001Y-103555589D01*
X101290999Y-103555587D01*
X101290995Y-103555582D01*
X101187767Y-103452354D01*
X101187757Y-103452346D01*
X101061323Y-103379349D01*
X101044662Y-103374884D01*
X100920291Y-103341560D01*
X100774289Y-103341560D01*
X100687976Y-103364687D01*
X100633256Y-103379349D01*
X100506822Y-103452346D01*
X100506812Y-103452354D01*
X100403584Y-103555582D01*
X100403578Y-103555590D01*
X100360608Y-103630016D01*
X100309225Y-103679009D01*
X100239511Y-103692444D01*
X100218882Y-103688723D01*
X100196708Y-103682782D01*
X100050706Y-103682782D01*
X99964393Y-103705909D01*
X99909673Y-103720571D01*
X99783239Y-103793568D01*
X99783229Y-103793576D01*
X99680001Y-103896804D01*
X99679993Y-103896814D01*
X99606996Y-104023248D01*
X99606995Y-104023253D01*
X99569207Y-104164281D01*
X68848354Y-104164281D01*
X68848354Y-102346363D01*
X98397620Y-102346363D01*
X98397620Y-102492365D01*
X98407576Y-102529522D01*
X98435409Y-102633397D01*
X98508406Y-102759831D01*
X98508414Y-102759841D01*
X98561662Y-102813089D01*
X98595688Y-102875401D01*
X98590623Y-102946216D01*
X98581687Y-102965183D01*
X98546998Y-103025266D01*
X98546997Y-103025270D01*
X98509209Y-103166298D01*
X98509209Y-103312300D01*
X98527175Y-103379349D01*
X98546998Y-103453332D01*
X98619995Y-103579766D01*
X98620003Y-103579776D01*
X98723231Y-103683004D01*
X98723236Y-103683008D01*
X98723238Y-103683010D01*
X98723239Y-103683011D01*
X98723241Y-103683012D01*
X98849675Y-103756009D01*
X98849677Y-103756009D01*
X98849680Y-103756011D01*
X98990708Y-103793799D01*
X98990710Y-103793799D01*
X99136708Y-103793799D01*
X99136710Y-103793799D01*
X99277738Y-103756011D01*
X99277741Y-103756009D01*
X99277742Y-103756009D01*
X99381185Y-103696286D01*
X99404180Y-103683010D01*
X99507420Y-103579770D01*
X99580421Y-103453328D01*
X99618209Y-103312300D01*
X99618209Y-103166298D01*
X99580421Y-103025270D01*
X99580419Y-103025266D01*
X99580419Y-103025265D01*
X99507422Y-102898831D01*
X99507414Y-102898821D01*
X99454166Y-102845573D01*
X99420140Y-102783261D01*
X99425205Y-102712446D01*
X99434139Y-102693483D01*
X99468832Y-102633393D01*
X99506620Y-102492365D01*
X99506620Y-102346363D01*
X99468832Y-102205335D01*
X99468830Y-102205332D01*
X99468830Y-102205330D01*
X99443813Y-102161999D01*
X108030500Y-102161999D01*
X108030500Y-102308001D01*
X108042635Y-102353288D01*
X108068289Y-102449033D01*
X108141286Y-102575467D01*
X108141294Y-102575477D01*
X108244522Y-102678705D01*
X108244527Y-102678709D01*
X108244529Y-102678711D01*
X108244530Y-102678712D01*
X108244532Y-102678713D01*
X108370966Y-102751710D01*
X108370968Y-102751710D01*
X108370971Y-102751712D01*
X108511999Y-102789500D01*
X108512001Y-102789500D01*
X108657999Y-102789500D01*
X108658001Y-102789500D01*
X108799029Y-102751712D01*
X108799032Y-102751710D01*
X108799033Y-102751710D01*
X108899895Y-102693477D01*
X108925471Y-102678711D01*
X109028711Y-102575471D01*
X109101712Y-102449029D01*
X109139500Y-102308001D01*
X109139500Y-102161999D01*
X109101712Y-102020971D01*
X109101710Y-102020968D01*
X109101710Y-102020966D01*
X109028713Y-101894532D01*
X109028705Y-101894522D01*
X108925477Y-101791294D01*
X108925467Y-101791286D01*
X108799033Y-101718289D01*
X108782372Y-101713824D01*
X108658001Y-101680500D01*
X108511999Y-101680500D01*
X108425686Y-101703627D01*
X108370966Y-101718289D01*
X108244532Y-101791286D01*
X108244522Y-101791294D01*
X108141294Y-101894522D01*
X108141286Y-101894532D01*
X108068289Y-102020966D01*
X108068288Y-102020971D01*
X108030500Y-102161999D01*
X99443813Y-102161999D01*
X99395833Y-102078896D01*
X99395825Y-102078886D01*
X99292597Y-101975658D01*
X99292587Y-101975650D01*
X99166153Y-101902653D01*
X99135807Y-101894522D01*
X99025121Y-101864864D01*
X98879119Y-101864864D01*
X98792806Y-101887991D01*
X98738086Y-101902653D01*
X98611652Y-101975650D01*
X98611642Y-101975658D01*
X98508414Y-102078886D01*
X98508406Y-102078896D01*
X98435409Y-102205330D01*
X98435408Y-102205335D01*
X98397620Y-102346363D01*
X68848354Y-102346363D01*
X68848354Y-100552380D01*
X98335119Y-100552380D01*
X98335119Y-100698382D01*
X98368443Y-100822753D01*
X98372908Y-100839414D01*
X98445905Y-100965848D01*
X98445913Y-100965858D01*
X98549141Y-101069086D01*
X98549146Y-101069090D01*
X98549148Y-101069092D01*
X98549149Y-101069093D01*
X98549151Y-101069094D01*
X98675585Y-101142091D01*
X98675587Y-101142091D01*
X98675590Y-101142093D01*
X98816618Y-101179881D01*
X98816620Y-101179881D01*
X98962618Y-101179881D01*
X98962620Y-101179881D01*
X99103648Y-101142093D01*
X99103651Y-101142091D01*
X99103652Y-101142091D01*
X99166869Y-101105592D01*
X99230090Y-101069092D01*
X99333330Y-100965852D01*
X99406331Y-100839410D01*
X99444119Y-100698382D01*
X99444119Y-100698380D01*
X99446256Y-100690405D01*
X99447660Y-100690781D01*
X99472770Y-100634030D01*
X99532037Y-100594941D01*
X99568965Y-100589408D01*
X99608737Y-100589408D01*
X99608739Y-100589408D01*
X99749767Y-100551620D01*
X99749770Y-100551618D01*
X99749771Y-100551618D01*
X99812988Y-100515119D01*
X99876209Y-100478619D01*
X99979449Y-100375379D01*
X100052450Y-100248937D01*
X100090238Y-100107909D01*
X100090238Y-99961907D01*
X100090237Y-99961906D01*
X100089160Y-99953720D01*
X100091091Y-99953465D01*
X100092519Y-99893176D01*
X100132305Y-99834375D01*
X100179927Y-99809819D01*
X100237229Y-99794466D01*
X100363671Y-99721465D01*
X100466911Y-99618225D01*
X100539912Y-99491783D01*
X100539914Y-99491774D01*
X100541136Y-99488825D01*
X100542845Y-99486702D01*
X100544042Y-99484631D01*
X100544364Y-99484817D01*
X100585678Y-99433539D01*
X100653039Y-99411110D01*
X100720551Y-99427910D01*
X100750966Y-99445470D01*
X100750968Y-99445470D01*
X100750971Y-99445472D01*
X100891999Y-99483260D01*
X100892001Y-99483260D01*
X101037999Y-99483260D01*
X101038001Y-99483260D01*
X101179029Y-99445472D01*
X101179032Y-99445470D01*
X101179033Y-99445470D01*
X101242250Y-99408971D01*
X101305471Y-99372471D01*
X101408711Y-99269231D01*
X101445937Y-99204753D01*
X101481710Y-99142793D01*
X101481710Y-99142792D01*
X101481712Y-99142789D01*
X101494200Y-99096181D01*
X103131693Y-99096181D01*
X103131693Y-99242183D01*
X103138942Y-99269237D01*
X103169482Y-99383215D01*
X103242479Y-99509649D01*
X103242487Y-99509659D01*
X103345715Y-99612887D01*
X103345720Y-99612891D01*
X103345722Y-99612893D01*
X103345723Y-99612894D01*
X103345725Y-99612895D01*
X103472159Y-99685892D01*
X103472161Y-99685892D01*
X103472164Y-99685894D01*
X103613192Y-99723682D01*
X103613194Y-99723682D01*
X103759192Y-99723682D01*
X103759194Y-99723682D01*
X103900222Y-99685894D01*
X103900225Y-99685892D01*
X103900226Y-99685892D01*
X104017418Y-99618231D01*
X104026664Y-99612893D01*
X104129904Y-99509653D01*
X104202905Y-99383211D01*
X104240693Y-99242183D01*
X104240693Y-99096181D01*
X104202905Y-98955153D01*
X104202903Y-98955150D01*
X104202903Y-98955148D01*
X104197166Y-98945212D01*
X175746890Y-98945212D01*
X175746890Y-99091214D01*
X175761590Y-99146074D01*
X175784679Y-99232246D01*
X175857676Y-99358680D01*
X175857684Y-99358690D01*
X175960912Y-99461918D01*
X175960917Y-99461922D01*
X175960919Y-99461924D01*
X175960920Y-99461925D01*
X175960922Y-99461926D01*
X176087356Y-99534923D01*
X176087358Y-99534923D01*
X176087361Y-99534925D01*
X176228389Y-99572713D01*
X176228391Y-99572713D01*
X176374389Y-99572713D01*
X176374391Y-99572713D01*
X176515419Y-99534925D01*
X176515422Y-99534923D01*
X176515423Y-99534923D01*
X176604906Y-99483260D01*
X176641861Y-99461924D01*
X176745101Y-99358684D01*
X176796743Y-99269237D01*
X176818100Y-99232246D01*
X176818100Y-99232245D01*
X176818102Y-99232242D01*
X176855890Y-99091214D01*
X176855890Y-98945212D01*
X176818102Y-98804184D01*
X176818100Y-98804181D01*
X176818100Y-98804179D01*
X176745103Y-98677745D01*
X176745095Y-98677735D01*
X176641867Y-98574507D01*
X176641857Y-98574499D01*
X176515423Y-98501502D01*
X176454037Y-98485054D01*
X176374391Y-98463713D01*
X176228389Y-98463713D01*
X176148761Y-98485049D01*
X176087356Y-98501502D01*
X175960922Y-98574499D01*
X175960912Y-98574507D01*
X175857684Y-98677735D01*
X175857676Y-98677745D01*
X175784679Y-98804179D01*
X175784678Y-98804184D01*
X175746890Y-98945212D01*
X104197166Y-98945212D01*
X104129906Y-98828714D01*
X104129898Y-98828704D01*
X104026670Y-98725476D01*
X104026660Y-98725468D01*
X103900226Y-98652471D01*
X103883565Y-98648006D01*
X103759194Y-98614682D01*
X103613192Y-98614682D01*
X103526879Y-98637809D01*
X103472159Y-98652471D01*
X103345725Y-98725468D01*
X103345715Y-98725476D01*
X103242487Y-98828704D01*
X103242479Y-98828714D01*
X103169482Y-98955148D01*
X103148355Y-99033995D01*
X103131693Y-99096181D01*
X101494200Y-99096181D01*
X101519500Y-99001761D01*
X101519500Y-98855759D01*
X101481712Y-98714731D01*
X101481710Y-98714728D01*
X101481710Y-98714726D01*
X101408713Y-98588292D01*
X101408705Y-98588282D01*
X101305477Y-98485054D01*
X101305467Y-98485046D01*
X101179033Y-98412049D01*
X101162372Y-98407584D01*
X101038001Y-98374260D01*
X100891999Y-98374260D01*
X100805686Y-98397387D01*
X100750966Y-98412049D01*
X100624532Y-98485046D01*
X100624522Y-98485054D01*
X100521294Y-98588282D01*
X100521286Y-98588292D01*
X100448287Y-98714731D01*
X100447057Y-98717701D01*
X100445348Y-98719821D01*
X100444158Y-98721883D01*
X100443836Y-98721697D01*
X100402509Y-98772983D01*
X100335146Y-98795404D01*
X100267649Y-98778604D01*
X100237232Y-98761043D01*
X100237229Y-98761042D01*
X100096201Y-98723254D01*
X99950199Y-98723254D01*
X99863886Y-98746381D01*
X99809166Y-98761043D01*
X99682732Y-98834040D01*
X99682722Y-98834048D01*
X99579494Y-98937276D01*
X99579486Y-98937286D01*
X99506489Y-99063720D01*
X99468700Y-99204754D01*
X99468700Y-99350754D01*
X99469778Y-99358942D01*
X99467848Y-99359196D01*
X99466414Y-99419499D01*
X99426620Y-99478296D01*
X99379008Y-99502842D01*
X99321707Y-99518196D01*
X99195270Y-99591194D01*
X99195260Y-99591202D01*
X99092032Y-99694430D01*
X99092024Y-99694440D01*
X99019027Y-99820874D01*
X98979101Y-99969884D01*
X98977696Y-99969507D01*
X98952587Y-100026259D01*
X98893320Y-100065348D01*
X98856392Y-100070881D01*
X98816618Y-100070881D01*
X98730305Y-100094008D01*
X98675585Y-100108670D01*
X98549151Y-100181667D01*
X98549141Y-100181675D01*
X98445913Y-100284903D01*
X98445905Y-100284913D01*
X98372908Y-100411347D01*
X98372907Y-100411352D01*
X98335119Y-100552380D01*
X68848354Y-100552380D01*
X68848354Y-97716999D01*
X98505500Y-97716999D01*
X98505500Y-97863001D01*
X98538824Y-97987372D01*
X98543289Y-98004033D01*
X98616286Y-98130467D01*
X98616294Y-98130477D01*
X98719522Y-98233705D01*
X98719527Y-98233709D01*
X98719529Y-98233711D01*
X98719530Y-98233712D01*
X98719532Y-98233713D01*
X98845966Y-98306710D01*
X98845968Y-98306710D01*
X98845971Y-98306712D01*
X98986999Y-98344500D01*
X98987001Y-98344500D01*
X99132999Y-98344500D01*
X99133001Y-98344500D01*
X99274029Y-98306712D01*
X99274032Y-98306710D01*
X99274033Y-98306710D01*
X99337250Y-98270211D01*
X99400471Y-98233711D01*
X99503711Y-98130471D01*
X99576712Y-98004029D01*
X99614500Y-97863001D01*
X99614500Y-97716999D01*
X99576712Y-97575971D01*
X99576710Y-97575968D01*
X99576710Y-97575966D01*
X99503713Y-97449532D01*
X99503705Y-97449522D01*
X99400477Y-97346294D01*
X99400467Y-97346286D01*
X99274033Y-97273289D01*
X99257372Y-97268824D01*
X99133001Y-97235500D01*
X98986999Y-97235500D01*
X98900686Y-97258627D01*
X98845966Y-97273289D01*
X98719532Y-97346286D01*
X98719522Y-97346294D01*
X98616294Y-97449522D01*
X98616286Y-97449532D01*
X98543289Y-97575966D01*
X98543288Y-97575971D01*
X98505500Y-97716999D01*
X68848354Y-97716999D01*
X68848354Y-95950139D01*
X216447691Y-95950139D01*
X216447691Y-98686953D01*
X216474428Y-98855760D01*
X216484738Y-98920856D01*
X216540091Y-99091214D01*
X216557916Y-99146073D01*
X216665427Y-99357076D01*
X216665429Y-99357079D01*
X216804624Y-99548664D01*
X216972072Y-99716112D01*
X216979440Y-99721465D01*
X217163661Y-99855310D01*
X217374664Y-99962821D01*
X217599886Y-100036000D01*
X217833784Y-100073046D01*
X217833787Y-100073046D01*
X218070595Y-100073046D01*
X218070598Y-100073046D01*
X218304496Y-100036000D01*
X218529718Y-99962821D01*
X218740721Y-99855310D01*
X218932307Y-99716114D01*
X219099759Y-99548662D01*
X219238955Y-99357076D01*
X219346466Y-99146073D01*
X219419645Y-98920851D01*
X219456691Y-98686953D01*
X219456691Y-95950139D01*
X219419645Y-95716241D01*
X219346466Y-95491019D01*
X219238955Y-95280016D01*
X219099759Y-95088430D01*
X219099757Y-95088427D01*
X218932309Y-94920979D01*
X218740724Y-94781784D01*
X218740723Y-94781783D01*
X218740721Y-94781782D01*
X218529718Y-94674271D01*
X218529715Y-94674270D01*
X218529713Y-94674269D01*
X218304501Y-94601093D01*
X218304497Y-94601092D01*
X218304496Y-94601092D01*
X218070598Y-94564046D01*
X217833784Y-94564046D01*
X217599886Y-94601092D01*
X217599880Y-94601093D01*
X217374668Y-94674269D01*
X217374662Y-94674272D01*
X217163657Y-94781784D01*
X216972072Y-94920979D01*
X216804624Y-95088427D01*
X216665429Y-95280012D01*
X216557917Y-95491017D01*
X216557914Y-95491023D01*
X216484738Y-95716235D01*
X216484737Y-95716240D01*
X216484737Y-95716241D01*
X216447691Y-95950139D01*
X68848354Y-95950139D01*
X68848354Y-94124158D01*
X192943870Y-94124158D01*
X192943870Y-94270160D01*
X192977194Y-94394531D01*
X192981659Y-94411192D01*
X193054656Y-94537626D01*
X193054664Y-94537636D01*
X193157892Y-94640864D01*
X193157897Y-94640868D01*
X193157899Y-94640870D01*
X193157900Y-94640871D01*
X193157902Y-94640872D01*
X193284336Y-94713869D01*
X193284338Y-94713869D01*
X193284341Y-94713871D01*
X193425369Y-94751659D01*
X193425371Y-94751659D01*
X193571369Y-94751659D01*
X193571371Y-94751659D01*
X193712399Y-94713871D01*
X193712402Y-94713869D01*
X193712403Y-94713869D01*
X193780987Y-94674272D01*
X193838841Y-94640870D01*
X193942081Y-94537630D01*
X194015082Y-94411188D01*
X194052870Y-94270160D01*
X194052870Y-94124158D01*
X194015082Y-93983130D01*
X194015080Y-93983127D01*
X194015080Y-93983125D01*
X193942083Y-93856691D01*
X193942075Y-93856681D01*
X193838847Y-93753453D01*
X193838837Y-93753445D01*
X193712403Y-93680448D01*
X193695742Y-93675983D01*
X193571371Y-93642659D01*
X193425369Y-93642659D01*
X193339056Y-93665786D01*
X193284336Y-93680448D01*
X193157902Y-93753445D01*
X193157892Y-93753453D01*
X193054664Y-93856681D01*
X193054656Y-93856691D01*
X192981659Y-93983125D01*
X192981658Y-93983130D01*
X192943870Y-94124158D01*
X68848354Y-94124158D01*
X68848354Y-93271999D01*
X142955500Y-93271999D01*
X142955500Y-93418001D01*
X142988824Y-93542372D01*
X142993289Y-93559033D01*
X143066286Y-93685467D01*
X143066294Y-93685477D01*
X143169522Y-93788705D01*
X143169527Y-93788709D01*
X143169529Y-93788711D01*
X143169530Y-93788712D01*
X143169532Y-93788713D01*
X143295966Y-93861710D01*
X143295968Y-93861710D01*
X143295971Y-93861712D01*
X143436999Y-93899500D01*
X143437001Y-93899500D01*
X143582999Y-93899500D01*
X143583001Y-93899500D01*
X143724029Y-93861712D01*
X143724032Y-93861710D01*
X143724033Y-93861710D01*
X143787250Y-93825211D01*
X143850471Y-93788711D01*
X143953711Y-93685471D01*
X144026712Y-93559029D01*
X144064500Y-93418001D01*
X144064500Y-93271999D01*
X144026712Y-93130971D01*
X144026710Y-93130968D01*
X144026710Y-93130966D01*
X143953713Y-93004532D01*
X143953705Y-93004522D01*
X143850477Y-92901294D01*
X143850467Y-92901286D01*
X143724033Y-92828289D01*
X143707372Y-92823824D01*
X143583001Y-92790500D01*
X143436999Y-92790500D01*
X143350686Y-92813627D01*
X143295966Y-92828289D01*
X143169532Y-92901286D01*
X143169522Y-92901294D01*
X143066294Y-93004522D01*
X143066286Y-93004532D01*
X142993289Y-93130966D01*
X142993288Y-93130971D01*
X142955500Y-93271999D01*
X68848354Y-93271999D01*
X68848354Y-92636999D01*
X99775500Y-92636999D01*
X99775500Y-92783001D01*
X99787635Y-92828288D01*
X99813289Y-92924033D01*
X99886286Y-93050467D01*
X99886294Y-93050477D01*
X99989522Y-93153705D01*
X99989527Y-93153709D01*
X99989529Y-93153711D01*
X99989530Y-93153712D01*
X99989532Y-93153713D01*
X100115966Y-93226710D01*
X100115968Y-93226710D01*
X100115971Y-93226712D01*
X100256999Y-93264500D01*
X100257001Y-93264500D01*
X100402999Y-93264500D01*
X100403001Y-93264500D01*
X100544029Y-93226712D01*
X100544032Y-93226710D01*
X100544033Y-93226710D01*
X100668893Y-93154622D01*
X100670471Y-93153711D01*
X100773711Y-93050471D01*
X100846712Y-92924029D01*
X100884500Y-92783001D01*
X100884500Y-92636999D01*
X100846712Y-92495971D01*
X100846710Y-92495968D01*
X100846710Y-92495966D01*
X100773713Y-92369532D01*
X100773705Y-92369522D01*
X100670477Y-92266294D01*
X100670467Y-92266286D01*
X100544033Y-92193289D01*
X100527372Y-92188824D01*
X100403001Y-92155500D01*
X100256999Y-92155500D01*
X100170686Y-92178627D01*
X100115966Y-92193289D01*
X99989532Y-92266286D01*
X99989522Y-92266294D01*
X99886294Y-92369522D01*
X99886286Y-92369532D01*
X99813289Y-92495966D01*
X99813288Y-92495971D01*
X99775500Y-92636999D01*
X68848354Y-92636999D01*
X68848354Y-90731999D01*
X102950500Y-90731999D01*
X102950500Y-90878001D01*
X102983824Y-91002372D01*
X102988289Y-91019033D01*
X103061286Y-91145467D01*
X103061294Y-91145477D01*
X103164522Y-91248705D01*
X103164527Y-91248709D01*
X103164529Y-91248711D01*
X103164530Y-91248712D01*
X103164532Y-91248713D01*
X103290966Y-91321710D01*
X103290968Y-91321710D01*
X103290971Y-91321712D01*
X103431999Y-91359500D01*
X103432001Y-91359500D01*
X103577999Y-91359500D01*
X103578001Y-91359500D01*
X103719029Y-91321712D01*
X103719032Y-91321710D01*
X103719033Y-91321710D01*
X103782250Y-91285211D01*
X103845471Y-91248711D01*
X103948711Y-91145471D01*
X104021712Y-91019029D01*
X104059500Y-90878001D01*
X104059500Y-90731999D01*
X104021712Y-90590971D01*
X104021710Y-90590968D01*
X104021710Y-90590966D01*
X103948713Y-90464532D01*
X103948705Y-90464522D01*
X103845477Y-90361294D01*
X103845467Y-90361286D01*
X103719033Y-90288289D01*
X103702372Y-90283824D01*
X103578001Y-90250500D01*
X103431999Y-90250500D01*
X103345686Y-90273627D01*
X103290966Y-90288289D01*
X103164532Y-90361286D01*
X103164522Y-90361294D01*
X103061294Y-90464522D01*
X103061286Y-90464532D01*
X102988289Y-90590966D01*
X102988288Y-90590971D01*
X102950500Y-90731999D01*
X68848354Y-90731999D01*
X68848354Y-90096999D01*
X125810500Y-90096999D01*
X125810500Y-90243001D01*
X125822635Y-90288288D01*
X125848289Y-90384033D01*
X125921286Y-90510467D01*
X125921294Y-90510477D01*
X126024522Y-90613705D01*
X126024527Y-90613709D01*
X126024529Y-90613711D01*
X126024530Y-90613712D01*
X126024532Y-90613713D01*
X126150966Y-90686710D01*
X126150968Y-90686710D01*
X126150971Y-90686712D01*
X126291999Y-90724500D01*
X126292001Y-90724500D01*
X126437999Y-90724500D01*
X126438001Y-90724500D01*
X126579029Y-90686712D01*
X126579032Y-90686710D01*
X126579033Y-90686710D01*
X126642250Y-90650211D01*
X126705471Y-90613711D01*
X126808711Y-90510471D01*
X126881712Y-90384029D01*
X126919500Y-90243001D01*
X126919500Y-90096999D01*
X126881712Y-89955971D01*
X126881710Y-89955968D01*
X126881710Y-89955966D01*
X126808713Y-89829532D01*
X126808705Y-89829522D01*
X126705477Y-89726294D01*
X126705467Y-89726286D01*
X126579033Y-89653289D01*
X126562372Y-89648824D01*
X126438001Y-89615500D01*
X126291999Y-89615500D01*
X126205686Y-89638627D01*
X126150966Y-89653289D01*
X126024532Y-89726286D01*
X126024522Y-89726294D01*
X125921294Y-89829522D01*
X125921286Y-89829532D01*
X125848289Y-89955966D01*
X125848288Y-89955971D01*
X125810500Y-90096999D01*
X68848354Y-90096999D01*
X68848354Y-85916971D01*
X174147216Y-85916971D01*
X174147216Y-86062973D01*
X174180540Y-86187344D01*
X174185005Y-86204005D01*
X174258002Y-86330439D01*
X174258010Y-86330449D01*
X174361238Y-86433677D01*
X174361243Y-86433681D01*
X174361245Y-86433683D01*
X174361246Y-86433684D01*
X174361248Y-86433685D01*
X174487682Y-86506682D01*
X174487684Y-86506682D01*
X174487687Y-86506684D01*
X174628715Y-86544472D01*
X174628717Y-86544472D01*
X174774715Y-86544472D01*
X174774717Y-86544472D01*
X174915745Y-86506684D01*
X174915748Y-86506682D01*
X174915749Y-86506682D01*
X174978966Y-86470183D01*
X175042187Y-86433683D01*
X175145427Y-86330443D01*
X175218428Y-86204001D01*
X175256216Y-86062973D01*
X175256216Y-85916971D01*
X175218428Y-85775943D01*
X175218426Y-85775940D01*
X175218426Y-85775938D01*
X175145429Y-85649504D01*
X175145421Y-85649494D01*
X175042193Y-85546266D01*
X175042183Y-85546258D01*
X174915749Y-85473261D01*
X174899088Y-85468796D01*
X174774717Y-85435472D01*
X174628715Y-85435472D01*
X174542402Y-85458599D01*
X174487682Y-85473261D01*
X174361248Y-85546258D01*
X174361238Y-85546266D01*
X174258010Y-85649494D01*
X174258002Y-85649504D01*
X174185005Y-85775938D01*
X174185004Y-85775943D01*
X174147216Y-85916971D01*
X68848354Y-85916971D01*
X68848354Y-85089761D01*
X176051975Y-85089761D01*
X176051975Y-85235763D01*
X176085299Y-85360134D01*
X176089764Y-85376795D01*
X176162761Y-85503229D01*
X176162769Y-85503239D01*
X176265997Y-85606467D01*
X176266002Y-85606471D01*
X176266004Y-85606473D01*
X176266005Y-85606474D01*
X176266007Y-85606475D01*
X176392441Y-85679472D01*
X176392443Y-85679472D01*
X176392446Y-85679474D01*
X176533474Y-85717262D01*
X176533476Y-85717262D01*
X176679474Y-85717262D01*
X176679476Y-85717262D01*
X176820504Y-85679474D01*
X176820507Y-85679472D01*
X176820508Y-85679472D01*
X176883725Y-85642973D01*
X176946946Y-85606473D01*
X177050186Y-85503233D01*
X177123187Y-85376791D01*
X177160975Y-85235763D01*
X177160975Y-85089761D01*
X177123187Y-84948733D01*
X177123185Y-84948730D01*
X177123185Y-84948728D01*
X177050188Y-84822294D01*
X177050180Y-84822284D01*
X176946952Y-84719056D01*
X176946942Y-84719048D01*
X176820508Y-84646051D01*
X176803847Y-84641586D01*
X176679476Y-84608262D01*
X176533474Y-84608262D01*
X176447161Y-84631389D01*
X176392441Y-84646051D01*
X176266007Y-84719048D01*
X176265997Y-84719056D01*
X176162769Y-84822284D01*
X176162761Y-84822294D01*
X176089764Y-84948728D01*
X176089763Y-84948733D01*
X176051975Y-85089761D01*
X68848354Y-85089761D01*
X68848354Y-79773733D01*
X175761280Y-79773733D01*
X175761280Y-79919735D01*
X175794604Y-80044106D01*
X175799069Y-80060767D01*
X175872066Y-80187201D01*
X175872074Y-80187211D01*
X175975302Y-80290439D01*
X175975307Y-80290443D01*
X175975309Y-80290445D01*
X175975310Y-80290446D01*
X175975312Y-80290447D01*
X176101746Y-80363444D01*
X176101748Y-80363444D01*
X176101751Y-80363446D01*
X176242779Y-80401234D01*
X176242781Y-80401234D01*
X176388779Y-80401234D01*
X176388781Y-80401234D01*
X176529809Y-80363446D01*
X176529812Y-80363444D01*
X176529813Y-80363444D01*
X176627445Y-80307076D01*
X176656251Y-80290445D01*
X176759491Y-80187205D01*
X176832492Y-80060763D01*
X176870280Y-79919735D01*
X176870280Y-79773733D01*
X176832492Y-79632705D01*
X176832490Y-79632702D01*
X176832490Y-79632700D01*
X176759493Y-79506266D01*
X176759485Y-79506256D01*
X176656257Y-79403028D01*
X176656247Y-79403020D01*
X176529813Y-79330023D01*
X176513152Y-79325558D01*
X176388781Y-79292234D01*
X176242779Y-79292234D01*
X176156466Y-79315361D01*
X176101746Y-79330023D01*
X175975312Y-79403020D01*
X175975302Y-79403028D01*
X175872074Y-79506256D01*
X175872066Y-79506266D01*
X175799069Y-79632700D01*
X175777942Y-79711547D01*
X175761280Y-79773733D01*
X68848354Y-79773733D01*
X68848354Y-76900139D01*
X216447691Y-76900139D01*
X216447691Y-79636953D01*
X216469355Y-79773733D01*
X216484738Y-79870856D01*
X216500620Y-79919735D01*
X216557916Y-80096073D01*
X216665427Y-80307076D01*
X216665429Y-80307079D01*
X216804624Y-80498664D01*
X216972072Y-80666112D01*
X216972075Y-80666114D01*
X217163661Y-80805310D01*
X217374664Y-80912821D01*
X217599886Y-80986000D01*
X217833784Y-81023046D01*
X217833787Y-81023046D01*
X218070595Y-81023046D01*
X218070598Y-81023046D01*
X218304496Y-80986000D01*
X218529718Y-80912821D01*
X218740721Y-80805310D01*
X218932307Y-80666114D01*
X219099759Y-80498662D01*
X219238955Y-80307076D01*
X219346466Y-80096073D01*
X219419645Y-79870851D01*
X219456691Y-79636953D01*
X219456691Y-76900139D01*
X219419645Y-76666241D01*
X219346466Y-76441019D01*
X219238955Y-76230016D01*
X219099759Y-76038430D01*
X219099757Y-76038427D01*
X218932309Y-75870979D01*
X218740724Y-75731784D01*
X218740723Y-75731783D01*
X218740721Y-75731782D01*
X218529718Y-75624271D01*
X218529715Y-75624270D01*
X218529713Y-75624269D01*
X218304501Y-75551093D01*
X218304497Y-75551092D01*
X218304496Y-75551092D01*
X218070598Y-75514046D01*
X217833784Y-75514046D01*
X217599886Y-75551092D01*
X217599880Y-75551093D01*
X217374668Y-75624269D01*
X217374662Y-75624272D01*
X217163657Y-75731784D01*
X216972072Y-75870979D01*
X216804624Y-76038427D01*
X216665429Y-76230012D01*
X216557917Y-76441017D01*
X216557914Y-76441023D01*
X216484738Y-76666235D01*
X216484737Y-76666240D01*
X216484737Y-76666241D01*
X216447691Y-76900139D01*
X68848354Y-76900139D01*
X68848354Y-76126999D01*
X143590500Y-76126999D01*
X143590500Y-76273001D01*
X143623824Y-76397372D01*
X143628289Y-76414033D01*
X143701286Y-76540467D01*
X143701294Y-76540477D01*
X143804522Y-76643705D01*
X143804527Y-76643709D01*
X143804529Y-76643711D01*
X143804530Y-76643712D01*
X143804532Y-76643713D01*
X143930966Y-76716710D01*
X143930968Y-76716710D01*
X143930971Y-76716712D01*
X144071999Y-76754500D01*
X144072001Y-76754500D01*
X144217999Y-76754500D01*
X144218001Y-76754500D01*
X144359029Y-76716712D01*
X144359032Y-76716710D01*
X144359033Y-76716710D01*
X144446458Y-76666235D01*
X144485471Y-76643711D01*
X144588711Y-76540471D01*
X144646127Y-76441023D01*
X144661710Y-76414033D01*
X144661710Y-76414032D01*
X144661712Y-76414029D01*
X144699500Y-76273001D01*
X144699500Y-76126999D01*
X144661712Y-75985971D01*
X144661710Y-75985968D01*
X144661710Y-75985966D01*
X144588713Y-75859532D01*
X144588705Y-75859522D01*
X144485477Y-75756294D01*
X144485467Y-75756286D01*
X144359033Y-75683289D01*
X144342372Y-75678824D01*
X144218001Y-75645500D01*
X144071999Y-75645500D01*
X143985686Y-75668627D01*
X143930966Y-75683289D01*
X143804532Y-75756286D01*
X143804522Y-75756294D01*
X143701294Y-75859522D01*
X143701286Y-75859532D01*
X143628289Y-75985966D01*
X143614232Y-76038430D01*
X143590500Y-76126999D01*
X68848354Y-76126999D01*
X68848354Y-75120109D01*
X193678563Y-75120109D01*
X193678563Y-75266111D01*
X193711887Y-75390482D01*
X193716352Y-75407143D01*
X193789349Y-75533577D01*
X193789357Y-75533587D01*
X193892585Y-75636815D01*
X193892590Y-75636819D01*
X193892592Y-75636821D01*
X193892593Y-75636822D01*
X193892595Y-75636823D01*
X194019029Y-75709820D01*
X194019031Y-75709820D01*
X194019034Y-75709822D01*
X194160062Y-75747610D01*
X194160064Y-75747610D01*
X194306062Y-75747610D01*
X194306064Y-75747610D01*
X194447092Y-75709822D01*
X194447095Y-75709820D01*
X194447096Y-75709820D01*
X194558501Y-75645500D01*
X194573534Y-75636821D01*
X194676774Y-75533581D01*
X194749775Y-75407139D01*
X194787563Y-75266111D01*
X194787563Y-75120109D01*
X194749775Y-74979081D01*
X194749773Y-74979078D01*
X194749773Y-74979076D01*
X194676776Y-74852642D01*
X194676768Y-74852632D01*
X194573540Y-74749404D01*
X194573530Y-74749396D01*
X194447096Y-74676399D01*
X194430435Y-74671934D01*
X194306064Y-74638610D01*
X194160062Y-74638610D01*
X194073749Y-74661737D01*
X194019029Y-74676399D01*
X193892595Y-74749396D01*
X193892585Y-74749404D01*
X193789357Y-74852632D01*
X193789349Y-74852642D01*
X193716352Y-74979076D01*
X193716351Y-74979081D01*
X193678563Y-75120109D01*
X68848354Y-75120109D01*
X68848354Y-72805545D01*
X111845191Y-72805545D01*
X111845191Y-72951547D01*
X111849691Y-72968341D01*
X111882980Y-73092579D01*
X111955977Y-73219013D01*
X111955985Y-73219023D01*
X112001413Y-73264451D01*
X112035439Y-73326763D01*
X112030374Y-73397578D01*
X112001413Y-73442641D01*
X111955985Y-73488068D01*
X111955977Y-73488078D01*
X111882980Y-73614512D01*
X111882979Y-73614517D01*
X111845191Y-73755545D01*
X111845191Y-73901547D01*
X111859388Y-73954532D01*
X111882980Y-74042579D01*
X111955977Y-74169013D01*
X111955985Y-74169023D01*
X112059213Y-74272251D01*
X112059218Y-74272255D01*
X112059220Y-74272257D01*
X112059221Y-74272258D01*
X112059223Y-74272259D01*
X112185657Y-74345256D01*
X112185659Y-74345256D01*
X112185662Y-74345258D01*
X112326690Y-74383046D01*
X112326692Y-74383046D01*
X112472690Y-74383046D01*
X112472692Y-74383046D01*
X112613720Y-74345258D01*
X112613723Y-74345256D01*
X112613724Y-74345256D01*
X112676941Y-74308757D01*
X112740162Y-74272257D01*
X112843402Y-74169017D01*
X112843406Y-74169009D01*
X112848429Y-74162465D01*
X112850731Y-74164231D01*
X112891953Y-74124926D01*
X112961666Y-74111489D01*
X113027578Y-74137875D01*
X113049711Y-74163418D01*
X113050953Y-74162465D01*
X113055985Y-74169023D01*
X113159213Y-74272251D01*
X113159218Y-74272255D01*
X113159220Y-74272257D01*
X113159221Y-74272258D01*
X113159223Y-74272259D01*
X113285657Y-74345256D01*
X113285659Y-74345256D01*
X113285662Y-74345258D01*
X113426690Y-74383046D01*
X113426692Y-74383046D01*
X113572690Y-74383046D01*
X113572692Y-74383046D01*
X113713720Y-74345258D01*
X113713723Y-74345256D01*
X113713724Y-74345256D01*
X113776941Y-74308757D01*
X113840162Y-74272257D01*
X113943402Y-74169017D01*
X113943406Y-74169009D01*
X113948429Y-74162465D01*
X113950731Y-74164231D01*
X113991953Y-74124926D01*
X114061666Y-74111489D01*
X114127578Y-74137875D01*
X114149711Y-74163418D01*
X114150953Y-74162465D01*
X114155985Y-74169023D01*
X114259213Y-74272251D01*
X114259218Y-74272255D01*
X114259220Y-74272257D01*
X114259221Y-74272258D01*
X114259223Y-74272259D01*
X114385657Y-74345256D01*
X114385659Y-74345256D01*
X114385662Y-74345258D01*
X114526690Y-74383046D01*
X114526692Y-74383046D01*
X114672690Y-74383046D01*
X114672692Y-74383046D01*
X114813720Y-74345258D01*
X114813723Y-74345256D01*
X114813724Y-74345256D01*
X114876941Y-74308757D01*
X114940162Y-74272257D01*
X114990420Y-74221999D01*
X125810500Y-74221999D01*
X125810500Y-74368001D01*
X125843824Y-74492372D01*
X125848289Y-74509033D01*
X125921286Y-74635467D01*
X125921294Y-74635477D01*
X126024522Y-74738705D01*
X126024527Y-74738709D01*
X126024529Y-74738711D01*
X126024530Y-74738712D01*
X126024532Y-74738713D01*
X126150966Y-74811710D01*
X126150968Y-74811710D01*
X126150971Y-74811712D01*
X126291999Y-74849500D01*
X126292001Y-74849500D01*
X126437999Y-74849500D01*
X126438001Y-74849500D01*
X126579029Y-74811712D01*
X126579032Y-74811710D01*
X126579033Y-74811710D01*
X126686950Y-74749404D01*
X126705471Y-74738711D01*
X126808711Y-74635471D01*
X126881712Y-74509029D01*
X126919500Y-74368001D01*
X126919500Y-74221999D01*
X126881712Y-74080971D01*
X126881710Y-74080968D01*
X126881710Y-74080966D01*
X126808713Y-73954532D01*
X126808705Y-73954522D01*
X126705477Y-73851294D01*
X126705467Y-73851286D01*
X126579033Y-73778289D01*
X126562372Y-73773824D01*
X126438001Y-73740500D01*
X126291999Y-73740500D01*
X126205686Y-73763627D01*
X126150966Y-73778289D01*
X126024532Y-73851286D01*
X126024522Y-73851294D01*
X125921294Y-73954522D01*
X125921286Y-73954532D01*
X125848289Y-74080966D01*
X125848288Y-74080971D01*
X125810500Y-74221999D01*
X114990420Y-74221999D01*
X115043402Y-74169017D01*
X115116403Y-74042575D01*
X115154191Y-73901547D01*
X115154191Y-73755545D01*
X115116403Y-73614517D01*
X115116401Y-73614514D01*
X115116401Y-73614512D01*
X115043404Y-73488078D01*
X115043396Y-73488068D01*
X114997969Y-73442641D01*
X114963943Y-73380329D01*
X114969008Y-73309514D01*
X114997969Y-73264451D01*
X115043396Y-73219023D01*
X115043402Y-73219017D01*
X115116403Y-73092575D01*
X115154191Y-72951547D01*
X115154191Y-72805545D01*
X115116403Y-72664517D01*
X115116401Y-72664514D01*
X115116401Y-72664512D01*
X115043404Y-72538078D01*
X115043396Y-72538068D01*
X114940168Y-72434840D01*
X114940158Y-72434832D01*
X114813724Y-72361835D01*
X114797063Y-72357370D01*
X114672692Y-72324046D01*
X114526690Y-72324046D01*
X114440377Y-72347173D01*
X114385657Y-72361835D01*
X114259223Y-72434832D01*
X114259213Y-72434840D01*
X114155985Y-72538068D01*
X114150953Y-72544627D01*
X114148653Y-72542862D01*
X114107407Y-72582176D01*
X114037691Y-72595599D01*
X113971785Y-72569201D01*
X113949667Y-72543676D01*
X113948429Y-72544627D01*
X113943403Y-72538078D01*
X113943402Y-72538075D01*
X113943399Y-72538072D01*
X113943396Y-72538068D01*
X113840168Y-72434840D01*
X113840158Y-72434832D01*
X113713724Y-72361835D01*
X113697063Y-72357370D01*
X113572692Y-72324046D01*
X113426690Y-72324046D01*
X113340377Y-72347173D01*
X113285657Y-72361835D01*
X113159223Y-72434832D01*
X113159213Y-72434840D01*
X113055985Y-72538068D01*
X113050953Y-72544627D01*
X113048653Y-72542862D01*
X113007407Y-72582176D01*
X112937691Y-72595599D01*
X112871785Y-72569201D01*
X112849667Y-72543676D01*
X112848429Y-72544627D01*
X112843403Y-72538078D01*
X112843402Y-72538075D01*
X112843399Y-72538072D01*
X112843396Y-72538068D01*
X112740168Y-72434840D01*
X112740158Y-72434832D01*
X112613724Y-72361835D01*
X112597063Y-72357370D01*
X112472692Y-72324046D01*
X112326690Y-72324046D01*
X112240377Y-72347173D01*
X112185657Y-72361835D01*
X112059223Y-72434832D01*
X112059213Y-72434840D01*
X111955985Y-72538068D01*
X111955977Y-72538078D01*
X111882980Y-72664512D01*
X111882979Y-72664517D01*
X111845191Y-72805545D01*
X68848354Y-72805545D01*
X68848354Y-67232253D01*
X82062691Y-67232253D01*
X82062691Y-67384839D01*
X82102183Y-67532223D01*
X82102185Y-67532228D01*
X82178473Y-67664363D01*
X82178481Y-67664373D01*
X82286363Y-67772255D01*
X82286368Y-67772259D01*
X82286370Y-67772261D01*
X82286371Y-67772262D01*
X82286373Y-67772263D01*
X82379253Y-67825887D01*
X82418513Y-67848554D01*
X82418519Y-67848555D01*
X82418520Y-67848556D01*
X82468095Y-67861840D01*
X82528717Y-67898791D01*
X82559739Y-67962652D01*
X82551309Y-68033147D01*
X82506106Y-68087893D01*
X82468095Y-68105252D01*
X82418520Y-68118535D01*
X82418508Y-68118540D01*
X82286373Y-68194828D01*
X82286363Y-68194836D01*
X82178481Y-68302718D01*
X82178473Y-68302728D01*
X82102185Y-68434863D01*
X82102183Y-68434868D01*
X82062691Y-68582253D01*
X82062691Y-68734839D01*
X82084384Y-68815797D01*
X82102183Y-68882223D01*
X82102185Y-68882228D01*
X82178473Y-69014363D01*
X82178481Y-69014373D01*
X82286363Y-69122255D01*
X82286368Y-69122259D01*
X82286370Y-69122261D01*
X82418513Y-69198554D01*
X82565898Y-69238046D01*
X82565901Y-69238046D01*
X82718481Y-69238046D01*
X82718484Y-69238046D01*
X82865869Y-69198554D01*
X82998012Y-69122261D01*
X82998013Y-69122259D01*
X83004191Y-69118693D01*
X83073186Y-69101955D01*
X83130191Y-69118693D01*
X83136368Y-69122259D01*
X83136370Y-69122261D01*
X83268513Y-69198554D01*
X83415898Y-69238046D01*
X83415901Y-69238046D01*
X83568481Y-69238046D01*
X83568484Y-69238046D01*
X83715869Y-69198554D01*
X83848012Y-69122261D01*
X83848013Y-69122259D01*
X83854191Y-69118693D01*
X83923186Y-69101955D01*
X83980191Y-69118693D01*
X83986368Y-69122259D01*
X83986370Y-69122261D01*
X84118513Y-69198554D01*
X84265898Y-69238046D01*
X84265901Y-69238046D01*
X84418481Y-69238046D01*
X84418484Y-69238046D01*
X84565869Y-69198554D01*
X84698012Y-69122261D01*
X84698013Y-69122259D01*
X84704191Y-69118693D01*
X84773186Y-69101955D01*
X84830191Y-69118693D01*
X84836368Y-69122259D01*
X84836370Y-69122261D01*
X84968513Y-69198554D01*
X85115898Y-69238046D01*
X85115901Y-69238046D01*
X85268481Y-69238046D01*
X85268484Y-69238046D01*
X85415869Y-69198554D01*
X85548012Y-69122261D01*
X85548013Y-69122259D01*
X85554191Y-69118693D01*
X85623186Y-69101955D01*
X85680191Y-69118693D01*
X85686368Y-69122259D01*
X85686370Y-69122261D01*
X85818513Y-69198554D01*
X85965898Y-69238046D01*
X85965901Y-69238046D01*
X86118481Y-69238046D01*
X86118484Y-69238046D01*
X86265869Y-69198554D01*
X86398012Y-69122261D01*
X86398013Y-69122259D01*
X86404191Y-69118693D01*
X86473186Y-69101955D01*
X86530191Y-69118693D01*
X86536368Y-69122259D01*
X86536370Y-69122261D01*
X86668513Y-69198554D01*
X86815898Y-69238046D01*
X86815901Y-69238046D01*
X86968481Y-69238046D01*
X86968484Y-69238046D01*
X87115869Y-69198554D01*
X87248012Y-69122261D01*
X87355906Y-69014367D01*
X87432199Y-68882224D01*
X87471691Y-68734839D01*
X87471691Y-68582253D01*
X87457359Y-68528767D01*
X93124688Y-68528767D01*
X93124688Y-68674769D01*
X93140783Y-68734836D01*
X93162477Y-68815801D01*
X93235474Y-68942235D01*
X93235482Y-68942245D01*
X93338710Y-69045473D01*
X93338715Y-69045477D01*
X93338717Y-69045479D01*
X93338718Y-69045480D01*
X93338720Y-69045481D01*
X93465154Y-69118478D01*
X93465156Y-69118478D01*
X93465159Y-69118480D01*
X93606187Y-69156268D01*
X93606189Y-69156268D01*
X93752187Y-69156268D01*
X93752189Y-69156268D01*
X93893217Y-69118480D01*
X93893220Y-69118478D01*
X93893221Y-69118478D01*
X94006490Y-69053082D01*
X94019659Y-69045479D01*
X94122899Y-68942239D01*
X94195900Y-68815797D01*
X94233688Y-68674769D01*
X94233688Y-68528767D01*
X94195900Y-68387739D01*
X94195898Y-68387736D01*
X94195898Y-68387734D01*
X94122901Y-68261300D01*
X94122893Y-68261290D01*
X94019665Y-68158062D01*
X94019655Y-68158054D01*
X93896595Y-68087005D01*
X93847601Y-68035622D01*
X93834166Y-67965908D01*
X93860553Y-67899998D01*
X93911387Y-67861473D01*
X93916474Y-67859365D01*
X93916478Y-67859365D01*
X93916481Y-67859363D01*
X93916484Y-67859362D01*
X93992343Y-67815564D01*
X94042920Y-67786364D01*
X94146160Y-67683124D01*
X94219161Y-67556682D01*
X94256949Y-67415654D01*
X94256949Y-67269652D01*
X94219161Y-67128624D01*
X94219159Y-67128621D01*
X94219159Y-67128619D01*
X94146162Y-67002185D01*
X94146154Y-67002175D01*
X94042926Y-66898947D01*
X94042916Y-66898939D01*
X93916482Y-66825942D01*
X93899821Y-66821477D01*
X93775450Y-66788153D01*
X93629448Y-66788153D01*
X93543135Y-66811280D01*
X93488415Y-66825942D01*
X93361981Y-66898939D01*
X93361971Y-66898947D01*
X93258743Y-67002175D01*
X93258735Y-67002185D01*
X93185738Y-67128619D01*
X93185737Y-67128624D01*
X93147949Y-67269652D01*
X93147949Y-67415654D01*
X93179183Y-67532223D01*
X93185738Y-67556686D01*
X93258735Y-67683120D01*
X93258743Y-67683130D01*
X93361971Y-67786358D01*
X93361976Y-67786362D01*
X93361978Y-67786364D01*
X93361979Y-67786365D01*
X93361981Y-67786366D01*
X93485041Y-67857415D01*
X93534034Y-67908798D01*
X93547470Y-67978511D01*
X93521084Y-68044422D01*
X93470260Y-68082943D01*
X93465154Y-68085057D01*
X93338720Y-68158054D01*
X93338710Y-68158062D01*
X93235482Y-68261290D01*
X93235474Y-68261300D01*
X93162477Y-68387734D01*
X93162476Y-68387739D01*
X93124688Y-68528767D01*
X87457359Y-68528767D01*
X87432199Y-68434868D01*
X87355906Y-68302725D01*
X87355904Y-68302723D01*
X87355900Y-68302718D01*
X87248018Y-68194836D01*
X87248008Y-68194828D01*
X87115873Y-68118540D01*
X87115870Y-68118539D01*
X87115869Y-68118538D01*
X87115867Y-68118537D01*
X87115866Y-68118537D01*
X87103014Y-68115093D01*
X87066285Y-68105251D01*
X87005664Y-68068301D01*
X86974643Y-68004440D01*
X86983071Y-67933946D01*
X87028274Y-67879199D01*
X87066284Y-67861840D01*
X87115869Y-67848554D01*
X87248012Y-67772261D01*
X87355906Y-67664367D01*
X87432199Y-67532224D01*
X87471691Y-67384839D01*
X87471691Y-67232253D01*
X87432199Y-67084868D01*
X87355906Y-66952725D01*
X87355904Y-66952723D01*
X87355900Y-66952718D01*
X87248018Y-66844836D01*
X87248008Y-66844828D01*
X87115873Y-66768540D01*
X87115871Y-66768539D01*
X87115869Y-66768538D01*
X86968484Y-66729046D01*
X86815898Y-66729046D01*
X86668513Y-66768538D01*
X86668508Y-66768540D01*
X86530191Y-66848398D01*
X86461195Y-66865136D01*
X86404191Y-66848398D01*
X86265873Y-66768540D01*
X86265871Y-66768539D01*
X86265869Y-66768538D01*
X86118484Y-66729046D01*
X85965898Y-66729046D01*
X85818513Y-66768538D01*
X85818508Y-66768540D01*
X85680191Y-66848398D01*
X85611195Y-66865136D01*
X85554191Y-66848398D01*
X85415873Y-66768540D01*
X85415871Y-66768539D01*
X85415869Y-66768538D01*
X85268484Y-66729046D01*
X85115898Y-66729046D01*
X84968513Y-66768538D01*
X84968508Y-66768540D01*
X84830191Y-66848398D01*
X84761195Y-66865136D01*
X84704191Y-66848398D01*
X84565873Y-66768540D01*
X84565871Y-66768539D01*
X84565869Y-66768538D01*
X84418484Y-66729046D01*
X84265898Y-66729046D01*
X84118513Y-66768538D01*
X84118508Y-66768540D01*
X83980191Y-66848398D01*
X83911195Y-66865136D01*
X83854191Y-66848398D01*
X83715873Y-66768540D01*
X83715871Y-66768539D01*
X83715869Y-66768538D01*
X83568484Y-66729046D01*
X83415898Y-66729046D01*
X83268513Y-66768538D01*
X83268508Y-66768540D01*
X83130191Y-66848398D01*
X83061195Y-66865136D01*
X83004191Y-66848398D01*
X82865873Y-66768540D01*
X82865871Y-66768539D01*
X82865869Y-66768538D01*
X82718484Y-66729046D01*
X82565898Y-66729046D01*
X82418513Y-66768538D01*
X82418508Y-66768540D01*
X82286373Y-66844828D01*
X82286363Y-66844836D01*
X82178481Y-66952718D01*
X82178473Y-66952728D01*
X82102185Y-67084863D01*
X82102183Y-67084868D01*
X82062691Y-67232253D01*
X68848354Y-67232253D01*
X68848354Y-62942521D01*
X68868356Y-62874400D01*
X68922012Y-62827907D01*
X68974354Y-62816521D01*
X230513500Y-62816521D01*
X230581621Y-62836523D01*
G37*
%TD.AperFunction*%
%TD*%
M02*
