%TF.GenerationSoftware,KiCad,Pcbnew,10.0.3*%
%TF.CreationDate,2026-08-05T17:05:08+05:30*%
%TF.ProjectId,Digital_HUB,44696769-7461-46c5-9f48-55422e6b6963,V1.0*%
%TF.SameCoordinates,Original*%
%TF.FileFunction,Paste,Top*%
%TF.FilePolarity,Positive*%
%FSLAX46Y46*%
G04 Gerber Fmt 4.6, Leading zero omitted, Abs format (unit mm)*
G04 Created by KiCad (PCBNEW 10.0.3) date 2026-08-05 17:05:08*
%MOMM*%
%LPD*%
G01*
G04 APERTURE LIST*
G04 Aperture macros list*
%AMRoundRect*
0 Rectangle with rounded corners*
0 $1 Rounding radius*
0 $2 $3 $4 $5 $6 $7 $8 $9 X,Y pos of 4 corners*
0 Add a 4 corners polygon primitive as box body*
4,1,4,$2,$3,$4,$5,$6,$7,$8,$9,$2,$3,0*
0 Add four circle primitives for the rounded corners*
1,1,$1+$1,$2,$3*
1,1,$1+$1,$4,$5*
1,1,$1+$1,$6,$7*
1,1,$1+$1,$8,$9*
0 Add four rect primitives between the rounded corners*
20,1,$1+$1,$2,$3,$4,$5,0*
20,1,$1+$1,$4,$5,$6,$7,0*
20,1,$1+$1,$6,$7,$8,$9,0*
20,1,$1+$1,$8,$9,$2,$3,0*%
G04 Aperture macros list end*
%ADD10C,0.010000*%
%ADD11RoundRect,0.200000X-0.275000X0.200000X-0.275000X-0.200000X0.275000X-0.200000X0.275000X0.200000X0*%
%ADD12RoundRect,0.250000X0.362500X1.425000X-0.362500X1.425000X-0.362500X-1.425000X0.362500X-1.425000X0*%
%ADD13RoundRect,0.225000X-0.250000X0.225000X-0.250000X-0.225000X0.250000X-0.225000X0.250000X0.225000X0*%
%ADD14RoundRect,0.225000X0.250000X-0.225000X0.250000X0.225000X-0.250000X0.225000X-0.250000X-0.225000X0*%
%ADD15RoundRect,0.250000X1.000000X-1.950000X1.000000X1.950000X-1.000000X1.950000X-1.000000X-1.950000X0*%
%ADD16RoundRect,0.225000X-0.225000X-0.250000X0.225000X-0.250000X0.225000X0.250000X-0.225000X0.250000X0*%
%ADD17R,2.950000X3.500000*%
%ADD18R,1.000000X1.600000*%
%ADD19R,5.400000X6.200000*%
%ADD20RoundRect,0.200000X0.200000X0.275000X-0.200000X0.275000X-0.200000X-0.275000X0.200000X-0.275000X0*%
%ADD21RoundRect,0.200000X-0.200000X-0.275000X0.200000X-0.275000X0.200000X0.275000X-0.200000X0.275000X0*%
%ADD22RoundRect,0.225000X0.225000X0.250000X-0.225000X0.250000X-0.225000X-0.250000X0.225000X-0.250000X0*%
%ADD23R,0.350000X0.500000*%
%ADD24RoundRect,0.200000X0.275000X-0.200000X0.275000X0.200000X-0.275000X0.200000X-0.275000X-0.200000X0*%
%ADD25RoundRect,0.081250X0.243750X-0.418750X0.243750X0.418750X-0.243750X0.418750X-0.243750X-0.418750X0*%
%ADD26RoundRect,0.073750X0.551250X0.221250X-0.551250X0.221250X-0.551250X-0.221250X0.551250X-0.221250X0*%
%ADD27RoundRect,0.250000X1.425000X-0.362500X1.425000X0.362500X-1.425000X0.362500X-1.425000X-0.362500X0*%
%ADD28RoundRect,0.250000X0.595000X1.080000X-0.595000X1.080000X-0.595000X-1.080000X0.595000X-1.080000X0*%
%ADD29RoundRect,0.150000X0.687500X0.150000X-0.687500X0.150000X-0.687500X-0.150000X0.687500X-0.150000X0*%
%ADD30RoundRect,0.250000X-1.000000X1.950000X-1.000000X-1.950000X1.000000X-1.950000X1.000000X1.950000X0*%
%ADD31R,1.500000X2.120000*%
%ADD32R,0.200000X0.660000*%
%ADD33R,0.660000X0.200000*%
%ADD34R,2.700000X2.700000*%
%ADD35RoundRect,0.075000X0.225000X-0.910000X0.225000X0.910000X-0.225000X0.910000X-0.225000X-0.910000X0*%
%ADD36RoundRect,0.036000X-0.251500X-0.084000X0.251500X-0.084000X0.251500X0.084000X-0.251500X0.084000X0*%
%ADD37RoundRect,0.036000X-0.084000X-0.251500X0.084000X-0.251500X0.084000X0.251500X-0.084000X0.251500X0*%
G04 APERTURE END LIST*
D10*
%TO.C,Q8*%
X75407191Y-127061595D02*
X75407191Y-127491595D01*
X75027191Y-127491595D01*
X75027191Y-127061595D01*
X75407191Y-127061595D01*
G36*
X75407191Y-127491595D02*
G01*
X75027191Y-127491595D01*
X75027191Y-127061595D01*
X75407191Y-127061595D01*
X75407191Y-127491595D01*
G37*
X75857191Y-128626595D02*
X75857191Y-128926595D01*
X75457191Y-128926595D01*
X75457191Y-128626595D01*
X75857191Y-128626595D01*
G36*
X75857191Y-128926595D02*
G01*
X75457191Y-128926595D01*
X75457191Y-128626595D01*
X75857191Y-128626595D01*
X75857191Y-128926595D01*
G37*
X76507191Y-128626595D02*
X76507191Y-128926595D01*
X76107191Y-128926595D01*
X76107191Y-128626595D01*
X76507191Y-128626595D01*
G36*
X76507191Y-128926595D02*
G01*
X76107191Y-128926595D01*
X76107191Y-128626595D01*
X76507191Y-128626595D01*
X76507191Y-128926595D01*
G37*
X77157191Y-128626595D02*
X77157191Y-128926595D01*
X76757191Y-128926595D01*
X76757191Y-128626595D01*
X77157191Y-128626595D01*
G36*
X77157191Y-128926595D02*
G01*
X76757191Y-128926595D01*
X76757191Y-128626595D01*
X77157191Y-128626595D01*
X77157191Y-128926595D01*
G37*
X77407191Y-127011595D02*
X77407191Y-128261595D01*
X75857191Y-128261595D01*
X75857191Y-127011595D01*
X77407191Y-127011595D01*
G36*
X77407191Y-128261595D02*
G01*
X75857191Y-128261595D01*
X75857191Y-127011595D01*
X77407191Y-127011595D01*
X77407191Y-128261595D01*
G37*
X77807191Y-128626595D02*
X77807191Y-128926595D01*
X77407191Y-128926595D01*
X77407191Y-128626595D01*
X77807191Y-128626595D01*
G36*
X77807191Y-128926595D02*
G01*
X77407191Y-128926595D01*
X77407191Y-128626595D01*
X77807191Y-128626595D01*
X77807191Y-128926595D01*
G37*
X78237191Y-127061595D02*
X78237191Y-127491595D01*
X77857191Y-127491595D01*
X77857191Y-127061595D01*
X78237191Y-127061595D01*
G36*
X78237191Y-127491595D02*
G01*
X77857191Y-127491595D01*
X77857191Y-127061595D01*
X78237191Y-127061595D01*
X78237191Y-127491595D01*
G37*
%TO.C,Q6*%
X100976191Y-94101546D02*
X100976191Y-93671546D01*
X101356191Y-93671546D01*
X101356191Y-94101546D01*
X100976191Y-94101546D01*
G36*
X101356191Y-94101546D02*
G01*
X100976191Y-94101546D01*
X100976191Y-93671546D01*
X101356191Y-93671546D01*
X101356191Y-94101546D01*
G37*
X101406191Y-92536546D02*
X101406191Y-92236546D01*
X101806191Y-92236546D01*
X101806191Y-92536546D01*
X101406191Y-92536546D01*
G36*
X101806191Y-92536546D02*
G01*
X101406191Y-92536546D01*
X101406191Y-92236546D01*
X101806191Y-92236546D01*
X101806191Y-92536546D01*
G37*
X101806191Y-94151546D02*
X101806191Y-92901546D01*
X103356191Y-92901546D01*
X103356191Y-94151546D01*
X101806191Y-94151546D01*
G36*
X103356191Y-94151546D02*
G01*
X101806191Y-94151546D01*
X101806191Y-92901546D01*
X103356191Y-92901546D01*
X103356191Y-94151546D01*
G37*
X102056191Y-92536546D02*
X102056191Y-92236546D01*
X102456191Y-92236546D01*
X102456191Y-92536546D01*
X102056191Y-92536546D01*
G36*
X102456191Y-92536546D02*
G01*
X102056191Y-92536546D01*
X102056191Y-92236546D01*
X102456191Y-92236546D01*
X102456191Y-92536546D01*
G37*
X102706191Y-92536546D02*
X102706191Y-92236546D01*
X103106191Y-92236546D01*
X103106191Y-92536546D01*
X102706191Y-92536546D01*
G36*
X103106191Y-92536546D02*
G01*
X102706191Y-92536546D01*
X102706191Y-92236546D01*
X103106191Y-92236546D01*
X103106191Y-92536546D01*
G37*
X103356191Y-92536546D02*
X103356191Y-92236546D01*
X103756191Y-92236546D01*
X103756191Y-92536546D01*
X103356191Y-92536546D01*
G36*
X103756191Y-92536546D02*
G01*
X103356191Y-92536546D01*
X103356191Y-92236546D01*
X103756191Y-92236546D01*
X103756191Y-92536546D01*
G37*
X103806191Y-94101546D02*
X103806191Y-93671546D01*
X104186191Y-93671546D01*
X104186191Y-94101546D01*
X103806191Y-94101546D01*
G36*
X104186191Y-94101546D02*
G01*
X103806191Y-94101546D01*
X103806191Y-93671546D01*
X104186191Y-93671546D01*
X104186191Y-94101546D01*
G37*
%TO.C,Q7*%
X99187809Y-131505000D02*
X99187809Y-131935000D01*
X98807809Y-131935000D01*
X98807809Y-131505000D01*
X99187809Y-131505000D01*
G36*
X99187809Y-131935000D02*
G01*
X98807809Y-131935000D01*
X98807809Y-131505000D01*
X99187809Y-131505000D01*
X99187809Y-131935000D01*
G37*
X99637809Y-133070000D02*
X99637809Y-133370000D01*
X99237809Y-133370000D01*
X99237809Y-133070000D01*
X99637809Y-133070000D01*
G36*
X99637809Y-133370000D02*
G01*
X99237809Y-133370000D01*
X99237809Y-133070000D01*
X99637809Y-133070000D01*
X99637809Y-133370000D01*
G37*
X100287809Y-133070000D02*
X100287809Y-133370000D01*
X99887809Y-133370000D01*
X99887809Y-133070000D01*
X100287809Y-133070000D01*
G36*
X100287809Y-133370000D02*
G01*
X99887809Y-133370000D01*
X99887809Y-133070000D01*
X100287809Y-133070000D01*
X100287809Y-133370000D01*
G37*
X100937809Y-133070000D02*
X100937809Y-133370000D01*
X100537809Y-133370000D01*
X100537809Y-133070000D01*
X100937809Y-133070000D01*
G36*
X100937809Y-133370000D02*
G01*
X100537809Y-133370000D01*
X100537809Y-133070000D01*
X100937809Y-133070000D01*
X100937809Y-133370000D01*
G37*
X101187809Y-131455000D02*
X101187809Y-132705000D01*
X99637809Y-132705000D01*
X99637809Y-131455000D01*
X101187809Y-131455000D01*
G36*
X101187809Y-132705000D02*
G01*
X99637809Y-132705000D01*
X99637809Y-131455000D01*
X101187809Y-131455000D01*
X101187809Y-132705000D01*
G37*
X101587809Y-133070000D02*
X101587809Y-133370000D01*
X101187809Y-133370000D01*
X101187809Y-133070000D01*
X101587809Y-133070000D01*
G36*
X101587809Y-133370000D02*
G01*
X101187809Y-133370000D01*
X101187809Y-133070000D01*
X101587809Y-133070000D01*
X101587809Y-133370000D01*
G37*
X102017809Y-131505000D02*
X102017809Y-131935000D01*
X101637809Y-131935000D01*
X101637809Y-131505000D01*
X102017809Y-131505000D01*
G36*
X102017809Y-131935000D02*
G01*
X101637809Y-131935000D01*
X101637809Y-131505000D01*
X102017809Y-131505000D01*
X102017809Y-131935000D01*
G37*
%TO.C,Q5*%
X100976191Y-89021546D02*
X100976191Y-88591546D01*
X101356191Y-88591546D01*
X101356191Y-89021546D01*
X100976191Y-89021546D01*
G36*
X101356191Y-89021546D02*
G01*
X100976191Y-89021546D01*
X100976191Y-88591546D01*
X101356191Y-88591546D01*
X101356191Y-89021546D01*
G37*
X101406191Y-87456546D02*
X101406191Y-87156546D01*
X101806191Y-87156546D01*
X101806191Y-87456546D01*
X101406191Y-87456546D01*
G36*
X101806191Y-87456546D02*
G01*
X101406191Y-87456546D01*
X101406191Y-87156546D01*
X101806191Y-87156546D01*
X101806191Y-87456546D01*
G37*
X101806191Y-89071546D02*
X101806191Y-87821546D01*
X103356191Y-87821546D01*
X103356191Y-89071546D01*
X101806191Y-89071546D01*
G36*
X103356191Y-89071546D02*
G01*
X101806191Y-89071546D01*
X101806191Y-87821546D01*
X103356191Y-87821546D01*
X103356191Y-89071546D01*
G37*
X102056191Y-87456546D02*
X102056191Y-87156546D01*
X102456191Y-87156546D01*
X102456191Y-87456546D01*
X102056191Y-87456546D01*
G36*
X102456191Y-87456546D02*
G01*
X102056191Y-87456546D01*
X102056191Y-87156546D01*
X102456191Y-87156546D01*
X102456191Y-87456546D01*
G37*
X102706191Y-87456546D02*
X102706191Y-87156546D01*
X103106191Y-87156546D01*
X103106191Y-87456546D01*
X102706191Y-87456546D01*
G36*
X103106191Y-87456546D02*
G01*
X102706191Y-87456546D01*
X102706191Y-87156546D01*
X103106191Y-87156546D01*
X103106191Y-87456546D01*
G37*
X103356191Y-87456546D02*
X103356191Y-87156546D01*
X103756191Y-87156546D01*
X103756191Y-87456546D01*
X103356191Y-87456546D01*
G36*
X103756191Y-87456546D02*
G01*
X103356191Y-87456546D01*
X103356191Y-87156546D01*
X103756191Y-87156546D01*
X103756191Y-87456546D01*
G37*
X103806191Y-89021546D02*
X103806191Y-88591546D01*
X104186191Y-88591546D01*
X104186191Y-89021546D01*
X103806191Y-89021546D01*
G36*
X104186191Y-89021546D02*
G01*
X103806191Y-89021546D01*
X103806191Y-88591546D01*
X104186191Y-88591546D01*
X104186191Y-89021546D01*
G37*
%TO.C,U2*%
X112211691Y-72703546D02*
X113399691Y-72703546D01*
X113399691Y-74003546D01*
X112211691Y-74003546D01*
X112211691Y-72703546D01*
G36*
X113399691Y-74003546D02*
G01*
X112211691Y-74003546D01*
X112211691Y-72703546D01*
X113399691Y-72703546D01*
X113399691Y-74003546D01*
G37*
X112211691Y-74523546D02*
X113399691Y-74523546D01*
X113399691Y-75283546D01*
X112211691Y-75283546D01*
X112211691Y-74523546D01*
G36*
X113399691Y-75283546D02*
G01*
X112211691Y-75283546D01*
X112211691Y-74523546D01*
X113399691Y-74523546D01*
X113399691Y-75283546D01*
G37*
X113599691Y-72703546D02*
X114787691Y-72703546D01*
X114787691Y-74003546D01*
X113599691Y-74003546D01*
X113599691Y-72703546D01*
G36*
X114787691Y-74003546D02*
G01*
X113599691Y-74003546D01*
X113599691Y-72703546D01*
X114787691Y-72703546D01*
X114787691Y-74003546D01*
G37*
X113599691Y-74523546D02*
X114787691Y-74523546D01*
X114787691Y-75283546D01*
X113599691Y-75283546D01*
X113599691Y-74523546D01*
G36*
X114787691Y-75283546D02*
G01*
X113599691Y-75283546D01*
X113599691Y-74523546D01*
X114787691Y-74523546D01*
X114787691Y-75283546D01*
G37*
%TD*%
D11*
%TO.C,R3*%
X114488983Y-77725000D03*
X114488983Y-79375000D03*
%TD*%
D12*
%TO.C,R16*%
X175267191Y-74458546D03*
X169342191Y-74458546D03*
%TD*%
D13*
%TO.C,C10*%
X132549691Y-86333546D03*
X132549691Y-87883546D03*
%TD*%
D14*
%TO.C,C7*%
X145629691Y-81143546D03*
X145629691Y-79593546D03*
%TD*%
%TO.C,C20*%
X145212191Y-112838546D03*
X145212191Y-111288546D03*
%TD*%
D13*
%TO.C,C16*%
X131242191Y-100848546D03*
X131242191Y-102398546D03*
%TD*%
D15*
%TO.C,C9*%
X153249691Y-82523546D03*
X153249691Y-74123546D03*
%TD*%
D16*
%TO.C,C6*%
X130530000Y-78323546D03*
X132080000Y-78323546D03*
%TD*%
D17*
%TO.C,L1*%
X136739691Y-78323546D03*
X142189691Y-78323546D03*
%TD*%
D11*
%TO.C,R24*%
X97206191Y-102272546D03*
X97206191Y-103922546D03*
%TD*%
D14*
%TO.C,C24*%
X99922400Y-88045412D03*
X99922400Y-86495412D03*
%TD*%
D17*
%TO.C,L3*%
X136322191Y-110018546D03*
X141772191Y-110018546D03*
%TD*%
D18*
%TO.C,Q1*%
X186862191Y-74458546D03*
X182302191Y-74458546D03*
D19*
X184582191Y-81758546D03*
%TD*%
D20*
%TO.C,R14*%
X182422191Y-129068546D03*
X180772191Y-129068546D03*
%TD*%
D21*
%TO.C,R8*%
X125819691Y-91693546D03*
X127469691Y-91693546D03*
%TD*%
%TO.C,R7*%
X125819691Y-86613546D03*
X127469691Y-86613546D03*
%TD*%
D22*
%TO.C,C17*%
X135332191Y-103668546D03*
X133782191Y-103668546D03*
%TD*%
D23*
%TO.C,Q8*%
X77607191Y-125876595D03*
X76957191Y-125876595D03*
X76307191Y-125876595D03*
X75657191Y-125876595D03*
%TD*%
D14*
%TO.C,C14*%
X145249691Y-97053546D03*
X145249691Y-95503546D03*
%TD*%
D16*
%TO.C,C18*%
X130530000Y-108748546D03*
X132080000Y-108748546D03*
%TD*%
%TO.C,C23*%
X101802423Y-86061378D03*
X103352423Y-86061378D03*
%TD*%
%TO.C,C2*%
X111409896Y-77783671D03*
X112959896Y-77783671D03*
%TD*%
D24*
%TO.C,R19*%
X193472191Y-74838546D03*
X193472191Y-73188546D03*
%TD*%
D23*
%TO.C,Q6*%
X101606191Y-95286546D03*
X102256191Y-95286546D03*
X102906191Y-95286546D03*
X103556191Y-95286546D03*
%TD*%
D25*
%TO.C,Q2*%
X195382191Y-71918546D03*
X197282191Y-71918546D03*
X196332191Y-69518546D03*
%TD*%
D11*
%TO.C,R22*%
X98733794Y-104262580D03*
X98733794Y-105912580D03*
%TD*%
%TO.C,R1*%
X109689691Y-77090000D03*
X109689691Y-78740000D03*
%TD*%
D26*
%TO.C,U5*%
X132512191Y-106838546D03*
X132512191Y-105888546D03*
X132512191Y-104938546D03*
X130002191Y-104938546D03*
X130002191Y-105888546D03*
X130002191Y-106838546D03*
%TD*%
D13*
%TO.C,C3*%
X116170613Y-77222653D03*
X116170613Y-78772653D03*
%TD*%
D22*
%TO.C,C11*%
X135864691Y-89153546D03*
X134314691Y-89153546D03*
%TD*%
D27*
%TO.C,R27*%
X81809425Y-128279724D03*
X81809425Y-122354724D03*
%TD*%
D28*
%TO.C,U1*%
X97507191Y-69298546D03*
D29*
X100144691Y-71298546D03*
X100144691Y-70298546D03*
X100144691Y-69298546D03*
X100144691Y-68298546D03*
X100144691Y-67298546D03*
X94869691Y-67298546D03*
X94869691Y-68298546D03*
X94869691Y-69298546D03*
X94869691Y-70298546D03*
X94869691Y-71298546D03*
%TD*%
D13*
%TO.C,C8*%
X145629691Y-75783546D03*
X145629691Y-77333546D03*
%TD*%
D11*
%TO.C,R23*%
X95639039Y-102301763D03*
X95639039Y-103951763D03*
%TD*%
D25*
%TO.C,Q3*%
X195382191Y-90968546D03*
X197282191Y-90968546D03*
X196332191Y-88568546D03*
%TD*%
D13*
%TO.C,C13*%
X145249691Y-91413546D03*
X145249691Y-92963546D03*
%TD*%
%TO.C,C28*%
X114229568Y-89589128D03*
X114229568Y-91139128D03*
%TD*%
D27*
%TO.C,R26*%
X105492809Y-130810000D03*
X105492809Y-124885000D03*
%TD*%
D30*
%TO.C,C30*%
X114986191Y-97826546D03*
X114986191Y-106226546D03*
%TD*%
D16*
%TO.C,C27*%
X100285988Y-105965101D03*
X101835988Y-105965101D03*
%TD*%
D24*
%TO.C,R20*%
X193472191Y-93508546D03*
X193472191Y-91858546D03*
%TD*%
D31*
%TO.C,D1*%
X213792191Y-74038546D03*
X213792191Y-78268546D03*
%TD*%
D21*
%TO.C,R2*%
X111137560Y-79363874D03*
X112787560Y-79363874D03*
%TD*%
D23*
%TO.C,Q7*%
X101387809Y-130320000D03*
X100737809Y-130320000D03*
X100087809Y-130320000D03*
X99437809Y-130320000D03*
%TD*%
D32*
%TO.C,SW2*%
X101086191Y-103616546D03*
X101486191Y-103616546D03*
X101886191Y-103616546D03*
X102286191Y-103616546D03*
X102686191Y-103616546D03*
X103086191Y-103616546D03*
X103486191Y-103616546D03*
D33*
X104196191Y-102906546D03*
X104196191Y-102506546D03*
X104196191Y-102106546D03*
X104196191Y-101706546D03*
X104196191Y-101306546D03*
X104196191Y-100906546D03*
X104196191Y-100506546D03*
D32*
X103486191Y-99796546D03*
X103086191Y-99796546D03*
X102686191Y-99796546D03*
X102286191Y-99796546D03*
X101886191Y-99796546D03*
X101486191Y-99796546D03*
X101086191Y-99796546D03*
D33*
X100376191Y-100506546D03*
X100376191Y-100906546D03*
X100376191Y-101306546D03*
X100376191Y-101706546D03*
X100376191Y-102106546D03*
X100376191Y-102506546D03*
X100376191Y-102906546D03*
D34*
X102286191Y-101706546D03*
%TD*%
D17*
%TO.C,L2*%
X135989691Y-94233546D03*
X141439691Y-94233546D03*
%TD*%
D11*
%TO.C,R21*%
X190932191Y-89318546D03*
X190932191Y-90968546D03*
%TD*%
D21*
%TO.C,R10*%
X125782191Y-101188546D03*
X127432191Y-101188546D03*
%TD*%
%TO.C,R4*%
X126199691Y-75783546D03*
X127849691Y-75783546D03*
%TD*%
%TO.C,R9*%
X125819691Y-89153546D03*
X127469691Y-89153546D03*
%TD*%
D22*
%TO.C,C25*%
X107950000Y-100965000D03*
X106400000Y-100965000D03*
%TD*%
D14*
%TO.C,C26*%
X106397007Y-99529489D03*
X106397007Y-97979489D03*
%TD*%
D22*
%TO.C,C29*%
X115742813Y-93103221D03*
X114192813Y-93103221D03*
%TD*%
D13*
%TO.C,C5*%
X131659691Y-70423546D03*
X131659691Y-71973546D03*
%TD*%
D23*
%TO.C,Q5*%
X101606191Y-90206546D03*
X102256191Y-90206546D03*
X102906191Y-90206546D03*
X103556191Y-90206546D03*
%TD*%
D22*
%TO.C,C4*%
X135469691Y-73243546D03*
X133919691Y-73243546D03*
%TD*%
D21*
%TO.C,R5*%
X126199691Y-73243546D03*
X127849691Y-73243546D03*
%TD*%
D15*
%TO.C,C21*%
X152832191Y-115878546D03*
X152832191Y-107478546D03*
%TD*%
D18*
%TO.C,Q4*%
X186602191Y-93508546D03*
X182042191Y-93508546D03*
D19*
X184322191Y-100808546D03*
%TD*%
D31*
%TO.C,D2*%
X213792191Y-93088546D03*
X213792191Y-97318546D03*
%TD*%
D21*
%TO.C,R12*%
X125782191Y-103668546D03*
X127432191Y-103668546D03*
%TD*%
D16*
%TO.C,C12*%
X130530000Y-93980000D03*
X132080000Y-93980000D03*
%TD*%
%TO.C,C22*%
X99415000Y-97423760D03*
X100965000Y-97423760D03*
%TD*%
D12*
%TO.C,R17*%
X175692191Y-92663546D03*
X169767191Y-92663546D03*
%TD*%
D11*
%TO.C,R18*%
X190932191Y-70268546D03*
X190932191Y-71918546D03*
%TD*%
D13*
%TO.C,C19*%
X145212191Y-107198546D03*
X145212191Y-108748546D03*
%TD*%
D35*
%TO.C,U7*%
X171882191Y-84618546D03*
X173152191Y-84618546D03*
X174422191Y-84618546D03*
X175692191Y-84618546D03*
X175692191Y-79678546D03*
X174422191Y-79678546D03*
X173152191Y-79678546D03*
X171882191Y-79678546D03*
%TD*%
D13*
%TO.C,C1*%
X100507191Y-72548546D03*
X100507191Y-74098546D03*
%TD*%
D21*
%TO.C,R11*%
X125782191Y-106208546D03*
X127432191Y-106208546D03*
%TD*%
%TO.C,R6*%
X126199691Y-70703546D03*
X127849691Y-70703546D03*
%TD*%
D15*
%TO.C,C15*%
X152869691Y-100093546D03*
X152869691Y-91693546D03*
%TD*%
D26*
%TO.C,U3*%
X132899691Y-76413546D03*
X132899691Y-75463546D03*
X132899691Y-74513546D03*
X130389691Y-74513546D03*
X130389691Y-75463546D03*
X130389691Y-76413546D03*
%TD*%
D36*
%TO.C,U2*%
X111587191Y-72728546D03*
X111587191Y-73228546D03*
X111587191Y-73728546D03*
X111587191Y-74228546D03*
X111587191Y-74728546D03*
X111587191Y-75228546D03*
D37*
X112249691Y-75891046D03*
X112749691Y-75891046D03*
X113249691Y-75891046D03*
X113749691Y-75891046D03*
X114249691Y-75891046D03*
X114749691Y-75891046D03*
D36*
X115412191Y-75228546D03*
X115412191Y-74728546D03*
X115412191Y-74228546D03*
X115412191Y-73728546D03*
X115412191Y-73228546D03*
X115412191Y-72728546D03*
D37*
X114749691Y-72066046D03*
X114249691Y-72066046D03*
X113749691Y-72066046D03*
X113249691Y-72066046D03*
X112749691Y-72066046D03*
X112249691Y-72066046D03*
%TD*%
D20*
%TO.C,R15*%
X181152191Y-108748546D03*
X179502191Y-108748546D03*
%TD*%
D21*
%TO.C,R13*%
X177420000Y-129068546D03*
X179070000Y-129068546D03*
%TD*%
D17*
%TO.C,L4*%
X106235196Y-91390798D03*
X111685196Y-91390798D03*
%TD*%
D20*
%TO.C,R25*%
X104952191Y-106680000D03*
X103302191Y-106680000D03*
%TD*%
D35*
%TO.C,U8*%
X171882191Y-103668546D03*
X173152191Y-103668546D03*
X174422191Y-103668546D03*
X175692191Y-103668546D03*
X175692191Y-98728546D03*
X174422191Y-98728546D03*
X173152191Y-98728546D03*
X171882191Y-98728546D03*
%TD*%
D26*
%TO.C,U4*%
X132549691Y-91693546D03*
X132549691Y-90743546D03*
X132549691Y-89793546D03*
X130039691Y-89793546D03*
X130039691Y-90743546D03*
X130039691Y-91693546D03*
%TD*%
M02*
