%TF.GenerationSoftware,KiCad,Pcbnew,10.0.3*%
%TF.CreationDate,2026-08-05T17:05:08+05:30*%
%TF.ProjectId,Digital_HUB,44696769-7461-46c5-9f48-55422e6b6963,V1.0*%
%TF.SameCoordinates,Original*%
%TF.FileFunction,Legend,Bot*%
%TF.FilePolarity,Positive*%
%FSLAX46Y46*%
G04 Gerber Fmt 4.6, Leading zero omitted, Abs format (unit mm)*
G04 Created by KiCad (PCBNEW 10.0.3) date 2026-08-05 17:05:08*
%MOMM*%
%LPD*%
G01*
G04 APERTURE LIST*
G04 Aperture macros list*
%AMRoundRect*
0 Rectangle with rounded corners*
0 $1 Rounding radius*
0 $2 $3 $4 $5 $6 $7 $8 $9 X,Y pos of 4 corners*
0 Add a 4 corners polygon primitive as box body*
4,1,4,$2,$3,$4,$5,$6,$7,$8,$9,$2,$3,0*
0 Add four circle primitives for the rounded corners*
1,1,$1+$1,$2,$3*
1,1,$1+$1,$4,$5*
1,1,$1+$1,$6,$7*
1,1,$1+$1,$8,$9*
0 Add four rect primitives between the rounded corners*
20,1,$1+$1,$2,$3,$4,$5,0*
20,1,$1+$1,$4,$5,$6,$7,0*
20,1,$1+$1,$6,$7,$8,$9,0*
20,1,$1+$1,$8,$9,$2,$3,0*%
G04 Aperture macros list end*
%ADD10C,0.854000*%
%ADD11O,1.104000X1.904000*%
%ADD12O,1.104000X2.604000*%
%ADD13C,2.000000*%
%ADD14O,2.704000X5.204000*%
%ADD15O,2.454000X4.704000*%
%ADD16O,4.704000X2.454000*%
%ADD17C,3.000000*%
%ADD18RoundRect,0.102000X0.754000X-0.754000X0.754000X0.754000X-0.754000X0.754000X-0.754000X-0.754000X0*%
%ADD19C,1.712000*%
%ADD20C,1.552000*%
%ADD21C,1.632000*%
%ADD22C,3.520000*%
G04 APERTURE END LIST*
%LPC*%
D10*
%TO.C,J1*%
X86892191Y-68658546D03*
X85192191Y-68658546D03*
X87742191Y-68658546D03*
X86042191Y-68658546D03*
X84342191Y-68658546D03*
X83492191Y-68658546D03*
X82642191Y-68658546D03*
X81792191Y-68658546D03*
X81792191Y-67308546D03*
X82642191Y-67308546D03*
X83492191Y-67308546D03*
X84342191Y-67308546D03*
X85192191Y-67308546D03*
X86042191Y-67308546D03*
X86892191Y-67308546D03*
X87742191Y-67308546D03*
D11*
X89092191Y-64298546D03*
X80442191Y-64298546D03*
D12*
X89092191Y-67678546D03*
X80442191Y-67678546D03*
%TD*%
D13*
%TO.C,SW1*%
X187272191Y-138648546D03*
X180772191Y-138648546D03*
X187272191Y-134148546D03*
X180772191Y-134148546D03*
%TD*%
D14*
%TO.C,J3*%
X217952191Y-97318546D03*
D15*
X223952191Y-97318546D03*
D16*
X220952191Y-92618546D03*
%TD*%
D17*
%TO.C,DS1*%
X197282191Y-137958546D03*
X226982191Y-137958546D03*
X197282191Y-106458546D03*
X226982191Y-106458546D03*
D18*
X196582191Y-126018546D03*
D19*
X196582191Y-123478546D03*
X196582191Y-120938546D03*
X196582191Y-118398546D03*
%TD*%
D20*
%TO.C,U6*%
X189662191Y-111288546D03*
X187122191Y-111288546D03*
X184582191Y-111288546D03*
X182042191Y-111288546D03*
X176962191Y-111288546D03*
X179502191Y-111288546D03*
X171882191Y-126528546D03*
X171882191Y-111288546D03*
X174422191Y-126528546D03*
X176962191Y-126528546D03*
X179502191Y-126528546D03*
X182042191Y-126528546D03*
X184582191Y-126528546D03*
X187122191Y-126528546D03*
X189662191Y-126528546D03*
X174422191Y-111288546D03*
%TD*%
D21*
%TO.C,J5*%
X75153181Y-131686714D03*
X77653181Y-131686714D03*
X79653181Y-131686714D03*
X82153181Y-131686714D03*
D22*
X72083181Y-134396714D03*
X85223181Y-134396714D03*
%TD*%
D14*
%TO.C,J2*%
X217952191Y-78268546D03*
D15*
X223952191Y-78268546D03*
D16*
X220952191Y-73568546D03*
%TD*%
D10*
%TO.C,J4*%
X98625000Y-136138546D03*
X99475000Y-136138546D03*
X100325000Y-136138546D03*
X101175000Y-136138546D03*
X102025000Y-136138546D03*
X102875000Y-136138546D03*
X103725000Y-136138546D03*
X104575000Y-136138546D03*
X104575000Y-137488546D03*
X103725000Y-137488546D03*
X102875000Y-137488546D03*
X102025000Y-137488546D03*
X101175000Y-137488546D03*
X100325000Y-137488546D03*
X99475000Y-137488546D03*
X98625000Y-137488546D03*
D11*
X97275000Y-140498546D03*
X105925000Y-140498546D03*
D12*
X97275000Y-137118546D03*
X105925000Y-137118546D03*
%TD*%
%LPD*%
M02*
