%TF.GenerationSoftware,KiCad,Pcbnew,10.0.3*%
%TF.CreationDate,2026-08-05T17:05:08+05:30*%
%TF.ProjectId,Digital_HUB,44696769-7461-46c5-9f48-55422e6b6963,V1.0*%
%TF.SameCoordinates,Original*%
%TF.FileFunction,Soldermask,Top*%
%TF.FilePolarity,Negative*%
%FSLAX46Y46*%
G04 Gerber Fmt 4.6, Leading zero omitted, Abs format (unit mm)*
G04 Created by KiCad (PCBNEW 10.0.3) date 2026-08-05 17:05:08*
%MOMM*%
%LPD*%
G01*
G04 APERTURE LIST*
G04 Aperture macros list*
%AMRoundRect*
0 Rectangle with rounded corners*
0 $1 Rounding radius*
0 $2 $3 $4 $5 $6 $7 $8 $9 X,Y pos of 4 corners*
0 Add a 4 corners polygon primitive as box body*
4,1,4,$2,$3,$4,$5,$6,$7,$8,$9,$2,$3,0*
0 Add four circle primitives for the rounded corners*
1,1,$1+$1,$2,$3*
1,1,$1+$1,$4,$5*
1,1,$1+$1,$6,$7*
1,1,$1+$1,$8,$9*
0 Add four rect primitives between the rounded corners*
20,1,$1+$1,$2,$3,$4,$5,0*
20,1,$1+$1,$4,$5,$6,$7,0*
20,1,$1+$1,$6,$7,$8,$9,0*
20,1,$1+$1,$8,$9,$2,$3,0*%
G04 Aperture macros list end*
%ADD10C,0.010000*%
%ADD11C,0.854000*%
%ADD12O,1.104000X1.904000*%
%ADD13O,1.104000X2.604000*%
%ADD14RoundRect,0.200000X-0.275000X0.200000X-0.275000X-0.200000X0.275000X-0.200000X0.275000X0.200000X0*%
%ADD15RoundRect,0.250000X0.362500X1.425000X-0.362500X1.425000X-0.362500X-1.425000X0.362500X-1.425000X0*%
%ADD16RoundRect,0.225000X-0.250000X0.225000X-0.250000X-0.225000X0.250000X-0.225000X0.250000X0.225000X0*%
%ADD17C,2.000000*%
%ADD18RoundRect,0.225000X0.250000X-0.225000X0.250000X0.225000X-0.250000X0.225000X-0.250000X-0.225000X0*%
%ADD19RoundRect,0.250000X1.000000X-1.950000X1.000000X1.950000X-1.000000X1.950000X-1.000000X-1.950000X0*%
%ADD20RoundRect,0.225000X-0.225000X-0.250000X0.225000X-0.250000X0.225000X0.250000X-0.225000X0.250000X0*%
%ADD21O,2.704000X5.204000*%
%ADD22O,2.454000X4.704000*%
%ADD23O,4.704000X2.454000*%
%ADD24RoundRect,0.102000X-1.475000X-1.750000X1.475000X-1.750000X1.475000X1.750000X-1.475000X1.750000X0*%
%ADD25RoundRect,0.102000X0.500000X0.800000X-0.500000X0.800000X-0.500000X-0.800000X0.500000X-0.800000X0*%
%ADD26RoundRect,0.102000X2.700000X3.100000X-2.700000X3.100000X-2.700000X-3.100000X2.700000X-3.100000X0*%
%ADD27RoundRect,0.200000X0.200000X0.275000X-0.200000X0.275000X-0.200000X-0.275000X0.200000X-0.275000X0*%
%ADD28RoundRect,0.200000X-0.200000X-0.275000X0.200000X-0.275000X0.200000X0.275000X-0.200000X0.275000X0*%
%ADD29RoundRect,0.225000X0.225000X0.250000X-0.225000X0.250000X-0.225000X-0.250000X0.225000X-0.250000X0*%
%ADD30RoundRect,0.102000X-0.175000X0.250000X-0.175000X-0.250000X0.175000X-0.250000X0.175000X0.250000X0*%
%ADD31RoundRect,0.200000X0.275000X-0.200000X0.275000X0.200000X-0.275000X0.200000X-0.275000X-0.200000X0*%
%ADD32RoundRect,0.102000X0.175000X-0.250000X0.175000X0.250000X-0.175000X0.250000X-0.175000X-0.250000X0*%
%ADD33RoundRect,0.106750X0.320250X-0.495250X0.320250X0.495250X-0.320250X0.495250X-0.320250X-0.495250X0*%
%ADD34RoundRect,0.099250X0.627750X0.297750X-0.627750X0.297750X-0.627750X-0.297750X0.627750X-0.297750X0*%
%ADD35RoundRect,0.250000X1.425000X-0.362500X1.425000X0.362500X-1.425000X0.362500X-1.425000X-0.362500X0*%
%ADD36RoundRect,0.150000X0.687500X0.150000X-0.687500X0.150000X-0.687500X-0.150000X0.687500X-0.150000X0*%
%ADD37R,2.100000X3.300000*%
%ADD38C,3.000000*%
%ADD39RoundRect,0.102000X0.754000X-0.754000X0.754000X0.754000X-0.754000X0.754000X-0.754000X-0.754000X0*%
%ADD40C,1.712000*%
%ADD41C,1.552000*%
%ADD42RoundRect,0.250000X-1.000000X1.950000X-1.000000X-1.950000X1.000000X-1.950000X1.000000X1.950000X0*%
%ADD43RoundRect,0.102000X0.750000X-1.060000X0.750000X1.060000X-0.750000X1.060000X-0.750000X-1.060000X0*%
%ADD44C,1.632000*%
%ADD45C,3.520000*%
%ADD46R,0.200000X0.660000*%
%ADD47R,0.660000X0.200000*%
%ADD48R,2.700000X2.700000*%
%ADD49RoundRect,0.100500X0.301500X-0.986500X0.301500X0.986500X-0.301500X0.986500X-0.301500X-0.986500X0*%
%ADD50RoundRect,0.066600X-0.322900X-0.155400X0.322900X-0.155400X0.322900X0.155400X-0.322900X0.155400X0*%
%ADD51RoundRect,0.066600X-0.155400X-0.322900X0.155400X-0.322900X0.155400X0.322900X-0.155400X0.322900X0*%
%ADD52RoundRect,0.082700X-1.369300X-0.744300X1.369300X-0.744300X1.369300X0.744300X-1.369300X0.744300X0*%
%ADD53RoundRect,0.052700X-1.399300X-0.474300X1.399300X-0.474300X1.399300X0.474300X-1.399300X0.474300X0*%
G04 APERTURE END LIST*
D10*
%TO.C,Q8*%
X77957191Y-126546595D02*
X77957191Y-126961595D01*
X78337191Y-126961595D01*
X78337191Y-127591595D01*
X77957191Y-127591595D01*
X77957191Y-128726595D01*
X77907191Y-128726595D01*
X77907191Y-129026595D01*
X75382191Y-129026595D01*
X75382191Y-128726595D01*
X75307191Y-128726595D01*
X75307191Y-127591595D01*
X74927191Y-127591595D01*
X74927191Y-126961595D01*
X75307191Y-126961595D01*
X75307191Y-126546595D01*
X77957191Y-126546595D01*
G36*
X77957191Y-126961595D02*
G01*
X78337191Y-126961595D01*
X78337191Y-127591595D01*
X77957191Y-127591595D01*
X77957191Y-128726595D01*
X77907191Y-128726595D01*
X77907191Y-129026595D01*
X75382191Y-129026595D01*
X75382191Y-128726595D01*
X75307191Y-128726595D01*
X75307191Y-127591595D01*
X74927191Y-127591595D01*
X74927191Y-126961595D01*
X75307191Y-126961595D01*
X75307191Y-126546595D01*
X77957191Y-126546595D01*
X77957191Y-126961595D01*
G37*
%TO.C,Q6*%
X101256191Y-94616546D02*
X101256191Y-94201546D01*
X100876191Y-94201546D01*
X100876191Y-93571546D01*
X101256191Y-93571546D01*
X101256191Y-92436546D01*
X101306191Y-92436546D01*
X101306191Y-92136546D01*
X103831191Y-92136546D01*
X103831191Y-92436546D01*
X103906191Y-92436546D01*
X103906191Y-93571546D01*
X104286191Y-93571546D01*
X104286191Y-94201546D01*
X103906191Y-94201546D01*
X103906191Y-94616546D01*
X101256191Y-94616546D01*
G36*
X103831191Y-92436546D02*
G01*
X103906191Y-92436546D01*
X103906191Y-93571546D01*
X104286191Y-93571546D01*
X104286191Y-94201546D01*
X103906191Y-94201546D01*
X103906191Y-94616546D01*
X101256191Y-94616546D01*
X101256191Y-94201546D01*
X100876191Y-94201546D01*
X100876191Y-93571546D01*
X101256191Y-93571546D01*
X101256191Y-92436546D01*
X101306191Y-92436546D01*
X101306191Y-92136546D01*
X103831191Y-92136546D01*
X103831191Y-92436546D01*
G37*
%TO.C,Q7*%
X101737809Y-130990000D02*
X101737809Y-131405000D01*
X102117809Y-131405000D01*
X102117809Y-132035000D01*
X101737809Y-132035000D01*
X101737809Y-133170000D01*
X101687809Y-133170000D01*
X101687809Y-133470000D01*
X99162809Y-133470000D01*
X99162809Y-133170000D01*
X99087809Y-133170000D01*
X99087809Y-132035000D01*
X98707809Y-132035000D01*
X98707809Y-131405000D01*
X99087809Y-131405000D01*
X99087809Y-130990000D01*
X101737809Y-130990000D01*
G36*
X101737809Y-131405000D02*
G01*
X102117809Y-131405000D01*
X102117809Y-132035000D01*
X101737809Y-132035000D01*
X101737809Y-133170000D01*
X101687809Y-133170000D01*
X101687809Y-133470000D01*
X99162809Y-133470000D01*
X99162809Y-133170000D01*
X99087809Y-133170000D01*
X99087809Y-132035000D01*
X98707809Y-132035000D01*
X98707809Y-131405000D01*
X99087809Y-131405000D01*
X99087809Y-130990000D01*
X101737809Y-130990000D01*
X101737809Y-131405000D01*
G37*
%TO.C,Q5*%
X101256191Y-89536546D02*
X101256191Y-89121546D01*
X100876191Y-89121546D01*
X100876191Y-88491546D01*
X101256191Y-88491546D01*
X101256191Y-87356546D01*
X101306191Y-87356546D01*
X101306191Y-87056546D01*
X103831191Y-87056546D01*
X103831191Y-87356546D01*
X103906191Y-87356546D01*
X103906191Y-88491546D01*
X104286191Y-88491546D01*
X104286191Y-89121546D01*
X103906191Y-89121546D01*
X103906191Y-89536546D01*
X101256191Y-89536546D01*
G36*
X103831191Y-87356546D02*
G01*
X103906191Y-87356546D01*
X103906191Y-88491546D01*
X104286191Y-88491546D01*
X104286191Y-89121546D01*
X103906191Y-89121546D01*
X103906191Y-89536546D01*
X101256191Y-89536546D01*
X101256191Y-89121546D01*
X100876191Y-89121546D01*
X100876191Y-88491546D01*
X101256191Y-88491546D01*
X101256191Y-87356546D01*
X101306191Y-87356546D01*
X101306191Y-87056546D01*
X103831191Y-87056546D01*
X103831191Y-87356546D01*
G37*
%TD*%
D11*
%TO.C,J1*%
X86892191Y-68658546D03*
X85192191Y-68658546D03*
X87742191Y-68658546D03*
X86042191Y-68658546D03*
X84342191Y-68658546D03*
X83492191Y-68658546D03*
X82642191Y-68658546D03*
X81792191Y-68658546D03*
X81792191Y-67308546D03*
X82642191Y-67308546D03*
X83492191Y-67308546D03*
X84342191Y-67308546D03*
X85192191Y-67308546D03*
X86042191Y-67308546D03*
X86892191Y-67308546D03*
X87742191Y-67308546D03*
D12*
X89092191Y-64298546D03*
X80442191Y-64298546D03*
D13*
X89092191Y-67678546D03*
X80442191Y-67678546D03*
%TD*%
D14*
%TO.C,R3*%
X114488983Y-77725000D03*
X114488983Y-79375000D03*
%TD*%
D15*
%TO.C,R16*%
X175267191Y-74458546D03*
X169342191Y-74458546D03*
%TD*%
D16*
%TO.C,C10*%
X132549691Y-86333546D03*
X132549691Y-87883546D03*
%TD*%
D17*
%TO.C,SW1*%
X187272191Y-138648546D03*
X180772191Y-138648546D03*
X187272191Y-134148546D03*
X180772191Y-134148546D03*
%TD*%
D18*
%TO.C,C7*%
X145629691Y-81143546D03*
X145629691Y-79593546D03*
%TD*%
%TO.C,C20*%
X145212191Y-112838546D03*
X145212191Y-111288546D03*
%TD*%
D16*
%TO.C,C16*%
X131242191Y-100848546D03*
X131242191Y-102398546D03*
%TD*%
D19*
%TO.C,C9*%
X153249691Y-82523546D03*
X153249691Y-74123546D03*
%TD*%
D20*
%TO.C,C6*%
X130530000Y-78323546D03*
X132080000Y-78323546D03*
%TD*%
D21*
%TO.C,J3*%
X217952191Y-97318546D03*
D22*
X223952191Y-97318546D03*
D23*
X220952191Y-92618546D03*
%TD*%
D24*
%TO.C,L1*%
X136739691Y-78323546D03*
X142189691Y-78323546D03*
%TD*%
D14*
%TO.C,R24*%
X97206191Y-102272546D03*
X97206191Y-103922546D03*
%TD*%
D18*
%TO.C,C24*%
X99922400Y-88045412D03*
X99922400Y-86495412D03*
%TD*%
D24*
%TO.C,L3*%
X136322191Y-110018546D03*
X141772191Y-110018546D03*
%TD*%
D25*
%TO.C,Q1*%
X186862191Y-74458546D03*
X182302191Y-74458546D03*
D26*
X184582191Y-81758546D03*
%TD*%
D27*
%TO.C,R14*%
X182422191Y-129068546D03*
X180772191Y-129068546D03*
%TD*%
D28*
%TO.C,R8*%
X125819691Y-91693546D03*
X127469691Y-91693546D03*
%TD*%
%TO.C,R7*%
X125819691Y-86613546D03*
X127469691Y-86613546D03*
%TD*%
D29*
%TO.C,C17*%
X135332191Y-103668546D03*
X133782191Y-103668546D03*
%TD*%
D30*
%TO.C,Q8*%
X77607191Y-125876595D03*
X76957191Y-125876595D03*
X76307191Y-125876595D03*
X75657191Y-125876595D03*
%TD*%
D18*
%TO.C,C14*%
X145249691Y-97053546D03*
X145249691Y-95503546D03*
%TD*%
D20*
%TO.C,C18*%
X130530000Y-108748546D03*
X132080000Y-108748546D03*
%TD*%
%TO.C,C23*%
X101802423Y-86061378D03*
X103352423Y-86061378D03*
%TD*%
%TO.C,C2*%
X111409896Y-77783671D03*
X112959896Y-77783671D03*
%TD*%
D31*
%TO.C,R19*%
X193472191Y-74838546D03*
X193472191Y-73188546D03*
%TD*%
D32*
%TO.C,Q6*%
X101606191Y-95286546D03*
X102256191Y-95286546D03*
X102906191Y-95286546D03*
X103556191Y-95286546D03*
%TD*%
D33*
%TO.C,Q2*%
X195382191Y-71918546D03*
X197282191Y-71918546D03*
X196332191Y-69518546D03*
%TD*%
D14*
%TO.C,R22*%
X98733794Y-104262580D03*
X98733794Y-105912580D03*
%TD*%
%TO.C,R1*%
X109689691Y-77090000D03*
X109689691Y-78740000D03*
%TD*%
D34*
%TO.C,U5*%
X132512191Y-106838546D03*
X132512191Y-105888546D03*
X132512191Y-104938546D03*
X130002191Y-104938546D03*
X130002191Y-105888546D03*
X130002191Y-106838546D03*
%TD*%
D16*
%TO.C,C3*%
X116170613Y-77222653D03*
X116170613Y-78772653D03*
%TD*%
D29*
%TO.C,C11*%
X135864691Y-89153546D03*
X134314691Y-89153546D03*
%TD*%
D35*
%TO.C,R27*%
X81809425Y-128279724D03*
X81809425Y-122354724D03*
%TD*%
D36*
%TO.C,U1*%
X100144691Y-71298546D03*
X100144691Y-70298546D03*
X100144691Y-69298546D03*
X100144691Y-68298546D03*
X100144691Y-67298546D03*
X94869691Y-67298546D03*
X94869691Y-68298546D03*
X94869691Y-69298546D03*
X94869691Y-70298546D03*
X94869691Y-71298546D03*
D37*
X97507191Y-69298546D03*
%TD*%
D38*
%TO.C,DS1*%
X197282191Y-137958546D03*
X226982191Y-137958546D03*
X197282191Y-106458546D03*
X226982191Y-106458546D03*
D39*
X196582191Y-126018546D03*
D40*
X196582191Y-123478546D03*
X196582191Y-120938546D03*
X196582191Y-118398546D03*
%TD*%
D16*
%TO.C,C8*%
X145629691Y-75783546D03*
X145629691Y-77333546D03*
%TD*%
D41*
%TO.C,U6*%
X189662191Y-111288546D03*
X187122191Y-111288546D03*
X184582191Y-111288546D03*
X182042191Y-111288546D03*
X176962191Y-111288546D03*
X179502191Y-111288546D03*
X171882191Y-126528546D03*
X171882191Y-111288546D03*
X174422191Y-126528546D03*
X176962191Y-126528546D03*
X179502191Y-126528546D03*
X182042191Y-126528546D03*
X184582191Y-126528546D03*
X187122191Y-126528546D03*
X189662191Y-126528546D03*
X174422191Y-111288546D03*
%TD*%
D14*
%TO.C,R23*%
X95639039Y-102301763D03*
X95639039Y-103951763D03*
%TD*%
D33*
%TO.C,Q3*%
X195382191Y-90968546D03*
X197282191Y-90968546D03*
X196332191Y-88568546D03*
%TD*%
D16*
%TO.C,C13*%
X145249691Y-91413546D03*
X145249691Y-92963546D03*
%TD*%
%TO.C,C28*%
X114229568Y-89589128D03*
X114229568Y-91139128D03*
%TD*%
D35*
%TO.C,R26*%
X105492809Y-130810000D03*
X105492809Y-124885000D03*
%TD*%
D42*
%TO.C,C30*%
X114986191Y-97826546D03*
X114986191Y-106226546D03*
%TD*%
D20*
%TO.C,C27*%
X100285988Y-105965101D03*
X101835988Y-105965101D03*
%TD*%
D31*
%TO.C,R20*%
X193472191Y-93508546D03*
X193472191Y-91858546D03*
%TD*%
D43*
%TO.C,D1*%
X213792191Y-74038546D03*
X213792191Y-78268546D03*
%TD*%
D28*
%TO.C,R2*%
X111137560Y-79363874D03*
X112787560Y-79363874D03*
%TD*%
D44*
%TO.C,J5*%
X75153181Y-131686714D03*
X77653181Y-131686714D03*
X79653181Y-131686714D03*
X82153181Y-131686714D03*
D45*
X72083181Y-134396714D03*
X85223181Y-134396714D03*
%TD*%
D30*
%TO.C,Q7*%
X101387809Y-130320000D03*
X100737809Y-130320000D03*
X100087809Y-130320000D03*
X99437809Y-130320000D03*
%TD*%
D46*
%TO.C,SW2*%
X101086191Y-103616546D03*
X101486191Y-103616546D03*
X101886191Y-103616546D03*
X102286191Y-103616546D03*
X102686191Y-103616546D03*
X103086191Y-103616546D03*
X103486191Y-103616546D03*
D47*
X104196191Y-102906546D03*
X104196191Y-102506546D03*
X104196191Y-102106546D03*
X104196191Y-101706546D03*
X104196191Y-101306546D03*
X104196191Y-100906546D03*
X104196191Y-100506546D03*
D46*
X103486191Y-99796546D03*
X103086191Y-99796546D03*
X102686191Y-99796546D03*
X102286191Y-99796546D03*
X101886191Y-99796546D03*
X101486191Y-99796546D03*
X101086191Y-99796546D03*
D47*
X100376191Y-100506546D03*
X100376191Y-100906546D03*
X100376191Y-101306546D03*
X100376191Y-101706546D03*
X100376191Y-102106546D03*
X100376191Y-102506546D03*
X100376191Y-102906546D03*
D48*
X102286191Y-101706546D03*
%TD*%
D24*
%TO.C,L2*%
X135989691Y-94233546D03*
X141439691Y-94233546D03*
%TD*%
D14*
%TO.C,R21*%
X190932191Y-89318546D03*
X190932191Y-90968546D03*
%TD*%
D28*
%TO.C,R10*%
X125782191Y-101188546D03*
X127432191Y-101188546D03*
%TD*%
%TO.C,R4*%
X126199691Y-75783546D03*
X127849691Y-75783546D03*
%TD*%
%TO.C,R9*%
X125819691Y-89153546D03*
X127469691Y-89153546D03*
%TD*%
D21*
%TO.C,J2*%
X217952191Y-78268546D03*
D22*
X223952191Y-78268546D03*
D23*
X220952191Y-73568546D03*
%TD*%
D29*
%TO.C,C25*%
X107950000Y-100965000D03*
X106400000Y-100965000D03*
%TD*%
D18*
%TO.C,C26*%
X106397007Y-99529489D03*
X106397007Y-97979489D03*
%TD*%
D29*
%TO.C,C29*%
X115742813Y-93103221D03*
X114192813Y-93103221D03*
%TD*%
D16*
%TO.C,C5*%
X131659691Y-70423546D03*
X131659691Y-71973546D03*
%TD*%
D32*
%TO.C,Q5*%
X101606191Y-90206546D03*
X102256191Y-90206546D03*
X102906191Y-90206546D03*
X103556191Y-90206546D03*
%TD*%
D29*
%TO.C,C4*%
X135469691Y-73243546D03*
X133919691Y-73243546D03*
%TD*%
D28*
%TO.C,R5*%
X126199691Y-73243546D03*
X127849691Y-73243546D03*
%TD*%
D19*
%TO.C,C21*%
X152832191Y-115878546D03*
X152832191Y-107478546D03*
%TD*%
D25*
%TO.C,Q4*%
X186602191Y-93508546D03*
X182042191Y-93508546D03*
D26*
X184322191Y-100808546D03*
%TD*%
D43*
%TO.C,D2*%
X213792191Y-93088546D03*
X213792191Y-97318546D03*
%TD*%
D28*
%TO.C,R12*%
X125782191Y-103668546D03*
X127432191Y-103668546D03*
%TD*%
D20*
%TO.C,C12*%
X130530000Y-93980000D03*
X132080000Y-93980000D03*
%TD*%
D11*
%TO.C,J4*%
X98625000Y-136138546D03*
X99475000Y-136138546D03*
X100325000Y-136138546D03*
X101175000Y-136138546D03*
X102025000Y-136138546D03*
X102875000Y-136138546D03*
X103725000Y-136138546D03*
X104575000Y-136138546D03*
X104575000Y-137488546D03*
X103725000Y-137488546D03*
X102875000Y-137488546D03*
X102025000Y-137488546D03*
X101175000Y-137488546D03*
X100325000Y-137488546D03*
X99475000Y-137488546D03*
X98625000Y-137488546D03*
D12*
X97275000Y-140498546D03*
X105925000Y-140498546D03*
D13*
X97275000Y-137118546D03*
X105925000Y-137118546D03*
%TD*%
D20*
%TO.C,C22*%
X99415000Y-97423760D03*
X100965000Y-97423760D03*
%TD*%
D15*
%TO.C,R17*%
X175692191Y-92663546D03*
X169767191Y-92663546D03*
%TD*%
D14*
%TO.C,R18*%
X190932191Y-70268546D03*
X190932191Y-71918546D03*
%TD*%
D16*
%TO.C,C19*%
X145212191Y-107198546D03*
X145212191Y-108748546D03*
%TD*%
D49*
%TO.C,U7*%
X171882191Y-84618546D03*
X173152191Y-84618546D03*
X174422191Y-84618546D03*
X175692191Y-84618546D03*
X175692191Y-79678546D03*
X174422191Y-79678546D03*
X173152191Y-79678546D03*
X171882191Y-79678546D03*
%TD*%
D16*
%TO.C,C1*%
X100507191Y-72548546D03*
X100507191Y-74098546D03*
%TD*%
D28*
%TO.C,R11*%
X125782191Y-106208546D03*
X127432191Y-106208546D03*
%TD*%
%TO.C,R6*%
X126199691Y-70703546D03*
X127849691Y-70703546D03*
%TD*%
D19*
%TO.C,C15*%
X152869691Y-100093546D03*
X152869691Y-91693546D03*
%TD*%
D34*
%TO.C,U3*%
X132899691Y-76413546D03*
X132899691Y-75463546D03*
X132899691Y-74513546D03*
X130389691Y-74513546D03*
X130389691Y-75463546D03*
X130389691Y-76413546D03*
%TD*%
D50*
%TO.C,U2*%
X111587191Y-72728546D03*
X111587191Y-73228546D03*
X111587191Y-73728546D03*
X111587191Y-74228546D03*
X111587191Y-74728546D03*
X111587191Y-75228546D03*
D51*
X112249691Y-75891046D03*
X112749691Y-75891046D03*
X113249691Y-75891046D03*
X113749691Y-75891046D03*
X114249691Y-75891046D03*
X114749691Y-75891046D03*
D50*
X115412191Y-75228546D03*
X115412191Y-74728546D03*
X115412191Y-74228546D03*
X115412191Y-73728546D03*
X115412191Y-73228546D03*
X115412191Y-72728546D03*
D51*
X114749691Y-72066046D03*
X114249691Y-72066046D03*
X113749691Y-72066046D03*
X113249691Y-72066046D03*
X112749691Y-72066046D03*
X112249691Y-72066046D03*
D52*
X113499691Y-73353546D03*
D53*
X113499691Y-74903546D03*
%TD*%
D27*
%TO.C,R15*%
X181152191Y-108748546D03*
X179502191Y-108748546D03*
%TD*%
D28*
%TO.C,R13*%
X177420000Y-129068546D03*
X179070000Y-129068546D03*
%TD*%
D24*
%TO.C,L4*%
X106235196Y-91390798D03*
X111685196Y-91390798D03*
%TD*%
D27*
%TO.C,R25*%
X104952191Y-106680000D03*
X103302191Y-106680000D03*
%TD*%
D49*
%TO.C,U8*%
X171882191Y-103668546D03*
X173152191Y-103668546D03*
X174422191Y-103668546D03*
X175692191Y-103668546D03*
X175692191Y-98728546D03*
X174422191Y-98728546D03*
X173152191Y-98728546D03*
X171882191Y-98728546D03*
%TD*%
D34*
%TO.C,U4*%
X132549691Y-91693546D03*
X132549691Y-90743546D03*
X132549691Y-89793546D03*
X130039691Y-89793546D03*
X130039691Y-90743546D03*
X130039691Y-91693546D03*
%TD*%
M02*
